<?xml version="1.0" encoding="iso-8859-1"?>
<!-- Generator: Adobe Illustrator 19.0.0, SVG Export Plug-In . SVG Version: 6.00 Build 0)  -->
<svg version="1.1" id="Layer_1" xmlns="http://www.w3.org/2000/svg" xmlns:xlink="http://www.w3.org/1999/xlink" x="0px" y="0px"
	 viewBox="0 0 512.001 512.001" style="enable-background:new 0 0 512.001 512.001;" xml:space="preserve">
<g style="enable-background:new    ;">
	<path style="fill:#97C7EF;" d="M354.805,439.35l0.613-263.819c-0.001,0.467-0.013,0.933-0.033,1.4
		c0.021-0.466,0.032-0.933,0.033-1.4c-0.01-2.485-0.122-5.799-0.28-8.28c-0.125-1.983-0.405-4.619-0.661-6.589
		c-0.317-2.443-0.881-5.681-1.359-8.098c-0.379-1.916-1.05-4.436-1.5-6.337c-0.568-2.401-1.628-5.524-2.423-7.861
		c-0.62-1.82-1.602-4.19-2.29-5.985c-0.897-2.339-2.344-5.359-3.501-7.581c-0.874-1.677-2.048-3.91-3.02-5.533
		c-1.33-2.222-3.221-5.113-4.645-7.277c-1.521-2.313-3.763-5.265-5.591-7.344c-2.407-2.738-5.586-6.44-8.286-8.889
		c-1.33-1.207-3.044-2.886-4.442-4.014c-2.732-2.205-6.387-5.147-9.314-7.087c-3.764-2.495-6.151-3.912-9.163-5.504
		c1.068-2.224,1.619-4.514,1.625-6.808l0.133-46.716c0,0.053-0.006,0.107-0.007,0.159c0.088-6.473-4.046-12.975-12.451-17.999
		c-16.95-10.132-44.827-10.414-62.265-0.629c-9.07,5.09-13.518,11.9-13.324,18.69c-0.004-0.156-0.018-0.31-0.018-0.466l-0.13,46.718
		c-0.006,2.312,0.535,4.626,1.609,6.873c-0.841,0.451-1.68,0.909-2.404,1.289l0,0c-2.46,1.442-5.675,3.473-8.062,5.031
		c-1.045,0.682-2.381,1.678-3.376,2.432c-1.404,1.067-3.267,2.507-4.599,3.663c-2.028,1.762-4.695,4.159-6.592,6.059
		c-10.014,10.034-15.444,19.441-17.507,23.024c-0.947,1.644-2.135,3.879-2.96,5.586c-1.061,2.193-2.408,5.151-3.322,7.409
		c-2.618,6.476-3.971,11.599-4.547,13.787c-0.499,1.893-1.082,4.44-1.446,6.363c-0.456,2.406-0.97,5.634-1.281,8.063
		c-0.508,3.963-0.694,9.299-0.822,13.293c-0.002,0.903,0.031,1.807,0.102,2.709c-0.071-0.903-0.104-1.806-0.102-2.709
		l-0.613,263.819c0,0.016,0.001,0.031,0.001,0.047c0-0.016-0.001-0.032-0.001-0.047c-0.002,0.553,0.016,1.105,0.041,1.659v-0.001
		c0.017,0.35,0.033,0.701,0.061,1.051c-0.027-0.35-0.045-0.7-0.061-1.05c0.055,1.566,0.158,3.283,0.284,4.662
		c0.125,1.376,0.457,3.193,0.667,4.56c0.328,2.138,1.121,4.926,1.754,6.993c0.686,2.24,1.818,5.166,2.834,7.278
		c1.244,2.586,3.161,5.91,4.68,8.344c1.537,2.462,4.007,5.466,5.907,7.66c1.592,1.839,3.928,4.102,5.711,5.757
		c1.221,1.133,2.901,2.594,4.243,3.581c2.769,2.035,6.517,4.682,9.445,6.481c1.877,1.154,4.475,2.528,6.436,3.529
		c1.63,0.832,3.851,1.843,5.528,2.575c5.055,2.205,9.579,3.625,12.283,4.472c0.903,0.283,5.747,1.763,12.527,3.093
		c6.799,1.334,12.66,1.856,12.717,1.861c1.914,0.167,4.467,0.428,6.387,0.491c1.923,0.062,4.486,0.187,6.409,0.207
		c1.927,0.02,4.495-0.053,6.421-0.077c3.793-0.047,7.784-0.475,12.838-1.018c0.056-0.006,6.082-0.703,12.776-2.221
		c3.86-0.877,8.429-2.082,12.666-3.553c2.093-0.726,4.861-1.764,6.912-2.602c1.707-0.698,3.931-1.752,5.61-2.515
		c2.233-1.015,5.135-2.546,7.209-3.852c2.937-1.849,6.875-4.312,9.577-6.491c1.964-1.584,4.506-3.793,6.353-5.51
		c1.157-1.075,2.634-2.586,3.654-3.792c1.775-2.097,4.036-4.984,5.652-7.207c0.866-1.192,1.837-2.906,2.609-4.161
		c0.824-1.341,1.751-3.23,2.425-4.653c0.604-1.275,1.31-3.02,1.833-4.33c0.521-1.307,1.123-3.091,1.488-4.45
		c0.558-2.077,1.191-4.876,1.583-6.991c0.348-1.875,0.519-4.212,0.632-6.394c-0.021,0.233-0.054,0.466-0.079,0.699
		c0.025-0.233,0.059-0.466,0.079-0.699C354.759,441.24,354.803,440.296,354.805,439.35L354.805,439.35z"/>
	<g>
		<path style="fill:#E0E0E2;" d="M355.419,175.531c-0.001,0.467-0.013,0.933-0.033,1.4c-0.125,2.799-0.602,5.592-1.428,8.356
			c0.828-2.764,1.304-5.558,1.428-8.356C355.407,176.465,355.417,175.998,355.419,175.531c-0.01-2.485-0.123-5.799-0.28-8.28
			c-0.125-1.983-0.405-4.619-0.661-6.589c-0.317-2.443-0.881-5.681-1.359-8.098c-0.379-1.916-1.05-4.436-1.5-6.337
			c-0.568-2.401-1.628-5.524-2.423-7.861c-0.62-1.82-1.602-4.19-2.29-5.985c-0.897-2.339-2.344-5.359-3.501-7.581
			c-0.874-1.677-2.048-3.91-3.02-5.533c-1.33-2.222-3.221-5.113-4.645-7.277c-1.521-2.313-3.763-5.265-5.591-7.344
			c-2.407-2.738-5.586-6.44-8.286-8.889c-1.33-1.207-3.044-2.886-4.442-4.014c-2.732-2.205-6.387-5.147-9.314-7.087
			c-4.737-3.141-7.29-4.571-11.657-6.797c-1.941-0.99-6.447-3.052-10.27-4.377c-1.448-0.502-3.378-1.184-4.857-1.59
			c-2.499-0.689-5.853-1.542-8.394-2.061c-1.228-0.251-2.874-0.546-4.118-0.701c-5.071-0.63-5.375-0.668-7.772-0.777
			c-1.142-0.052-2.665-0.112-3.81-0.123c-1.143-0.011-2.669,0.031-3.812,0.046c-1.179,0.015-2.748,0.124-3.922,0.225
			c-2.371,0.202-5.517,0.634-7.869,0.995c-1.35,0.206-3.137,0.571-4.465,0.891c-1.529,0.369-3.576,0.836-5.076,1.306
			c-2.719,0.852-6.32,2.066-8.977,3.096c-2.018,0.783-4.636,2.006-6.587,2.942c-1.47,0.706-3.369,1.772-4.812,2.531l0,0
			c-2.46,1.442-5.675,3.473-8.062,5.031c-1.045,0.682-2.381,1.678-3.376,2.432c-1.404,1.067-3.267,2.507-4.599,3.663
			c-2.028,1.762-4.695,4.159-6.592,6.059c-10.014,10.034-15.444,19.441-17.507,23.024c-0.947,1.644-2.135,3.879-2.96,5.586
			c-1.061,2.193-2.408,5.151-3.322,7.409c-2.618,6.476-3.971,11.599-4.547,13.787c-0.499,1.893-1.083,4.44-1.446,6.363
			c-0.456,2.406-0.97,5.634-1.281,8.063c-0.508,3.963-0.694,9.299-0.822,13.293c-0.002,0.903,0.031,1.807,0.102,2.709
			c0.141,1.806,0.428,3.608,0.863,5.402c0.217,0.897,0.47,1.791,0.761,2.683c-0.29-0.891-0.544-1.786-0.761-2.683
			c-0.434-1.794-0.722-3.596-0.863-5.402c-0.071-0.903-0.104-1.806-0.102-2.709l-0.613,263.819c0,0.016,0.001,0.031,0.001,0.047
			c0-0.016-0.001-0.032-0.001-0.047c-0.002,0.553,0.016,1.105,0.041,1.659v-0.001c0.017,0.35,0.033,0.701,0.061,1.051
			c0.141,1.806,0.428,3.608,0.863,5.402c0.217,0.897,0.47,1.791,0.761,2.683c-0.29-0.891-0.544-1.786-0.761-2.683
			c-0.434-1.793-0.722-3.596-0.863-5.402c-0.027-0.35-0.045-0.7-0.061-1.05c0.055,1.566,0.158,3.283,0.284,4.662
			c0.125,1.376,0.457,3.193,0.667,4.56c0.328,2.138,1.121,4.926,1.754,6.993c0.686,2.24,1.818,5.166,2.834,7.278
			c1.244,2.586,3.161,5.91,4.68,8.344c1.537,2.462,4.007,5.466,5.907,7.66c1.592,1.839,3.928,4.102,5.711,5.757
			c1.221,1.133,2.901,2.594,4.243,3.581c2.769,2.035,6.517,4.682,9.445,6.481c1.877,1.154,4.475,2.528,6.436,3.529
			c1.63,0.832,3.851,1.843,5.528,2.575c5.055,2.205,9.579,3.625,12.283,4.472c0.903,0.283,5.747,1.763,12.527,3.093
			c6.799,1.334,12.66,1.856,12.717,1.861c1.914,0.167,4.467,0.428,6.387,0.491c1.923,0.062,4.486,0.187,6.409,0.207
			c1.927,0.02,4.495-0.053,6.421-0.077c3.793-0.047,7.784-0.475,12.838-1.018c0.056-0.006,6.082-0.703,12.776-2.221
			c3.86-0.877,8.429-2.082,12.666-3.553c2.093-0.726,4.861-1.764,6.912-2.602c1.707-0.698,3.931-1.752,5.61-2.515
			c2.233-1.015,5.135-2.546,7.209-3.853c2.937-1.849,6.875-4.312,9.577-6.491c1.964-1.584,4.506-3.793,6.353-5.51
			c1.157-1.075,2.634-2.586,3.654-3.792c1.775-2.097,4.036-4.984,5.652-7.207c0.866-1.192,1.837-2.906,2.609-4.161
			c0.824-1.341,1.751-3.23,2.425-4.653c0.604-1.275,1.31-3.02,1.833-4.33c0.521-1.307,1.123-3.091,1.488-4.45
			c0.558-2.077,1.191-4.876,1.583-6.991c0.348-1.875,0.519-4.212,0.632-6.394c-0.204,2.319-0.648,4.631-1.333,6.922
			c0.686-2.291,1.131-4.604,1.333-6.922v0.001c0.083-0.944,0.126-1.889,0.129-2.834l0,0L355.419,175.531z M285.85,75.896
			c15.733,9.405,15.366,24.393-0.82,33.475s-42.062,8.821-57.795-0.584s-15.366-24.393,0.82-33.475l0,0
			C244.241,66.23,270.117,66.491,285.85,75.896z M222.787,76.108c-0.415,0.089-0.828,0.182-1.236,0.283
			C221.96,76.29,222.372,76.197,222.787,76.108z M217.457,77.633c-0.666,0.241-1.322,0.499-1.97,0.775
			C216.135,78.133,216.793,77.874,217.457,77.633z"/>
		<path style="fill:#E0E0E2;" d="M297.414,92.455c0.017-5.959-3.826-11.935-11.564-16.559c-15.733-9.405-41.608-9.666-57.795-0.584
			l0.123-43.362c16.186-9.082,42.062-8.821,57.795,0.584c7.737,4.626,11.58,10.6,11.564,16.559
			C297.499,62.103,297.45,79.447,297.414,92.455z"/>
		<path style="fill:#E0E0E2;" d="M215.794,48.866c0.018-6.159,4.158-12.299,12.384-16.916l-0.123,43.362
			c-8.226,4.616-12.366,10.757-12.384,16.916C215.708,79.219,215.757,61.875,215.794,48.866z"/>
	</g>
	<path style="fill:#D8D8DA;" d="M215.671,92.228l0.123-43.362c-0.017,5.959,3.826,11.935,11.564,16.559
		c15.733,9.405,41.608,9.666,57.795,0.584c8.226-4.616,12.366-10.757,12.384-16.916l-0.123,43.362
		c-0.018,6.159-4.158,12.299-12.384,16.916c-16.186,9.082-42.062,8.821-57.795-0.584C219.498,104.162,215.654,98.187,215.671,92.228
		z"/>
	<path style="fill:#E0E0E2;" d="M228.178,31.95c16.186-9.082,42.062-8.821,57.795,0.584c15.733,9.405,15.366,24.393-0.82,33.475
		s-42.062,8.821-57.795-0.584C211.625,56.02,211.991,41.033,228.178,31.95z"/>
	<path style="fill:#3D99E2;" d="M300.695,25.79c0.088-6.473-4.047-12.975-12.451-17.999c-16.95-10.132-44.827-10.414-62.265-0.629
		c-9.07,5.09-13.518,11.899-13.324,18.689c-0.004-0.155-0.018-0.31-0.018-0.465l-0.133,46.716
		c-0.018,6.42,4.122,12.857,12.458,17.84c16.95,10.132,44.827,10.414,62.265,0.629c8.863-4.973,13.323-11.589,13.342-18.224
		l0.133-46.715C300.702,25.684,300.696,25.738,300.695,25.79z"/>
	<path style="fill:#1D81CD;" d="M212.505,72.101l0.133-46.716c-0.018,6.42,4.122,12.857,12.458,17.84
		c16.95,10.132,44.827,10.414,62.265,0.629c8.863-4.973,13.323-11.589,13.342-18.224l-0.133,46.716
		c-0.019,6.635-4.479,13.251-13.342,18.224c-17.438,9.785-45.314,9.503-62.265-0.629C216.627,84.957,212.488,78.521,212.505,72.101z
		"/>
	<path style="fill:#B3D8F5;" d="M195.619,168.904c34.453-19.332,89.531-18.777,123.019,1.243s32.707,51.92-1.746,71.254
		c-34.453,19.333-89.531,18.777-123.019-1.243S161.166,188.238,195.619,168.904z"/>
	<path style="fill:#E0E0E2;" d="M199.952,473.533c-2.569-1.579-5.86-3.903-8.29-5.689c-1.178-0.866-2.653-2.149-3.724-3.143
		c-1.565-1.452-3.615-3.439-5.013-5.053c-1.668-1.926-3.836-4.563-5.185-6.723c-1.334-2.137-3.017-5.054-4.108-7.325
		c-0.891-1.854-1.885-4.422-2.488-6.387c-0.556-1.816-1.252-4.262-1.54-6.139c-0.184-1.2-0.474-2.794-0.585-4.002
		c-0.152-1.659-0.265-3.882-0.285-5.548c-0.036,12.684,8.145,25.403,24.614,35.248c33.489,20.02,88.566,20.576,123.02,1.243
		c17.51-9.825,26.323-22.898,26.36-36.006l0,0c-0.103,2.436-0.224,5.703-0.668,8.1c-0.344,1.856-0.9,4.313-1.39,6.137
		c-0.321,1.193-0.848,2.759-1.306,3.906c-0.459,1.15-1.078,2.682-1.608,3.8c-0.591,1.249-1.405,2.907-2.129,4.083
		c-0.678,1.101-1.53,2.606-2.29,3.652c-1.418,1.951-3.403,4.485-4.961,6.326c-0.895,1.058-2.192,2.384-3.208,3.328
		c-1.622,1.508-3.852,3.446-5.577,4.837c-2.372,1.912-5.829,4.073-8.407,5.697c-1.821,1.147-4.369,2.491-6.328,3.382
		c-1.473,0.67-3.425,1.596-4.925,2.208c-1.8,0.736-4.23,1.646-6.067,2.283c-3.719,1.289-7.729,2.349-11.118,3.118
		c-5.875,1.333-11.165,1.945-11.214,1.951c-4.436,0.476-7.94,0.853-11.269,0.893c-1.691,0.021-3.945,0.085-5.636,0.068
		c-1.689-0.017-3.938-0.126-5.627-0.182c-1.686-0.054-3.926-0.284-5.607-0.43c-0.051-0.004-5.195-0.462-11.164-1.633
		c-5.952-1.168-10.204-2.467-10.996-2.716c-2.373-0.745-6.345-1.991-10.781-3.926c-1.472-0.642-3.422-1.53-4.853-2.26
		C203.881,475.751,201.599,474.544,199.952,473.533z"/>
	<g>
		<path style="fill:#97C7EF;" d="M343.143,202.845c1.173,13.949-7.605,28.094-26.251,38.556
			c-34.453,19.332-89.531,18.777-123.019-1.243c-17.571-10.503-25.701-24.278-24.49-37.791c-0.073-0.862-0.113-1.726-0.111-2.589
			l-0.538,237.366c-0.036,12.684,8.145,25.403,24.614,35.248c33.489,20.019,88.566,20.576,123.02,1.243
			c17.51-9.825,26.323-22.898,26.36-36.006l0.538-237.366C343.264,201.124,343.221,201.985,343.143,202.845z"/>
		<polygon style="fill:#97C7EF;" points="354.676,442.184 354.676,442.184 354.676,442.185 		"/>
	</g>
</g>
<g>
</g>
<g>
</g>
<g>
</g>
<g>
</g>
<g>
</g>
<g>
</g>
<g>
</g>
<g>
</g>
<g>
</g>
<g>
</g>
<g>
</g>
<g>
</g>
<g>
</g>
<g>
</g>
<g>
</g>
</svg>
