<?xml version="1.0" encoding="iso-8859-1"?>
<!-- Generator: Adobe Illustrator 19.0.0, SVG Export Plug-In . SVG Version: 6.00 Build 0)  -->
<svg version="1.1" id="Capa_1" xmlns="http://www.w3.org/2000/svg" xmlns:xlink="http://www.w3.org/1999/xlink" x="0px" y="0px"
	 viewBox="0 0 512 512" style="enable-background:new 0 0 512 512;" xml:space="preserve">
<g>
	<polygon style="fill:#A50020;" points="512,214.663 174.803,17.752 0.121,119.265 0,161.918 3.493,163.923 3.493,301.062 
		337.318,494.248 508.922,392.735 508.922,259.051 511.88,257.316 	"/>
	<polygon style="fill:#A50020;" points="337.318,350.807 508.922,249.293 508.922,392.735 337.318,494.248 	"/>
</g>
<g>
	<polygon style="fill:#C60024;" points="3.493,157.62 181.936,56.106 508.922,249.293 337.318,350.807 	"/>
	<polygon style="fill:#C60024;" points="337.318,350.807 337.318,494.248 3.493,301.062 3.493,157.62 	"/>
	<polygon style="fill:#C60024;" points="337.318,316.177 512,214.663 511.88,257.316 337.318,358.829 	"/>
</g>
<polygon style="fill:#FF3E61;" points="0.121,119.265 174.803,17.752 512,214.663 337.318,316.177 "/>
<g style="enable-background:new    ;">
	<path style="fill:#FFFFFF;" d="M399.724,182.989l-19.523-11.271c-28.596-16.51-165.791-25.783-165.791-25.783l-68.675-22.347
		c-8.57-2.791-19.279-1.938-26.192,2.079l-14.972,8.701l91.08,52.585c3.123,1.802,7.347,2.813,11.749,2.817l105.775-0.005
		c8.686,0,17.032,2.002,23.195,5.561l-49.956,44.029l8.185,4.726l62.902-36.554L399.724,182.989z"/>
</g>
<polygon style="fill:#FE0B37;" points="337.318,316.177 337.318,358.829 0,161.918 0.121,119.265 "/>
<g>
</g>
<g>
</g>
<g>
</g>
<g>
</g>
<g>
</g>
<g>
</g>
<g>
</g>
<g>
</g>
<g>
</g>
<g>
</g>
<g>
</g>
<g>
</g>
<g>
</g>
<g>
</g>
<g>
</g>
</svg>
