<svg height="512pt" viewBox="-77 0 512 512" width="512pt" xmlns="http://www.w3.org/2000/svg"><path d="m0 134.4375 232.847656-134.4375 126.113282 73.359375-232.847657 134.433594zm0 0" fill="#d6e5e5"/><path d="m358.960938 73.359375v304.203125l-232.847657 134.4375v-304.207031zm0 0" fill="#b6c5ce"/><path d="m324.277344 133.433594v224.105468l-163.480469 94.382813v-224.101563zm0 0" fill="#83c7e5"/><path d="m0 134.4375v304.203125l126.113281 73.359375v-304.207031zm0 0" fill="#8e9daf"/><path d="m324.277344 133.433594-142.390625 82.207031-21.089844 40.296875v195.117188l163.480469-312.359376zm0 0" fill="#9ae3f4"/><path d="m324.277344 350.152344v-145.164063l-114.414063 218.609375 108.875-62.859375zm0 0" fill="#9ae3f4"/><path d="m295.945312 235.671875-33.777343 19.5v-45.035156l-39.261719 22.667969v45.035156l-33.773438 19.5v52.347656l33.773438-19.503906v45.039062l39.261719-22.667968v-45.035157l33.777343-19.503906zm0 0" fill="#e84c3d"/><path d="m357.03125 231.296875c0 11.261719-6.847656 24.34375-15.292969 29.21875-8.445312 4.875-15.292969-.300781-15.292969-11.5625 0-11.257813 6.847657-24.34375 15.292969-29.21875 8.445313-4.875 15.292969.300781 15.292969 11.5625zm0 0" fill="#d6e5e5"/><path d="m355.578125 237.570312c0 6.640626-4.035156 14.347657-9.011719 17.222657-4.976562 2.871093-9.011718-.179688-9.011718-6.8125 0-6.636719 4.035156-14.347657 9.011718-17.222657 4.976563-2.871093 9.011719.175782 9.011719 6.8125zm0 0" fill="#8e9daf"/></svg>