<svg height="512pt" viewBox="-14 0 512 512.00102" width="512pt" xmlns="http://www.w3.org/2000/svg"><path d="m9.945312 126.816406 474.984376 161.152344-15.828126 95.039062-15.828124-9.140624v-3.847657l-190.492188 110.542969v22.300781l-15.828125 9.136719-15.828125-9.136719v-22.300781l.035156-.003906-199.503906-115.5v3.914062l-15.828125 9.136719-15.828125-9.136719v-224.933594c0-7.105468 3.792969-13.671874 9.945312-17.222656zm0 0" fill="#0c2056"/><path d="m249.84375 10.421875s0 0-.003906 0l-14.464844-8.636719c-2.25-1.90625-5.578125-2.46875-8.484375-.789062l-216.945313 125.820312c-6.152343 3.550782-9.945312 10.117188-9.945312 17.222656l16.144531 9.714844v138.917969l237.972657-137.960937v-137.601563c0-3.089844-1.820313-5.539063-4.273438-6.6875zm-.742188-.296875c-.027343-.011719-.054687-.019531-.078124-.027344.023437.007813.050781.015625.078124.027344zm-.792968-.226562c-.054688-.011719-.109375-.023438-.160156-.035157.050781.011719.105468.023438.160156.035157zm-.828125-.136719c-.085938-.007813-.167969-.015625-.253907-.019531.085938.003906.167969.011718.253907.019531zm-.863281-.039063c-.113282 0-.226563.007813-.34375.015625.117187-.007812.230468-.015625.34375-.015625zm-2.691407.546875c-.300781.125-.597656.269531-.894531.441407.296875-.171876.59375-.316407.894531-.441407zm1.808594-.484375c-.148437.019532-.292969.050782-.4375.082032.144531-.03125.289063-.0625.4375-.082032zm-.902344.179688c-.183593.050781-.367187.117187-.550781.183594.183594-.066407.367188-.132813.550781-.183594zm0 0" fill="#2b5d99"/><path d="m484.929688 287.96875-230.8125-133.257812-237.976563 137.960937 230.8125 133.257813zm0 0" fill="#2b5d99"/><path d="m31.65625 365.054688v3.917968l-15.828125 9.136719v-22.214844zm0 0" fill="#0c2056"/><path d="m16.140625 292.671875v-138.917969c0-7.109375 3.792969-13.675781 9.945313-17.226562l216.945312-125.816406c4.925781-2.847657 11.085938.710937 11.085938 6.398437v137.601563zm0 0" fill="#0b4784"/><path d="m39.1875 238.058594 208.890625-121.167969c4.476563-2.585937 9.996094-2.585937 14.472656 0l199.335938 115.085937c3.15625 1.824219 4.734375 5.011719 4.734375 8.203126v42.992187c0 3.1875-1.578125 6.378906-4.734375 8.203125l-208.890625 121.167969c-4.480469 2.585937-9.996094 2.585937-14.472656 0l-199.335938-115.085938c-3.160156-1.824219-4.738281-5.015625-4.738281-8.203125v-42.992187c0-3.191407 1.578125-6.378907 4.738281-8.203125zm0 0" fill="#b6c5ce"/><path d="m461.886719 231.976562-199.335938-115.085937c-4.476562-2.585937-9.996093-2.585937-14.472656 0l-208.890625 121.167969c-6.316406 3.644531-6.316406 12.761718 0 16.40625l199.335938 115.085937c4.476562 2.585938 9.992187 2.585938 14.472656 0l208.890625-121.167969c6.316406-3.644531 6.316406-12.761718 0-16.40625zm0 0" fill="#e4f2f1"/><path d="m484.929688 251.828125v122.039063l-15.828126 9.140624v-22.128906l-206.320312 119.683594v22.300781l-15.828125 9.136719v-122.210938zm0 0" fill="#0b4784"/><path d="m0 144.039062c0-7.105468 3.792969-13.671874 9.945312-17.222656l216.945313-125.820312c2.90625-1.675782 6.234375-1.113282 8.484375.789062l14.464844 8.636719h.003906c-2.058594-.964844-4.5625-1.011719-6.8125.289063l-216.945312 125.816406c-6.152344 3.554687-9.945313 10.121094-9.945313 17.226562zm0 0" fill="#2b5d99"/><path d="m484.929688 251.828125-11.941407-6.894531-237.976562 137.960937 11.941406 6.894531zm0 0" fill="#2b5d99"/><path d="m246.953125 389.789062-11.941406-6.894531v36.140625l11.941406 6.894532zm0 0" fill="#0c2056"/></svg>