<?xml version="1.0" encoding="iso-8859-1"?>
<!-- Generator: Adobe Illustrator 19.0.0, SVG Export Plug-In . SVG Version: 6.00 Build 0)  -->
<svg version="1.1" id="Layer_1" xmlns="http://www.w3.org/2000/svg" xmlns:xlink="http://www.w3.org/1999/xlink" x="0px" y="0px"
	 viewBox="0 0 512 512" style="enable-background:new 0 0 512 512;" xml:space="preserve">
<path style="fill:#DDB201;" d="M511.972,199.993c0.313-7.669-4.588-15.403-14.722-21.253l-119.402-68.937
	c-19.584-11.306-51.229-11.303-70.685,0.004L14.564,279.847c-9.698,5.635-14.535,13.015-14.525,20.402
	c0-0.023-0.003-0.046-0.003-0.069L0,312.652c-0.021,7.455,4.899,14.922,14.752,20.611l119.402,68.937
	c19.576,11.303,51.23,11.303,70.685-0.004l292.599-170.04c9.666-5.617,14.504-12.969,14.525-20.332l0.036-12.473
	C511.999,199.565,511.98,199.779,511.972,199.993z"/>
<g style="enable-background:new    ;">
	<path style="fill:#EEBF00;" d="M512,199.351l-0.036,12.472c-0.021,7.362-4.859,14.714-14.525,20.332l0.036-12.472
		C507.14,214.065,511.979,206.713,512,199.351z"/>
	<g>
		<path style="fill:#DDB201;" d="M0,312.652l0.036-12.472c-0.021,7.455,4.899,14.922,14.752,20.611l-0.036,12.472
			C4.899,327.574-0.021,320.108,0,312.652z"/>
		<polygon style="fill:#DDB201;" points="497.474,219.683 497.439,232.156 204.84,402.195 204.875,389.723 		"/>
	</g>
	<polygon style="fill:#EEBF00;" points="134.19,389.727 134.154,402.199 14.752,333.262 14.788,320.79 	"/>
	<path style="fill:#FECE00;" d="M204.875,389.723l-0.036,12.472c-19.456,11.307-51.109,11.307-70.685,0.004l0.036-12.472
		C153.766,401.03,185.418,401.03,204.875,389.723z"/>
	<path style="fill:#2E2E30;" d="M497.25,178.74c19.576,11.303,19.68,29.637,0.224,40.944L204.875,389.723
		c-19.456,11.307-51.109,11.307-70.685,0.004L14.788,320.79c-19.584-11.307-19.68-29.637-0.224-40.944l292.599-170.04
		c19.456-11.307,51.101-11.31,70.685-0.004L497.25,178.74z"/>
</g>
<polygon style="fill:#FFFFFF;" points="471.388,213.231 315.287,123.373 34.934,286.297 191.034,376.155 "/>
<path style="fill:#2E2E30;" d="M349.694,175.468c-0.81-0.468-1.624-0.93-2.445-1.391c-13.171-7.383-31.364-14.049-50.237-10.067
	c-8.262,1.744-14.902,5.26-17.443,10.225c-2.366,4.625-0.692,9.606,2.376,13.986c3.633,5.183,9.275,9.768,15.139,14.178
	c6.711,5.05,14.058,9.798,21.005,14.735c11.666,8.292,23.293,17.981,25.096,28.928c1.566,9.51-4.093,19.503-19.361,24.15
	c-15.26,4.645-33.87,2.925-47.853-2.465c-3.538-1.365-6.78-2.924-9.748-4.637c-10.907-6.297-18.109-14.674-22.752-23.097
	c-3.101-5.622-5.276-11.399-7.19-17.191c-1.875-5.656-3.089-11.775-8.685-16.705c-1.162-1.022-2.526-1.996-4.053-2.878
	c-4.483-2.588-10.385-4.392-16.795-4.343c-7.75,0.059-14.762,3.263-16.753,7.607c-0.947,2.075-0.487,4.225,1.267,6.113
	c0.224,0.24,0.483,0.442,0.769,0.607c2.976,1.718,8.796-0.495,6.473-2.995c-2.358-2.534,1.91-5.864,6.608-6.407
	c4.663-0.537,9.007,0.785,12.328,2.702c1.843,1.065,3.371,2.311,4.465,3.527c4.411,4.895,5.195,10.804,7.033,16.143
	c1.934,5.622,4.192,11.22,7.381,16.654c5.155,8.781,12.879,17.156,24.199,23.692c2.604,1.504,5.396,2.909,8.394,4.201
	c13.978,6.02,32.017,8.579,48.99,5.948c16.76-2.597,28.918-10.252,32.561-20.043c3.853-10.359-1.285-20.803-10.333-29.801
	c-10.214-10.161-24.745-18.475-37.024-27.754c-5.402-4.082-10.88-8.489-13.945-13.36c-2.425-3.845-3.706-8.311-0.222-12.074
	c3.517-3.792,10.991-5.713,18.18-5.949c9.008-0.299,17.237,1.911,24.435,4.9c4.045,1.68,7.798,3.628,11.364,5.687
	c3.299,1.905,6.439,3.906,9.505,5.882c6.992,4.507,13.5,9.252,19.463,14.226c2.96,2.472,5.785,4.995,8.489,7.561
	c0.204,0.193,0.432,0.361,0.678,0.503c3.126,1.806,9.165-0.423,6.566-2.889C376.929,193.44,364.242,183.868,349.694,175.468"/>
<g>
	<path style="fill:#ACABB1;" d="M166.992,293.76c-7.29-4.209-7.329-11.032-0.086-15.241s19.023-4.209,26.313,0
		c7.29,4.209,7.329,11.032,0.086,15.241S174.284,297.968,166.992,293.76 M199.378,274.939c-10.713-6.186-28.026-6.186-38.67,0
		c-10.645,6.186-10.59,16.215,0.123,22.401c10.713,6.186,28.029,6.184,38.673-0.002
		C210.148,291.152,210.092,281.124,199.378,274.939"/>
	<polyline style="fill:#ACABB1;" points="222.987,268.198 210.938,261.242 198.969,268.198 211.017,275.154 222.987,268.198 	"/>
	<polyline style="fill:#ACABB1;" points="239.533,286.851 227.485,279.895 215.515,286.851 227.564,293.807 239.533,286.851 	"/>
	<polyline style="fill:#ACABB1;" points="192.157,259.498 180.109,252.542 168.139,259.498 180.188,266.454 192.157,259.498 	"/>
	<polyline style="fill:#ACABB1;" points="195.178,312.626 183.13,305.67 171.161,312.627 183.208,319.583 195.178,312.626 	"/>
	<polyline style="fill:#ACABB1;" points="147.802,285.274 135.754,278.318 123.784,285.274 135.832,292.23 147.802,285.274 	"/>
	<polyline style="fill:#ACABB1;" points="161.244,304.079 149.196,297.123 137.226,304.079 149.274,311.035 161.244,304.079 	"/>
	<polyline style="fill:#ACABB1;" points="223.189,304.078 211.141,297.122 199.171,304.079 211.219,311.035 223.189,304.078 	"/>
	<polyline style="fill:#ACABB1;" points="161.042,268.198 148.994,261.242 137.024,268.198 149.072,275.154 161.042,268.198 	"/>
</g>
<g>
	<path style="fill:#EEBF00;" d="M437.386,168.173l-46.008-26.564c-1.917-1.108-5.019-1.108-6.924,0
		c-1.908,1.109-1.898,2.905,0.02,4.011l46.01,26.564c1.921,1.109,5.021,1.109,6.929,0
		C439.316,171.077,439.307,169.281,437.386,168.173"/>
	<path style="fill:#EEBF00;" d="M117.537,353.331l-46.008-26.564c-1.917-1.108-5.019-1.108-6.924,0
		c-1.908,1.109-1.898,2.905,0.02,4.011l46.01,26.564c1.921,1.109,5.021,1.109,6.929,0
		C119.468,356.236,119.457,354.44,117.537,353.331"/>
</g>
<path style="fill:#CBA400;" d="M469.526,238.45l-41.444,23.82c-1.849,1.068-3.346,3.657-3.34,5.785
	c0.006,2.125,1.512,2.981,3.361,1.913l41.444-23.82c1.852-1.069,3.346-3.657,3.34-5.783
	C472.882,238.238,471.377,237.38,469.526,238.45"/>
<path style="fill:#FFFFFF;" d="M450.981,175.189c-2.248-1.298-5.879-1.298-8.112,0c-2.233,1.298-2.22,3.401,0.026,4.699
	c2.247,1.298,5.879,1.298,8.112,0C453.241,178.59,453.228,176.487,450.981,175.189"/>
<g>
</g>
<g>
</g>
<g>
</g>
<g>
</g>
<g>
</g>
<g>
</g>
<g>
</g>
<g>
</g>
<g>
</g>
<g>
</g>
<g>
</g>
<g>
</g>
<g>
</g>
<g>
</g>
<g>
</g>
</svg>
