<?xml version="1.0" encoding="iso-8859-1"?>
<!-- Generator: Adobe Illustrator 19.0.0, SVG Export Plug-In . SVG Version: 6.00 Build 0)  -->
<svg version="1.1" id="Layer_1" xmlns="http://www.w3.org/2000/svg" xmlns:xlink="http://www.w3.org/1999/xlink" x="0px" y="0px"
	 viewBox="0 0 512 512" style="enable-background:new 0 0 512 512;" xml:space="preserve">
<polygon style="fill:#FE0B37;" points="193.408,239.798 17.078,342.27 40.807,376.767 274.994,512 298.842,504.971 475.172,402.499 
	"/>
<g style="enable-background:new    ;">
	<polygon style="fill:#35353A;" points="17.078,342.27 193.408,239.798 475.172,402.499 298.842,504.971 	"/>
	<g>
		<polygon style="fill:#2E2E30;" points="298.842,504.971 274.994,512 40.807,376.767 17.078,342.27 		"/>
		<g>
			<polygon style="fill:#FE0B37;" points="142.054,420.387 34.242,358.132 44.392,372.887 142.054,429.283 			"/>
			<polygon style="fill:#FE0B37;" points="155.323,428.049 155.323,436.945 275.658,506.433 285.86,503.426 			"/>
		</g>
	</g>
</g>
<polygon style="fill:#1D1D1F;" points="213.158,0 207.067,3.54 206.447,222.221 206.345,222.161 17.078,332.151 17.058,342.283 
	298.842,504.971 488.108,394.981 488.128,385.078 488.23,385.137 494.322,381.596 494.942,162.688 "/>
<g style="enable-background:new    ;">
	<polygon style="fill:#010101;" points="488.851,166.228 494.942,162.688 494.322,381.596 488.23,385.137 	"/>
	<polygon style="fill:#2E2E30;" points="207.067,3.54 213.158,0 494.942,162.688 488.851,166.228 	"/>
	<polygon style="fill:#1D1D1F;" points="488.851,166.228 488.23,385.137 206.446,222.449 207.067,3.54 	"/>
</g>
<g style="enable-background:new    ;">
	<polygon style="fill:#010101;" points="488.128,384.849 488.108,394.981 298.842,504.971 298.862,494.839 	"/>
	<polygon style="fill:#1D1D1F;" points="298.862,494.839 298.842,504.971 17.058,342.283 17.078,332.151 	"/>
	<polygon style="fill:#2E2E30;" points="488.128,384.849 298.862,494.839 17.078,332.151 206.345,222.161 	"/>
	<path style="fill:#1D1D1F;" d="M445.761,373.278c4.41,2.546,4.417,6.724,0.013,9.282l-96.781,56.224
		c-4.404,2.559-11.617,2.568-16.027,0.022L113.658,312.189c-4.411-2.546-4.417-6.724-0.013-9.282l96.781-56.224
		c4.404-2.559,11.617-2.568,16.027-0.022L445.761,373.278z"/>
</g>
<polygon style="fill:#2E2E30;" points="477.377,176.566 218.365,27.026 217.832,214.74 476.844,364.281 "/>
<g>
	<polygon style="fill:#3E3D43;" points="413.745,361.705 411.528,362.993 411.536,360.429 391.078,348.618 388.862,349.905 
		388.869,347.342 368.412,335.532 348.087,347.343 348.082,349.266 346.425,348.309 326.103,360.119 326.088,365.198 
		346.544,377.008 348.761,375.72 348.754,378.284 369.211,390.096 371.429,388.807 371.421,391.371 391.88,403.183 412.202,391.372 
		412.208,389.451 413.865,390.407 434.19,378.596 434.204,373.516 	"/>
	<path style="fill:#3E3D43;" d="M357.136,397.113l0.015-5.079l-20.458-11.811l-20.325,11.811l-0.007,2.539l-2.188-1.263
		l-2.216,1.288l0.007-2.563l-20.457-11.81l-20.325,11.811l-0.015,5.078l20.457,11.81l2.216-1.288l-0.007,2.563l20.458,11.811
		l2.217-1.288l-0.007,2.564l20.458,11.811l20.325-11.811l0.015-5.079l-18.292-10.561L357.136,397.113z M334.645,407.674
		l-0.021,0.013v-0.024L334.645,407.674z"/>
	<polygon style="fill:#3E3D43;" points="221.228,276.43 221.221,278.994 241.677,290.805 243.893,289.516 243.886,292.079 
		264.345,303.892 266.562,302.602 266.555,305.167 287.013,316.979 289.229,315.691 289.223,318.255 309.678,330.065 
		311.894,328.777 311.888,331.34 332.346,343.152 352.671,331.34 352.686,326.262 332.228,314.45 330.011,315.738 330.018,313.174 
		309.561,301.364 307.345,302.651 307.352,300.088 286.895,288.277 284.677,289.565 284.685,287.001 264.226,275.19 262.01,276.477 
		262.017,273.914 241.56,262.104 239.344,263.391 239.351,260.828 218.893,249.017 198.567,260.828 198.554,265.907 
		219.012,277.718 	"/>
	<path style="fill:#3E3D43;" d="M298.286,362.945l0.007-2.539l2.188,1.263l20.323-11.81l0.015-5.079l-20.458-11.811l-2.216,1.288
		l0.007-2.564l-20.457-11.81l-2.216,1.288l0.007-2.563l-20.459-11.811l-2.217,1.288l0.007-2.564l-20.458-11.811l-2.216,1.288
		l0.007-2.564l-20.457-11.81l-2.216,1.288l0.007-2.564l-20.458-11.811l-20.323,11.81l-0.007,2.539l-2.188-1.263l-20.325,11.811
		l-0.007,2.539l-2.188-1.263l-20.325,11.811l-0.015,5.079l20.458,11.811l2.216-1.288l-0.007,2.564l88.458,51.071l2.216-1.288
		l-0.007,2.564l20.458,11.811l20.325-11.811l0.007-2.539l2.188,1.263L298.286,362.945z"/>
</g>
<g>
	<polygon style="fill:#57565C;" points="413.745,361.705 411.528,362.993 411.536,360.429 391.078,348.618 388.862,349.905 
		388.869,347.342 368.412,335.532 348.087,347.343 348.082,349.266 346.425,348.309 326.103,360.119 326.088,365.198 
		346.544,377.008 348.761,375.72 348.754,378.284 369.211,390.096 371.429,388.807 371.421,391.371 391.88,403.183 412.202,391.372 
		412.208,389.451 413.865,390.407 434.19,378.596 434.204,373.516 	"/>
	<path style="fill:#57565C;" d="M357.136,397.113l0.015-5.079l-20.458-11.811l-20.325,11.811l-0.007,2.539l-2.188-1.263
		l-2.216,1.288l0.007-2.563l-20.457-11.81l-20.325,11.811l-0.015,5.078l20.457,11.81l2.216-1.288l-0.007,2.563l20.458,11.811
		l2.217-1.288l-0.007,2.564l20.458,11.811l20.325-11.811l0.015-5.079l-18.292-10.561L357.136,397.113z M334.645,407.674
		l-0.021,0.013v-0.024L334.645,407.674z"/>
	<polygon style="fill:#57565C;" points="221.228,276.43 221.221,278.994 241.677,290.805 243.893,289.516 243.886,292.079 
		264.345,303.892 266.562,302.602 266.555,305.167 287.013,316.979 289.229,315.691 289.223,318.255 309.678,330.065 
		311.894,328.777 311.888,331.34 332.346,343.152 352.671,331.34 352.686,326.262 332.228,314.45 330.011,315.738 330.018,313.174 
		309.561,301.364 307.345,302.651 307.352,300.088 286.895,288.277 284.677,289.565 284.685,287.001 264.226,275.19 262.01,276.477 
		262.017,273.914 241.56,262.104 239.344,263.391 239.351,260.828 218.893,249.017 198.567,260.828 198.554,265.907 
		219.012,277.718 	"/>
	<path style="fill:#57565C;" d="M298.286,362.945l0.007-2.539l2.188,1.263l20.323-11.81l0.015-5.079l-20.458-11.811l-2.216,1.288
		l0.007-2.564l-20.457-11.81l-2.216,1.288l0.007-2.563l-20.459-11.811l-2.217,1.288l0.007-2.564l-20.458-11.811l-2.216,1.288
		l0.007-2.564l-20.457-11.81l-2.216,1.288l0.007-2.564l-20.458-11.811l-20.323,11.81l-0.007,2.539l-2.188-1.263l-20.325,11.811
		l-0.007,2.539l-2.188-1.263l-20.325,11.811l-0.015,5.079l20.458,11.811l2.216-1.288l-0.007,2.564l88.458,51.071l2.216-1.288
		l-0.007,2.564l20.458,11.811l20.325-11.811l0.007-2.539l2.188,1.263L298.286,362.945z"/>
</g>
<polygon style="fill:#820018;" points="388.869,347.342 388.854,352.42 368.529,364.233 368.543,359.153 "/>
<polygon style="fill:#A50020;" points="368.543,359.153 368.529,364.233 348.072,352.422 348.087,347.343 "/>
<polygon style="fill:#3E3D43;" points="348.087,347.343 368.412,335.532 388.869,347.342 368.543,359.153 "/>
<polygon style="fill:#820018;" points="411.536,360.429 411.522,365.507 391.196,377.32 391.21,372.241 "/>
<polygon style="fill:#A50020;" points="391.21,372.241 391.196,377.32 370.738,365.507 370.753,360.429 "/>
<polygon style="fill:#3E3D43;" points="370.753,360.429 391.078,348.618 411.536,360.429 391.21,372.241 "/>
<polygon style="fill:#820018;" points="434.204,373.516 434.19,378.596 413.865,390.407 413.879,385.328 "/>
<polygon style="fill:#A50020;" points="413.879,385.328 413.865,390.407 393.406,378.596 393.42,373.516 "/>
<polygon style="fill:#3E3D43;" points="413.745,361.705 434.204,373.516 413.879,385.328 393.42,373.516 "/>
<polygon style="fill:#820018;" points="366.881,360.12 366.867,365.198 346.544,377.008 346.558,371.929 "/>
<polygon style="fill:#A50020;" points="346.558,371.929 346.544,377.008 326.088,365.198 326.103,360.119 "/>
<polygon style="fill:#3E3D43;" points="326.103,360.119 346.425,348.309 366.881,360.12 346.558,371.929 "/>
<polygon style="fill:#820018;" points="389.549,373.206 389.534,378.285 369.211,390.096 369.226,385.016 "/>
<polygon style="fill:#A50020;" points="369.226,385.016 369.211,390.096 348.754,378.284 348.768,373.205 "/>
<polygon style="fill:#3E3D43;" points="348.768,373.205 369.09,361.395 389.549,373.206 369.226,385.016 "/>
<polygon style="fill:#820018;" points="412.217,386.294 412.202,391.372 391.88,403.183 391.894,398.105 "/>
<polygon style="fill:#A50020;" points="391.894,398.105 391.88,403.183 371.421,391.371 371.436,386.292 "/>
<polygon style="fill:#3E3D43;" points="371.436,386.292 391.759,374.482 412.217,386.294 391.894,398.105 "/>
<polygon style="fill:#820018;" points="357.15,392.034 357.136,397.113 336.811,408.924 336.825,403.846 "/>
<polygon style="fill:#A50020;" points="336.825,403.846 336.811,408.924 316.353,397.113 316.368,392.035 "/>
<polygon style="fill:#3E3D43;" points="316.368,392.035 336.693,380.223 357.15,392.034 336.825,403.846 "/>
<polygon style="fill:#820018;" points="311.963,392.035 311.949,397.113 291.624,408.925 291.637,403.846 "/>
<polygon style="fill:#A50020;" points="291.637,403.846 291.624,408.925 271.167,397.114 271.182,392.036 "/>
<polygon style="fill:#3E3D43;" points="271.182,392.036 291.507,380.225 311.963,392.035 291.637,403.846 "/>
<polygon style="fill:#820018;" points="334.63,405.122 334.616,410.2 314.29,422.012 314.305,416.933 "/>
<polygon style="fill:#A50020;" points="314.305,416.933 314.29,422.012 293.833,410.2 293.847,405.122 "/>
<polygon style="fill:#3E3D43;" points="293.847,405.122 314.172,393.31 334.63,405.122 314.305,416.933 "/>
<polygon style="fill:#820018;" points="357.299,418.209 357.284,423.287 336.959,435.1 336.974,430.021 "/>
<polygon style="fill:#A50020;" points="336.974,430.021 336.959,435.1 316.5,423.288 316.515,418.209 "/>
<polygon style="fill:#3E3D43;" points="316.515,418.209 336.84,406.398 357.299,418.209 336.974,430.021 "/>
<polygon style="fill:#820018;" points="239.351,260.828 239.337,265.906 219.012,277.718 219.026,272.639 "/>
<polygon style="fill:#A50020;" points="219.026,272.639 219.012,277.718 198.554,265.907 198.567,260.828 "/>
<polygon style="fill:#3E3D43;" points="198.567,260.828 218.893,249.017 239.351,260.828 219.026,272.639 "/>
<polygon style="fill:#820018;" points="262.017,273.914 262.002,278.992 241.677,290.805 241.692,285.725 "/>
<polygon style="fill:#A50020;" points="241.692,285.725 241.677,290.805 221.221,278.994 221.235,273.915 "/>
<polygon style="fill:#3E3D43;" points="262.017,273.914 241.692,285.725 221.235,273.915 241.56,262.104 "/>
<polygon style="fill:#820018;" points="284.685,287.001 284.67,292.079 264.345,303.892 264.36,298.813 "/>
<polygon style="fill:#A50020;" points="264.36,298.813 264.345,303.892 243.886,292.079 243.901,287.001 "/>
<polygon style="fill:#3E3D43;" points="284.685,287.001 264.36,298.813 243.901,287.001 264.226,275.19 "/>
<polygon style="fill:#820018;" points="307.352,300.088 307.338,305.167 287.013,316.979 287.027,311.9 "/>
<polygon style="fill:#A50020;" points="287.027,311.9 287.013,316.979 266.555,305.167 266.569,300.088 "/>
<polygon style="fill:#3E3D43;" points="307.352,300.088 287.027,311.9 266.569,300.088 286.895,288.277 "/>
<polygon style="fill:#820018;" points="330.018,313.174 330.003,318.253 309.678,330.065 309.693,324.986 "/>
<polygon style="fill:#A50020;" points="309.693,324.986 309.678,330.065 289.223,318.255 289.236,313.175 "/>
<polygon style="fill:#3E3D43;" points="289.236,313.175 309.562,301.364 330.018,313.174 309.693,324.986 "/>
<polygon style="fill:#820018;" points="352.686,326.262 352.671,331.34 332.346,343.152 332.361,338.073 "/>
<polygon style="fill:#A50020;" points="332.361,338.073 332.346,343.152 311.888,331.34 311.902,326.262 "/>
<polygon style="fill:#3E3D43;" points="311.902,326.262 332.228,314.45 352.686,326.262 332.361,338.073 "/>
<polygon style="fill:#820018;" points="207.485,279.346 207.47,284.426 187.147,296.236 187.162,291.157 "/>
<polygon style="fill:#A50020;" points="187.162,291.157 187.147,296.236 166.689,284.424 166.703,279.345 "/>
<polygon style="fill:#3E3D43;" points="166.703,279.345 187.026,267.535 207.485,279.346 187.162,291.157 "/>
<polygon style="fill:#820018;" points="230.15,292.432 230.135,297.512 209.813,309.322 209.827,304.243 "/>
<polygon style="fill:#A50020;" points="209.827,304.243 209.813,309.322 189.356,297.512 189.37,292.432 "/>
<polygon style="fill:#3E3D43;" points="230.15,292.432 209.827,304.243 189.37,292.432 209.693,280.622 "/>
<polygon style="fill:#820018;" points="252.818,305.52 252.803,310.599 232.48,322.409 232.495,317.33 "/>
<polygon style="fill:#A50020;" points="232.495,317.33 232.48,322.409 212.022,310.598 212.036,305.519 "/>
<polygon style="fill:#3E3D43;" points="252.818,305.52 232.495,317.33 212.036,305.519 232.359,293.708 "/>
<polygon style="fill:#820018;" points="275.486,318.608 275.471,323.686 255.148,335.496 255.163,330.418 "/>
<polygon style="fill:#A50020;" points="255.163,330.418 255.148,335.496 234.69,323.685 234.705,318.606 "/>
<polygon style="fill:#3E3D43;" points="275.486,318.608 255.163,330.418 234.705,318.606 255.028,306.795 "/>
<polygon style="fill:#820018;" points="298.151,331.693 298.136,336.772 277.813,348.582 277.828,343.503 "/>
<polygon style="fill:#A50020;" points="277.828,343.503 277.813,348.582 257.358,336.772 257.372,331.693 "/>
<polygon style="fill:#3E3D43;" points="257.372,331.693 277.694,319.883 298.151,331.693 277.828,343.503 "/>
<polygon style="fill:#820018;" points="320.819,344.78 320.804,349.859 300.481,361.67 300.496,356.59 "/>
<polygon style="fill:#A50020;" points="300.496,356.59 300.481,361.67 280.023,349.858 280.037,344.779 "/>
<polygon style="fill:#3E3D43;" points="280.037,344.779 300.36,332.969 320.819,344.78 300.496,356.59 "/>
<polygon style="fill:#820018;" points="184.966,292.434 184.952,297.512 164.627,309.323 164.64,304.245 "/>
<polygon style="fill:#A50020;" points="164.64,304.245 164.627,309.323 144.168,297.512 144.182,292.434 "/>
<polygon style="fill:#3E3D43;" points="144.182,292.434 164.507,280.621 184.966,292.434 164.64,304.245 "/>
<polygon style="fill:#820018;" points="207.632,305.519 207.617,310.598 187.292,322.409 187.307,317.331 "/>
<polygon style="fill:#A50020;" points="187.307,317.331 187.292,322.409 166.835,310.599 166.85,305.521 "/>
<polygon style="fill:#3E3D43;" points="207.632,305.519 187.307,317.331 166.85,305.521 187.175,293.708 "/>
<polygon style="fill:#820018;" points="230.298,318.606 230.285,323.685 209.96,335.496 209.973,330.418 "/>
<polygon style="fill:#A50020;" points="209.973,330.418 209.96,335.496 189.501,323.685 189.516,318.607 "/>
<polygon style="fill:#3E3D43;" points="230.298,318.606 209.973,330.418 189.516,318.607 209.841,306.794 "/>
<polygon style="fill:#820018;" points="252.967,331.694 252.953,336.772 232.628,348.584 232.642,343.505 "/>
<polygon style="fill:#A50020;" points="232.642,343.505 232.628,348.584 212.17,336.772 212.183,331.694 "/>
<polygon style="fill:#3E3D43;" points="252.967,331.694 232.642,343.505 212.183,331.694 232.509,319.882 "/>
<polygon style="fill:#820018;" points="275.633,344.78 275.618,349.858 255.293,361.67 255.308,356.591 "/>
<polygon style="fill:#A50020;" points="255.308,356.591 255.293,361.67 234.836,349.859 234.851,344.781 "/>
<polygon style="fill:#3E3D43;" points="234.851,344.781 255.176,332.969 275.633,344.78 255.308,356.591 "/>
<polygon style="fill:#820018;" points="298.301,357.866 298.286,362.945 277.961,374.757 277.975,369.679 "/>
<polygon style="fill:#A50020;" points="277.975,369.679 277.961,374.757 257.502,362.945 257.517,357.867 "/>
<polygon style="fill:#3E3D43;" points="257.517,357.867 277.842,346.055 298.301,357.866 277.975,369.679 "/>
<polygon style="fill:#820018;" points="162.446,305.521 162.431,310.599 142.106,322.411 142.121,317.332 "/>
<polygon style="fill:#A50020;" points="142.121,317.332 142.106,322.411 121.647,310.599 121.662,305.521 "/>
<polygon style="fill:#3E3D43;" points="121.662,305.521 141.987,293.709 162.446,305.521 142.121,317.332 "/>
<polygon style="fill:#820018;" points="253.112,357.867 253.098,362.945 232.773,374.758 232.787,369.679 "/>
<polygon style="fill:#A50020;" points="232.787,369.679 232.773,374.758 144.315,323.686 144.33,318.608 "/>
<polygon style="fill:#3E3D43;" points="144.33,318.608 164.655,306.795 253.112,357.867 232.787,369.679 "/>
<polygon style="fill:#820018;" points="275.78,370.954 275.766,376.033 255.44,387.844 255.455,382.766 "/>
<polygon style="fill:#A50020;" points="255.455,382.766 255.44,387.844 234.983,376.033 234.996,370.954 "/>
<polygon style="fill:#3E3D43;" points="234.996,370.954 255.322,359.142 275.78,370.954 255.455,382.766 "/>
<path style="fill:#A50020;" d="M109.07,373.403c-3.402-1.964-3.423-5.148-0.044-7.111l37.983-22.073
	c3.379-1.964,8.88-1.964,12.282,0l63.037,36.394c3.405,1.966,3.42,5.15,0.04,7.115L184.384,409.8
	c-3.379,1.964-8.872,1.964-12.277-0.002L109.07,373.403 M224.029,380.097l-63.853-36.866c-3.934-2.272-10.291-2.272-14.199,0
	l-38.652,22.462c-3.908,2.272-3.888,5.954,0.046,8.224l63.853,36.866c3.934,2.272,10.291,2.272,14.199,0l38.652-22.462
	C227.983,386.051,227.962,382.369,224.029,380.097"/>
<g>
	<path style="fill:#2E2E30;" d="M222.197,380.612l-63.037-36.394c-3.402-1.964-8.902-1.964-12.282,0l-37.983,22.073
		c-3.379,1.964-3.357,5.148,0.044,7.111l63.037,36.394c3.405,1.966,8.898,1.966,12.277,0.002l37.983-22.073
		C225.617,385.762,225.604,382.579,222.197,380.612"/>
	<polygon style="fill:#2E2E30;" points="471.935,396.66 471.935,402.056 458.698,409.705 458.692,408.18 458.692,406.137 
		458.686,404.309 467.28,399.346 469.12,398.283 	"/>
</g>
<polygon style="fill:#1D1D1F;" points="471.935,396.66 471.935,402.056 471.224,401.649 469.477,400.624 469.471,400.624 
	467.28,399.346 469.12,398.283 "/>
<g>
	<path style="fill:#155C92;" d="M471.317,399.56h-0.001l-2.196-1.277l-1.84,1.062l-8.594,4.963v1.828v2.038l0.006,0.006l0.609,0.351
		v0.001h0.001h0.001v-0.001l12.014-6.937L471.317,399.56L471.317,399.56z"/>
	<path style="fill:#155C92;" d="M454.097,407.03l-1.84,1.062l-8.594,4.963v1.827v2.038l0.006,0.006l0.609,0.351v0.001h0.001h0.001
		v-0.001l12.014-6.937v-2.034l-0.001,0.001L454.097,407.03z"/>
</g>
<g>
	<path style="fill:#1A6FB0;" d="M471.317,399.56h-0.001l-2.196-1.277l-1.84,1.062l-8.594,4.963v1.828v2.038l0.006,0.006l0.609,0.351
		v0.001h0.001h0.001v-0.001l12.014-6.937L471.317,399.56L471.317,399.56z"/>
	<path style="fill:#1A6FB0;" d="M454.097,407.03l-1.84,1.062l-8.594,4.963v1.827v2.038l0.006,0.006l0.609,0.351v0.001h0.001h0.001
		v-0.001l12.014-6.937v-2.034l-0.001,0.001L454.097,407.03z"/>
</g>
<polygon style="fill:#1D81CD;" points="471.317,399.561 469.477,400.624 469.471,400.624 459.303,406.501 458.692,406.137 
	458.686,406.137 458.686,404.309 467.28,399.346 469.12,398.283 "/>
<polygon style="fill:#155C92;" points="459.301,406.498 459.301,408.533 471.317,401.595 471.317,399.56 "/>
<polygon style="fill:#1A6FB0;" points="459.303,406.501 459.303,408.533 458.692,408.18 458.686,408.174 458.686,406.137 
	458.692,406.137 "/>
<polygon style="fill:#2E2E30;" points="456.912,405.406 456.912,410.802 443.675,418.452 443.669,416.926 443.669,414.883 
	443.664,413.056 452.257,408.092 454.097,407.03 "/>
<polygon style="fill:#1D1D1F;" points="456.912,405.406 456.912,410.802 456.202,410.395 454.455,409.37 454.449,409.37 
	452.257,408.092 454.097,407.03 "/>
<polygon style="fill:#1D81CD;" points="456.294,408.308 454.455,409.37 454.449,409.37 444.28,415.247 443.669,414.883 
	443.664,414.883 443.664,413.056 452.257,408.092 454.097,407.03 "/>
<polygon style="fill:#155C92;" points="444.279,415.244 444.279,417.278 456.295,410.341 456.295,408.307 "/>
<polygon style="fill:#1A6FB0;" points="444.28,415.247 444.28,417.278 443.669,416.926 443.664,416.92 443.664,414.883 
	443.669,414.883 "/>
<g>
</g>
<g>
</g>
<g>
</g>
<g>
</g>
<g>
</g>
<g>
</g>
<g>
</g>
<g>
</g>
<g>
</g>
<g>
</g>
<g>
</g>
<g>
</g>
<g>
</g>
<g>
</g>
<g>
</g>
</svg>
