<?xml version="1.0" encoding="iso-8859-1"?>
<!-- Generator: Adobe Illustrator 19.0.0, SVG Export Plug-In . SVG Version: 6.00 Build 0)  -->
<svg version="1.1" id="Layer_1" xmlns="http://www.w3.org/2000/svg" xmlns:xlink="http://www.w3.org/1999/xlink" x="0px" y="0px"
	 viewBox="0 0 512.001 512.001" style="enable-background:new 0 0 512.001 512.001;" xml:space="preserve">
<path style="fill:#2E2E30;" d="M509.313,281.412c-1.931-4.093-4.81-7.042-8.387-8.721c0.426,0.2,0.844,0.416,1.251,0.652
	l-11.643-6.766c-1.557-0.905-3.266-1.547-5.105-1.914c-5.375-1.071-11.905,0.253-18.85,4.262l-149.325,86.212
	c-4.487,2.59-8.101,8.861-8.086,14.007c0.007,2.558,0.91,4.358,2.367,5.206l11.643,6.766c-0.094-0.054-0.179-0.124-0.269-0.187
	c1.49,1.043,3.64,1.006,6.042-0.38l149.324-86.212c1.795-1.037,3.511-1.717,5.124-2.076c0.468,1.534,0.727,3.296,0.734,5.292
	c0.007,2.557,0.911,4.356,2.368,5.203l11.643,6.766c-0.093-0.054-0.177-0.122-0.265-0.184c1.491,1.042,3.641,1.003,6.037-0.379
	c4.487-2.59,8.102-8.861,8.088-14.007C511.984,289.627,511.029,285.061,509.313,281.412z"/>
<g style="enable-background:new    ;">
	<path style="fill:#2E2E30;" d="M498.141,309.52l-11.643-6.766c-1.457-0.846-2.36-2.646-2.368-5.203
		c-0.011-4.186-1.11-7.371-3.001-9.492c-0.614-0.684-1.312-1.254-2.08-1.7l11.643,6.766c0.768,0.446,1.465,1.016,2.08,1.7
		c1.891,2.12,2.989,5.306,3.001,9.492C495.781,306.875,496.684,308.674,498.141,309.52z"/>
	<path style="fill:#77767E;" d="M490.532,266.577l11.643,6.766c-1.557-0.905-3.266-1.547-5.105-1.914
		c-5.375-1.071-11.905,0.253-18.85,4.262l-11.643-6.766c6.945-4.009,13.475-5.333,18.85-4.262
		C487.265,265.03,488.975,265.672,490.532,266.577z"/>
	<polygon style="fill:#57565C;" points="328.895,361.903 317.252,355.136 466.577,268.924 478.22,275.691 	"/>
	<path style="fill:#3E3D43;" d="M323.176,381.116l-11.643-6.766c-1.457-0.846-2.359-2.648-2.367-5.206
		c-0.015-5.146,3.6-11.417,8.086-14.007l11.643,6.766c-4.487,2.59-8.101,8.861-8.086,14.007
		C320.816,378.468,321.718,380.268,323.176,381.116z"/>
	<path style="fill:#1D1D1F;" d="M478.22,275.691c6.945-4.009,13.475-5.333,18.85-4.262c5.383,1.075,9.659,4.509,12.242,9.983
		c1.717,3.65,2.673,8.215,2.687,13.539c0.015,5.146-3.601,11.417-8.086,14.007c-4.478,2.586-8.125,0.508-8.14-4.638
		c-0.011-4.186-1.11-7.371-3.001-9.492c-1.9-2.116-4.584-3.124-7.712-2.832c-2.079,0.183-4.361,0.939-6.788,2.341l-149.324,86.212
		c-4.487,2.59-8.125,0.508-8.14-4.638c-0.015-5.146,3.6-11.417,8.086-14.007L478.22,275.691z"/>
</g>
<path style="fill:#2E2E30;" d="M200.147,103.162c-1.931-4.093-4.81-7.042-8.387-8.721c0.426,0.201,0.844,0.416,1.251,0.652
	l-11.643-6.766c-1.557-0.905-3.266-1.547-5.105-1.915c-5.375-1.071-11.905,0.253-18.85,4.262L8.087,176.887
	C3.6,179.478-0.014,185.748,0,190.894c0.007,2.558,0.91,4.358,2.367,5.206l11.643,6.767c-0.096-0.055-0.183-0.126-0.274-0.19
	c1.49,1.047,3.644,1.011,6.047-0.376l149.324-86.212c1.795-1.037,3.511-1.717,5.124-2.076c0.468,1.534,0.727,3.296,0.734,5.292
	c0.007,2.557,0.911,4.356,2.368,5.203l11.643,6.767c-0.092-0.053-0.176-0.122-0.262-0.183c1.491,1.04,3.64,1.001,6.035-0.381
	c4.487-2.59,8.101-8.861,8.086-14.007C202.82,111.377,201.864,106.812,200.147,103.162z"/>
<g style="enable-background:new    ;">
	<path style="fill:#2E2E30;" d="M188.975,131.271l-11.643-6.766c-1.457-0.846-2.36-2.646-2.368-5.203
		c-0.011-4.186-1.11-7.371-3.001-9.492c-0.615-0.684-1.312-1.254-2.08-1.7l11.643,6.766c0.768,0.446,1.465,1.016,2.08,1.7
		c1.891,2.12,2.989,5.306,3.001,9.492C186.616,128.626,187.519,130.425,188.975,131.271z"/>
	<path style="fill:#77767E;" d="M181.366,88.328l11.643,6.766c-1.557-0.905-3.266-1.547-5.105-1.914
		c-5.375-1.071-11.905,0.253-18.85,4.262l-11.643-6.766c6.945-4.009,13.475-5.333,18.85-4.262
		C178.1,86.781,179.809,87.423,181.366,88.328z"/>
	<polygon style="fill:#57565C;" points="19.73,183.654 8.087,176.887 157.412,90.675 169.055,97.442 	"/>
	<path style="fill:#3E3D43;" d="M14.01,202.867l-11.643-6.766c-1.457-0.846-2.359-2.648-2.367-5.206
		c-0.015-5.146,3.6-11.417,8.086-14.007l11.643,6.766c-4.487,2.59-8.101,8.861-8.086,14.007
		C11.651,200.219,12.552,202.019,14.01,202.867z"/>
	<path style="fill:#1D1D1F;" d="M169.055,97.442c6.945-4.009,13.475-5.333,18.85-4.262c5.383,1.075,9.659,4.509,12.242,9.983
		c1.717,3.65,2.673,8.215,2.687,13.539c0.015,5.146-3.601,11.417-8.086,14.007c-4.478,2.586-8.125,0.508-8.14-4.638
		c-0.011-4.186-1.11-7.371-3.001-9.492c-1.9-2.116-4.584-3.124-7.712-2.832c-2.079,0.183-4.361,0.939-6.788,2.341L19.783,202.299
		c-4.487,2.59-8.125,0.508-8.14-4.638s3.6-11.417,8.086-14.007L169.055,97.442z"/>
</g>
<path style="fill:#1D1D1F;" d="M315.045,307.855l-103.171-59.566c-6.642-3.836-13.14-4.779-17.897-2.161
	c-0.092,0.05-0.183,0.101-0.273,0.154l-11.119,6.462c-0.474-0.182-0.957-0.401-1.448-0.685c-3.385-1.955-6.428-5.961-7.943-10.314
	c-1.208-3.473-2.819-6.985-4.821-10.406c-4.727-8.086-11.208-14.635-17.857-18.474L47.358,153.305
	c-6.922-3.997-13.194-4.368-17.723-1.736L7.392,164.496c0.015-0.008,0.029-0.015,0.044-0.023c-4.496,2.588-7.286,8.121-7.309,15.998
	L0,224.989c-0.045,15.799,11.069,35.049,24.825,42.991l96.051,55.456c6.913,3.992,13.269,4.391,17.844,1.66
	c-0.039,0.023-0.074,0.053-0.114,0.076l22.244-12.926c3.371-1.959,5.792-5.601,6.778-10.748l0.071-0.369l4.378,28.708
	c2.245,14.756,12.461,30.356,24.377,37.235l96.057,55.459c7.116,4.109,13.54,4.375,18.093,1.493
	c-0.126,0.079-0.249,0.166-0.377,0.24l22.244-12.926c4.47-2.598,7.242-8.12,7.264-15.969l0.126-44.519
	C339.909,335.042,328.795,315.793,315.045,307.855z"/>
<g>
	<path style="fill:#898890;" d="M291.276,324.567l-83.847-48.409c-7.986-4.611-14.008,0.3-12.502,10.192l6.024,39.549
		c1.149,7.521,6.354,15.474,12.42,18.975l77.721,44.872c7.012,4.049,12.707,0.796,12.73-7.255l0.102-36.021
		C303.945,338.421,298.288,328.615,291.276,324.567z"/>
	<path style="fill:#898890;" d="M126.046,229.025l-83.853-48.413c-7.006-4.045-12.7-0.792-12.723,7.258l-0.102,36.021
		c-0.023,8.05,5.634,17.856,12.64,21.901l77.728,44.876c6.066,3.501,11.298,1.576,12.48-4.6l6.235-32.472
		C140.007,245.473,134.032,233.636,126.046,229.025z"/>
</g>
<path style="fill:#1D1D1F;" d="M20.456,186.987L42.7,174.061c-1.159,0.674-1.879,2.103-1.885,4.134l-22.244,12.926
	C18.576,189.09,19.297,187.66,20.456,186.987z"/>
<g>
	<path style="fill:#3E3D43;" d="M7.392,164.496l22.244-12.926c4.529-2.632,10.8-2.26,17.723,1.736l-22.244,12.926
		C18.192,162.235,11.92,161.864,7.392,164.496z"/>
	<path style="fill:#3E3D43;" d="M18.445,235.639l22.244-12.926c-0.011,4.091,2.881,9.093,6.441,11.148l-22.244,12.926
		C21.325,244.731,18.433,239.73,18.445,235.639z"/>
</g>
<polygon style="fill:#1D1D1F;" points="18.571,191.12 40.815,178.193 40.688,222.712 18.445,235.639 "/>
<polygon style="fill:#57565C;" points="24.885,246.787 47.129,233.859 143.18,289.315 120.937,302.242 "/>
<path style="fill:#1D1D1F;" d="M40.815,178.193l-1.821,1.058c0.591,0.164,1.194,0.371,1.816,0.652L40.815,178.193z"/>
<path style="fill:#898890;" d="M29.874,184.552l9.12-5.3C34.523,178.008,31.011,180.046,29.874,184.552z"/>
<path style="fill:#57565C;" d="M40.688,222.712l-10.668,6.199c1.003,4.054,3.105,8.161,5.842,11.496l11.267-6.547
	C43.569,231.804,40.677,226.802,40.688,222.712z"/>
<path style="fill:#2E2E30;" d="M29.368,223.891c-0.004,1.623,0.231,3.316,0.653,5.021l10.668-6.199l0.121-42.807
	c-0.622-0.281-1.225-0.488-1.816-0.652l-9.12,5.3c-0.251,0.994-0.4,2.093-0.403,3.319L29.368,223.891z"/>
<path style="fill:#77767E;" d="M35.863,240.408c1.819,2.217,3.912,4.095,6.146,5.384l77.728,44.876
	c6.066,3.501,11.298,1.576,12.48-4.6l0.533-2.776L47.131,233.86L35.863,240.408z"/>
<path style="fill:#3E3D43;" d="M147.78,289.759l-22.244,12.926c-1.186,0.69-2.824,0.581-4.6-0.444l22.244-12.926
	C144.956,290.339,146.594,290.448,147.78,289.759z"/>
<g>
	<path style="fill:#1D1D1F;" d="M160.851,312.245l-22.244,12.927c3.371-1.959,5.792-5.601,6.778-10.748l22.244-12.926
		C166.643,306.645,164.223,310.286,160.851,312.245z"/>
	<polygon style="fill:#1D1D1F;" points="150.199,289.357 172.443,276.431 167.629,301.498 145.385,314.424 	"/>
	<path style="fill:#1D1D1F;" d="M152.59,285.569l22.244-12.926c-1.189,0.691-2.043,1.975-2.391,3.789l-22.244,12.926
		C150.547,287.544,151.401,286.26,152.59,285.569z"/>
</g>
<path style="fill:#3E3D43;" d="M190.191,336.219l22.244-12.926c0.581,3.814,3.241,7.877,6.324,9.658l-22.244,12.926
	C193.432,344.097,190.772,340.033,190.191,336.219z"/>
<polygon style="fill:#57565C;" points="25.114,166.231 47.358,153.305 150.516,212.863 128.272,225.79 "/>
<path style="fill:#77767E;" d="M187.428,252.647l-22.244,12.926c-1.646,0.956-3.885,0.799-6.29-0.589
	c-3.385-1.955-6.428-5.961-7.943-10.314c-1.208-3.472-2.819-6.985-4.821-10.406c-4.727-8.086-11.208-14.635-17.857-18.474
	l22.244-12.926c6.65,3.839,13.13,10.387,17.857,18.474c2.002,3.421,3.613,6.934,4.821,10.406c1.515,4.353,4.558,8.36,7.943,10.314
	C183.543,253.446,185.783,253.603,187.428,252.647z"/>
<g>
	<polygon style="fill:#1D1D1F;" points="182.74,287.334 204.985,274.407 212.435,323.292 190.191,336.219 	"/>
	<path style="fill:#1D1D1F;" d="M184.526,281.687l22.244-12.926c-0.16,0.093-0.297,0.191-0.411,0.286
		c-0.728,0.592-1.869,2.075-1.374,5.36l-22.244,12.926c-0.495-3.285,0.646-4.768,1.374-5.36
		C184.229,281.879,184.366,281.78,184.526,281.687z"/>
</g>
<path style="fill:#3E3D43;" d="M171.461,259.207l22.244-12.926c0.09-0.052,0.181-0.103,0.273-0.154
	c4.757-2.619,11.254-1.674,17.897,2.161l-22.244,12.926c-6.642-3.836-13.14-4.779-17.897-2.161
	C171.641,259.104,171.55,259.155,171.461,259.207z"/>
<polygon style="fill:#57565C;" points="196.515,345.877 218.759,332.95 314.817,388.409 292.573,401.336 "/>
<path style="fill:#1D1D1F;" d="M204.985,274.407l-0.69,0.4c0.26,0.074,0.525,0.169,0.791,0.266L204.985,274.407z"/>
<path style="fill:#898890;" d="M195.075,280.165l9.22-5.358C199.709,273.495,196.189,275.646,195.075,280.165z"/>
<path style="fill:#57565C;" d="M212.435,323.292l-10.639,6.183c1.135,3.638,3.092,7.193,5.523,10.123l11.44-6.648
	C215.676,331.17,213.016,327.106,212.435,323.292z"/>
<path style="fill:#2E2E30;" d="M194.927,286.349l6.024,39.549c0.182,1.188,0.474,2.385,0.846,3.576l10.639-6.183l-7.349-48.218
	c-0.266-0.097-0.532-0.192-0.791-0.266l-9.22,5.358C194.648,281.902,194.565,283.978,194.927,286.349z"/>
<path style="fill:#77767E;" d="M207.319,339.598c1.809,2.18,3.872,4.019,6.051,5.277l77.721,44.872
	c7.012,4.049,12.707,0.796,12.73-7.255l0.001-0.432l-85.063-49.111L207.319,339.598z"/>
<path style="fill:#3E3D43;" d="M319.409,388.855l-22.244,12.926c-1.174,0.682-2.799,0.588-4.591-0.446l22.244-12.926
	C316.608,389.444,318.234,389.539,319.409,388.855z"/>
<g>
	<path style="fill:#1D1D1F;" d="M332.473,411.337l-22.244,12.926c4.47-2.598,7.242-8.121,7.264-15.969l22.244-12.926
		C339.715,403.216,336.943,408.74,332.473,411.337z"/>
	<polygon style="fill:#1D1D1F;" points="317.62,363.776 339.864,350.849 339.737,395.367 317.493,408.295 	"/>
</g>
<polygon style="fill:#57565C;" points="189.63,261.215 211.874,248.288 315.045,307.855 292.801,320.781 "/>
<path style="fill:#2E2E30;" d="M292.801,320.781c13.75,7.938,24.863,27.188,24.818,42.994l-0.126,44.519
	c-0.045,15.799-11.232,22.174-24.98,14.236l-96.059-55.459c-11.916-6.88-22.132-22.48-24.377-37.235l-4.656-30.535
	c-0.793-5.197-4.39-10.699-8.588-13.122c-4.198-2.424-7.815-1.088-8.634,3.179l-4.814,25.067
	c-2.322,12.119-12.593,15.891-24.508,9.011l-96.051-55.455C11.069,260.038-0.045,240.789,0,224.99l0.126-44.519
	c0.045-15.807,11.232-22.182,24.988-14.24l103.158,59.558c6.65,3.839,13.13,10.387,17.857,18.474
	c2.002,3.421,3.613,6.934,4.821,10.406c1.515,4.353,4.558,8.36,7.943,10.314c3.385,1.954,6.441,1.469,7.976-1.124
	c1.224-2.069,2.849-3.704,4.864-4.807c4.757-2.619,11.254-1.674,17.897,2.161L292.801,320.781z M134.997,259.769
	c0.519-2.7-0.616-5.497-1.34-6.927c-0.716-1.426-2.323-4.047-4.977-5.579l-103.628-59.83c-3.56-2.055-6.471-0.404-6.483,3.686
	l-0.126,44.519c-0.011,4.091,2.881,9.093,6.441,11.148l96.051,55.455c3.083,1.779,5.756,0.795,6.357-2.336L134.997,259.769
	 M299.049,397.646l0.126-44.519c0.011-4.091-2.875-9.089-6.434-11.144l-103.635-59.834c-2.653-1.532-4.271-0.772-4.991-0.177
	c-0.728,0.592-1.869,2.075-1.374,5.36l7.45,48.886c0.581,3.814,3.241,7.878,6.324,9.658l96.057,55.459
	C296.133,403.391,299.037,401.736,299.049,397.646"/>
<path style="fill:#77767E;" d="M292.801,320.781l22.244-12.926c13.75,7.938,24.863,27.188,24.818,42.994l-22.244,12.926
	C317.665,347.969,306.55,328.719,292.801,320.781z"/>
<g>
</g>
<g>
</g>
<g>
</g>
<g>
</g>
<g>
</g>
<g>
</g>
<g>
</g>
<g>
</g>
<g>
</g>
<g>
</g>
<g>
</g>
<g>
</g>
<g>
</g>
<g>
</g>
<g>
</g>
</svg>
