<?xml version="1.0" encoding="iso-8859-1"?>
<!-- Generator: Adobe Illustrator 19.0.0, SVG Export Plug-In . SVG Version: 6.00 Build 0)  -->
<svg version="1.1" id="Layer_1" xmlns="http://www.w3.org/2000/svg" xmlns:xlink="http://www.w3.org/1999/xlink" x="0px" y="0px"
	 viewBox="0 0 512 512" style="enable-background:new 0 0 512 512;" xml:space="preserve">
<polygon style="fill:#1D1D1F;" points="142.165,512 427.804,348.164 427.804,74.945 412.519,55.244 403.117,60.637 403.117,43.121 
	369.669,0 84.03,163.836 84.03,437.055 117.479,480.176 126.881,474.783 126.881,492.299 "/>
<g style="enable-background:new    ;">
	<polygon style="fill:#3E3D43;" points="84.03,163.836 369.669,0 403.12,43.121 117.644,206.957 	"/>
	<polygon style="fill:#1D1D1F;" points="117.644,206.957 403.12,43.121 403.283,316.34 117.466,480.176 	"/>
	<g>
		<polygon style="fill:#010101;" points="138.108,472.514 138.108,218.67 399.264,68.877 389.862,63.485 128.707,213.277 
			128.707,467.121 		"/>
		<polygon style="fill:#2487FF;" points="128.707,213.277 389.862,63.484 399.264,68.877 138.108,218.67 		"/>
		<polygon style="fill:#282829;" points="138.108,218.67 399.264,68.877 399.264,322.722 138.108,472.514 		"/>
		<polygon style="fill:#005ECF;" points="138.108,472.514 128.707,467.121 128.707,213.277 138.108,218.67 		"/>
	</g>
	<polygon style="fill:#2E2E30;" points="117.466,480.176 84.03,436.889 84.03,163.836 117.644,206.957 	"/>
	<path style="fill:#59A4FF;" d="M100.865,211.56c-5.344-3.084-9.684-0.605-9.701,5.535c-0.018,6.14,4.294,13.615,9.638,16.7
		c5.344,3.084,9.689,0.608,9.707-5.532C110.526,222.123,106.209,214.644,100.865,211.56"/>
</g>
<g style="enable-background:new    ;">
	<polygon style="fill:#1D1D1F;" points="427.97,348.164 427.97,74.945 412.684,55.244 127.046,219.08 127.046,492.299 142.33,512 	
		"/>
	<polygon style="fill:#3E3D43;" points="127.046,219.08 412.684,55.244 427.97,74.945 142.33,238.781 	"/>
	<polygon style="fill:#1D1D1F;" points="142.33,238.781 427.97,74.945 427.97,348.164 142.33,512 	"/>
	<g>
		<polygon style="fill:#2E2E30;" points="142.33,512 127.046,492.299 127.046,219.08 142.33,238.781 		"/>
		<g>
			<polygon style="fill:#1D1D1F;" points="131.594,281.092 131.594,244.585 137.783,252.562 137.783,289.07 			"/>
			<polygon style="fill:#1D1D1F;" points="131.594,329.98 131.594,293.472 137.783,301.45 137.783,337.957 			"/>
		</g>
	</g>
</g>
<g>
</g>
<g>
</g>
<g>
</g>
<g>
</g>
<g>
</g>
<g>
</g>
<g>
</g>
<g>
</g>
<g>
</g>
<g>
</g>
<g>
</g>
<g>
</g>
<g>
</g>
<g>
</g>
<g>
</g>
</svg>
