<svg height="512pt" viewBox="-54 0 512 512" width="512pt" xmlns="http://www.w3.org/2000/svg"><path d="m78.945312 447.40625-28.855468 16.660156v14.613282l57.714844 33.320312 28.855468-16.660156v-14.613282zm0 0" fill="#0c2056"/><path d="m78.945312 447.40625 57.714844 33.320312-28.855468 16.660157-57.714844-33.320313zm0 0" fill="#2b5d99"/><path d="m136.660156 480.726562v14.613282l-28.855468 16.660156v-14.613281zm0 0" fill="#0b4784"/><path d="m340.242188 296.511719-28.855469 16.660156v14.609375l57.714843 33.320312 28.855469-16.660156v-14.609375zm0 0" fill="#0c2056"/><path d="m340.242188 296.511719 57.714843 33.320312-28.855469 16.660157-57.714843-33.320313zm0 0" fill="#2b5d99"/><path d="m397.957031 329.832031v14.609375l-28.855469 16.660156v-14.609374zm0 0" fill="#0b4784"/><path d="m377.902344 0-377.902344 218.179688v271.996093l26.546875 15.328125 377.902344-218.183594v-271.992187zm0 0" fill="#0c2056"/><path d="m26.546875 233.507812 377.902344-218.179687v271.992187l-377.902344 218.179688zm0 0" fill="#0b4784"/><path d="m380.90625 56.105469v217.621093l-330.816406 190.996094v-217.621094zm0 0" fill="#0c2056"/><path d="m0 218.179688 377.902344-218.179688 26.546875 15.328125-377.902344 218.179687zm0 0" fill="#2b5d99"/><path d="m380.90625 283.117188v10.929687l-35.011719 20.210937v-10.929687zm0 0" fill="#a2bf26"/><path d="m240.859375 354.585938 140.046875-267.589844v-30.890625l-155.644531 89.859375-163.214844 311.855468zm0 0" fill="#0f286b"/></svg>