<?xml version="1.0" encoding="utf-8"?>
<!-- Generator: Adobe Illustrator 19.0.0, SVG Export Plug-In . SVG Version: 6.00 Build 0)  -->
<svg version="1.1" id="Ñëîé_1" xmlns="http://www.w3.org/2000/svg" xmlns:xlink="http://www.w3.org/1999/xlink" x="0px" y="0px"
	 viewBox="0 0 368 305" style="enable-background:new 0 0 368 305;" xml:space="preserve">
<style type="text/css">
	.st0{opacity:0.5;fill:#173D7A;}
	.st1{fill:#FF2C9C;}
	.st2{fill:#FFFFFF;}
	.st3{fill:#5793CE;}
	.st4{fill:#173D7A;}
	.st5{fill:#396CAA;}
	.st6{fill:#D4ECFF;}
	.st7{display:none;fill:#D4ECFF;}
	.st8{display:none;fill:#FF2C9C;}
	.st9{display:none;}
	.st10{display:inline;fill:#FF2C9C;}
	.st11{display:inline;}
	.st12{display:inline;fill:#173D7A;}
	.st13{display:none;opacity:0.6;}
	.st14{display:inline;fill:#396CAA;}
	.st15{fill:#D3008D;}
	.st16{fill:#092E63;}
	.st17{fill:#F9BF30;}
	.st18{fill:#FDD762;}
	.st19{fill:#E8A200;}
	.st20{opacity:0.4;}
	.st21{opacity:0.2;fill:#FFFFFF;}
	.st22{opacity:0.7;fill:#FFFFFF;}
	.st23{opacity:0.5;fill:#092E63;}
	.st24{fill:url(#SVGID_1_);}
	.st25{fill:url(#SVGID_2_);}
	.st26{fill:url(#SVGID_3_);}
	.st27{opacity:0.3;fill:#06033E;}
</style>
<g>
	<g>
		<path class="st0" d="M123,104c-7.9,4.1-20.6,4.1-28.5,0c-7.9-4.1-7.9-10.9,0-15c7.9-4.1,20.6-4.1,28.5,0
			C130.9,93.2,130.9,99.9,123,104z"/>
		<path class="st1" d="M131.7,87.4v-5.9h-1.2c-1.1-1.7-2.9-3.3-5.5-4.7c-9-4.7-23.5-4.7-32.5,0c-2.6,1.4-4.4,3-5.5,4.7h-1.2v5.8h0
			c0,3.1,2.2,6.2,6.7,8.6c9,4.7,23.5,4.7,32.5,0C129.5,93.6,131.7,90.5,131.7,87.4z"/>
		<path class="st1" d="M125,90.1c-9,4.7-23.5,4.7-32.5,0c-9-4.7-9-12.4,0-17.1c9-4.7,23.5-4.7,32.5,0S134,85.4,125,90.1z"/>
		<path class="st2" d="M125,90.1c-9,4.7-23.5,4.7-32.5,0c-4.3-2.3-6.5-5.2-6.7-8.2c-0.2,3.2,2,6.5,6.7,8.9c9,4.7,23.5,4.7,32.5,0
			c4.7-2.5,6.9-5.7,6.7-8.9C131.5,84.9,129.3,87.8,125,90.1z"/>
	</g>
	<g>
		<path class="st2" d="M97.7,85.6c-0.4-0.2-0.6-0.5-0.6-0.8l0-7.9c0-0.6,0.9-1.1,2.1-1.1c1.1,0,2.1,0.5,2.1,1.1l0,6.5l20.8-2.3
			c1.1-0.1,2.2,0.3,2.4,0.8c0.2,0.6-0.5,1.2-1.6,1.3l-23.3,2.6c-0.6,0.1-1.2,0-1.7-0.2C97.8,85.6,97.8,85.6,97.7,85.6z"/>
	</g>
</g>
<g>
	<g>
		<path class="st0" d="M296.5,143.2l-77.3-44.8c-4.2-2.4-11.5-2.1-16.4,0.7L40.4,192.5c-4.9,2.8-5.4,7-1.2,9.5l77.3,44.8
			c4.2,2.4,11.5,2.1,16.4-0.7l162.3-93.4C300.2,149.9,300.7,145.7,296.5,143.2z"/>
		<path class="st3" d="M114.3,230.2l-80.5-46.6c-2.6-1.5-3.9-3.6-3.8-5.7l0,0l0-11.7l4.5,5.2c0.3-0.2,0.6-0.4,0.9-0.6l164.7-94.8
			c6.5-3.8,16.4-4.2,22.1-0.9l79.4,46c1.6-1.8,5-5.5,5-5.5l0,11.4l0,0c0.1,2.6-1.7,5.3-5.4,7.4l-164.7,94.8
			C129.9,233.1,120,233.5,114.3,230.2z"/>
		<path class="st4" d="M70.8,201.6l4.6,2.7c0.6,0.4,1.1,0,1.1-0.8l0,0c0-0.8-0.5-1.8-1.1-2.1l-4.6-2.7c-0.6-0.4-1.1,0-1.1,0.8v0
			C69.7,200.3,70.2,201.2,70.8,201.6z"/>
		<path class="st5" d="M200.1,76.1c6.5-3.8,16.4-4.2,22.1-0.9l79.4,46c1.6-1.8,5-5.5,5-5.5l0,11.4l0,0c0.1,2.6-1.7,5.3-5.4,7.4
			l-164.7,94.8c-3.4,2-7.7,3-11.9,3.1l0.2-112.9L200.1,76.1z"/>
		<path class="st6" d="M302.7,110l-80.5-46.6c-5.7-3.3-15.5-2.9-22.1,0.9L35.5,159.1c-6.5,3.8-7.3,9.5-1.6,12.7l80.5,46.6
			c5.7,3.3,15.5,2.9,22.1-0.9l164.7-94.8C307.6,119,308.4,113.3,302.7,110z"/>
		<path class="st2" d="M114.3,219.7l-80.5-46.6c-2.9-1.7-4.1-4-3.7-6.4c0.1,1.9,1.4,3.8,3.8,5.2l80.5,46.6
			c5.7,3.3,15.5,2.9,22.1-0.9l164.7-94.8c3.2-1.8,5-4.1,5.3-6.3c0.2,2.6-1.6,5.4-5.4,7.6l-164.7,94.8
			C129.8,222.6,120,223,114.3,219.7z"/>
		<path class="st4" d="M296.5,111.9l-77.3-44.8c-4.2-2.4-11.5-2.1-16.4,0.7L40.4,161.2c-4.9,2.8-5.4,7-1.2,9.5l77.3,44.8
			c4.2,2.4,11.5,2.1,16.4-0.7l162.3-93.4C300.2,118.6,300.7,114.3,296.5,111.9z"/>
	</g>
	<g>
		<polygon class="st6" points="136.1,192.2 81.5,160.7 85,158.6 139.6,190.2 		"/>
		<polygon class="st6" points="98.1,183 70.5,167 73.9,165 101.6,181 		"/>
		<polygon class="st1" points="111.5,190.7 102.5,185.5 106,183.5 115,188.7 		"/>
		<polygon class="st2" points="125,198.5 116.1,193.4 119.6,191.4 128.5,196.5 		"/>
		<polygon class="st2" points="98.4,176.8 76,163.8 79.5,161.8 101.9,174.8 		"/>
		<polygon class="st6" points="125.8,192.6 103.4,179.6 106.8,177.6 129.3,190.6 		"/>
		<g>
			<path class="st1" d="M109.2,164.9c-1.1,0.6-2.9,0.6-4.1,0c-1.1-0.6-1.1-1.7,0-2.3c1.1-0.6,2.9-0.6,4.1,0
				C110.3,163.2,110.3,164.3,109.2,164.9z"/>
			<path class="st2" d="M115.3,168.4c-1.1,0.6-2.9,0.6-4.1,0c-1.1-0.6-1.1-1.7,0-2.3c1.1-0.6,2.9-0.6,4.1,0
				C116.4,166.7,116.4,167.8,115.3,168.4z"/>
			<path class="st6" d="M121.3,171.9c-1.1,0.6-2.9,0.6-4.1,0c-1.1-0.6-1.1-1.7,0-2.3c1.1-0.6,2.9-0.6,4.1,0
				C122.4,170.2,122.4,171.3,121.3,171.9z"/>
			<path class="st1" d="M127.4,175.4c-1.1,0.6-2.9,0.6-4.1,0c-1.1-0.6-1.1-1.7,0-2.3c1.1-0.6,2.9-0.6,4.1,0
				C128.5,173.7,128.5,174.8,127.4,175.4z"/>
			<path class="st2" d="M133.5,178.9c-1.1,0.6-2.9,0.6-4.1,0c-1.1-0.6-1.1-1.7,0-2.3c1.1-0.6,2.9-0.6,4.1,0
				C134.6,177.2,134.6,178.3,133.5,178.9z"/>
		</g>
	</g>
	<g>
		<polygon class="st1" points="255.5,112.2 246.3,106.9 249.9,104.9 259.1,110.2 		"/>
		<polygon class="st2" points="268.3,119.6 259.1,114.3 262.7,112.3 271.9,117.6 		"/>
		<polygon class="st2" points="214.5,88.3 205.3,83 208.9,80.9 218.1,86.2 		"/>
		<polygon class="st2" points="253.5,117.6 240.7,110.2 244.3,108.1 257.1,115.5 		"/>
		<polygon class="st6" points="262.7,122.9 257.1,119.6 260.6,117.6 266.3,120.8 		"/>
	</g>
</g>
<path class="st7" d="M328.7-113c-3.4,17.1,1.9,35.5,15.6,48.1c13.1,12.1,30.7,16.1,46.8,12.4V-113H328.7z"/>
<path class="st8" d="M-209-40.9c3.4,0.6,6.9,0.9,10.5,0.9c34.1,0,61.8-27.7,61.8-61.8c0-3.8-0.3-7.6-1-11.2H-209V-40.9z"/>
<path class="st7" d="M-181.1,337c10.5-8.3,17.2-21,17.2-35.4c0-24.9-20.2-45.1-45.1-45.1V337H-181.1z"/>
<g class="st9">
	<path class="st10" d="M-49.8,94.1H-116c-5.1,0-9.2-4.1-9.2-9.2v0c0-5.1,4.1-9.2,9.2-9.2h66.1c5.1,0,9.2,4.1,9.2,9.2v0
		C-40.6,90-44.7,94.1-49.8,94.1z"/>
	<g class="st11">
		<path class="st2" d="M-103.1,89v-6.7h-1.3v-1h4v1h-1.3V89H-103.1z"/>
		<path class="st2" d="M-99.8,89v-7.8h1.8c0.4,0,0.8,0,1.1,0.1c0.3,0.1,0.5,0.2,0.8,0.3c0.2,0.2,0.4,0.4,0.5,0.6
			c0.1,0.3,0.2,0.6,0.2,1c0,0.5-0.1,0.9-0.2,1.2c-0.1,0.3-0.4,0.5-0.7,0.7l1.1,3.8h-1.4l-0.9-3.6h-0.6V89H-99.8z M-98.3,84.5h0.3
			c0.4,0,0.7-0.1,0.9-0.3c0.2-0.2,0.3-0.5,0.3-0.9c0-0.4-0.1-0.7-0.2-0.9c-0.2-0.2-0.4-0.3-0.8-0.3h-0.4V84.5z"/>
		<path class="st2" d="M-93.3,89v-3l-1.6-4.8h1.3l1,3.1l0.9-3.1h1.3L-92,86v3H-93.3z"/>
		<path class="st2" d="M-87.3,89v-7.8h1.4V89H-87.3z"/>
		<path class="st2" d="M-84,89v-6.7h-1.3v-1h4v1h-1.3V89H-84z"/>
		<path class="st2" d="M-78.3,89v-7.8h1l1.9,4.4v-4.4h1.2V89h-0.9l-1.9-4.6V89H-78.3z"/>
		<path class="st2" d="M-71,89.1c-0.8,0-1.4-0.2-1.7-0.7c-0.3-0.4-0.5-1.1-0.5-1.9v-2.9c0-0.4,0-0.8,0.1-1.1
			c0.1-0.3,0.2-0.6,0.4-0.8c0.2-0.2,0.4-0.4,0.7-0.5c0.3-0.1,0.6-0.2,1.1-0.2c0.8,0,1.4,0.2,1.7,0.6c0.3,0.4,0.5,1.1,0.5,1.9v2.9
			c0,0.4,0,0.8-0.1,1.1c-0.1,0.3-0.2,0.6-0.4,0.8c-0.2,0.2-0.4,0.4-0.7,0.5C-70.2,89-70.6,89.1-71,89.1z M-71.3,87.9
			c0.1,0,0.2,0.1,0.4,0.1c0.1,0,0.3,0,0.4-0.1c0.1,0,0.2-0.1,0.2-0.2c0.1-0.1,0.1-0.2,0.1-0.3c0-0.1,0.1-0.2,0.1-0.3
			c0-0.1,0-0.2,0-0.4v-3.5c0-0.2,0-0.3,0-0.5c0-0.1-0.1-0.2-0.1-0.4c-0.1-0.1-0.1-0.2-0.2-0.2c-0.1-0.1-0.2-0.1-0.4-0.1
			c-0.2,0-0.3,0-0.4,0.1c-0.1,0.1-0.2,0.1-0.2,0.2c-0.1,0.1-0.1,0.2-0.1,0.4c0,0.1,0,0.3,0,0.5v3.5c0,0.1,0,0.3,0,0.4
			c0,0.1,0,0.2,0.1,0.3c0,0.1,0.1,0.2,0.1,0.3C-71.5,87.9-71.4,87.9-71.3,87.9z"/>
		<path class="st2" d="M-66.9,89l-1.1-7.8h1.2l0.6,5l0.8-5h1l0.9,5l0.6-5h1.2l-1.1,7.8h-1.1l-0.9-5.2l-0.9,5.2H-66.9z"/>
	</g>
</g>
<g class="st9">
	<path class="st12" d="M-115.9-3.9c-3.1,0-5.4-0.8-6.7-2.5c-1.4-1.7-2-4.2-2-7.5v-11.2c0-1.6,0.2-3,0.5-4.2c0.3-1.2,0.8-2.2,1.5-3.1
		c0.7-0.9,1.6-1.5,2.7-2c1.1-0.4,2.5-0.7,4.1-0.7c3.1,0,5.4,0.8,6.7,2.5c1.4,1.7,2,4.1,2,7.4v11.2c0,1.6-0.2,3-0.5,4.2
		c-0.3,1.2-0.8,2.2-1.5,3.1c-0.7,0.9-1.6,1.6-2.7,2C-112.9-4.1-114.3-3.9-115.9-3.9z M-117.3-8.3c0.4,0.2,0.8,0.2,1.4,0.2
		c0.5,0,1-0.1,1.4-0.2c0.4-0.2,0.7-0.4,0.9-0.6c0.2-0.3,0.4-0.6,0.5-1c0.1-0.4,0.2-0.8,0.3-1.2c0-0.4,0.1-0.9,0.1-1.5v-13.8
		c0-0.7,0-1.3-0.1-1.8c-0.1-0.5-0.2-0.9-0.4-1.4c-0.2-0.4-0.5-0.8-1-1c-0.4-0.2-1-0.3-1.6-0.3c-0.7,0-1.2,0.1-1.6,0.3
		c-0.4,0.2-0.8,0.5-1,1c-0.2,0.4-0.3,0.9-0.4,1.4c-0.1,0.5-0.1,1.1-0.1,1.8v13.8c0,0.6,0,1.1,0.1,1.5c0,0.4,0.1,0.8,0.3,1.2
		c0.1,0.4,0.3,0.8,0.5,1C-118-8.6-117.7-8.4-117.3-8.3z"/>
	<path class="st12" d="M-103.1-4.3v-30.4h3.8l7.4,17.2v-17.2h4.6v30.4h-3.6l-7.5-18.1v18.1H-103.1z"/>
	<path class="st12" d="M-82.7-4.3v-30.4h5.5v26.6h7.3v3.8H-82.7z"/>
	<path class="st12" d="M-66.8-4.3v-30.4h5.5v30.4H-66.8z"/>
	<path class="st12" d="M-56.7-4.3v-30.4h3.8l7.4,17.2v-17.2h4.6v30.4h-3.6L-52-22.4v18.1H-56.7z"/>
	<path class="st12" d="M-36.3-4.3v-30.4h12.7v3.9h-7.2v8.7h5.7v3.9h-5.7v10h7.3v3.8H-36.3z"/>
	<path class="st12" d="M-11.1-4.3v-30.4h7.4c1.4,0,2.6,0.1,3.7,0.4c1,0.3,2,0.7,2.8,1.2s1.4,1.4,1.8,2.4c0.4,1,0.6,2.3,0.6,3.7
		c0,3.8-1.5,5.8-4.5,6.3c1.8,0.3,3.1,1.1,4,2.4c0.9,1.2,1.3,3,1.3,5.2C6.2-10.2,5.4-8,4-6.5S0.4-4.3-2.4-4.3H-11.1z M-5.6-22.3h1.7
		c1.6,0,2.7-0.3,3.4-1c0.6-0.7,0.9-1.9,0.9-3.5c0-0.9-0.1-1.5-0.3-2.1c-0.2-0.5-0.5-0.9-1-1.2c-0.5-0.3-1-0.4-1.6-0.5
		c-0.6-0.1-1.4-0.1-2.3-0.1h-0.8V-22.3z M-5.6-8.2h2c1.7,0,2.8-0.4,3.4-1.2c0.6-0.8,1-2,1-3.8c0-1.8-0.4-3.2-1.1-4
		c-0.7-0.8-1.9-1.2-3.6-1.2h-1.7V-8.2z"/>
	<path class="st12" d="M8.1-4.3l6.2-30.4h5.8l6.2,30.4h-5.2l-1.2-7.1h-5.3l-1.2,7.1H8.1z M15.2-15h4.1l-2-12.5L15.2-15z"/>
	<path class="st12" d="M29.2-4.3v-30.4H33l7.4,17.2v-17.2H45v30.4h-3.6l-7.5-18.1v18.1H29.2z"/>
	<path class="st12" d="M49.6-4.3v-30.4h5.5v13.2l6-13.2h5.3l-5.8,13.6L67-4.3h-5.5l-5.2-14.3l-1.1,2v12.3H49.6z"/>
	<path class="st12" d="M69.6-4.3v-30.4h5.5v30.4H69.6z"/>
	<path class="st12" d="M79.8-4.3v-30.4h3.8L91-17.5v-17.2h4.6v30.4H92l-7.5-18.1v18.1H79.8z"/>
	<path class="st12" d="M107.8-3.9c-2.9,0-4.9-0.9-6.2-2.7c-1.3-1.8-1.9-4.4-1.9-7.8v-9.9c0-1.7,0.1-3.3,0.4-4.5
		c0.3-1.3,0.7-2.4,1.4-3.3c0.6-1,1.5-1.7,2.7-2.1c1.1-0.5,2.5-0.7,4.2-0.7c3,0,5.2,0.7,6.5,2.2c1.3,1.5,2,3.7,2,6.7v1.5h-5.3v-1.6
		c0-0.7,0-1.2,0-1.6c0-0.4-0.1-0.9-0.2-1.3c-0.1-0.4-0.3-0.8-0.5-1c-0.2-0.2-0.5-0.4-0.9-0.6c-0.4-0.1-0.8-0.2-1.4-0.2
		c-0.4,0-0.8,0.1-1.1,0.2c-0.3,0.1-0.6,0.2-0.8,0.4c-0.2,0.2-0.4,0.4-0.6,0.7c-0.2,0.3-0.3,0.6-0.3,0.8c-0.1,0.3-0.1,0.6-0.2,1
		c0,0.4-0.1,0.8-0.1,1.1c0,0.3,0,0.7,0,1.2v12.3c0,1.8,0.2,3.2,0.7,4c0.5,0.8,1.3,1.3,2.6,1.3c0.7,0,1.2-0.1,1.7-0.4
		c0.4-0.3,0.8-0.6,1-1.1c0.3-0.5,0.4-1.1,0.5-1.7c0.1-0.7,0.2-1.4,0.2-2.4v-2.5h-3.3v-3.6h8.3v15.4h-3.6l-0.4-3.1
		C112-5,110.3-3.9,107.8-3.9z"/>
</g>
<g class="st9">
	<path class="st10" d="M-125.2,25.7l0.3-17.3h3.2l2.5,12.1l2.6-12.1h3.2l0.3,17.3h-2.4l-0.2-11.9l-2.5,11.9h-1.8l-2.5-11.9
		l-0.2,11.9H-125.2z"/>
	<path class="st10" d="M-105.9,25.9c-1.8,0-3.1-0.5-3.8-1.4c-0.8-1-1.2-2.4-1.2-4.2v-6.4c0-0.9,0.1-1.7,0.3-2.4
		c0.2-0.7,0.5-1.3,0.8-1.8c0.4-0.5,0.9-0.9,1.5-1.1c0.6-0.2,1.4-0.4,2.3-0.4c1.8,0,3,0.5,3.8,1.4c0.8,1,1.2,2.3,1.2,4.2v6.4
		c0,0.9-0.1,1.7-0.3,2.4c-0.2,0.7-0.5,1.3-0.8,1.8c-0.4,0.5-0.9,0.9-1.5,1.1C-104.2,25.7-105,25.9-105.9,25.9z M-106.7,23.4
		c0.2,0.1,0.5,0.1,0.8,0.1c0.3,0,0.6,0,0.8-0.1c0.2-0.1,0.4-0.2,0.5-0.4s0.2-0.3,0.3-0.6c0.1-0.2,0.1-0.5,0.1-0.7c0-0.2,0-0.5,0-0.8
		v-7.8c0-0.4,0-0.8-0.1-1c0-0.3-0.1-0.5-0.2-0.8c-0.1-0.2-0.3-0.4-0.5-0.6c-0.2-0.1-0.6-0.2-0.9-0.2s-0.7,0.1-0.9,0.2
		c-0.2,0.1-0.4,0.3-0.5,0.6c-0.1,0.2-0.2,0.5-0.2,0.8c0,0.3-0.1,0.6-0.1,1v7.8c0,0.3,0,0.6,0,0.8c0,0.2,0.1,0.5,0.1,0.7
		c0.1,0.2,0.2,0.4,0.3,0.6S-106.9,23.3-106.7,23.4z"/>
	<path class="st10" d="M-98.6,25.7V8.4h4.2c0.8,0,1.5,0.1,2.1,0.2c0.6,0.1,1.1,0.4,1.6,0.7c0.5,0.3,0.8,0.8,1,1.4
		c0.2,0.6,0.4,1.3,0.3,2.1c0,2.1-0.9,3.3-2.5,3.6c1,0.2,1.8,0.6,2.3,1.3c0.5,0.7,0.8,1.7,0.8,2.9c0,1.6-0.4,2.9-1.2,3.7
		c-0.8,0.9-2,1.3-3.6,1.3H-98.6z M-95.5,15.4h1c0.9,0,1.6-0.2,1.9-0.6c0.3-0.4,0.5-1.1,0.5-2c0-0.5-0.1-0.9-0.2-1.2
		c-0.1-0.3-0.3-0.5-0.6-0.7c-0.3-0.2-0.6-0.3-0.9-0.3c-0.3,0-0.8-0.1-1.3-0.1h-0.4V15.4z M-95.5,23.4h1.2c0.9,0,1.6-0.2,1.9-0.7
		c0.4-0.4,0.5-1.2,0.5-2.2c0-1-0.2-1.8-0.6-2.3c-0.4-0.5-1.1-0.7-2-0.7h-1V23.4z"/>
	<path class="st10" d="M-86.7,25.7V8.4h3.1v17.3H-86.7z"/>
	<path class="st10" d="M-80.9,25.7V8.4h3.1v15.1h4.1v2.2H-80.9z"/>
	<path class="st10" d="M-71.9,25.7V8.4h7.2v2.2h-4.1v5h3.2v2.2h-3.2v5.7h4.1v2.2H-71.9z"/>
	<path class="st10" d="M-58.5,25.7L-55,8.4h3.3l3.5,17.3h-2.9l-0.7-4h-3l-0.7,4H-58.5z M-54.5,19.6h2.3l-1.2-7.1L-54.5,19.6z"/>
	<path class="st10" d="M-46.5,25.7V8.4h5c2.9,0,4.4,1.6,4.4,4.9c0,1.6-0.4,2.8-1.2,3.5c-0.8,0.7-1.9,1.1-3.4,1.1h-1.6v7.7H-46.5z
		 M-43.4,15.7h1c0.9,0,1.5-0.2,1.8-0.5c0.3-0.4,0.5-1,0.5-1.9c0-0.5,0-0.9-0.1-1.2c0-0.3-0.1-0.6-0.3-0.8c-0.2-0.2-0.4-0.4-0.7-0.5
		c-0.3-0.1-0.7-0.1-1.2-0.1h-1V15.7z"/>
	<path class="st10" d="M-35.5,25.7V8.4h5c2.9,0,4.4,1.6,4.4,4.9c0,1.6-0.4,2.8-1.2,3.5c-0.8,0.7-1.9,1.1-3.4,1.1h-1.6v7.7H-35.5z
		 M-32.3,15.7h1c0.9,0,1.5-0.2,1.8-0.5c0.3-0.4,0.5-1,0.5-1.9c0-0.5,0-0.9-0.1-1.2c0-0.3-0.1-0.6-0.3-0.8c-0.2-0.2-0.4-0.4-0.7-0.5
		c-0.3-0.1-0.7-0.1-1.2-0.1h-1V15.7z"/>
	<path class="st10" d="M-24.4,25.7V8.4h3.1v15.1h4.1v2.2H-24.4z"/>
	<path class="st10" d="M-15.4,25.7V8.4h3.1v17.3H-15.4z"/>
	<path class="st10" d="M-5,25.9c-0.7,0-1.4-0.1-2-0.3c-0.6-0.2-1-0.4-1.4-0.8c-0.4-0.3-0.7-0.7-0.9-1.2c-0.2-0.5-0.4-1-0.5-1.6
		c-0.1-0.6-0.1-1.2-0.1-1.9v-6c0-0.8,0-1.4,0.1-2c0.1-0.6,0.3-1.1,0.5-1.6C-9,9.9-8.7,9.5-8.4,9.2C-8,8.9-7.5,8.6-6.9,8.5
		c0.6-0.2,1.2-0.3,2-0.3c0.9,0,1.6,0.1,2.2,0.3c0.6,0.2,1.1,0.6,1.4,1c0.4,0.4,0.6,1,0.8,1.6c0.2,0.6,0.2,1.3,0.2,2.1v1.5h-3v-1.5
		c0-0.9,0-1.4-0.1-1.7c-0.2-0.6-0.6-0.9-1.3-0.9c-0.1,0-0.1,0-0.2,0c-0.3,0-0.5,0-0.7,0.1c-0.2,0.1-0.4,0.2-0.5,0.3
		c-0.1,0.1-0.2,0.3-0.3,0.4c-0.1,0.2-0.1,0.4-0.2,0.6c0,0.2-0.1,0.5-0.1,0.7c0,0.2,0,0.5,0,0.8v7.3c0,1,0.1,1.7,0.4,2.2
		c0.3,0.4,0.7,0.6,1.4,0.6c0.2,0,0.4,0,0.6-0.1c0.2-0.1,0.3-0.1,0.4-0.2c0.1-0.1,0.2-0.2,0.3-0.3c0.1-0.1,0.1-0.3,0.2-0.4
		s0.1-0.3,0.1-0.5c0-0.2,0-0.4,0-0.6c0-0.2,0-0.4,0-0.7v-1.5h3v1.4c0,0.6,0,1.2-0.1,1.7c-0.1,0.5-0.2,1-0.5,1.4
		c-0.2,0.5-0.5,0.8-0.8,1.1c-0.3,0.3-0.8,0.5-1.3,0.7C-3.6,25.8-4.3,25.9-5,25.9z"/>
	<path class="st10" d="M1,25.7L4.5,8.4h3.3l3.5,17.3H8.3l-0.7-4h-3l-0.7,4H1z M5,19.6h2.3l-1.2-7.1L5,19.6z"/>
	<path class="st10" d="M14.1,25.7v-15h-2.9V8.4H20v2.3h-2.8v15H14.1z"/>
	<path class="st10" d="M21.5,25.7V8.4h3.1v17.3H21.5z"/>
	<path class="st10" d="M31.9,25.9c-1.8,0-3.1-0.5-3.8-1.4c-0.8-1-1.2-2.4-1.2-4.2v-6.4c0-0.9,0.1-1.7,0.3-2.4
		c0.2-0.7,0.5-1.3,0.8-1.8c0.4-0.5,0.9-0.9,1.5-1.1c0.6-0.2,1.4-0.4,2.3-0.4c1.8,0,3,0.5,3.8,1.4c0.8,1,1.2,2.3,1.2,4.2v6.4
		c0,0.9-0.1,1.7-0.3,2.4c-0.2,0.7-0.5,1.3-0.8,1.8c-0.4,0.5-0.9,0.9-1.5,1.1C33.6,25.7,32.8,25.9,31.9,25.9z M31.1,23.4
		c0.2,0.1,0.5,0.1,0.8,0.1c0.3,0,0.6,0,0.8-0.1c0.2-0.1,0.4-0.2,0.5-0.4c0.1-0.1,0.2-0.3,0.3-0.6c0.1-0.2,0.1-0.5,0.1-0.7
		c0-0.2,0-0.5,0-0.8v-7.8c0-0.4,0-0.8-0.1-1c0-0.3-0.1-0.5-0.2-0.8c-0.1-0.2-0.3-0.4-0.5-0.6c-0.2-0.1-0.6-0.2-0.9-0.2
		s-0.7,0.1-0.9,0.2c-0.2,0.1-0.4,0.3-0.5,0.6c-0.1,0.2-0.2,0.5-0.2,0.8c0,0.3-0.1,0.6-0.1,1v7.8c0,0.3,0,0.6,0,0.8
		c0,0.2,0.1,0.5,0.1,0.7c0.1,0.2,0.2,0.4,0.3,0.6S30.9,23.3,31.1,23.4z"/>
	<path class="st10" d="M39.2,25.7V8.4h2.2l4.2,9.8V8.4h2.6v17.3h-2.1l-4.3-10.3v10.3H39.2z"/>
</g>
<g class="st13">
	<path class="st14" d="M-125.1,50v-8h0.8v7.5h2.3V50H-125.1z"/>
	<path class="st14" d="M-119.3,50c-0.2,0.1-0.4,0.1-0.7,0.1s-0.5,0-0.7-0.1c-0.2-0.1-0.4-0.2-0.5-0.4c-0.1-0.2-0.2-0.4-0.2-0.7
		c0-0.3-0.1-0.6-0.1-0.9v-1.6c0-0.7,0.1-1.3,0.3-1.6c0.2-0.4,0.6-0.5,1.2-0.5c0.6,0,1,0.2,1.2,0.5c0.2,0.4,0.3,0.9,0.3,1.6V48
		c0,0.4,0,0.7-0.1,0.9c0,0.3-0.1,0.5-0.2,0.7C-118.9,49.8-119.1,49.9-119.3,50z M-120,49.6c0.1,0,0.3,0,0.4-0.1
		c0.1-0.1,0.2-0.1,0.2-0.2c0.1-0.1,0.1-0.2,0.1-0.3c0-0.1,0-0.3,0.1-0.4c0-0.1,0-0.3,0-0.5v-1.7c0-0.2,0-0.4,0-0.5
		c0-0.1,0-0.3-0.1-0.4c0-0.1-0.1-0.3-0.1-0.3c-0.1-0.1-0.1-0.1-0.2-0.2c-0.1-0.1-0.2-0.1-0.4-0.1c-0.1,0-0.2,0-0.3,0
		c-0.1,0-0.2,0.1-0.2,0.2c-0.1,0.1-0.1,0.1-0.1,0.2c0,0.1-0.1,0.2-0.1,0.3c0,0.1,0,0.3,0,0.4c0,0.1,0,0.3,0,0.4V48
		c0,0.2,0,0.3,0,0.4c0,0.1,0,0.2,0,0.4c0,0.1,0,0.2,0.1,0.3c0,0.1,0.1,0.2,0.1,0.2c0.1,0.1,0.1,0.1,0.2,0.2
		C-120.3,49.6-120.2,49.6-120,49.6z"/>
	<path class="st14" d="M-117.5,50v-5.7h0.7v0.8c0.2-0.3,0.4-0.5,0.6-0.6c0.2-0.1,0.5-0.2,0.7-0.2c0.1,0,0.1,0,0.1,0V45
		c-0.1,0-0.2-0.1-0.3-0.1c-0.5,0-0.8,0.2-1.1,0.7V50H-117.5z"/>
	<path class="st14" d="M-113.1,50.1c-0.5,0-0.9-0.2-1.2-0.5c-0.2-0.3-0.4-0.9-0.4-1.7v-1.4c0-0.6,0.1-1,0.2-1.3
		c0.1-0.3,0.3-0.6,0.5-0.7c0.2-0.1,0.5-0.2,0.9-0.2c0.2,0,0.4,0,0.6,0.1c0.2,0.1,0.3,0.2,0.4,0.3c0.1,0.1,0.2,0.3,0.3,0.5
		c0.1,0.2,0.1,0.4,0.1,0.7c0,0.2,0,0.5,0,0.9l0,0.5h-2.3V48c0,0.6,0.1,1,0.2,1.3c0.1,0.2,0.3,0.4,0.6,0.4c0.3,0,0.4-0.1,0.6-0.2
		c0.1-0.2,0.2-0.4,0.2-0.9v-0.4h0.7v0.3c0,0.6-0.1,1-0.3,1.3C-112.2,50-112.6,50.1-113.1,50.1z M-113.9,46.7h1.6v-0.5
		c0-0.2,0-0.4,0-0.5c0-0.1,0-0.3-0.1-0.4c0-0.1-0.1-0.2-0.1-0.3c-0.1-0.1-0.1-0.1-0.2-0.2c-0.1,0-0.2-0.1-0.3-0.1
		c-0.3,0-0.5,0.1-0.6,0.3c-0.1,0.2-0.2,0.6-0.2,1.2V46.7z"/>
	<path class="st14" d="M-110.6,50v-5.7h0.7v0.6c0.4-0.5,0.8-0.7,1.4-0.7c0.5,0,0.8,0.3,0.9,0.8c0.4-0.5,0.9-0.8,1.4-0.8
		c0.3,0,0.5,0.1,0.7,0.3c0.2,0.2,0.3,0.5,0.3,1V50h-0.7v-4.5c0-0.3,0-0.5-0.1-0.7c-0.1-0.1-0.2-0.2-0.4-0.2c-0.4,0-0.7,0.2-1.1,0.6
		c0,0.1,0,0.2,0,0.2V50h-0.7v-4.5c0-0.3-0.1-0.5-0.2-0.7c-0.1-0.1-0.2-0.2-0.4-0.2c-0.4,0-0.7,0.2-1.1,0.6V50H-110.6z"/>
	<path class="st14" d="M-102.1,43.5v-1h0.7v1H-102.1z M-102.1,50v-5.7h0.7V50H-102.1z"/>
	<path class="st14" d="M-100.2,51.9v-7.6h0.7v0.5c0.3-0.4,0.7-0.6,1.1-0.6c0.2,0,0.4,0,0.6,0.1c0.2,0.1,0.3,0.2,0.4,0.3
		c0.1,0.1,0.2,0.3,0.2,0.5c0.1,0.2,0.1,0.4,0.1,0.6c0,0.2,0,0.4,0,0.7v1.2c0,0.3,0,0.6,0,0.8c0,0.2-0.1,0.5-0.1,0.7
		c-0.1,0.2-0.1,0.4-0.3,0.5c-0.1,0.1-0.2,0.2-0.4,0.3c-0.2,0.1-0.3,0.1-0.6,0.1c-0.4,0-0.7-0.2-1-0.5v2.3H-100.2z M-98.6,49.6
		c0.1,0,0.2,0,0.3-0.1c0.1-0.1,0.2-0.1,0.2-0.2c0.1-0.1,0.1-0.2,0.1-0.4c0-0.2,0.1-0.3,0.1-0.5c0-0.2,0-0.4,0-0.7v-1.2
		c0-0.6-0.1-1.1-0.2-1.3c-0.1-0.3-0.3-0.4-0.6-0.4c-0.3,0-0.6,0.1-0.9,0.4v3.9C-99.2,49.4-98.9,49.6-98.6,49.6z"/>
	<path class="st14" d="M-94.7,50.1c-0.5,0-0.8-0.1-1.1-0.4c-0.3-0.3-0.4-0.7-0.5-1.2l0.6-0.2c0,0.4,0.1,0.8,0.3,1
		c0.2,0.2,0.4,0.3,0.7,0.3c0.3,0,0.5-0.1,0.6-0.2c0.1-0.1,0.2-0.3,0.2-0.6c0,0,0,0,0,0c0-0.4-0.2-0.8-0.7-1.1l-0.8-0.7
		c-0.3-0.2-0.5-0.5-0.6-0.7c-0.1-0.2-0.2-0.5-0.2-0.7c0-0.4,0.1-0.7,0.4-1c0.2-0.2,0.6-0.3,1-0.3c0.4,0,0.7,0.1,1,0.4
		c0.2,0.3,0.4,0.6,0.4,1.1l-0.5,0.2c0-0.4-0.1-0.7-0.2-0.9c-0.1-0.2-0.3-0.3-0.6-0.3c-0.2,0-0.4,0.1-0.5,0.2
		c-0.1,0.1-0.2,0.3-0.2,0.5c0,0.2,0,0.3,0.1,0.5c0.1,0.1,0.2,0.3,0.4,0.4l0.8,0.7c0.1,0.1,0.3,0.2,0.4,0.3c0.1,0.1,0.2,0.2,0.3,0.4
		c0.1,0.1,0.2,0.3,0.2,0.5c0,0.2,0.1,0.3,0.1,0.5c0,0.4-0.1,0.8-0.4,1C-93.9,50-94.3,50.1-94.7,50.1z"/>
	<path class="st14" d="M-91.6,50.1c-0.3,0-0.5-0.1-0.7-0.3c-0.2-0.2-0.2-0.5-0.2-0.9v-4.6h0.7v4.4c0,0.3,0,0.5,0.1,0.6
		c0.1,0.1,0.2,0.2,0.4,0.2c0.3,0,0.7-0.2,1-0.6v-4.7h0.7V50h-0.7v-0.6C-90.6,49.9-91.1,50.1-91.6,50.1z"/>
	<path class="st14" d="M-88.4,50v-5.7h0.7v0.6c0.4-0.5,0.8-0.7,1.4-0.7c0.5,0,0.8,0.3,0.9,0.8c0.4-0.5,0.9-0.8,1.4-0.8
		c0.3,0,0.5,0.1,0.7,0.3c0.2,0.2,0.3,0.5,0.3,1V50h-0.7v-4.5c0-0.3,0-0.5-0.1-0.7c-0.1-0.1-0.2-0.2-0.4-0.2c-0.4,0-0.7,0.2-1.1,0.6
		c0,0.1,0,0.2,0,0.2V50H-86v-4.5c0-0.3-0.1-0.5-0.2-0.7c-0.1-0.1-0.2-0.2-0.4-0.2c-0.4,0-0.7,0.2-1.1,0.6V50H-88.4z"/>
	<path class="st14" d="M-78.7,50.1c-0.5,0-0.8-0.2-1.1-0.6c-0.2-0.4-0.3-1-0.3-1.9v-1.1c0-0.3,0-0.6,0-0.8c0-0.2,0.1-0.5,0.1-0.7
		c0.1-0.2,0.1-0.4,0.2-0.5c0.1-0.1,0.2-0.2,0.4-0.3c0.2-0.1,0.3-0.1,0.6-0.1c0.4,0,0.7,0.2,1,0.5V42h0.7v8h-0.7v-0.4
		C-78,50-78.3,50.1-78.7,50.1z M-78.5,49.6c0.3,0,0.6-0.1,0.8-0.4v-4c-0.3-0.3-0.6-0.4-0.9-0.4c-0.3,0-0.5,0.1-0.6,0.4
		c-0.1,0.3-0.2,0.7-0.2,1.3v1.4c0,0.6,0.1,1.1,0.2,1.4C-79.1,49.4-78.8,49.6-78.5,49.6z"/>
	<path class="st14" d="M-73.7,50c-0.2,0.1-0.4,0.1-0.7,0.1c-0.3,0-0.5,0-0.7-0.1c-0.2-0.1-0.4-0.2-0.5-0.4c-0.1-0.2-0.2-0.4-0.2-0.7
		c0-0.3-0.1-0.6-0.1-0.9v-1.6c0-0.7,0.1-1.3,0.3-1.6c0.2-0.4,0.6-0.5,1.2-0.5c0.6,0,1,0.2,1.2,0.5c0.2,0.4,0.3,0.9,0.3,1.6V48
		c0,0.4,0,0.7-0.1,0.9c0,0.3-0.1,0.5-0.2,0.7C-73.3,49.8-73.5,49.9-73.7,50z M-74.4,49.6c0.1,0,0.3,0,0.4-0.1
		c0.1-0.1,0.2-0.1,0.2-0.2c0.1-0.1,0.1-0.2,0.1-0.3c0-0.1,0-0.3,0.1-0.4c0-0.1,0-0.3,0-0.5v-1.7c0-0.2,0-0.4,0-0.5
		c0-0.1,0-0.3-0.1-0.4c0-0.1-0.1-0.3-0.1-0.3c-0.1-0.1-0.1-0.1-0.2-0.2c-0.1-0.1-0.2-0.1-0.4-0.1c-0.1,0-0.2,0-0.3,0
		c-0.1,0-0.2,0.1-0.2,0.2c-0.1,0.1-0.1,0.1-0.1,0.2c0,0.1-0.1,0.2-0.1,0.3c0,0.1,0,0.3,0,0.4c0,0.1,0,0.3,0,0.4V48
		c0,0.2,0,0.3,0,0.4c0,0.1,0,0.2,0,0.4c0,0.1,0,0.2,0.1,0.3c0,0.1,0.1,0.2,0.1,0.2c0.1,0.1,0.1,0.1,0.2,0.2
		C-74.7,49.6-74.6,49.6-74.4,49.6z"/>
	<path class="st14" d="M-71.8,50v-8h0.7v8H-71.8z"/>
	<path class="st14" d="M-67.7,50c-0.2,0.1-0.4,0.1-0.7,0.1c-0.3,0-0.5,0-0.7-0.1c-0.2-0.1-0.4-0.2-0.5-0.4c-0.1-0.2-0.2-0.4-0.2-0.7
		c0-0.3-0.1-0.6-0.1-0.9v-1.6c0-0.7,0.1-1.3,0.3-1.6c0.2-0.4,0.6-0.5,1.2-0.5c0.6,0,1,0.2,1.2,0.5c0.2,0.4,0.3,0.9,0.3,1.6V48
		c0,0.4,0,0.7-0.1,0.9c0,0.3-0.1,0.5-0.2,0.7C-67.4,49.8-67.5,49.9-67.7,50z M-68.5,49.6c0.1,0,0.3,0,0.4-0.1
		c0.1-0.1,0.2-0.1,0.2-0.2c0.1-0.1,0.1-0.2,0.1-0.3c0-0.1,0-0.3,0.1-0.4c0-0.1,0-0.3,0-0.5v-1.7c0-0.2,0-0.4,0-0.5
		c0-0.1,0-0.3-0.1-0.4c0-0.1-0.1-0.3-0.1-0.3c-0.1-0.1-0.1-0.1-0.2-0.2c-0.1-0.1-0.2-0.1-0.4-0.1c-0.1,0-0.2,0-0.3,0
		c-0.1,0-0.2,0.1-0.2,0.2c-0.1,0.1-0.1,0.1-0.1,0.2c0,0.1-0.1,0.2-0.1,0.3c0,0.1,0,0.3,0,0.4c0,0.1,0,0.3,0,0.4V48
		c0,0.2,0,0.3,0,0.4c0,0.1,0,0.2,0,0.4c0,0.1,0,0.2,0.1,0.3c0,0.1,0.1,0.2,0.1,0.2c0.1,0.1,0.1,0.1,0.2,0.2
		C-68.7,49.6-68.6,49.6-68.5,49.6z"/>
	<path class="st14" d="M-65.9,50v-5.7h0.7v0.8c0.2-0.3,0.4-0.5,0.6-0.6c0.2-0.1,0.5-0.2,0.7-0.2c0.1,0,0.1,0,0.1,0V45
		c-0.1,0-0.2-0.1-0.3-0.1c-0.5,0-0.8,0.2-1.1,0.7V50H-65.9z"/>
	<path class="st14" d="M-59.7,50.1c-0.5,0-0.8-0.1-1.1-0.4c-0.3-0.3-0.4-0.7-0.5-1.2l0.6-0.2c0,0.4,0.1,0.8,0.3,1
		c0.2,0.2,0.4,0.3,0.7,0.3c0.3,0,0.5-0.1,0.6-0.2c0.1-0.1,0.2-0.3,0.2-0.6c0,0,0,0,0,0c0-0.4-0.2-0.8-0.7-1.1l-0.8-0.7
		c-0.3-0.2-0.5-0.5-0.6-0.7c-0.1-0.2-0.2-0.5-0.2-0.7c0-0.4,0.1-0.7,0.4-1c0.2-0.2,0.6-0.3,1-0.3c0.4,0,0.7,0.1,1,0.4
		c0.2,0.3,0.4,0.6,0.4,1.1l-0.5,0.2c0-0.4-0.1-0.7-0.2-0.9c-0.1-0.2-0.3-0.3-0.6-0.3c-0.2,0-0.4,0.1-0.5,0.2
		c-0.1,0.1-0.2,0.3-0.2,0.5c0,0.2,0,0.3,0.1,0.5c0.1,0.1,0.2,0.3,0.4,0.4l0.8,0.7c0.1,0.1,0.3,0.2,0.4,0.3c0.1,0.1,0.2,0.2,0.3,0.4
		c0.1,0.1,0.2,0.3,0.2,0.5c0,0.2,0.1,0.3,0.1,0.5c0,0.4-0.1,0.8-0.4,1C-58.8,50-59.2,50.1-59.7,50.1z"/>
	<path class="st14" d="M-57.3,43.5v-1h0.7v1H-57.3z M-57.3,50v-5.7h0.7V50H-57.3z"/>
	<path class="st14" d="M-54,50.1c-0.4,0-0.7-0.1-0.8-0.3c-0.1-0.2-0.2-0.5-0.2-0.9v-4.1h-0.7v-0.5h0.7v-1.8h0.7v1.8h1v0.5h-1v4
		c0,0.3,0,0.5,0.1,0.6c0.1,0.1,0.2,0.2,0.4,0.2c0.1,0,0.3,0,0.4,0V50C-53.6,50.1-53.8,50.1-54,50.1z"/>
	<path class="st14" d="M-49.5,50.1c-0.3,0-0.6-0.1-0.8-0.4c-0.2-0.2-0.3-0.6-0.3-0.9c0-0.2,0-0.4,0-0.5c0-0.1,0.1-0.3,0.2-0.4
		c0.1-0.1,0.2-0.2,0.3-0.4c0.1-0.1,0.3-0.2,0.4-0.3c0.2-0.1,0.4-0.2,0.6-0.3c0.2-0.1,0.4-0.2,0.8-0.4v-0.4c0-0.5,0-0.9-0.2-1.1
		c-0.1-0.2-0.3-0.3-0.6-0.3c-0.5,0-0.8,0.3-0.8,1V46l-0.7,0c0-0.1,0-0.2,0-0.2c0-0.5,0.2-0.9,0.4-1.2c0.3-0.2,0.6-0.4,1.1-0.4
		c0.5,0,0.9,0.2,1.1,0.5c0.2,0.3,0.3,0.8,0.3,1.4v2.8c0,0.5,0,0.8,0.1,1.1h-0.6l-0.1-0.8c-0.1,0.3-0.2,0.5-0.4,0.6
		C-49,50-49.3,50.1-49.5,50.1z M-49.3,49.5c0.2,0,0.4-0.1,0.5-0.2c0.2-0.1,0.3-0.3,0.4-0.5V47c0,0,0,0-0.1,0
		c-0.2,0.1-0.3,0.1-0.4,0.2c-0.1,0-0.2,0.1-0.3,0.2c-0.1,0.1-0.2,0.1-0.3,0.2c-0.1,0-0.1,0.1-0.2,0.2c-0.1,0.1-0.1,0.1-0.2,0.2
		c0,0.1-0.1,0.1-0.1,0.2c0,0.1-0.1,0.2-0.1,0.2c0,0.1,0,0.2,0,0.3c0,0.3,0.1,0.5,0.2,0.6C-49.7,49.4-49.5,49.5-49.3,49.5z"/>
	<path class="st14" d="M-46.6,50v-5.7h0.7v0.6c0.4-0.5,0.8-0.7,1.4-0.7c0.5,0,0.8,0.3,0.9,0.8c0.4-0.5,0.9-0.8,1.4-0.8
		c0.3,0,0.5,0.1,0.7,0.3c0.2,0.2,0.3,0.5,0.3,1V50H-42v-4.5c0-0.3,0-0.5-0.1-0.7c-0.1-0.1-0.2-0.2-0.4-0.2c-0.4,0-0.7,0.2-1.1,0.6
		c0,0.1,0,0.2,0,0.2V50h-0.7v-4.5c0-0.3-0.1-0.5-0.2-0.7c-0.1-0.1-0.2-0.2-0.4-0.2c-0.4,0-0.7,0.2-1.1,0.6V50H-46.6z"/>
	<path class="st14" d="M-38.8,50.1c-0.5,0-0.9-0.2-1.2-0.5c-0.2-0.3-0.4-0.9-0.4-1.7v-1.4c0-0.6,0.1-1,0.2-1.3
		c0.1-0.3,0.3-0.6,0.5-0.7c0.2-0.1,0.5-0.2,0.9-0.2c0.2,0,0.4,0,0.6,0.1c0.2,0.1,0.3,0.2,0.4,0.3c0.1,0.1,0.2,0.3,0.3,0.5
		c0.1,0.2,0.1,0.4,0.1,0.7c0,0.2,0,0.5,0,0.9l0,0.5h-2.3V48c0,0.6,0.1,1,0.2,1.3c0.1,0.2,0.3,0.4,0.6,0.4c0.3,0,0.4-0.1,0.6-0.2
		c0.1-0.2,0.2-0.4,0.2-0.9v-0.4h0.7v0.3c0,0.6-0.1,1-0.3,1.3C-37.9,50-38.2,50.1-38.8,50.1z M-39.6,46.7h1.6v-0.5c0-0.2,0-0.4,0-0.5
		c0-0.1,0-0.3-0.1-0.4c0-0.1-0.1-0.2-0.1-0.3c-0.1-0.1-0.1-0.1-0.2-0.2c-0.1,0-0.2-0.1-0.3-0.1c-0.3,0-0.5,0.1-0.6,0.3
		c-0.1,0.2-0.2,0.6-0.2,1.2V46.7z"/>
	<path class="st14" d="M-34.9,50.1c-0.4,0-0.7-0.1-0.8-0.3c-0.1-0.2-0.2-0.5-0.2-0.9v-4.1h-0.7v-0.5h0.7v-1.8h0.7v1.8h1v0.5h-1v4
		c0,0.3,0,0.5,0.1,0.6c0.1,0.1,0.2,0.2,0.4,0.2c0.1,0,0.3,0,0.4,0V50C-34.5,50.1-34.7,50.1-34.9,50.1z"/>
	<path class="st14" d="M-33.4,51.2l-0.2-0.3c0.2-0.1,0.3-0.2,0.4-0.3c0.1-0.1,0.1-0.3,0.1-0.5h-0.4V49h0.8v1c0,0.3-0.1,0.6-0.2,0.8
		C-33,50.9-33.2,51.1-33.4,51.2z"/>
	<path class="st14" d="M-28.3,50.1c-0.3,0-0.5,0-0.7-0.1c-0.2-0.1-0.3-0.2-0.4-0.3c-0.1-0.1-0.2-0.3-0.3-0.5
		c-0.1-0.2-0.1-0.4-0.1-0.6c0-0.2,0-0.5,0-0.7v-1.3c0-0.4,0-0.8,0.1-1c0-0.3,0.1-0.5,0.2-0.7c0.1-0.2,0.3-0.3,0.5-0.4
		c0.2-0.1,0.4-0.1,0.8-0.1c0.2,0,0.4,0,0.6,0.1c0.2,0.1,0.3,0.1,0.4,0.2c0.1,0.1,0.2,0.2,0.3,0.4c0.1,0.2,0.1,0.3,0.1,0.5
		c0,0.2,0,0.4,0,0.6v0.3h-0.7v-0.3c0-0.5-0.1-0.8-0.2-1c-0.1-0.2-0.3-0.3-0.6-0.3c-0.3,0-0.5,0.1-0.7,0.4c-0.1,0.2-0.2,0.7-0.2,1.3
		V48c0,0.6,0.1,1,0.2,1.2c0.1,0.2,0.3,0.3,0.6,0.3c0.1,0,0.3,0,0.3-0.1c0.1,0,0.2-0.1,0.2-0.2c0.1-0.1,0.1-0.2,0.1-0.3
		c0-0.1,0.1-0.2,0.1-0.4c0-0.1,0-0.3,0-0.5v-0.3h0.7v0.3c0,0.3,0,0.5,0,0.7c0,0.2-0.1,0.4-0.1,0.5c-0.1,0.2-0.1,0.3-0.3,0.4
		c-0.1,0.1-0.2,0.2-0.4,0.3C-27.8,50.1-28,50.1-28.3,50.1z"/>
	<path class="st14" d="M-23.7,50c-0.2,0.1-0.4,0.1-0.7,0.1c-0.3,0-0.5,0-0.7-0.1c-0.2-0.1-0.4-0.2-0.5-0.4c-0.1-0.2-0.2-0.4-0.2-0.7
		c0-0.3-0.1-0.6-0.1-0.9v-1.6c0-0.7,0.1-1.3,0.3-1.6c0.2-0.4,0.6-0.5,1.2-0.5c0.6,0,1,0.2,1.2,0.5c0.2,0.4,0.3,0.9,0.3,1.6V48
		c0,0.4,0,0.7-0.1,0.9c0,0.3-0.1,0.5-0.2,0.7C-23.3,49.8-23.5,49.9-23.7,50z M-24.4,49.6c0.1,0,0.3,0,0.4-0.1
		c0.1-0.1,0.2-0.1,0.2-0.2c0.1-0.1,0.1-0.2,0.1-0.3c0-0.1,0-0.3,0.1-0.4c0-0.1,0-0.3,0-0.5v-1.7c0-0.2,0-0.4,0-0.5
		c0-0.1,0-0.3-0.1-0.4c0-0.1-0.1-0.3-0.1-0.3c-0.1-0.1-0.1-0.1-0.2-0.2c-0.1-0.1-0.2-0.1-0.4-0.1c-0.1,0-0.2,0-0.3,0
		c-0.1,0-0.2,0.1-0.2,0.2c-0.1,0.1-0.1,0.1-0.1,0.2c0,0.1-0.1,0.2-0.1,0.3c0,0.1,0,0.3,0,0.4c0,0.1,0,0.3,0,0.4V48
		c0,0.2,0,0.3,0,0.4c0,0.1,0,0.2,0,0.4c0,0.1,0,0.2,0.1,0.3c0,0.1,0.1,0.2,0.1,0.2c0.1,0.1,0.1,0.1,0.2,0.2
		C-24.6,49.6-24.5,49.6-24.4,49.6z"/>
	<path class="st14" d="M-21.9,50v-5.7h0.7v0.6c0.4-0.5,0.9-0.7,1.4-0.7c0.3,0,0.5,0.1,0.7,0.3c0.2,0.2,0.2,0.5,0.2,0.9V50h-0.7v-4.4
		c0-0.3,0-0.5-0.1-0.6c-0.1-0.1-0.2-0.2-0.4-0.2c-0.3,0-0.6,0.2-1,0.5V50H-21.9z"/>
	<path class="st14" d="M-16.5,50.1c-0.5,0-0.8-0.1-1.1-0.4c-0.3-0.3-0.4-0.7-0.5-1.2l0.6-0.2c0,0.4,0.1,0.8,0.3,1
		c0.2,0.2,0.4,0.3,0.7,0.3c0.3,0,0.5-0.1,0.6-0.2c0.1-0.1,0.2-0.3,0.2-0.6c0,0,0,0,0,0c0-0.4-0.2-0.8-0.7-1.1l-0.8-0.7
		c-0.3-0.2-0.5-0.5-0.6-0.7c-0.1-0.2-0.2-0.5-0.2-0.7c0-0.4,0.1-0.7,0.4-1c0.2-0.2,0.6-0.3,1-0.3c0.4,0,0.7,0.1,1,0.4
		c0.2,0.3,0.4,0.6,0.4,1.1l-0.5,0.2c0-0.4-0.1-0.7-0.2-0.9c-0.1-0.2-0.3-0.3-0.6-0.3c-0.2,0-0.4,0.1-0.5,0.2
		c-0.1,0.1-0.2,0.3-0.2,0.5c0,0.2,0,0.3,0.1,0.5c0.1,0.1,0.2,0.3,0.4,0.4l0.8,0.7c0.1,0.1,0.3,0.2,0.4,0.3c0.1,0.1,0.2,0.2,0.3,0.4
		c0.1,0.1,0.2,0.3,0.2,0.5c0,0.2,0.1,0.3,0.1,0.5c0,0.4-0.1,0.8-0.4,1C-15.7,50-16.1,50.1-16.5,50.1z"/>
	<path class="st14" d="M-12.8,50.1c-0.5,0-0.9-0.2-1.2-0.5c-0.2-0.3-0.4-0.9-0.4-1.7v-1.4c0-0.6,0.1-1,0.2-1.3
		c0.1-0.3,0.3-0.6,0.5-0.7c0.2-0.1,0.5-0.2,0.9-0.2c0.2,0,0.4,0,0.6,0.1c0.2,0.1,0.3,0.2,0.4,0.3c0.1,0.1,0.2,0.3,0.3,0.5
		c0.1,0.2,0.1,0.4,0.1,0.7c0,0.2,0,0.5,0,0.9l0,0.5h-2.3V48c0,0.6,0.1,1,0.2,1.3c0.1,0.2,0.3,0.4,0.6,0.4c0.3,0,0.4-0.1,0.6-0.2
		c0.1-0.2,0.2-0.4,0.2-0.9v-0.4h0.7v0.3c0,0.6-0.1,1-0.3,1.3C-11.9,50-12.3,50.1-12.8,50.1z M-13.6,46.7h1.6v-0.5c0-0.2,0-0.4,0-0.5
		c0-0.1,0-0.3-0.1-0.4c0-0.1-0.1-0.2-0.1-0.3c-0.1-0.1-0.1-0.1-0.2-0.2c-0.1,0-0.2-0.1-0.3-0.1c-0.3,0-0.5,0.1-0.6,0.3
		c-0.1,0.2-0.2,0.6-0.2,1.2V46.7z"/>
	<path class="st14" d="M-8.9,50.1c-0.3,0-0.5,0-0.7-0.1c-0.2-0.1-0.3-0.2-0.4-0.3c-0.1-0.1-0.2-0.3-0.3-0.5
		c-0.1-0.2-0.1-0.4-0.1-0.6c0-0.2,0-0.5,0-0.7v-1.3c0-0.4,0-0.8,0.1-1c0-0.3,0.1-0.5,0.2-0.7c0.1-0.2,0.3-0.3,0.5-0.4
		c0.2-0.1,0.4-0.1,0.8-0.1c0.2,0,0.4,0,0.6,0.1c0.2,0.1,0.3,0.1,0.4,0.2c0.1,0.1,0.2,0.2,0.3,0.4c0.1,0.2,0.1,0.3,0.1,0.5
		c0,0.2,0,0.4,0,0.6v0.3h-0.7v-0.3c0-0.5-0.1-0.8-0.2-1c-0.1-0.2-0.3-0.3-0.6-0.3c-0.3,0-0.5,0.1-0.7,0.4c-0.1,0.2-0.2,0.7-0.2,1.3
		V48c0,0.6,0.1,1,0.2,1.2c0.1,0.2,0.3,0.3,0.6,0.3c0.1,0,0.3,0,0.3-0.1c0.1,0,0.2-0.1,0.2-0.2c0.1-0.1,0.1-0.2,0.1-0.3
		c0-0.1,0.1-0.2,0.1-0.4c0-0.1,0-0.3,0-0.5v-0.3h0.7v0.3c0,0.3,0,0.5,0,0.7c0,0.2-0.1,0.4-0.1,0.5c-0.1,0.2-0.1,0.3-0.3,0.4
		C-7.9,49.9-8.1,50-8.3,50C-8.4,50.1-8.6,50.1-8.9,50.1z"/>
	<path class="st14" d="M-5.1,50.1c-0.4,0-0.7-0.1-0.8-0.3c-0.1-0.2-0.2-0.5-0.2-0.9v-4.1h-0.7v-0.5h0.7v-1.8h0.7v1.8h1v0.5h-1v4
		c0,0.3,0,0.5,0.1,0.6c0.1,0.1,0.2,0.2,0.4,0.2c0.1,0,0.3,0,0.4,0V50C-4.7,50.1-4.9,50.1-5.1,50.1z"/>
	<path class="st14" d="M-2.2,50.1c-0.5,0-0.9-0.2-1.2-0.5c-0.2-0.3-0.4-0.9-0.4-1.7v-1.4c0-0.6,0.1-1,0.2-1.3
		c0.1-0.3,0.3-0.6,0.5-0.7c0.2-0.1,0.5-0.2,0.9-0.2c0.2,0,0.4,0,0.6,0.1c0.2,0.1,0.3,0.2,0.4,0.3c0.1,0.1,0.2,0.3,0.3,0.5
		c0.1,0.2,0.1,0.4,0.1,0.7c0,0.2,0,0.5,0,0.9l0,0.5h-2.3V48c0,0.6,0.1,1,0.2,1.3c0.1,0.2,0.3,0.4,0.6,0.4c0.3,0,0.4-0.1,0.6-0.2
		c0.1-0.2,0.2-0.4,0.2-0.9v-0.4h0.7v0.3c0,0.6-0.1,1-0.3,1.3C-1.3,50-1.7,50.1-2.2,50.1z M-3.1,46.7h1.6v-0.5c0-0.2,0-0.4,0-0.5
		c0-0.1,0-0.3-0.1-0.4c0-0.1-0.1-0.2-0.1-0.3s-0.1-0.1-0.2-0.2c-0.1,0-0.2-0.1-0.3-0.1c-0.3,0-0.5,0.1-0.6,0.3
		c-0.1,0.2-0.2,0.6-0.2,1.2V46.7z"/>
	<path class="st14" d="M1.6,50.1c-0.4,0-0.7-0.1-0.8-0.3c-0.1-0.2-0.2-0.5-0.2-0.9v-4.1h-0.7v-0.5h0.7v-1.8h0.7v1.8h1v0.5h-1v4
		c0,0.3,0,0.5,0.1,0.6c0.1,0.1,0.2,0.2,0.4,0.2c0.1,0,0.3,0,0.4,0V50C2,50.1,1.8,50.1,1.6,50.1z"/>
	<path class="st14" d="M3.9,50.1c-0.3,0-0.5-0.1-0.7-0.3C3,49.6,3,49.3,3,48.9v-4.6h0.7v4.4c0,0.3,0,0.5,0.1,0.6
		c0.1,0.1,0.2,0.2,0.4,0.2c0.3,0,0.7-0.2,1-0.6v-4.7H6V50H5.3v-0.6C4.8,49.9,4.4,50.1,3.9,50.1z"/>
	<path class="st14" d="M7.2,50v-5.7h0.7v0.8c0.2-0.3,0.4-0.5,0.6-0.6c0.2-0.1,0.5-0.2,0.7-0.2c0.1,0,0.1,0,0.1,0V45
		C9.2,45,9.1,45,9,45c-0.5,0-0.8,0.2-1.1,0.7V50H7.2z"/>
	<path class="st14" d="M-124.3,62c-0.3,0-0.6-0.1-0.8-0.4c-0.2-0.2-0.3-0.6-0.3-0.9c0-0.2,0-0.4,0-0.5c0-0.1,0.1-0.3,0.2-0.4
		c0.1-0.1,0.2-0.2,0.3-0.4c0.1-0.1,0.3-0.2,0.4-0.3c0.2-0.1,0.4-0.2,0.6-0.3c0.2-0.1,0.4-0.2,0.8-0.4v-0.4c0-0.5,0-0.9-0.2-1.1
		c-0.1-0.2-0.3-0.3-0.6-0.3c-0.5,0-0.8,0.3-0.8,1v0.2l-0.7,0c0-0.1,0-0.2,0-0.2c0-0.5,0.2-0.9,0.4-1.2c0.3-0.2,0.6-0.4,1.1-0.4
		c0.5,0,0.9,0.2,1.1,0.5c0.2,0.3,0.3,0.8,0.3,1.4v2.8c0,0.5,0,0.8,0.1,1.1h-0.6l-0.1-0.8c-0.1,0.3-0.2,0.5-0.4,0.6
		C-123.7,62-124,62-124.3,62z M-124,61.4c0.2,0,0.4-0.1,0.5-0.2c0.2-0.1,0.3-0.3,0.4-0.5v-1.8c0,0,0,0-0.1,0
		c-0.2,0.1-0.3,0.1-0.4,0.2c-0.1,0-0.2,0.1-0.3,0.2c-0.1,0.1-0.2,0.1-0.3,0.2c-0.1,0-0.1,0.1-0.2,0.2c-0.1,0.1-0.1,0.1-0.2,0.2
		c0,0.1-0.1,0.1-0.1,0.2c0,0.1-0.1,0.2-0.1,0.2c0,0.1,0,0.2,0,0.3c0,0.3,0.1,0.5,0.2,0.6C-124.4,61.3-124.2,61.4-124,61.4z"/>
	<path class="st14" d="M-120,62c-0.5,0-0.8-0.2-1.1-0.6c-0.2-0.4-0.3-1-0.3-1.9v-1.1c0-0.3,0-0.6,0-0.8c0-0.2,0.1-0.5,0.1-0.7
		c0.1-0.2,0.1-0.4,0.2-0.5c0.1-0.1,0.2-0.2,0.4-0.3c0.2-0.1,0.3-0.1,0.6-0.1c0.4,0,0.7,0.2,1,0.5v-2.7h0.7v8h-0.7v-0.4
		C-119.4,61.9-119.7,62-120,62z M-119.9,61.5c0.3,0,0.6-0.1,0.8-0.4v-4c-0.3-0.3-0.6-0.4-0.9-0.4c-0.3,0-0.5,0.1-0.6,0.4
		c-0.1,0.3-0.2,0.7-0.2,1.3v1.4c0,0.6,0.1,1.1,0.2,1.4C-120.4,61.3-120.2,61.5-119.9,61.5z"/>
	<path class="st14" d="M-117.1,55.4v-1h0.7v1H-117.1z M-117.1,61.9v-5.7h0.7v5.7H-117.1z"/>
	<path class="st14" d="M-115.2,63.8v-7.6h0.7v0.5c0.3-0.4,0.7-0.6,1.1-0.6c0.2,0,0.4,0,0.6,0.1c0.2,0.1,0.3,0.2,0.4,0.3
		c0.1,0.1,0.2,0.3,0.2,0.5c0.1,0.2,0.1,0.4,0.1,0.6c0,0.2,0,0.4,0,0.7v1.2c0,0.3,0,0.6,0,0.8c0,0.2-0.1,0.5-0.1,0.7
		c-0.1,0.2-0.1,0.4-0.3,0.5c-0.1,0.1-0.2,0.2-0.4,0.3c-0.2,0.1-0.3,0.1-0.6,0.1c-0.4,0-0.7-0.2-1-0.5v2.3H-115.2z M-113.6,61.5
		c0.1,0,0.2,0,0.3-0.1c0.1-0.1,0.2-0.1,0.2-0.2c0.1-0.1,0.1-0.2,0.1-0.4c0-0.2,0.1-0.3,0.1-0.5c0-0.2,0-0.4,0-0.7v-1.2
		c0-0.6-0.1-1.1-0.2-1.3c-0.1-0.3-0.3-0.4-0.6-0.4c-0.3,0-0.6,0.1-0.9,0.4V61C-114.2,61.3-113.9,61.5-113.6,61.5z"/>
	<path class="st14" d="M-111,55.4v-1h0.7v1H-111z M-111,61.9v-5.7h0.7v5.7H-111z"/>
	<path class="st14" d="M-107.7,62c-0.5,0-0.8-0.1-1.1-0.4c-0.3-0.3-0.4-0.7-0.5-1.2l0.6-0.2c0,0.4,0.1,0.8,0.3,1
		c0.2,0.2,0.4,0.3,0.7,0.3c0.3,0,0.5-0.1,0.6-0.2c0.1-0.1,0.2-0.3,0.2-0.6c0,0,0,0,0,0c0-0.4-0.2-0.8-0.7-1.1l-0.8-0.7
		c-0.3-0.2-0.5-0.5-0.6-0.7c-0.1-0.2-0.2-0.5-0.2-0.7c0-0.4,0.1-0.7,0.4-1c0.2-0.2,0.6-0.3,1-0.3c0.4,0,0.7,0.1,1,0.4
		c0.2,0.3,0.4,0.6,0.4,1.1l-0.5,0.2c0-0.4-0.1-0.7-0.2-0.9c-0.1-0.2-0.3-0.3-0.6-0.3c-0.2,0-0.4,0.1-0.5,0.2
		c-0.1,0.1-0.2,0.3-0.2,0.5c0,0.2,0,0.3,0.1,0.5c0.1,0.1,0.2,0.3,0.4,0.4l0.8,0.7c0.1,0.1,0.3,0.2,0.4,0.3c0.1,0.1,0.2,0.2,0.3,0.4
		c0.1,0.1,0.2,0.3,0.2,0.5c0,0.2,0.1,0.3,0.1,0.5c0,0.4-0.1,0.8-0.4,1C-106.9,61.9-107.3,62-107.7,62z"/>
	<path class="st14" d="M-104,62c-0.3,0-0.5,0-0.7-0.1c-0.2-0.1-0.3-0.2-0.4-0.3c-0.1-0.1-0.2-0.3-0.3-0.5c-0.1-0.2-0.1-0.4-0.1-0.6
		c0-0.2,0-0.5,0-0.7v-1.3c0-0.4,0-0.8,0.1-1c0-0.3,0.1-0.5,0.2-0.7c0.1-0.2,0.3-0.3,0.5-0.4c0.2-0.1,0.4-0.1,0.8-0.1
		c0.2,0,0.4,0,0.6,0.1c0.2,0.1,0.3,0.1,0.4,0.2c0.1,0.1,0.2,0.2,0.3,0.4c0.1,0.2,0.1,0.3,0.1,0.5c0,0.2,0,0.4,0,0.6v0.3h-0.7V58
		c0-0.5-0.1-0.8-0.2-1c-0.1-0.2-0.3-0.3-0.6-0.3c-0.3,0-0.5,0.1-0.7,0.4c-0.1,0.2-0.2,0.7-0.2,1.3v1.6c0,0.6,0.1,1,0.2,1.2
		c0.1,0.2,0.3,0.3,0.6,0.3c0.1,0,0.3,0,0.3-0.1c0.1,0,0.2-0.1,0.2-0.2c0.1-0.1,0.1-0.2,0.1-0.3c0-0.1,0.1-0.2,0.1-0.4
		c0-0.1,0-0.3,0-0.5v-0.3h0.7v0.3c0,0.3,0,0.5,0,0.7c0,0.2-0.1,0.4-0.1,0.5c-0.1,0.2-0.1,0.3-0.3,0.4c-0.1,0.1-0.2,0.2-0.4,0.3
		C-103.5,62-103.8,62-104,62z"/>
	<path class="st14" d="M-101.5,55.4v-1h0.7v1H-101.5z M-101.5,61.9v-5.7h0.7v5.7H-101.5z"/>
	<path class="st14" d="M-99.5,61.9v-5.7h0.7v0.6c0.4-0.5,0.9-0.7,1.4-0.7c0.3,0,0.5,0.1,0.7,0.3c0.2,0.2,0.2,0.5,0.2,0.9v4.6h-0.7
		v-4.4c0-0.3,0-0.5-0.1-0.6c-0.1-0.1-0.2-0.2-0.4-0.2c-0.3,0-0.6,0.2-1,0.5v4.7H-99.5z"/>
	<path class="st14" d="M-93.9,63.8c-0.3,0-0.6,0-0.8,0c-0.2,0-0.4-0.1-0.6-0.2c-0.2-0.1-0.3-0.2-0.4-0.3c-0.1-0.1-0.1-0.3-0.1-0.5
		c0-0.3,0.1-0.5,0.3-0.8c0.2-0.2,0.4-0.4,0.7-0.6c-0.2,0-0.3-0.1-0.5-0.2c-0.1-0.1-0.2-0.2-0.2-0.3c0-0.3,0.2-0.7,0.7-1.2
		c-0.5-0.3-0.7-0.9-0.7-1.8c0-0.3,0-0.5,0.1-0.8c0.1-0.2,0.2-0.4,0.3-0.6c0.1-0.2,0.3-0.3,0.5-0.4c0.2-0.1,0.4-0.2,0.7-0.2
		c0.6,0,1,0.2,1.2,0.7c0.1-0.1,0.2-0.2,0.3-0.3c0.1-0.1,0.3-0.2,0.5-0.3l0.2-0.1l0.2,0.5c-0.2,0-0.3,0.1-0.5,0.2
		c-0.2,0.1-0.3,0.2-0.4,0.3c0,0.1,0.1,0.3,0.1,0.5s0.1,0.4,0.1,0.5c0,0.6-0.1,1.1-0.4,1.5c-0.3,0.4-0.7,0.5-1.2,0.5
		c-0.1,0-0.2,0-0.3,0c-0.1,0-0.2,0-0.3-0.1c0,0,0,0.1-0.1,0.2c-0.1,0.1-0.1,0.2-0.1,0.2c0,0-0.1,0.1-0.1,0.2c0,0.1,0,0.1,0,0.2
		c0,0.1,0.2,0.2,0.5,0.2c0.1,0,0.2,0,0.5,0.1c0.3,0,0.4,0.1,0.4,0.1c0.5,0.1,0.8,0.2,1.1,0.4c0.2,0.2,0.4,0.5,0.4,0.9
		c0,0.5-0.2,0.8-0.5,1C-92.9,63.7-93.4,63.8-93.9,63.8z M-93.9,63.2c0.4,0,0.7-0.1,0.9-0.2c0.2-0.1,0.3-0.3,0.3-0.5
		c0-0.2-0.1-0.4-0.2-0.5c-0.1-0.1-0.4-0.2-0.9-0.3l-0.7-0.1c-0.5,0.3-0.7,0.6-0.7,1c0,0.2,0.1,0.4,0.3,0.5
		C-94.7,63.2-94.4,63.2-93.9,63.2z M-94,59.6c0.2,0,0.3,0,0.4-0.1c0.1-0.1,0.2-0.1,0.3-0.2c0.1-0.1,0.1-0.2,0.2-0.4
		c0-0.1,0.1-0.3,0.1-0.4c0-0.1,0-0.3,0-0.4c0-1-0.3-1.5-0.9-1.5c-0.2,0-0.3,0-0.4,0.1c-0.1,0.1-0.2,0.1-0.3,0.2
		c-0.1,0.1-0.1,0.2-0.2,0.3c0,0.1-0.1,0.3-0.1,0.4c0,0.1,0,0.3,0,0.4C-95,59.1-94.6,59.6-94,59.6z"/>
	<path class="st14" d="M-87.7,62c-0.5,0-0.9-0.2-1.2-0.5c-0.2-0.3-0.4-0.9-0.4-1.7v-1.4c0-0.6,0.1-1,0.2-1.3
		c0.1-0.3,0.3-0.6,0.5-0.7c0.2-0.1,0.5-0.2,0.9-0.2c0.2,0,0.4,0,0.6,0.1c0.2,0.1,0.3,0.2,0.4,0.3c0.1,0.1,0.2,0.3,0.3,0.5
		c0.1,0.2,0.1,0.4,0.1,0.7c0,0.2,0,0.5,0,0.9l0,0.5h-2.3v0.9c0,0.6,0.1,1,0.2,1.3c0.1,0.2,0.3,0.4,0.6,0.4c0.3,0,0.4-0.1,0.6-0.2
		c0.1-0.2,0.2-0.4,0.2-0.9V60h0.7v0.3c0,0.6-0.1,1-0.3,1.3C-86.8,61.9-87.2,62-87.7,62z M-88.6,58.6h1.6v-0.5c0-0.2,0-0.4,0-0.5
		c0-0.1,0-0.3-0.1-0.4c0-0.1-0.1-0.2-0.1-0.3c-0.1-0.1-0.1-0.1-0.2-0.2c-0.1,0-0.2-0.1-0.3-0.1c-0.3,0-0.5,0.1-0.6,0.3
		c-0.1,0.2-0.2,0.6-0.2,1.2V58.6z"/>
	<path class="st14" d="M-85.2,61.9v-8h0.7v8H-85.2z"/>
	<path class="st14" d="M-83.2,55.4v-1h0.7v1H-83.2z M-83.2,61.9v-5.7h0.7v5.7H-83.2z"/>
	<path class="st14" d="M-79.9,62c-0.4,0-0.7-0.1-0.8-0.3c-0.1-0.2-0.2-0.5-0.2-0.9v-4.1h-0.7v-0.5h0.7v-1.8h0.7v1.8h1v0.5h-1v4
		c0,0.3,0,0.5,0.1,0.6c0.1,0.1,0.2,0.2,0.4,0.2c0.1,0,0.3,0,0.4,0V62C-79.5,62-79.7,62-79.9,62z"/>
	<path class="st14" d="M-78.4,63.1l-0.2-0.3c0.2-0.1,0.3-0.2,0.4-0.3c0.1-0.1,0.1-0.3,0.1-0.5h-0.4v-1.1h0.8v1
		c0,0.3-0.1,0.6-0.2,0.8C-77.9,62.8-78.1,63-78.4,63.1z"/>
	<path class="st14" d="M-73.3,62c-0.5,0-0.8-0.1-1.1-0.4c-0.3-0.3-0.4-0.7-0.5-1.2l0.6-0.2c0,0.4,0.1,0.8,0.3,1
		c0.2,0.2,0.4,0.3,0.7,0.3c0.3,0,0.5-0.1,0.6-0.2c0.1-0.1,0.2-0.3,0.2-0.6c0,0,0,0,0,0c0-0.4-0.2-0.8-0.7-1.1l-0.8-0.7
		c-0.3-0.2-0.5-0.5-0.6-0.7c-0.1-0.2-0.2-0.5-0.2-0.7c0-0.4,0.1-0.7,0.4-1c0.2-0.2,0.6-0.3,1-0.3c0.4,0,0.7,0.1,1,0.4
		c0.2,0.3,0.4,0.6,0.4,1.1l-0.5,0.2c0-0.4-0.1-0.7-0.2-0.9c-0.1-0.2-0.3-0.3-0.6-0.3c-0.2,0-0.4,0.1-0.5,0.2
		c-0.1,0.1-0.2,0.3-0.2,0.5c0,0.2,0,0.3,0.1,0.5c0.1,0.1,0.2,0.3,0.4,0.4l0.8,0.7c0.1,0.1,0.3,0.2,0.4,0.3c0.1,0.1,0.2,0.2,0.3,0.4
		c0.1,0.1,0.2,0.3,0.2,0.5c0,0.2,0.1,0.3,0.1,0.5c0,0.4-0.1,0.8-0.4,1C-72.5,61.9-72.9,62-73.3,62z"/>
	<path class="st14" d="M-69.6,62c-0.5,0-0.9-0.2-1.2-0.5c-0.2-0.3-0.4-0.9-0.4-1.7v-1.4c0-0.6,0.1-1,0.2-1.3
		c0.1-0.3,0.3-0.6,0.5-0.7c0.2-0.1,0.5-0.2,0.9-0.2c0.2,0,0.4,0,0.6,0.1c0.2,0.1,0.3,0.2,0.4,0.3c0.1,0.1,0.2,0.3,0.3,0.5
		c0.1,0.2,0.1,0.4,0.1,0.7c0,0.2,0,0.5,0,0.9l0,0.5h-2.3v0.9c0,0.6,0.1,1,0.2,1.3c0.1,0.2,0.3,0.4,0.6,0.4c0.3,0,0.4-0.1,0.6-0.2
		c0.1-0.2,0.2-0.4,0.2-0.9V60h0.7v0.3c0,0.6-0.1,1-0.3,1.3C-68.7,61.9-69.1,62-69.6,62z M-70.4,58.6h1.6v-0.5c0-0.2,0-0.4,0-0.5
		c0-0.1,0-0.3-0.1-0.4c0-0.1-0.1-0.2-0.1-0.3c-0.1-0.1-0.1-0.1-0.2-0.2c-0.1,0-0.2-0.1-0.3-0.1c-0.3,0-0.5,0.1-0.6,0.3
		c-0.1,0.2-0.2,0.6-0.2,1.2V58.6z"/>
	<path class="st14" d="M-65.8,62c-0.5,0-0.8-0.2-1.1-0.6c-0.2-0.4-0.3-1-0.3-1.9v-1.1c0-0.3,0-0.6,0-0.8c0-0.2,0.1-0.5,0.1-0.7
		c0.1-0.2,0.1-0.4,0.2-0.5c0.1-0.1,0.2-0.2,0.4-0.3c0.2-0.1,0.3-0.1,0.6-0.1c0.4,0,0.7,0.2,1,0.5v-2.7h0.7v8h-0.7v-0.4
		C-65.2,61.9-65.5,62-65.8,62z M-65.7,61.5c0.3,0,0.6-0.1,0.8-0.4v-4c-0.3-0.3-0.6-0.4-0.9-0.4c-0.3,0-0.5,0.1-0.6,0.4
		c-0.1,0.3-0.2,0.7-0.2,1.3v1.4c0,0.6,0.1,1.1,0.2,1.4C-66.2,61.3-66,61.5-65.7,61.5z"/>
	<path class="st14" d="M-59.7,62c-0.5,0-0.8-0.2-1.1-0.6c-0.2-0.4-0.3-1-0.3-1.9v-1.1c0-0.3,0-0.6,0-0.8c0-0.2,0.1-0.5,0.1-0.7
		c0.1-0.2,0.1-0.4,0.2-0.5c0.1-0.1,0.2-0.2,0.4-0.3c0.2-0.1,0.3-0.1,0.6-0.1c0.4,0,0.7,0.2,1,0.5v-2.7h0.7v8h-0.7v-0.4
		C-59,61.9-59.4,62-59.7,62z M-59.6,61.5c0.3,0,0.6-0.1,0.8-0.4v-4c-0.3-0.3-0.6-0.4-0.9-0.4c-0.3,0-0.5,0.1-0.6,0.4
		c-0.1,0.3-0.2,0.7-0.2,1.3v1.4c0,0.6,0.1,1.1,0.2,1.4C-60.1,61.3-59.9,61.5-59.6,61.5z"/>
	<path class="st14" d="M-54.7,61.9c-0.2,0.1-0.4,0.1-0.7,0.1c-0.3,0-0.5,0-0.7-0.1c-0.2-0.1-0.4-0.2-0.5-0.4
		c-0.1-0.2-0.2-0.4-0.2-0.7c0-0.3-0.1-0.6-0.1-0.9v-1.6c0-0.7,0.1-1.3,0.3-1.6c0.2-0.4,0.6-0.5,1.2-0.5c0.6,0,1,0.2,1.2,0.5
		c0.2,0.4,0.3,0.9,0.3,1.6v1.6c0,0.4,0,0.7-0.1,0.9c0,0.3-0.1,0.5-0.2,0.7C-54.4,61.7-54.5,61.8-54.7,61.9z M-55.5,61.5
		c0.1,0,0.3,0,0.4-0.1c0.1-0.1,0.2-0.1,0.2-0.2c0.1-0.1,0.1-0.2,0.1-0.3c0-0.1,0-0.3,0.1-0.4c0-0.1,0-0.3,0-0.5v-1.7
		c0-0.2,0-0.4,0-0.5c0-0.1,0-0.3-0.1-0.4c0-0.1-0.1-0.3-0.1-0.3c-0.1-0.1-0.1-0.1-0.2-0.2c-0.1-0.1-0.2-0.1-0.4-0.1
		c-0.1,0-0.2,0-0.3,0c-0.1,0-0.2,0.1-0.2,0.2c-0.1,0.1-0.1,0.1-0.1,0.2c0,0.1-0.1,0.2-0.1,0.3c0,0.1,0,0.3,0,0.4c0,0.1,0,0.3,0,0.4
		v1.7c0,0.2,0,0.3,0,0.4c0,0.1,0,0.2,0,0.4c0,0.1,0,0.2,0.1,0.3c0,0.1,0.1,0.2,0.1,0.2c0.1,0.1,0.1,0.1,0.2,0.2
		C-55.7,61.5-55.6,61.5-55.5,61.5z"/>
	<path class="st14" d="M-49.5,62c-0.5,0-0.9-0.2-1.2-0.5c-0.2-0.3-0.4-0.9-0.4-1.7v-1.4c0-0.6,0.1-1,0.2-1.3
		c0.1-0.3,0.3-0.6,0.5-0.7c0.2-0.1,0.5-0.2,0.9-0.2c0.2,0,0.4,0,0.6,0.1c0.2,0.1,0.3,0.2,0.4,0.3c0.1,0.1,0.2,0.3,0.3,0.5
		c0.1,0.2,0.1,0.4,0.1,0.7c0,0.2,0,0.5,0,0.9l0,0.5h-2.3v0.9c0,0.6,0.1,1,0.2,1.3c0.1,0.2,0.3,0.4,0.6,0.4c0.3,0,0.4-0.1,0.6-0.2
		c0.1-0.2,0.2-0.4,0.2-0.9V60h0.7v0.3c0,0.6-0.1,1-0.3,1.3C-48.6,61.9-49,62-49.5,62z M-50.3,58.6h1.6v-0.5c0-0.2,0-0.4,0-0.5
		c0-0.1,0-0.3-0.1-0.4c0-0.1-0.1-0.2-0.1-0.3c-0.1-0.1-0.1-0.1-0.2-0.2c-0.1,0-0.2-0.1-0.3-0.1c-0.3,0-0.5,0.1-0.6,0.3
		c-0.1,0.2-0.2,0.6-0.2,1.2V58.6z"/>
	<path class="st14" d="M-46.9,55.4v-1h0.7v1H-46.9z M-46.9,61.9v-5.7h0.7v5.7H-46.9z"/>
	<path class="st14" d="M-44.1,62c-0.3,0-0.5-0.1-0.7-0.3c-0.2-0.2-0.2-0.5-0.2-0.9v-4.6h0.7v4.4c0,0.3,0,0.5,0.1,0.6
		c0.1,0.1,0.2,0.2,0.4,0.2c0.3,0,0.7-0.2,1-0.6v-4.7h0.7v5.7h-0.7v-0.6C-43.2,61.8-43.6,62-44.1,62z"/>
	<path class="st14" d="M-39.6,62c-0.5,0-0.8-0.1-1.1-0.4c-0.3-0.3-0.4-0.7-0.5-1.2l0.6-0.2c0,0.4,0.1,0.8,0.3,1
		c0.2,0.2,0.4,0.3,0.7,0.3c0.3,0,0.5-0.1,0.6-0.2c0.1-0.1,0.2-0.3,0.2-0.6c0,0,0,0,0,0c0-0.4-0.2-0.8-0.7-1.1l-0.8-0.7
		c-0.3-0.2-0.5-0.5-0.6-0.7C-41,58-41,57.7-41,57.4c0-0.4,0.1-0.7,0.4-1c0.2-0.2,0.6-0.3,1-0.3c0.4,0,0.7,0.1,1,0.4
		c0.2,0.3,0.4,0.6,0.4,1.1l-0.5,0.2c0-0.4-0.1-0.7-0.2-0.9c-0.1-0.2-0.3-0.3-0.6-0.3c-0.2,0-0.4,0.1-0.5,0.2
		c-0.1,0.1-0.2,0.3-0.2,0.5c0,0.2,0,0.3,0.1,0.5c0.1,0.1,0.2,0.3,0.4,0.4l0.8,0.7c0.1,0.1,0.3,0.2,0.4,0.3c0.1,0.1,0.2,0.2,0.3,0.4
		c0.1,0.1,0.2,0.3,0.2,0.5c0,0.2,0.1,0.3,0.1,0.5c0,0.4-0.1,0.8-0.4,1C-38.8,61.9-39.1,62-39.6,62z"/>
	<path class="st14" d="M-37.3,61.9v-5.7h0.7v0.6c0.4-0.5,0.8-0.7,1.4-0.7c0.5,0,0.8,0.3,0.9,0.8c0.4-0.5,0.9-0.8,1.4-0.8
		c0.3,0,0.5,0.1,0.7,0.3c0.2,0.2,0.3,0.5,0.3,1v4.5h-0.7v-4.5c0-0.3,0-0.5-0.1-0.7c-0.1-0.1-0.2-0.2-0.4-0.2c-0.4,0-0.7,0.2-1.1,0.6
		c0,0.1,0,0.2,0,0.2v4.5H-35v-4.5c0-0.3-0.1-0.5-0.2-0.7c-0.1-0.1-0.2-0.2-0.4-0.2c-0.4,0-0.7,0.2-1.1,0.6v4.7H-37.3z"/>
	<path class="st14" d="M-28.7,61.9c-0.2,0.1-0.4,0.1-0.7,0.1c-0.3,0-0.5,0-0.7-0.1c-0.2-0.1-0.4-0.2-0.5-0.4
		c-0.1-0.2-0.2-0.4-0.2-0.7c0-0.3-0.1-0.6-0.1-0.9v-1.6c0-0.7,0.1-1.3,0.3-1.6c0.2-0.4,0.6-0.5,1.2-0.5c0.6,0,1,0.2,1.2,0.5
		c0.2,0.4,0.3,0.9,0.3,1.6v1.6c0,0.4,0,0.7-0.1,0.9c0,0.3-0.1,0.5-0.2,0.7C-28.4,61.7-28.5,61.8-28.7,61.9z M-29.5,61.5
		c0.1,0,0.3,0,0.4-0.1c0.1-0.1,0.2-0.1,0.2-0.2c0.1-0.1,0.1-0.2,0.1-0.3s0-0.3,0.1-0.4c0-0.1,0-0.3,0-0.5v-1.7c0-0.2,0-0.4,0-0.5
		c0-0.1,0-0.3-0.1-0.4s-0.1-0.3-0.1-0.3c-0.1-0.1-0.1-0.1-0.2-0.2c-0.1-0.1-0.2-0.1-0.4-0.1c-0.1,0-0.2,0-0.3,0
		c-0.1,0-0.2,0.1-0.2,0.2c-0.1,0.1-0.1,0.1-0.1,0.2c0,0.1-0.1,0.2-0.1,0.3c0,0.1,0,0.3,0,0.4c0,0.1,0,0.3,0,0.4v1.7
		c0,0.2,0,0.3,0,0.4c0,0.1,0,0.2,0,0.4c0,0.1,0,0.2,0.1,0.3c0,0.1,0.1,0.2,0.1,0.2c0.1,0.1,0.1,0.1,0.2,0.2
		C-29.7,61.5-29.6,61.5-29.5,61.5z"/>
	<path class="st14" d="M-25.7,62c-0.5,0-0.8-0.2-1.1-0.6c-0.2-0.4-0.3-1-0.3-1.9v-1.1c0-0.3,0-0.6,0-0.8c0-0.2,0.1-0.5,0.1-0.7
		c0.1-0.2,0.1-0.4,0.2-0.5c0.1-0.1,0.2-0.2,0.4-0.3c0.2-0.1,0.3-0.1,0.6-0.1c0.4,0,0.7,0.2,1,0.5v-2.7h0.7v8h-0.7v-0.4
		C-25,61.9-25.3,62-25.7,62z M-25.5,61.5c0.3,0,0.6-0.1,0.8-0.4v-4c-0.3-0.3-0.6-0.4-0.9-0.4c-0.3,0-0.5,0.1-0.6,0.4
		c-0.1,0.3-0.2,0.7-0.2,1.3v1.4c0,0.6,0.1,1.1,0.2,1.4C-26.1,61.3-25.9,61.5-25.5,61.5z"/>
	<path class="st14" d="M-19.5,62c-0.4,0-0.7-0.1-0.8-0.3c-0.1-0.2-0.2-0.5-0.2-0.9v-4.1h-0.7v-0.5h0.7v-1.8h0.7v1.8h1v0.5h-1v4
		c0,0.3,0,0.5,0.1,0.6c0.1,0.1,0.2,0.2,0.4,0.2c0.1,0,0.3,0,0.4,0V62C-19.1,62-19.3,62-19.5,62z"/>
	<path class="st14" d="M-16.6,62c-0.5,0-0.9-0.2-1.2-0.5c-0.2-0.3-0.4-0.9-0.4-1.7v-1.4c0-0.6,0.1-1,0.2-1.3
		c0.1-0.3,0.3-0.6,0.5-0.7c0.2-0.1,0.5-0.2,0.9-0.2c0.2,0,0.4,0,0.6,0.1c0.2,0.1,0.3,0.2,0.4,0.3c0.1,0.1,0.2,0.3,0.3,0.5
		c0.1,0.2,0.1,0.4,0.1,0.7c0,0.2,0,0.5,0,0.9l0,0.5h-2.3v0.9c0,0.6,0.1,1,0.2,1.3c0.1,0.2,0.3,0.4,0.6,0.4c0.3,0,0.4-0.1,0.6-0.2
		c0.1-0.2,0.2-0.4,0.2-0.9V60h0.7v0.3c0,0.6-0.1,1-0.3,1.3C-15.7,61.9-16.1,62-16.6,62z M-17.4,58.6h1.6v-0.5c0-0.2,0-0.4,0-0.5
		c0-0.1,0-0.3-0.1-0.4c0-0.1-0.1-0.2-0.1-0.3c-0.1-0.1-0.1-0.1-0.2-0.2c-0.1,0-0.2-0.1-0.3-0.1c-0.3,0-0.5,0.1-0.6,0.3
		c-0.1,0.2-0.2,0.6-0.2,1.2V58.6z"/>
	<path class="st14" d="M-14.1,61.9v-5.7h0.7v0.6c0.4-0.5,0.8-0.7,1.4-0.7c0.5,0,0.8,0.3,0.9,0.8c0.4-0.5,0.9-0.8,1.4-0.8
		c0.3,0,0.5,0.1,0.7,0.3c0.2,0.2,0.3,0.5,0.3,1v4.5h-0.7v-4.5c0-0.3,0-0.5-0.1-0.7c-0.1-0.1-0.2-0.2-0.4-0.2c-0.4,0-0.7,0.2-1.1,0.6
		c0,0.1,0,0.2,0,0.2v4.5h-0.7v-4.5c0-0.3-0.1-0.5-0.2-0.7c-0.1-0.1-0.2-0.2-0.4-0.2c-0.4,0-0.7,0.2-1.1,0.6v4.7H-14.1z"/>
	<path class="st14" d="M-7.8,63.8v-7.6H-7v0.5c0.3-0.4,0.7-0.6,1.1-0.6c0.2,0,0.4,0,0.6,0.1c0.2,0.1,0.3,0.2,0.4,0.3
		c0.1,0.1,0.2,0.3,0.2,0.5c0.1,0.2,0.1,0.4,0.1,0.6c0,0.2,0,0.4,0,0.7v1.2c0,0.3,0,0.6,0,0.8c0,0.2-0.1,0.5-0.1,0.7
		c-0.1,0.2-0.1,0.4-0.3,0.5c-0.1,0.1-0.2,0.2-0.4,0.3C-5.6,62-5.8,62-6,62c-0.4,0-0.7-0.2-1-0.5v2.3H-7.8z M-6.1,61.5
		c0.1,0,0.2,0,0.3-0.1c0.1-0.1,0.2-0.1,0.2-0.2c0.1-0.1,0.1-0.2,0.1-0.4c0-0.2,0.1-0.3,0.1-0.5c0-0.2,0-0.4,0-0.7v-1.2
		c0-0.6-0.1-1.1-0.2-1.3c-0.1-0.3-0.3-0.4-0.6-0.4c-0.3,0-0.6,0.1-0.9,0.4V61C-6.8,61.3-6.5,61.5-6.1,61.5z"/>
	<path class="st14" d="M-1.4,61.9C-1.6,62-1.9,62-2.2,62c-0.3,0-0.5,0-0.7-0.1c-0.2-0.1-0.4-0.2-0.5-0.4c-0.1-0.2-0.2-0.4-0.2-0.7
		c0-0.3-0.1-0.6-0.1-0.9v-1.6c0-0.7,0.1-1.3,0.3-1.6c0.2-0.4,0.6-0.5,1.2-0.5c0.6,0,1,0.2,1.2,0.5c0.2,0.4,0.3,0.9,0.3,1.6v1.6
		c0,0.4,0,0.7-0.1,0.9c0,0.3-0.1,0.5-0.2,0.7C-1.1,61.7-1.2,61.8-1.4,61.9z M-2.2,61.5c0.1,0,0.3,0,0.4-0.1c0.1-0.1,0.2-0.1,0.2-0.2
		c0.1-0.1,0.1-0.2,0.1-0.3c0-0.1,0-0.3,0.1-0.4c0-0.1,0-0.3,0-0.5v-1.7c0-0.2,0-0.4,0-0.5c0-0.1,0-0.3-0.1-0.4
		c0-0.1-0.1-0.3-0.1-0.3c-0.1-0.1-0.1-0.1-0.2-0.2c-0.1-0.1-0.2-0.1-0.4-0.1c-0.1,0-0.2,0-0.3,0c-0.1,0-0.2,0.1-0.2,0.2
		c-0.1,0.1-0.1,0.1-0.1,0.2c0,0.1-0.1,0.2-0.1,0.3c0,0.1,0,0.3,0,0.4c0,0.1,0,0.3,0,0.4v1.7c0,0.2,0,0.3,0,0.4c0,0.1,0,0.2,0,0.4
		c0,0.1,0,0.2,0.1,0.3c0,0.1,0.1,0.2,0.1,0.2c0.1,0.1,0.1,0.1,0.2,0.2C-2.4,61.5-2.3,61.5-2.2,61.5z"/>
	<path class="st14" d="M0.4,61.9v-5.7h0.7V57c0.2-0.3,0.4-0.5,0.6-0.6c0.2-0.1,0.5-0.2,0.7-0.2c0.1,0,0.1,0,0.1,0v0.8
		c-0.1,0-0.2-0.1-0.3-0.1c-0.5,0-0.8,0.2-1.1,0.7v4.4H0.4z"/>
</g>
<g>
	<g>
		<polygon class="st0" points="299.3,98.2 283.8,89.2 299.3,80.3 314.9,89.2 		"/>
		<polygon class="st15" points="314.9,77.8 299.3,86.8 299.3,68.9 314.9,59.9 		"/>
		<polygon class="st1" points="299.3,68.9 283.8,59.9 299.3,50.9 314.9,59.9 		"/>
		<polygon class="st1" points="299.3,86.8 283.8,77.8 283.8,59.9 299.3,68.9 		"/>
	</g>
	<polygon class="st2" points="293.7,77.1 289.4,74.6 289.4,69.6 293.7,72.1 	"/>
</g>
<g>
	<g>
		<polygon class="st0" points="22.9,154.8 6.7,145.4 22.9,136.1 39.1,145.4 		"/>
		<polygon class="st4" points="39.1,133.6 22.9,142.9 22.9,124.2 39.1,114.9 		"/>
		<polygon class="st6" points="22.9,124.2 6.7,114.9 22.9,105.5 39.1,114.9 		"/>
		<polygon class="st3" points="22.9,142.9 6.7,133.6 6.7,114.9 22.9,124.2 		"/>
	</g>
	<polygon class="st2" points="17,132.8 12.5,130.2 12.5,125 17,127.6 	"/>
</g>
<path class="st16" d="M205,159.2c-14.6,8.4-38.4,8.4-53,0c-14.6-8.4-14.6-22.1,0-30.6c14.6-8.4,38.4-8.4,53,0
	C219.6,137.1,219.6,150.8,205,159.2z"/>
<g>
	<g>
		<path class="st17" d="M213.3,130.1h-1.6c-1.8-3.6-5.2-6.9-10-9.8c-15.5-9-40.8-9-56.3,0c-4.9,2.8-8.2,6.2-10,9.8h-1.6v6.5l0,0
			c0,5.9,3.9,11.8,11.7,16.3c15.5,9,40.8,9,56.3,0c7.8-4.5,11.7-10.4,11.7-16.3l0,0V130.1z"/>
		<path class="st18" d="M164.9,114.2c-7.2,0.9-14,3-19.5,6.2c-4.9,2.8-8.2,6.2-10,9.8h-1.6v6.5c0,5.9,3.9,11.8,11.7,16.3
			c5.6,3.2,12.4,5.3,19.5,6.2V114.2z"/>
		<path class="st19" d="M201.8,152.8c7.7-4.5,11.6-10.3,11.6-16.2v-6.5h-1.6c-1.5-3-4.2-5.9-8-8.5h-1.9V152.8z"/>
		<g class="st20">
			<path class="st19" d="M211.3,129.4c-0.5-0.8-1.1-1.7-1.7-2.5v19.5c0.7-0.8,1.2-1.7,1.7-2.5V129.4z"/>
			<path class="st19" d="M145.3,120.4c-2.2,1.2-4,2.6-5.6,4v24.4c0.5,0.5,1.1,1,1.7,1.5v-26.5h3.3v28.7c0.2,0.1,0.4,0.2,0.6,0.4
				c0.4,0.2,0.8,0.4,1.1,0.6v-29.7h3.3v31.2c0.6,0.2,1.1,0.5,1.7,0.7v-31.9h3.3v33.1c0.6,0.2,1.1,0.3,1.7,0.5v-33.6h3.3v34.4
				c0.6,0.1,1.1,0.2,1.7,0.3v-34.7h3.3v35.2c0.6,0.1,1.1,0.1,1.7,0.2v-35.4h3.3v35.7c0.6,0,1.2,0.1,1.7,0.1v-35.7h3.3v35.8
				c0.6,0,1.2,0,1.7-0.1v-35.7h3.3v35.5c0.6-0.1,1.2-0.1,1.7-0.2v-35.3h3.3v34.9c0.6-0.1,1.2-0.2,1.7-0.3v-34.6h3.3v33.8
				c0.6-0.1,1.2-0.3,1.7-0.5v-33.3h3.3v32.3c0.6-0.2,1.2-0.4,1.7-0.7v-31.6h3.3V154c0.6-0.3,1.2-0.6,1.7-0.9v-29.2h3.3V151
				c0.6-0.4,1.2-0.9,1.7-1.3v-25.8h0.3c-1.4-1.2-3.1-2.4-4.9-3.5c-3.6-2.1-7.8-3.7-12.2-4.8h-31.9
				C153.1,116.7,149,118.3,145.3,120.4z"/>
			<path class="st19" d="M136.5,128.1c-0.5,0.7-0.9,1.3-1.2,2h-0.5v11.9c0.4,1.1,1,2.1,1.7,3.1V128.1z"/>
		</g>
		<path class="st18" d="M201.6,146.4c-15.5,9-40.8,9-56.3,0c-15.5-9-15.5-23.5,0-32.5c15.5-9,40.8-9,56.3,0
			C217.2,122.9,217.2,137.4,201.6,146.4z"/>
		<path class="st21" d="M182.4,134.1c11.4-6.6,14.5-16.2,9-24.4c-14.9-4.4-33.6-2.9-46.1,4.3c-11.4,6.6-14.5,16.2-9,24.4
			C151.2,142.7,169.9,141.3,182.4,134.1z"/>
		<path class="st22" d="M201.6,146.4c-15.5,9-40.8,9-56.3,0c-7.5-4.3-11.4-10-11.6-15.7c-0.3,6.1,3.6,12.2,11.6,16.8
			c15.5,9,40.8,9,56.3,0c8-4.6,11.9-10.8,11.6-16.8C213,136.4,209.2,142.1,201.6,146.4z"/>
		<path class="st19" d="M193.5,141.7c-11,6.4-28.9,6.4-40,0c-11-6.4-11-16.7,0-23.1c11-6.4,28.9-6.4,40,0
			C204.5,125,204.5,135.3,193.5,141.7z"/>
		<path class="st17" d="M153.5,120.1c11-6.4,28.9-6.4,40,0c5.2,3,7.9,6.9,8.2,10.8c0.3-4.4-2.4-8.9-8.2-12.3c-11-6.4-28.9-6.4-40,0
			c-5.8,3.4-8.6,7.9-8.2,12.3C145.6,127,148.3,123.1,153.5,120.1z"/>
		<path class="st17" d="M187.4,122.4l-2.2,0.6l0.6,0.2l-2.1,1.2c-1.7-0.9-3.6-1.3-5.4-1.3c-1.9,0-3.6,0.5-5.2,1.4
			c-0.6,0.4-1.2,0.8-1.6,1.1c-0.4,0.4-0.7,0.8-0.8,1.2c-0.2,0.4-0.3,0.8-0.3,1.2c0,0.4,0,0.8,0,1.3l0.3,2c0.1,0.6,0.1,1,0.1,1.4
			c0,0.4-0.2,0.7-0.5,1.1c-0.3,0.4-0.7,0.7-1.3,1.1c-1,0.6-1.9,0.6-2.7,0.2c-0.6-0.3-0.7-0.8-0.5-1.3c0.3-0.5,1.1-1.2,2.4-1.9v-1.5
			l-1.9,0.7l-2.7-1.1c-1.6,1-2.7,2-3.2,2.9l-0.3-0.3v1.5l0,0c0,1,0.8,2,2.3,3l-1.1,0.6L160,137v1.5l1.3,0.7l2.5-1.5
			c1.6,0.7,3.3,1.1,5.1,1c1.8-0.1,3.4-0.5,4.8-1.3c0.7-0.4,1.3-0.8,1.7-1.3c0.4-0.4,0.8-0.9,1-1.4c0.2-0.5,0.3-0.9,0.4-1.4
			c0-0.4,0-0.9,0-1.5l-0.2-1.9c0-0.4-0.1-0.7,0-0.8c0-0.2,0-0.4,0.1-0.7c0.1-0.3,0.2-0.6,0.4-0.8c0.2-0.2,0.5-0.5,0.9-0.7
			c0.4-0.2,0.9-0.4,1.4-0.5c0.5-0.1,1,0,1.4,0.2c0.2,0.1,0.4,0.2,0.4,0.3c0.1,0.1,0.1,0.2,0.1,0.3l-2.2,0.5v1.5l4.5,2
			c0.4-0.2,0.7-0.4,1-0.7c0.3-0.2,0.6-0.4,0.9-0.7c0.3-0.3,0.6-0.6,0.8-0.8c0.2-0.3,0.3-0.6,0.4-0.9c0-0.2,0.1-0.3,0.1-0.4l0,0v0
			c0,0,0,0,0,0v-1.5l-0.6,0.1c0,0,0,0,0,0c-0.3-0.4-0.7-0.7-1.2-1l2.4-1.4V122.4z"/>
		<g>
			<path class="st18" d="M160,137l2.5-1.4c-1.7-1.1-2.5-2.2-2.3-3.3c0.2-1.1,1.3-2.3,3.5-3.7l4.6,1.9c-1.3,0.8-2.1,1.4-2.4,1.9
				c-0.3,0.5-0.1,0.9,0.5,1.3c0.8,0.5,1.7,0.4,2.7-0.2c0.6-0.3,1-0.7,1.3-1.1c0.3-0.4,0.4-0.8,0.5-1.1c0-0.4,0-0.8-0.1-1.4l-0.3-2
				c-0.1-0.5-0.1-0.9,0-1.3c0-0.4,0.1-0.7,0.3-1.2c0.2-0.4,0.4-0.8,0.8-1.2c0.4-0.4,0.9-0.8,1.6-1.1c1.6-0.9,3.4-1.4,5.2-1.4
				c1.9,0,3.7,0.4,5.4,1.3l2.4-1.4l1.3,0.8l-2.4,1.4c0.5,0.3,0.9,0.7,1.2,1c0.3,0.4,0.5,0.7,0.5,1c0.1,0.3,0.1,0.6,0,1
				c-0.1,0.3-0.2,0.6-0.4,0.9c-0.2,0.3-0.4,0.5-0.8,0.8c-0.3,0.3-0.6,0.5-0.9,0.7c-0.3,0.2-0.6,0.4-1,0.7l-4.5-2
				c0.3-0.2,0.6-0.4,0.8-0.5c0.2-0.1,0.4-0.3,0.7-0.5c0.2-0.2,0.4-0.3,0.5-0.4c0.1-0.1,0.2-0.3,0.2-0.4c0-0.1,0-0.3-0.1-0.4
				c-0.1-0.1-0.2-0.2-0.4-0.3c-0.4-0.2-0.9-0.3-1.4-0.2c-0.5,0.1-1,0.2-1.4,0.5c-0.4,0.2-0.7,0.5-0.9,0.7c-0.2,0.2-0.4,0.5-0.4,0.8
				c-0.1,0.3-0.1,0.6-0.1,0.7c0,0.2,0,0.5,0,0.8l0.2,1.9c0.1,0.5,0.1,1,0,1.5c0,0.4-0.2,0.9-0.4,1.4s-0.5,0.9-1,1.4
				c-0.4,0.4-1,0.9-1.7,1.3c-1.4,0.8-3,1.2-4.8,1.3c-1.8,0.1-3.5-0.3-5.1-1l-2.5,1.5L160,137z"/>
		</g>
	</g>
</g>
<g>
	<g>
		<path class="st17" d="M216.1,118.4h-1.6c-1.8-3.6-5.2-6.9-10-9.8c-15.5-9-40.8-9-56.3,0c-4.9,2.8-8.2,6.2-10,9.8h-1.6v6.5l0,0
			c0,5.9,3.9,11.8,11.7,16.3c15.5,9,40.8,9,56.3,0c7.8-4.5,11.7-10.4,11.7-16.3l0,0V118.4z"/>
		<path class="st18" d="M167.7,102.5c-7.2,0.9-14,3-19.5,6.2c-4.9,2.8-8.2,6.2-10,9.8h-1.6v6.5c0,5.9,3.9,11.8,11.7,16.3
			c5.6,3.2,12.4,5.3,19.5,6.2V102.5z"/>
		<path class="st19" d="M204.6,141.1c7.7-4.5,11.6-10.3,11.6-16.2v-6.5h-1.6c-1.5-3-4.2-5.9-8-8.5h-1.9V141.1z"/>
		<g class="st20">
			<path class="st19" d="M214.1,117.7c-0.5-0.8-1.1-1.7-1.7-2.5v19.5c0.7-0.8,1.2-1.7,1.7-2.5V117.7z"/>
			<path class="st19" d="M148.2,108.7c-2.2,1.2-4,2.6-5.6,4v24.4c0.5,0.5,1.1,1,1.7,1.5v-26.5h3.3v28.7c0.2,0.1,0.4,0.2,0.6,0.4
				c0.4,0.2,0.8,0.4,1.1,0.6v-29.7h3.3v31.2c0.6,0.2,1.1,0.5,1.7,0.7v-31.9h3.3v33.1c0.6,0.2,1.1,0.3,1.7,0.5v-33.6h3.3v34.4
				c0.6,0.1,1.1,0.2,1.7,0.3v-34.7h3.3v35.2c0.6,0.1,1.1,0.1,1.7,0.2v-35.4h3.3v35.7c0.6,0,1.2,0.1,1.7,0.1v-35.7h3.3v35.8
				c0.6,0,1.2,0,1.7-0.1v-35.7h3.3v35.5c0.6-0.1,1.2-0.1,1.7-0.2v-35.3h3.3V147c0.6-0.1,1.2-0.2,1.7-0.3v-34.6h3.3v33.8
				c0.6-0.1,1.2-0.3,1.7-0.5v-33.3h3.3v32.3c0.6-0.2,1.2-0.4,1.7-0.7v-31.6h3.3v30.2c0.6-0.3,1.2-0.6,1.7-0.9v-29.2h3.3v27.2
				c0.6-0.4,1.2-0.9,1.7-1.3v-25.8h0.3c-1.4-1.2-3.1-2.4-4.9-3.5c-3.6-2.1-7.8-3.7-12.2-4.8h-31.9C156,105,151.8,106.6,148.2,108.7z
				"/>
			<path class="st19" d="M139.4,116.4c-0.5,0.7-0.9,1.3-1.2,2h-0.5v11.9c0.4,1.1,1,2.1,1.7,3.1V116.4z"/>
		</g>
		<path class="st18" d="M204.5,134.7c-15.5,9-40.8,9-56.3,0c-15.5-9-15.5-23.5,0-32.5c15.5-9,40.8-9,56.3,0
			C220,111.2,220,125.7,204.5,134.7z"/>
		<path class="st21" d="M185.3,122.4c11.4-6.6,14.5-16.2,9-24.4c-14.9-4.4-33.6-2.9-46.1,4.3c-11.4,6.6-14.5,16.2-9,24.4
			C154.1,131,172.8,129.6,185.3,122.4z"/>
		<path class="st22" d="M204.5,134.7c-15.5,9-40.8,9-56.3,0c-7.5-4.3-11.4-10-11.6-15.7c-0.3,6.1,3.6,12.2,11.6,16.8
			c15.5,9,40.8,9,56.3,0c8-4.6,11.9-10.8,11.6-16.8C215.9,124.7,212,130.3,204.5,134.7z"/>
		<path class="st19" d="M196.3,130c-11,6.4-28.9,6.4-40,0c-11-6.4-11-16.7,0-23.1c11-6.4,28.9-6.4,40,0
			C207.4,113.3,207.4,123.6,196.3,130z"/>
		<path class="st17" d="M156.4,108.4c11-6.4,28.9-6.4,40,0c5.2,3,7.9,6.9,8.2,10.8c0.3-4.4-2.4-8.9-8.2-12.3c-11-6.4-28.9-6.4-40,0
			c-5.8,3.4-8.6,7.9-8.2,12.3C148.4,115.2,151.2,111.4,156.4,108.4z"/>
		<path class="st17" d="M190.2,110.7l-2.2,0.6l0.6,0.2l-2.1,1.2c-1.7-0.9-3.6-1.3-5.4-1.3c-1.9,0-3.6,0.5-5.2,1.4
			c-0.6,0.4-1.2,0.8-1.6,1.1c-0.4,0.4-0.7,0.8-0.8,1.2c-0.2,0.4-0.3,0.8-0.3,1.2c0,0.4,0,0.8,0,1.3l0.3,2c0.1,0.6,0.1,1,0.1,1.4
			c0,0.4-0.2,0.7-0.5,1.1c-0.3,0.4-0.7,0.7-1.3,1.1c-1,0.6-1.9,0.6-2.7,0.2c-0.6-0.3-0.7-0.8-0.5-1.3c0.3-0.5,1.1-1.2,2.4-1.9v-1.5
			l-1.9,0.7l-2.7-1.1c-1.6,1-2.7,2-3.2,2.9l-0.3-0.3v1.5l0,0c0,1,0.8,2,2.3,3l-1.1,0.6l-1.4-0.7v1.5l1.3,0.7l2.5-1.5
			c1.6,0.7,3.3,1.1,5.1,1c1.8-0.1,3.4-0.5,4.8-1.3c0.7-0.4,1.3-0.8,1.7-1.3c0.4-0.4,0.8-0.9,1-1.4c0.2-0.5,0.3-0.9,0.4-1.4
			c0-0.4,0-0.9,0-1.5l-0.2-1.9c0-0.4-0.1-0.7-0.1-0.8c0-0.2,0-0.4,0.1-0.7c0.1-0.3,0.2-0.6,0.4-0.8c0.2-0.2,0.5-0.5,0.9-0.7
			c0.4-0.2,0.9-0.4,1.4-0.5c0.5-0.1,1,0,1.4,0.2c0.2,0.1,0.4,0.2,0.4,0.3c0.1,0.1,0.1,0.2,0.1,0.2l-2.2,0.5v1.5l4.5,2
			c0.4-0.2,0.7-0.5,1-0.7c0.3-0.2,0.6-0.4,0.9-0.7c0.3-0.3,0.6-0.6,0.8-0.8c0.2-0.3,0.3-0.6,0.4-0.9c0-0.2,0.1-0.3,0.1-0.4l0,0v0
			c0,0,0,0,0,0l0-1.5l-0.6,0.1c0,0,0,0,0,0c-0.3-0.4-0.7-0.7-1.2-1l2.4-1.4V110.7z"/>
		<g>
			<path class="st18" d="M162.8,125.3l2.5-1.4c-1.7-1.1-2.5-2.2-2.3-3.3c0.2-1.1,1.3-2.3,3.5-3.7l4.6,1.9c-1.3,0.8-2.1,1.4-2.4,1.9
				c-0.3,0.5-0.1,0.9,0.5,1.3c0.8,0.5,1.7,0.4,2.7-0.2c0.6-0.3,1-0.7,1.3-1.1c0.3-0.4,0.4-0.8,0.5-1.1c0-0.4,0-0.8-0.1-1.4l-0.3-2
				c-0.1-0.5-0.1-0.9,0-1.3c0-0.4,0.1-0.7,0.3-1.2c0.2-0.4,0.4-0.8,0.8-1.2c0.4-0.4,0.9-0.8,1.6-1.1c1.6-0.9,3.4-1.4,5.2-1.4
				c1.9,0,3.7,0.4,5.4,1.3l2.4-1.4l1.3,0.8l-2.4,1.4c0.5,0.3,0.9,0.7,1.2,1c0.3,0.4,0.5,0.7,0.5,1c0.1,0.3,0.1,0.6,0,1
				c-0.1,0.3-0.2,0.6-0.4,0.9c-0.2,0.3-0.4,0.5-0.8,0.8c-0.3,0.3-0.6,0.5-0.9,0.7c-0.3,0.2-0.6,0.4-1,0.7l-4.5-2
				c0.3-0.2,0.6-0.4,0.8-0.5c0.2-0.1,0.4-0.3,0.7-0.5c0.2-0.2,0.4-0.3,0.5-0.4c0.1-0.1,0.2-0.3,0.2-0.4c0-0.1,0-0.3-0.1-0.4
				c-0.1-0.1-0.2-0.2-0.4-0.3c-0.4-0.2-0.9-0.3-1.4-0.2c-0.5,0.1-1,0.2-1.4,0.5c-0.4,0.2-0.7,0.5-0.9,0.7c-0.2,0.2-0.4,0.5-0.4,0.8
				c-0.1,0.3-0.1,0.6-0.1,0.7c0,0.2,0,0.5,0.1,0.8l0.2,1.9c0.1,0.5,0.1,1,0,1.5c0,0.4-0.2,0.9-0.4,1.4c-0.2,0.5-0.5,0.9-1,1.4
				c-0.4,0.4-1,0.9-1.7,1.3c-1.4,0.8-3,1.2-4.8,1.3c-1.8,0.1-3.5-0.3-5.1-1l-2.5,1.5L162.8,125.3z"/>
		</g>
	</g>
</g>
<path class="st23" d="M200.1,64.3l-26.8,15.4l33.2,19.2l38.5-22.2l-22.9-13.2C216.6,60.2,206.7,60.6,200.1,64.3z"/>
<g>
	<g>
		<g>
			<path class="st4" d="M251.6,51.8l-6.6-3.8l24.3-14c1.1-0.7,1.1-1.7,0-2.4l-24.8-14.3c-1.1-0.7-3-0.7-4.2,0l-24.3,14l-6.6-3.8
				l24.3-14c4.8-2.8,12.5-2.8,17.3,0l24.8,14.3c4.8,2.8,4.8,7.2,0,10L251.6,51.8z"/>
		</g>
		<g>
			<path class="st6" d="M262.3,53.4c0-3.5-2.1-7.6-4.8-9.1l-44-25.4c-1.2-0.7-2.3-0.7-3.1-0.3l0,0l-52.5,30.5l50.8,38.3l51.7-30
				c0.2-0.1,0.3-0.2,0.5-0.3l0,0l0,0C261.7,56.5,262.3,55.2,262.3,53.4z"/>
			<path class="st5" d="M208.7,87.4l51.7-30c0.2-0.1,0.3-0.2,0.5-0.3l0,0l0,0c0.9-0.7,1.4-1.9,1.4-3.7c0-1.7-0.5-3.5-1.3-5.1l-59,34
				L208.7,87.4z"/>
			<path class="st4" d="M205.4,87.3l-44-25.4c-2.6-1.5-4.8-5.6-4.8-9.1l0,0c0-3.5,2.1-5.1,4.8-3.6l44,25.4c2.6,1.5,4.8,5.6,4.8,9.1
				l0,0C210.2,87.2,208,88.8,205.4,87.3z"/>
			<path class="st2" d="M205.9,74.3l-44-25.4c-1.2-0.7-2.3-0.7-3.2-0.2c0.8-0.2,1.7-0.1,2.6,0.5l44,25.4c2.6,1.5,4.8,5.6,4.8,9.1v0
				c0,1.9-0.6,3.2-1.6,3.8c1.3-0.4,2.1-1.9,2.1-4.1v0C210.7,79.9,208.6,75.8,205.9,74.3z"/>
		</g>
		<path class="st1" d="M198.8,78.7l-5.3-3c-0.5-0.3-1-1.1-1-1.8l0,0c0-0.7,0.4-1,1-0.7l5.3,3c0.5,0.3,1,1.1,1,1.8l0,0
			C199.7,78.7,199.3,79,198.8,78.7z"/>
	</g>
	<g>
		<path class="st3" d="M204.8,42.6c1.6-0.9,1.6-2.4,0-3.4c-1.6-0.9-4.2-0.9-5.8,0.1c-1.6,0.9-1.6,2.4,0,3.4
			C200.6,43.6,203.2,43.6,204.8,42.6z"/>
		<path class="st2" d="M213.6,47.6c1.6-0.9,1.6-2.4,0-3.4c-1.6-0.9-4.2-0.9-5.8,0.1c-1.6,0.9-1.6,2.4,0,3.4
			C209.4,48.6,212,48.6,213.6,47.6z"/>
		<path class="st2" d="M222.5,52.6c1.6-0.9,1.6-2.4,0-3.4c-1.6-0.9-4.2-0.9-5.8,0.1c-1.6,0.9-1.6,2.4,0,3.4
			C218.3,53.6,220.9,53.6,222.5,52.6z"/>
	</g>
</g>
<g>
	<path class="st0" d="M186.9,286.4l-30.3-17.5c-1.9-1.1-1.6-2.9,0.5-4.2l29.2-16.9c2.1-1.2,5.4-1.4,7.3-0.3l30.3,17.5
		c1.9,1.1,1.6,2.9-0.5,4.2l-29.2,16.9C192,287.3,188.7,287.4,186.9,286.4z"/>
	<path class="st5" d="M225.1,256.5L225.1,256.5v-10.4l-23.4,0l-8.1-4.7c-1.9-1.1-5.1-0.9-7.3,0.3l-7.6,4.4l-23.5,0v10.7
		c-0.1,0.7,0.4,1.4,1.2,1.9l30.3,17.5c1.9,1.1,5.1,0.9,7.3-0.3l29.2-16.9C224.6,258.3,225.2,257.4,225.1,256.5z"/>
	<path class="st5" d="M190.2,240.7c-1.4,0-2.8,0.4-3.9,1l-7.6,4.4l-23.5,0v10.7c-0.1,0.7,0.4,1.4,1.2,1.9l30.3,17.5
		c0.9,0.5,2.1,0.7,3.4,0.7V240.7z"/>
	<path class="st3" d="M158,246.1l-2.7,0v10.7c-0.1,0.7,0.4,1.4,1.2,1.9l1.4,0.8V246.1z"/>
	<path class="st3" d="M187.3,276.5c1.6,0.7,3.9,0.6,5.8-0.1v-12.2h-5.8V276.5z"/>
	<path class="st6" d="M186.9,265.5L156.6,248c-1.9-1.1-1.6-2.9,0.5-4.2l29.2-16.9c2.1-1.2,5.4-1.4,7.3-0.3l30.3,17.5
		c1.9,1.1,1.6,2.9-0.5,4.2l-29.2,16.9C192,266.5,188.7,266.6,186.9,265.5z"/>
	<path class="st2" d="M223.4,246.3l-29.2,16.9c-2.1,1.2-5.4,1.4-7.3,0.3L156.6,246c-0.4-0.2-0.7-0.5-0.9-0.8c-0.6,1-0.3,2.1,0.9,2.9
		l30.3,17.5c1.9,1.1,5.1,0.9,7.3-0.3l29.2-16.9c1.7-1,2.2-2.3,1.4-3.4C224.5,245.4,224,245.9,223.4,246.3z"/>
	<g>
		<path class="st6" d="M214,259.3c0,0.8-0.5,1.7-1.2,2.1c-0.7,0.4-1.2,0.1-1.2-0.7s0.5-1.7,1.2-2.1C213.4,258.2,214,258.5,214,259.3
			z"/>
		<path class="st6" d="M217.9,257c0,0.8-0.5,1.7-1.2,2.1c-0.7,0.4-1.2,0.1-1.2-0.7s0.5-1.7,1.2-2.1
			C217.4,255.9,217.9,256.2,217.9,257z"/>
		<path class="st6" d="M221.9,254.8c0,0.8-0.5,1.7-1.2,2.1c-0.7,0.4-1.2,0.1-1.2-0.7s0.5-1.7,1.2-2.1
			C221.3,253.7,221.9,254,221.9,254.8z"/>
	</g>
	<g>
		<path class="st3" d="M188.7,254.7l-14.2-8.2c-0.9-0.5-0.8-1.4,0.2-2l13.7-7.9c1-0.6,2.5-0.6,3.4-0.1l14.2,8.2
			c0.9,0.5,0.8,1.4-0.2,2l-13.7,7.9C191,255.1,189.5,255.2,188.7,254.7z"/>
		<path class="st6" d="M190,247.8l-2-1.1c-0.1-0.1-0.1-0.2,0-0.3l1.9-1.1c0.1-0.1,0.3-0.1,0.5,0l2,1.1c0.1,0.1,0.1,0.2,0,0.3
			l-1.9,1.1C190.3,247.9,190.1,247.9,190,247.8z"/>
		<path class="st5" d="M174.5,246.5L174.5,246.5c0.1,0,0.2-0.1,0.2-0.1l13.7-7.9c1-0.6,2.5-0.6,3.4-0.1l14.1,8.2
			c0.8-0.6,0.8-1.4,0-1.8l-14.2-8.2c-0.9-0.5-2.4-0.4-3.4,0.1l-13.7,7.9C173.7,245.1,173.6,246,174.5,246.5z"/>
	</g>
</g>
<g>
	<g>
		<g>
			<g>
				<path class="st0" d="M295.1,296.4l-46.6-26.9c-1.7-1-1.5-2.7,0.5-3.8l49.4-28.6c2-1.1,5-1.3,6.7-0.3l46.6,26.9
					c1.7,1,1.5,2.7-0.5,3.8l-49.4,28.6C299.8,297.2,296.8,297.4,295.1,296.4z"/>
				<g>
					
						<linearGradient id="SVGID_1_" gradientUnits="userSpaceOnUse" x1="61.0276" y1="1255.9783" x2="61.0276" y2="1144.5453" gradientTransform="matrix(0.866 0.5 0 1.1547 274.9334 -1249.4518)">
						<stop  offset="0" style="stop-color:#2D0979"/>
						<stop  offset="1" style="stop-color:#5B04F7"/>
					</linearGradient>
					<path class="st24" d="M352.7,245.7l-49.9-28.8c-1.9-1.1-3.5-4.1-3.5-6.7V90.9c0-2.6,1.6-3.8,3.5-2.7l49.9,28.8
						c1.9,1.1,3.5,4.1,3.5,6.7v119.3C356.2,245.7,354.7,246.9,352.7,245.7z"/>
					<path class="st5" d="M352.7,117.1l-49.9-28.8c-0.9-0.5-1.7-0.5-2.3-0.2l0,0l-56.9,32.8l2.7,9.9l51.9,147.8l56.7-32.7
						c0,0,0,0,0,0l0.1-0.1l0,0c0.7-0.4,1.2-1.4,1.2-2.8V123.8C356.2,121.2,354.7,118.2,352.7,117.1z"/>
					<path class="st6" d="M352.7,117.1l-49.9-28.8c-0.9-0.5-1.7-0.5-2.3-0.2l0,0l-56.9,32.8l2.7,9.9l14.3,40.6l2.7,1.6l91.9-53.1
						C354.6,118.7,353.7,117.6,352.7,117.1z"/>
					<path class="st3" d="M295.8,278.5L246,249.8c-1.9-1.1-3.5-4.1-3.5-6.7V123.7c0-2.6,1.6-3.8,3.5-2.7l49.9,28.8
						c1.9,1.1,3.5,4.1,3.5,6.7v119.3C299.3,278.5,297.8,279.7,295.8,278.5z"/>
					
						<linearGradient id="SVGID_2_" gradientUnits="userSpaceOnUse" x1="-35.5789" y1="1263.6655" x2="20.4171" y2="1250.9768" gradientTransform="matrix(0.866 0.5 0 1.1547 274.9334 -1249.4518)">
						<stop  offset="0" style="stop-color:#3919BB"/>
						<stop  offset="1" style="stop-color:#6507FA"/>
					</linearGradient>
					<path class="st25" d="M292.7,271.4l-43.6-25.2c-1.7-1-3.1-3.6-3.1-5.9V129.5c0-2.3,1.4-3.3,3.1-2.3l43.6,25.2
						c1.7,1,3.1,3.6,3.1,5.9V269C295.8,271.3,294.4,272.3,292.7,271.4z"/>
					
						<linearGradient id="SVGID_3_" gradientUnits="userSpaceOnUse" x1="-35.5789" y1="1263.6655" x2="20.4171" y2="1250.9768" gradientTransform="matrix(0.866 0.5 0 1.1547 274.9334 -1249.4518)">
						<stop  offset="0" style="stop-color:#3919BB"/>
						<stop  offset="1" style="stop-color:#6507FA"/>
					</linearGradient>
					<path class="st26" d="M292.7,271.4l-43.6-25.2c-1.7-1-3.1-3.6-3.1-5.9V129.5c0-2.3,1.4-3.3,3.1-2.3l43.6,25.2
						c1.7,1,3.1,3.6,3.1,5.9V269C295.8,271.3,294.4,272.3,292.7,271.4z"/>
					<path class="st4" d="M292.7,271.4l-43.6-25.2c-1.7-1-3.1-3.6-3.1-5.9V129.5c0-2.3,1.4-3.3,3.1-2.3l43.6,25.2
						c1.7,1,3.1,3.6,3.1,5.9V269C295.8,271.3,294.4,272.3,292.7,271.4z"/>
					<path class="st5" d="M294.1,270.5l-43.6-25.2c-1.7-1-3.1-3.6-3.1-5.9V128.7c0-0.8,0.2-1.4,0.4-1.8c-1.1,0-1.9,1-1.9,2.7v110.8
						c0,2.3,1.4,4.9,3.1,5.9l43.6,25.2c1.1,0.6,2.1,0.4,2.6-0.5C295,270.9,294.5,270.8,294.1,270.5z"/>
				</g>
			</g>
		</g>
		<g>
			<g>
				<path class="st4" d="M292.7,220.5l-16.2-9.4l-25.8,14.9l45.1,26v-25.7C295.8,224.1,294.4,221.5,292.7,220.5z"/>
				<path class="st4" d="M292.7,197.8l-16.2-9.4l-25.8,14.9l45.1,26v-25.7C295.8,201.4,294.4,198.8,292.7,197.8z"/>
				<path class="st4" d="M292.7,175.1l-16.2-9.4l-25.8,14.9l45.1,26v-25.7C295.8,178.7,294.4,176.1,292.7,175.1z"/>
				<path class="st4" d="M292.7,152.4l-16.2-9.4l-25.8,14.9l45.1,26v-25.7C295.8,156,294.4,153.4,292.7,152.4z"/>
				<path class="st4" d="M292.7,152.4l-35.9-20.7l-6.2,3.6l45.1,26v-3C295.8,156,294.4,153.4,292.7,152.4z"/>
			</g>
			<polygon class="st3" points="295.8,161.3 250.7,135.2 250.7,149.6 295.8,175.6 			"/>
			<polygon class="st3" points="295.8,184 250.7,157.9 250.7,172.3 295.8,198.3 			"/>
			<polygon class="st3" points="295.8,206.7 250.7,180.6 250.7,195 295.8,221 			"/>
			<polygon class="st3" points="295.8,229.4 250.7,203.3 250.7,217.7 295.8,243.7 			"/>
			<polygon class="st3" points="295.8,252.1 250.7,226.1 250.7,240.4 295.8,266.4 			"/>
		</g>
		<g>
			<path class="st4" d="M291.8,170.5l-34-19.6c-1-0.6-1.7-2-1.7-3.3v-3.8c0-1.3,0.8-1.9,1.7-1.3l34,19.6c1,0.6,1.7,2,1.7,3.3v3.8
				C293.5,170.5,292.7,171.1,291.8,170.5z"/>
			<path class="st27" d="M259.5,150.2c-1-0.6-1.7-2-1.7-3.3V143c0-0.2,0-0.4,0.1-0.6l0,0c-1-0.6-1.7,0-1.7,1.3v3.8
				c0,1.3,0.8,2.8,1.7,3.3l34,19.6c0.8,0.5,1.5,0.1,1.7-0.8L259.5,150.2z"/>
			<path class="st2" d="M281.1,160l-20.4-11.8c-0.3-0.2-0.6-0.7-0.6-1.2l0,0c0-0.4,0.3-0.7,0.6-0.5l20.4,11.8
				c0.3,0.2,0.6,0.7,0.6,1.2l0,0C281.7,160,281.5,160.2,281.1,160z"/>
		</g>
		<g>
			<path class="st4" d="M291.8,193.1l-34-19.6c-1-0.6-1.7-2-1.7-3.3v-3.8c0-1.3,0.8-1.9,1.7-1.3l34,19.6c1,0.6,1.7,2,1.7,3.3v3.8
				C293.5,193,292.7,193.6,291.8,193.1z"/>
			<path class="st27" d="M259.5,172.7c-1-0.6-1.7-2-1.7-3.3v-3.8c0-0.2,0-0.4,0.1-0.6l0,0c-1-0.6-1.7,0-1.7,1.3v3.8
				c0,1.3,0.8,2.8,1.7,3.3l34,19.6c0.8,0.5,1.5,0.1,1.7-0.8L259.5,172.7z"/>
			<path class="st2" d="M281.1,182.5l-20.4-11.8c-0.3-0.2-0.6-0.7-0.6-1.2l0,0c0-0.4,0.3-0.7,0.6-0.5l20.4,11.8
				c0.3,0.2,0.6,0.7,0.6,1.2l0,0C281.7,182.5,281.5,182.7,281.1,182.5z"/>
		</g>
		<g>
			<path class="st4" d="M291.8,215.9l-34-19.6c-1-0.6-1.7-2-1.7-3.3v-3.8c0-1.3,0.8-1.9,1.7-1.3l34,19.6c1,0.6,1.7,2,1.7,3.3v3.8
				C293.5,215.8,292.7,216.4,291.8,215.9z"/>
			<path class="st27" d="M259.5,195.5c-1-0.6-1.7-2-1.7-3.3v-3.8c0-0.2,0-0.4,0.1-0.6l0,0c-1-0.6-1.7,0-1.7,1.3v3.8
				c0,1.3,0.8,2.8,1.7,3.3l34,19.6c0.8,0.5,1.5,0.1,1.7-0.8L259.5,195.5z"/>
			<path class="st6" d="M281.1,205.3l-20.4-11.8c-0.3-0.2-0.6-0.7-0.6-1.2l0,0c0-0.4,0.3-0.7,0.6-0.5l20.4,11.8
				c0.3,0.2,0.6,0.7,0.6,1.2l0,0C281.7,205.3,281.5,205.5,281.1,205.3z"/>
		</g>
		<g>
			<path class="st4" d="M291.8,238.8l-34-19.6c-1-0.6-1.7-2-1.7-3.3v-3.8c0-1.3,0.8-1.9,1.7-1.3l34,19.6c1,0.6,1.7,2,1.7,3.3v3.8
				C293.5,238.8,292.7,239.4,291.8,238.8z"/>
			<path class="st27" d="M259.5,218.5c-1-0.6-1.7-2-1.7-3.3v-3.8c0-0.2,0-0.4,0.1-0.6l0,0c-1-0.6-1.7,0-1.7,1.3v3.8
				c0,1.3,0.8,2.8,1.7,3.3l34,19.6c0.8,0.5,1.5,0.1,1.7-0.8L259.5,218.5z"/>
			<path class="st1" d="M281.1,228.3l-20.4-11.8c-0.3-0.2-0.6-0.7-0.6-1.2l0,0c0-0.4,0.3-0.7,0.6-0.5l20.4,11.8
				c0.3,0.2,0.6,0.7,0.6,1.2l0,0C281.7,228.3,281.5,228.5,281.1,228.3z"/>
		</g>
		<g>
			<path class="st4" d="M291.8,261.4l-34-19.6c-1-0.6-1.7-2-1.7-3.3v-3.8c0-1.3,0.8-1.9,1.7-1.3l34,19.6c1,0.6,1.7,2,1.7,3.3v3.8
				C293.5,261.3,292.7,261.9,291.8,261.4z"/>
			<path class="st27" d="M259.5,241c-1-0.6-1.7-2-1.7-3.3v-3.8c0-0.2,0-0.4,0.1-0.6l0,0c-1-0.6-1.7,0-1.7,1.3v3.8
				c0,1.3,0.8,2.8,1.7,3.3l34,19.6c0.8,0.5,1.5,0.1,1.7-0.8L259.5,241z"/>
			<path class="st6" d="M281.1,250.8L260.7,239c-0.3-0.2-0.6-0.7-0.6-1.2l0,0c0-0.4,0.3-0.7,0.6-0.5l20.4,11.8
				c0.3,0.2,0.6,0.7,0.6,1.2l0,0C281.7,250.8,281.5,251,281.1,250.8z"/>
		</g>
		<polygon class="st0" points="250.7,135.2 254.2,137.3 254.2,151.6 250.7,149.6 		"/>
		<polygon class="st0" points="250.7,157.9 254.2,160 254.2,174.3 250.7,172.3 		"/>
		<polygon class="st0" points="250.7,180.6 254.2,182.7 254.2,197 250.7,195 		"/>
		<polygon class="st0" points="250.7,203.3 254.2,205.4 254.2,219.7 250.7,217.7 		"/>
		<polygon class="st0" points="250.7,226.1 254.2,228.1 254.2,242.5 250.7,240.4 		"/>
	</g>
	<path class="st6" d="M285.2,161.4c0,0.5-0.3,0.6-0.7,0.4c-0.4-0.2-0.7-0.8-0.7-1.2s0.3-0.6,0.7-0.4
		C284.8,160.4,285.2,160.9,285.2,161.4z"/>
	<path class="st1" d="M288.2,163.2c0,0.5-0.3,0.6-0.7,0.4c-0.4-0.2-0.7-0.8-0.7-1.2s0.3-0.6,0.7-0.4
		C287.9,162.1,288.2,162.7,288.2,163.2z"/>
	<path class="st6" d="M291.3,164.9c0,0.5-0.3,0.6-0.7,0.4c-0.4-0.2-0.7-0.8-0.7-1.2s0.3-0.6,0.7-0.4
		C290.9,163.9,291.3,164.5,291.3,164.9z"/>
	<path class="st1" d="M285.2,184.1c0,0.5-0.3,0.6-0.7,0.4c-0.4-0.2-0.7-0.8-0.7-1.2s0.3-0.6,0.7-0.4
		C284.8,183.1,285.2,183.6,285.2,184.1z"/>
	<path class="st6" d="M288.2,185.8c0,0.5-0.3,0.6-0.7,0.4c-0.4-0.2-0.7-0.8-0.7-1.2s0.3-0.6,0.7-0.4
		C287.9,184.8,288.2,185.4,288.2,185.8z"/>
	<path class="st2" d="M291.3,187.6c0,0.5-0.3,0.6-0.7,0.4c-0.4-0.2-0.7-0.8-0.7-1.2s0.3-0.6,0.7-0.4
		C290.9,186.6,291.3,187.1,291.3,187.6z"/>
	<path class="st2" d="M285.2,207c0,0.5-0.3,0.6-0.7,0.4c-0.4-0.2-0.7-0.8-0.7-1.2s0.3-0.6,0.7-0.4
		C284.8,205.9,285.2,206.5,285.2,207z"/>
	<path class="st1" d="M288.2,208.7c0,0.5-0.3,0.6-0.7,0.4c-0.4-0.2-0.7-0.8-0.7-1.2s0.3-0.6,0.7-0.4
		C287.9,207.7,288.2,208.3,288.2,208.7z"/>
	<path class="st2" d="M291.3,210.5c0,0.5-0.3,0.6-0.7,0.4c-0.4-0.2-0.7-0.8-0.7-1.2s0.3-0.6,0.7-0.4
		C290.9,209.5,291.3,210,291.3,210.5z"/>
	<path class="st2" d="M285.2,229.5c0,0.5-0.3,0.6-0.7,0.4c-0.4-0.2-0.7-0.8-0.7-1.2c0-0.5,0.3-0.6,0.7-0.4
		C284.8,228.5,285.2,229,285.2,229.5z"/>
	<path class="st6" d="M288.2,231.2c0,0.5-0.3,0.6-0.7,0.4c-0.4-0.2-0.7-0.8-0.7-1.2c0-0.5,0.3-0.6,0.7-0.4
		C287.9,230.2,288.2,230.8,288.2,231.2z"/>
	<path class="st6" d="M291.3,233c0,0.5-0.3,0.6-0.7,0.4c-0.4-0.2-0.7-0.8-0.7-1.2s0.3-0.6,0.7-0.4C290.9,232,291.3,232.5,291.3,233z
		"/>
	<path class="st2" d="M285.2,252.3c0,0.5-0.3,0.6-0.7,0.4c-0.4-0.2-0.7-0.8-0.7-1.2s0.3-0.6,0.7-0.4
		C284.8,251.3,285.2,251.9,285.2,252.3z"/>
	<path class="st1" d="M288.2,254.1c0,0.5-0.3,0.6-0.7,0.4c-0.4-0.2-0.7-0.8-0.7-1.2s0.3-0.6,0.7-0.4
		C287.9,253.1,288.2,253.6,288.2,254.1z"/>
	<path class="st6" d="M291.3,255.8c0,0.5-0.3,0.6-0.7,0.4c-0.4-0.2-0.7-0.8-0.7-1.2s0.3-0.6,0.7-0.4
		C290.9,254.8,291.3,255.4,291.3,255.8z"/>
	<g>
		<path class="st4" d="M306.9,262.4V160.8l0.2-0.1l42.5-24.5v101.6l-0.2,0.1L306.9,262.4z M307.7,161.3V261l41-23.7v-99.7
			L307.7,161.3z"/>
	</g>
	<g>
		<path class="st4" d="M338.5,181.9l-19,11c-1.3,0.7-2.3,0-2.3-1.8v-10.6c0-1.7,1-3.7,2.3-4.4l19-11c1.3-0.7,2.3,0,2.3,1.8v10.6
			C340.8,179.2,339.8,181.2,338.5,181.9z"/>
		<path class="st3" d="M339,165c0.1,0.3,0.2,0.6,0.2,1.1v10.6c0,1.7-1,3.7-2.3,4.4l-19,11c-0.2,0.1-0.3,0.2-0.5,0.2
			c0.3,0.9,1.2,1.3,2.1,0.7l19-11c1.3-0.7,2.3-2.7,2.3-4.4v-10.6C340.8,165.4,340,164.6,339,165z"/>
		<g>
			<g>
				<path class="st2" d="M335,175.5c0.4-0.2,0.6,0,0.6,0.4v2.4c0,0.4-0.3,0.9-0.6,1.1c-0.4,0.2-0.6,0-0.6-0.4v-2.4
					C334.4,176.2,334.7,175.7,335,175.5z"/>
				<path class="st6" d="M332.3,177.4c0.4-0.2,0.6,0,0.6,0.4v2.1c0,0.4-0.3,0.9-0.6,1.1c-0.4,0.2-0.6,0-0.6-0.4v-2.1
					C331.6,178.1,331.9,177.6,332.3,177.4z"/>
				<path class="st1" d="M329.6,176.6c0.4-0.2,0.6,0,0.6,0.4v4.5c0,0.4-0.3,0.9-0.6,1.1c-0.4,0.2-0.6,0-0.6-0.4v-4.5
					C328.9,177.3,329.2,176.9,329.6,176.6z"/>
				<path class="st6" d="M326.8,175.7c0.4-0.2,0.6,0,0.6,0.4v7c0,0.4-0.3,0.9-0.6,1.1c-0.4,0.2-0.6,0-0.6-0.4v-7
					C326.2,176.4,326.5,175.9,326.8,175.7z"/>
				<path class="st6" d="M324.1,178c0.4-0.2,0.6,0,0.6,0.4v6.3c0,0.4-0.3,0.9-0.6,1.1c-0.4,0.2-0.6,0-0.6-0.4v-6.3
					C323.5,178.7,323.7,178.2,324.1,178z"/>
				<path class="st2" d="M321.4,182.4c0.4-0.2,0.6,0,0.6,0.4v3.4c0,0.4-0.3,0.9-0.6,1.1c-0.4,0.2-0.6,0-0.6-0.4v-3.4
					C320.7,183.1,321,182.6,321.4,182.4z"/>
			</g>
			<path class="st1" d="M334.4,174.3c0,0.4,0.3,0.6,0.6,0.4c0.3-0.2,0.6-0.7,0.6-1.1c0-0.4-0.3-0.6-0.6-0.4
				C334.7,173.4,334.4,173.9,334.4,174.3z"/>
			<path class="st2" d="M334.4,172.1c0,0.4,0.3,0.6,0.6,0.4c0.3-0.2,0.6-0.7,0.6-1.1c0-0.4-0.3-0.6-0.6-0.4
				C334.7,171.2,334.4,171.7,334.4,172.1z"/>
		</g>
	</g>
</g>
</svg>
