<?xml version="1.0" encoding="utf-8"?>
<!-- Generator: Adobe Illustrator 19.0.0, SVG Export Plug-In . SVG Version: 6.00 Build 0)  -->
<svg version="1.1" xmlns="http://www.w3.org/2000/svg" xmlns:xlink="http://www.w3.org/1999/xlink" x="0px" y="0px"
	 viewBox="0 0 500 500" style="enable-background:new 0 0 500 500;" xml:space="preserve">
<style type="text/css">
	.st0{fill:#BC0000;}
	.st1{fill:#E40000;}
	.st2{fill:url(#XMLID_2_);}
	.st3{fill:#E0E0E0;}
	.st4{fill:#FAFAFA;}
	.st5{fill:url(#XMLID_6_);}
	.st6{fill:#EBEBEB;}
	.st7{fill:#F0F0F0;}
	.st8{fill:#263238;}
	.st9{fill:#650000;}
	.st10{fill:#37474F;}
	.st11{fill:#455A64;}
	.st12{fill:#27DEBF;}
	.st13{opacity:0.7;fill:#FAFAFA;}
	.st14{opacity:0.6;fill:#FAFAFA;}
	.st15{opacity:0.8;fill:#FAFAFA;}
	.st16{fill-rule:evenodd;clip-rule:evenodd;fill:#7D0000;}
	.st17{fill:#7D0000;}
	.st18{fill-rule:evenodd;clip-rule:evenodd;fill:#E40000;}
	.st19{fill-rule:evenodd;clip-rule:evenodd;fill:#BC0000;}
	.st20{fill-rule:evenodd;clip-rule:evenodd;fill:#650000;}
	.st21{opacity:0.1;}
	.st22{fill:#9B0000;}
	.st23{display:none;}
	.st24{display:inline;}
	.st25{opacity:0.2;}
	.st26{fill:#FFA8A7;}
	.st27{opacity:0.2;fill:#7D0000;}
	.st28{fill:#CF0000;}
	.st29{fill:#F28F8F;}
	.st30{opacity:0.5;fill:#FAFAFA;}
	.st31{opacity:0.4;fill:#FAFAFA;}
	.st32{fill:#1E1E1E;}
	.st33{opacity:0.2;fill:#CF0000;}
</style>
<g id="Floor">
	<path id="XMLID_18698_" class="st0" d="M119.8,411.5c70.8,37,185.5,37,256.3,0c70.8-37,70.8-96.9,0-133.9
		c-70.8-37-185.5-37-256.3,0C49,314.6,49,374.6,119.8,411.5z"/>
</g>
<g id="Shadows">
	<path id="XMLID_18540_" class="st1" d="M152.6,369.5l61.5,35.5c1,0.6,2.5,0.6,3.5,0l92.7-53.6c1-0.6,1-1.4,0-2l-61.5-35.5
		c-1-0.6-2.5-0.6-3.5,0l-92.7,53.6C151.6,368,151.6,368.9,152.6,369.5z"/>
	<g id="XMLID_18621_">
		<path id="XMLID_18622_" class="st1" d="M110.2,321c16,7.6,41.9,7.6,57.8,0c16-7.6,16-19.9,0-27.6c-16-7.6-41.9-7.6-57.8,0
			C94.2,301,94.2,313.4,110.2,321z"/>
	</g>
	<path id="XMLID_18534_" class="st1" d="M330.3,360.6c15.8,7.5,41.3,7.5,57.1,0c15.8-7.5,15.8-19.7,0-27.2
		c-15.8-7.5-41.3-7.5-57.1,0C314.5,340.9,314.5,353.1,330.3,360.6z"/>
</g>
<g id="Charts_2">
	<g id="XMLID_18496_">
		<linearGradient id="XMLID_2_" gradientUnits="userSpaceOnUse" x1="100.7757" y1="184.413" x2="128.8583" y2="227.6169">
			<stop  offset="0" style="stop-color:#E6E6E6"/>
			<stop  offset="1" style="stop-color:#FFFFFF;stop-opacity:0"/>
		</linearGradient>
		<path id="XMLID_18636_" class="st2" d="M30,275.1c4.6-2.8,5.2-45,20.6-53.6c15.4-8.6,10,30,25.8,20.9c15-8.7,10.4-53.8,25.8-62.6
			c15.4-8.8,10.1,35.2,25.8,26.8c13.6-7.3,12.5-24.9,21.4-32.6c8.9-7.8,11,9.3,22.2,3.1s1.7-39.9,25.6-53.7v64.4L30,285L30,275.1z"
			/>
		<g id="XMLID_18635_">
			<path class="st3" d="M30,275.9c-0.3,0-0.5-0.1-0.6-0.4c-0.2-0.4-0.1-0.8,0.3-1c1.4-0.8,2.6-7.2,3.9-14
				c2.7-14.3,6.5-33.9,16.8-39.7c2.5-1.4,4.6-1.7,6.5-1c3.7,1.4,5.5,6.7,7.3,11.9c1.7,4.9,3.4,9.9,6.5,11c1.5,0.6,3.3,0.2,5.5-1
				c7.2-4.1,9.8-17.5,12.3-30.5c2.7-13.5,5.4-27.5,13.5-32.1c2.3-1.3,4.3-1.6,6.1-0.9c4,1.6,5.8,7.9,7.8,14.5
				c1.8,6.1,3.6,12.4,7,13.8c1.4,0.6,3,0.4,4.9-0.7c7.6-4.1,10.4-11.4,13.2-18.6c2.1-5.4,4.1-10.5,8-14c4.9-4.3,8.1-1.6,11.2,0.9
				c3.1,2.6,6,5,11.2,2.1c4.3-2.3,5.4-9.4,6.7-17.5c2-12.4,4.4-27.8,18.9-36.2c0.4-0.2,0.8-0.1,1,0.3c0.2,0.4,0.1,0.8-0.3,1
				c-13.8,8-16.2,23-18.2,35.1c-1.4,8.5-2.5,15.9-7.4,18.6c-6.1,3.3-9.8,0.2-12.9-2.3c-3.1-2.5-5.3-4.4-9.2-0.9
				c-3.7,3.2-5.6,8.1-7.6,13.4c-2.9,7.4-5.8,15-13.9,19.3c-2.3,1.2-4.4,1.5-6.2,0.7c-4.1-1.7-6-8.4-7.9-14.8
				c-1.7-6-3.5-12.2-6.9-13.6c-1.3-0.5-2.9-0.3-4.8,0.8c-7.5,4.3-10.1,17.9-12.7,31.1c-2.7,13.9-5.3,27-13.1,31.5
				c-2.6,1.5-4.8,1.9-6.8,1.2c-3.8-1.4-5.6-6.8-7.4-11.9c-1.7-4.8-3.4-9.8-6.4-11c-1.4-0.6-3.2-0.3-5.2,0.9
				c-9.7,5.4-13.4,24.6-16,38.6c-1.7,9.1-2.7,13.9-4.6,15C30.3,275.9,30.2,275.9,30,275.9z"/>
		</g>
		<g id="XMLID_18616_">
			<g>
				<path class="st4" d="M102.3,180.7c-0.2,0-0.3-0.1-0.3-0.3v-0.6c0-0.2,0.1-0.3,0.3-0.3c0.2,0,0.3,0.1,0.3,0.3v0.6
					C102.6,180.6,102.5,180.7,102.3,180.7z"/>
			</g>
			<g>
				<path class="st4" d="M102.3,241.7c-0.2,0-0.3-0.1-0.3-0.3v-1.3c0-0.2,0.1-0.3,0.3-0.3c0.2,0,0.3,0.1,0.3,0.3v1.3
					C102.6,241.6,102.5,241.7,102.3,241.7z M102.3,239.2c-0.2,0-0.3-0.1-0.3-0.3v-1.3c0-0.2,0.1-0.3,0.3-0.3c0.2,0,0.3,0.1,0.3,0.3
					v1.3C102.6,239,102.5,239.2,102.3,239.2z M102.3,236.6c-0.2,0-0.3-0.1-0.3-0.3V235c0-0.2,0.1-0.3,0.3-0.3c0.2,0,0.3,0.1,0.3,0.3
					v1.3C102.6,236.5,102.5,236.6,102.3,236.6z M102.3,234.1c-0.2,0-0.3-0.1-0.3-0.3v-1.3c0-0.2,0.1-0.3,0.3-0.3
					c0.2,0,0.3,0.1,0.3,0.3v1.3C102.6,234,102.5,234.1,102.3,234.1z M102.3,231.6c-0.2,0-0.3-0.1-0.3-0.3V230c0-0.2,0.1-0.3,0.3-0.3
					c0.2,0,0.3,0.1,0.3,0.3v1.3C102.6,231.4,102.5,231.6,102.3,231.6z M102.3,229c-0.2,0-0.3-0.1-0.3-0.3v-1.3
					c0-0.2,0.1-0.3,0.3-0.3c0.2,0,0.3,0.1,0.3,0.3v1.3C102.6,228.9,102.5,229,102.3,229z M102.3,226.5c-0.2,0-0.3-0.1-0.3-0.3v-1.3
					c0-0.2,0.1-0.3,0.3-0.3c0.2,0,0.3,0.1,0.3,0.3v1.3C102.6,226.3,102.5,226.5,102.3,226.5z M102.3,223.9c-0.2,0-0.3-0.1-0.3-0.3
					v-1.3c0-0.2,0.1-0.3,0.3-0.3c0.2,0,0.3,0.1,0.3,0.3v1.3C102.6,223.8,102.5,223.9,102.3,223.9z M102.3,221.4
					c-0.2,0-0.3-0.1-0.3-0.3v-1.3c0-0.2,0.1-0.3,0.3-0.3c0.2,0,0.3,0.1,0.3,0.3v1.3C102.6,221.2,102.5,221.4,102.3,221.4z
					 M102.3,218.9c-0.2,0-0.3-0.1-0.3-0.3v-1.3c0-0.2,0.1-0.3,0.3-0.3c0.2,0,0.3,0.1,0.3,0.3v1.3
					C102.6,218.7,102.5,218.9,102.3,218.9z M102.3,216.3c-0.2,0-0.3-0.1-0.3-0.3v-1.3c0-0.2,0.1-0.3,0.3-0.3c0.2,0,0.3,0.1,0.3,0.3
					v1.3C102.6,216.2,102.5,216.3,102.3,216.3z M102.3,213.8c-0.2,0-0.3-0.1-0.3-0.3v-1.3c0-0.2,0.1-0.3,0.3-0.3
					c0.2,0,0.3,0.1,0.3,0.3v1.3C102.6,213.6,102.5,213.8,102.3,213.8z M102.3,211.2c-0.2,0-0.3-0.1-0.3-0.3v-1.3
					c0-0.2,0.1-0.3,0.3-0.3c0.2,0,0.3,0.1,0.3,0.3v1.3C102.6,211.1,102.5,211.2,102.3,211.2z M102.3,208.7c-0.2,0-0.3-0.1-0.3-0.3
					v-1.3c0-0.2,0.1-0.3,0.3-0.3c0.2,0,0.3,0.1,0.3,0.3v1.3C102.6,208.5,102.5,208.7,102.3,208.7z M102.3,206.1
					c-0.2,0-0.3-0.1-0.3-0.3v-1.3c0-0.2,0.1-0.3,0.3-0.3c0.2,0,0.3,0.1,0.3,0.3v1.3C102.6,206,102.5,206.1,102.3,206.1z
					 M102.3,203.6c-0.2,0-0.3-0.1-0.3-0.3V202c0-0.2,0.1-0.3,0.3-0.3c0.2,0,0.3,0.1,0.3,0.3v1.3
					C102.6,203.5,102.5,203.6,102.3,203.6z M102.3,201.1c-0.2,0-0.3-0.1-0.3-0.3v-1.3c0-0.2,0.1-0.3,0.3-0.3c0.2,0,0.3,0.1,0.3,0.3
					v1.3C102.6,200.9,102.5,201.1,102.3,201.1z M102.3,198.5c-0.2,0-0.3-0.1-0.3-0.3v-1.3c0-0.2,0.1-0.3,0.3-0.3
					c0.2,0,0.3,0.1,0.3,0.3v1.3C102.6,198.4,102.5,198.5,102.3,198.5z M102.3,196c-0.2,0-0.3-0.1-0.3-0.3v-1.3
					c0-0.2,0.1-0.3,0.3-0.3c0.2,0,0.3,0.1,0.3,0.3v1.3C102.6,195.8,102.5,196,102.3,196z M102.3,193.4c-0.2,0-0.3-0.1-0.3-0.3v-1.3
					c0-0.2,0.1-0.3,0.3-0.3c0.2,0,0.3,0.1,0.3,0.3v1.3C102.6,193.3,102.5,193.4,102.3,193.4z M102.3,190.9c-0.2,0-0.3-0.1-0.3-0.3
					v-1.3c0-0.2,0.1-0.3,0.3-0.3c0.2,0,0.3,0.1,0.3,0.3v1.3C102.6,190.8,102.5,190.9,102.3,190.9z M102.3,188.4
					c-0.2,0-0.3-0.1-0.3-0.3v-1.3c0-0.2,0.1-0.3,0.3-0.3c0.2,0,0.3,0.1,0.3,0.3v1.3C102.6,188.2,102.5,188.4,102.3,188.4z
					 M102.3,185.8c-0.2,0-0.3-0.1-0.3-0.3v-1.3c0-0.2,0.1-0.3,0.3-0.3c0.2,0,0.3,0.1,0.3,0.3v1.3
					C102.6,185.7,102.5,185.8,102.3,185.8z M102.3,183.3c-0.2,0-0.3-0.1-0.3-0.3v-1.3c0-0.2,0.1-0.3,0.3-0.3c0.2,0,0.3,0.1,0.3,0.3
					v1.3C102.6,183.1,102.5,183.3,102.3,183.3z"/>
			</g>
			<g>
				<path class="st4" d="M102.3,243.6c-0.2,0-0.3-0.1-0.3-0.3v-0.6c0-0.2,0.1-0.3,0.3-0.3c0.2,0,0.3,0.1,0.3,0.3v0.6
					C102.6,243.5,102.5,243.6,102.3,243.6z"/>
			</g>
		</g>
		<g id="XMLID_18550_">
			<g>
				<path class="st4" d="M152.5,173.3c-0.2,0-0.3-0.1-0.3-0.3v-0.6c0-0.2,0.1-0.3,0.3-0.3c0.2,0,0.3,0.1,0.3,0.3v0.6
					C152.9,173.1,152.7,173.3,152.5,173.3z"/>
			</g>
			<g>
				<path class="st4" d="M152.5,212.2c-0.2,0-0.3-0.1-0.3-0.3v-1.3c0-0.2,0.1-0.3,0.3-0.3c0.2,0,0.3,0.1,0.3,0.3v1.3
					C152.9,212,152.7,212.2,152.5,212.2z M152.5,209.6c-0.2,0-0.3-0.1-0.3-0.3V208c0-0.2,0.1-0.3,0.3-0.3c0.2,0,0.3,0.1,0.3,0.3v1.3
					C152.9,209.4,152.7,209.6,152.5,209.6z M152.5,207c-0.2,0-0.3-0.1-0.3-0.3v-1.3c0-0.2,0.1-0.3,0.3-0.3c0.2,0,0.3,0.1,0.3,0.3
					v1.3C152.9,206.8,152.7,207,152.5,207z M152.5,204.4c-0.2,0-0.3-0.1-0.3-0.3v-1.3c0-0.2,0.1-0.3,0.3-0.3c0.2,0,0.3,0.1,0.3,0.3
					v1.3C152.9,204.2,152.7,204.4,152.5,204.4z M152.5,201.8c-0.2,0-0.3-0.1-0.3-0.3v-1.3c0-0.2,0.1-0.3,0.3-0.3
					c0.2,0,0.3,0.1,0.3,0.3v1.3C152.9,201.7,152.7,201.8,152.5,201.8z M152.5,199.2c-0.2,0-0.3-0.1-0.3-0.3v-1.3
					c0-0.2,0.1-0.3,0.3-0.3c0.2,0,0.3,0.1,0.3,0.3v1.3C152.9,199.1,152.7,199.2,152.5,199.2z M152.5,196.6c-0.2,0-0.3-0.1-0.3-0.3
					V195c0-0.2,0.1-0.3,0.3-0.3c0.2,0,0.3,0.1,0.3,0.3v1.3C152.9,196.5,152.7,196.6,152.5,196.6z M152.5,194c-0.2,0-0.3-0.1-0.3-0.3
					v-1.3c0-0.2,0.1-0.3,0.3-0.3c0.2,0,0.3,0.1,0.3,0.3v1.3C152.9,193.9,152.7,194,152.5,194z M152.5,191.4c-0.2,0-0.3-0.1-0.3-0.3
					v-1.3c0-0.2,0.1-0.3,0.3-0.3c0.2,0,0.3,0.1,0.3,0.3v1.3C152.9,191.3,152.7,191.4,152.5,191.4z M152.5,188.8
					c-0.2,0-0.3-0.1-0.3-0.3v-1.3c0-0.2,0.1-0.3,0.3-0.3c0.2,0,0.3,0.1,0.3,0.3v1.3C152.9,188.7,152.7,188.8,152.5,188.8z
					 M152.5,186.2c-0.2,0-0.3-0.1-0.3-0.3v-1.3c0-0.2,0.1-0.3,0.3-0.3c0.2,0,0.3,0.1,0.3,0.3v1.3
					C152.9,186.1,152.7,186.2,152.5,186.2z M152.5,183.6c-0.2,0-0.3-0.1-0.3-0.3V182c0-0.2,0.1-0.3,0.3-0.3c0.2,0,0.3,0.1,0.3,0.3
					v1.3C152.9,183.5,152.7,183.6,152.5,183.6z M152.5,181.1c-0.2,0-0.3-0.1-0.3-0.3v-1.3c0-0.2,0.1-0.3,0.3-0.3
					c0.2,0,0.3,0.1,0.3,0.3v1.3C152.9,180.9,152.7,181.1,152.5,181.1z M152.5,178.5c-0.2,0-0.3-0.1-0.3-0.3v-1.3
					c0-0.2,0.1-0.3,0.3-0.3c0.2,0,0.3,0.1,0.3,0.3v1.3C152.9,178.3,152.7,178.5,152.5,178.5z M152.5,175.9c-0.2,0-0.3-0.1-0.3-0.3
					v-1.3c0-0.2,0.1-0.3,0.3-0.3c0.2,0,0.3,0.1,0.3,0.3v1.3C152.9,175.7,152.7,175.9,152.5,175.9z"/>
			</g>
			<g>
				<path class="st4" d="M152.5,214.1c-0.2,0-0.3-0.1-0.3-0.3v-0.6c0-0.2,0.1-0.3,0.3-0.3c0.2,0,0.3,0.1,0.3,0.3v0.6
					C152.9,213.9,152.7,214.1,152.5,214.1z"/>
			</g>
		</g>
		<g id="XMLID_18497_">
			<g>
				<path class="st4" d="M53.1,222.1c-0.2,0-0.3-0.1-0.3-0.3v-0.6c0-0.2,0.1-0.3,0.3-0.3c0.2,0,0.3,0.1,0.3,0.3v0.6
					C53.4,221.9,53.3,222.1,53.1,222.1z"/>
			</g>
			<g>
				<path class="st4" d="M53.1,263.8c-0.2,0-0.3-0.1-0.3-0.3v-1.3c0-0.2,0.1-0.3,0.3-0.3c0.2,0,0.3,0.1,0.3,0.3v1.3
					C53.4,263.7,53.3,263.8,53.1,263.8z M53.1,261.2c-0.2,0-0.3-0.1-0.3-0.3v-1.3c0-0.2,0.1-0.3,0.3-0.3c0.2,0,0.3,0.1,0.3,0.3v1.3
					C53.4,261.1,53.3,261.2,53.1,261.2z M53.1,258.6c-0.2,0-0.3-0.1-0.3-0.3V257c0-0.2,0.1-0.3,0.3-0.3c0.2,0,0.3,0.1,0.3,0.3v1.3
					C53.4,258.5,53.3,258.6,53.1,258.6z M53.1,256c-0.2,0-0.3-0.1-0.3-0.3v-1.3c0-0.2,0.1-0.3,0.3-0.3c0.2,0,0.3,0.1,0.3,0.3v1.3
					C53.4,255.8,53.3,256,53.1,256z M53.1,253.4c-0.2,0-0.3-0.1-0.3-0.3v-1.3c0-0.2,0.1-0.3,0.3-0.3c0.2,0,0.3,0.1,0.3,0.3v1.3
					C53.4,253.2,53.3,253.4,53.1,253.4z M53.1,250.8c-0.2,0-0.3-0.1-0.3-0.3v-1.3c0-0.2,0.1-0.3,0.3-0.3c0.2,0,0.3,0.1,0.3,0.3v1.3
					C53.4,250.6,53.3,250.8,53.1,250.8z M53.1,248.2c-0.2,0-0.3-0.1-0.3-0.3v-1.3c0-0.2,0.1-0.3,0.3-0.3c0.2,0,0.3,0.1,0.3,0.3v1.3
					C53.4,248,53.3,248.2,53.1,248.2z M53.1,245.6c-0.2,0-0.3-0.1-0.3-0.3v-1.3c0-0.2,0.1-0.3,0.3-0.3c0.2,0,0.3,0.1,0.3,0.3v1.3
					C53.4,245.4,53.3,245.6,53.1,245.6z M53.1,243c-0.2,0-0.3-0.1-0.3-0.3v-1.3c0-0.2,0.1-0.3,0.3-0.3c0.2,0,0.3,0.1,0.3,0.3v1.3
					C53.4,242.8,53.3,243,53.1,243z M53.1,240.3c-0.2,0-0.3-0.1-0.3-0.3v-1.3c0-0.2,0.1-0.3,0.3-0.3c0.2,0,0.3,0.1,0.3,0.3v1.3
					C53.4,240.2,53.3,240.3,53.1,240.3z M53.1,237.7c-0.2,0-0.3-0.1-0.3-0.3v-1.3c0-0.2,0.1-0.3,0.3-0.3c0.2,0,0.3,0.1,0.3,0.3v1.3
					C53.4,237.6,53.3,237.7,53.1,237.7z M53.1,235.1c-0.2,0-0.3-0.1-0.3-0.3v-1.3c0-0.2,0.1-0.3,0.3-0.3c0.2,0,0.3,0.1,0.3,0.3v1.3
					C53.4,235,53.3,235.1,53.1,235.1z M53.1,232.5c-0.2,0-0.3-0.1-0.3-0.3v-1.3c0-0.2,0.1-0.3,0.3-0.3c0.2,0,0.3,0.1,0.3,0.3v1.3
					C53.4,232.4,53.3,232.5,53.1,232.5z M53.1,229.9c-0.2,0-0.3-0.1-0.3-0.3v-1.3c0-0.2,0.1-0.3,0.3-0.3c0.2,0,0.3,0.1,0.3,0.3v1.3
					C53.4,229.8,53.3,229.9,53.1,229.9z M53.1,227.3c-0.2,0-0.3-0.1-0.3-0.3v-1.3c0-0.2,0.1-0.3,0.3-0.3c0.2,0,0.3,0.1,0.3,0.3v1.3
					C53.4,227.2,53.3,227.3,53.1,227.3z M53.1,224.7c-0.2,0-0.3-0.1-0.3-0.3v-1.3c0-0.2,0.1-0.3,0.3-0.3c0.2,0,0.3,0.1,0.3,0.3v1.3
					C53.4,224.6,53.3,224.7,53.1,224.7z"/>
			</g>
			<g>
				<path class="st4" d="M53.1,265.7c-0.2,0-0.3-0.1-0.3-0.3v-0.6c0-0.2,0.1-0.3,0.3-0.3c0.2,0,0.3,0.1,0.3,0.3v0.6
					C53.4,265.6,53.3,265.7,53.1,265.7z"/>
			</g>
		</g>
	</g>
	<g id="XMLID_18499_">
		
			<linearGradient id="XMLID_6_" gradientUnits="userSpaceOnUse" x1="10418.2461" y1="221.5772" x2="10438.9434" y2="253.4182" gradientTransform="matrix(-1 0 0 1 10833.2754 0)">
			<stop  offset="0" style="stop-color:#E6E6E6"/>
			<stop  offset="1" style="stop-color:#FFFFFF;stop-opacity:0"/>
		</linearGradient>
		<path id="XMLID_18663_" class="st5" d="M467.2,288.4c-3.4-2.1-3.8-33.2-15.2-39.5s-7.4,22.1-19,15.4c-11.1-6.4-7.7-39.6-19-46.1
			c-11.3-6.5-7.5,26-19,19.8c-10-5.4-9.2-18.3-15.8-24s-8.1,6.8-16.4,2.3c-8.3-4.5-1.2-29.4-18.8-39.6v47.4l123.2,71.6L467.2,288.4z
			"/>
		<g id="XMLID_18662_">
			<path class="st3" d="M467.2,289.2c-0.1,0-0.3,0-0.4-0.1c-1.4-0.9-2.1-4.2-3.5-11.2c-2-10.3-4.7-24.4-11.7-28.3
				c-1.5-0.8-2.7-1-3.7-0.7c-2.2,0.8-3.4,4.5-4.6,8c-1.3,3.9-2.7,7.9-5.6,8.9c-1.5,0.6-3.2,0.3-5.2-0.9c-5.8-3.3-7.7-13.1-9.7-23.3
				c-1.9-9.7-3.9-19.7-9.3-22.8c-1.3-0.8-2.4-1-3.4-0.6c-2.4,1-3.7,5.5-5,9.9c-1.5,5-2.8,9.7-5.9,11c-1.4,0.6-3,0.4-4.7-0.5
				c-6-3.2-8.3-9.1-10.3-14.4c-1.5-3.8-2.9-7.5-5.6-9.8c-2.8-2.4-4.3-1.2-6.5,0.7c-2.3,1.9-5.1,4.2-9.7,1.7c-3.7-2-4.6-7.5-5.6-13.8
				c-1.4-8.9-3.2-19.9-13.3-25.8c-0.4-0.2-0.5-0.7-0.3-1c0.2-0.4,0.7-0.5,1-0.3c10.7,6.2,12.6,17.6,14,26.8c0.9,6,1.8,11.1,4.8,12.8
				c3.7,2,5.8,0.3,8-1.6c2.2-1.8,4.7-3.9,8.5-0.7c2.9,2.6,4.4,6.3,6,10.4c2,5.2,4.1,10.6,9.7,13.6c1.4,0.7,2.5,0.9,3.4,0.5
				c2.5-1,3.8-5.6,5.1-10.1c1.4-4.9,2.8-9.6,5.8-10.8c1.4-0.6,2.9-0.3,4.7,0.7c6,3.4,8,13.8,10,23.8c1.9,9.5,3.8,19.3,9,22.3
				c1.6,0.9,2.8,1.2,3.9,0.8c2.2-0.8,3.5-4.5,4.7-8c1.3-3.8,2.7-7.8,5.5-8.9c1.4-0.5,3.1-0.3,5,0.7c7.7,4.3,10.4,18.8,12.5,29.4
				c0.9,4.5,1.8,9.6,2.8,10.2c0.4,0.2,0.5,0.7,0.3,1C467.7,289.1,467.4,289.2,467.2,289.2z"/>
		</g>
		<g id="XMLID_18656_">
			<g>
				<path class="st4" d="M413.9,219.1c-0.2,0-0.3-0.1-0.3-0.3v-0.6c0-0.2,0.1-0.3,0.3-0.3c0.2,0,0.3,0.1,0.3,0.3v0.6
					C414.2,219,414.1,219.1,413.9,219.1z"/>
			</g>
			<g>
				<path class="st4" d="M413.9,263.4c-0.2,0-0.3-0.1-0.3-0.3v-1.3c0-0.2,0.1-0.3,0.3-0.3c0.2,0,0.3,0.1,0.3,0.3v1.3
					C414.2,263.2,414.1,263.4,413.9,263.4z M413.9,260.8c-0.2,0-0.3-0.1-0.3-0.3v-1.3c0-0.2,0.1-0.3,0.3-0.3c0.2,0,0.3,0.1,0.3,0.3
					v1.3C414.2,260.6,414.1,260.8,413.9,260.8z M413.9,258.2c-0.2,0-0.3-0.1-0.3-0.3v-1.3c0-0.2,0.1-0.3,0.3-0.3
					c0.2,0,0.3,0.1,0.3,0.3v1.3C414.2,258,414.1,258.2,413.9,258.2z M413.9,255.6c-0.2,0-0.3-0.1-0.3-0.3v-1.3
					c0-0.2,0.1-0.3,0.3-0.3c0.2,0,0.3,0.1,0.3,0.3v1.3C414.2,255.4,414.1,255.6,413.9,255.6z M413.9,253c-0.2,0-0.3-0.1-0.3-0.3
					v-1.3c0-0.2,0.1-0.3,0.3-0.3c0.2,0,0.3,0.1,0.3,0.3v1.3C414.2,252.8,414.1,253,413.9,253z M413.9,250.3c-0.2,0-0.3-0.1-0.3-0.3
					v-1.3c0-0.2,0.1-0.3,0.3-0.3c0.2,0,0.3,0.1,0.3,0.3v1.3C414.2,250.2,414.1,250.3,413.9,250.3z M413.9,247.7
					c-0.2,0-0.3-0.1-0.3-0.3v-1.3c0-0.2,0.1-0.3,0.3-0.3c0.2,0,0.3,0.1,0.3,0.3v1.3C414.2,247.6,414.1,247.7,413.9,247.7z
					 M413.9,245.1c-0.2,0-0.3-0.1-0.3-0.3v-1.3c0-0.2,0.1-0.3,0.3-0.3c0.2,0,0.3,0.1,0.3,0.3v1.3C414.2,245,414.1,245.1,413.9,245.1
					z M413.9,242.5c-0.2,0-0.3-0.1-0.3-0.3v-1.3c0-0.2,0.1-0.3,0.3-0.3c0.2,0,0.3,0.1,0.3,0.3v1.3
					C414.2,242.4,414.1,242.5,413.9,242.5z M413.9,239.9c-0.2,0-0.3-0.1-0.3-0.3v-1.3c0-0.2,0.1-0.3,0.3-0.3c0.2,0,0.3,0.1,0.3,0.3
					v1.3C414.2,239.8,414.1,239.9,413.9,239.9z M413.9,237.3c-0.2,0-0.3-0.1-0.3-0.3v-1.3c0-0.2,0.1-0.3,0.3-0.3
					c0.2,0,0.3,0.1,0.3,0.3v1.3C414.2,237.2,414.1,237.3,413.9,237.3z M413.9,234.7c-0.2,0-0.3-0.1-0.3-0.3v-1.3
					c0-0.2,0.1-0.3,0.3-0.3c0.2,0,0.3,0.1,0.3,0.3v1.3C414.2,234.6,414.1,234.7,413.9,234.7z M413.9,232.1c-0.2,0-0.3-0.1-0.3-0.3
					v-1.3c0-0.2,0.1-0.3,0.3-0.3c0.2,0,0.3,0.1,0.3,0.3v1.3C414.2,232,414.1,232.1,413.9,232.1z M413.9,229.5
					c-0.2,0-0.3-0.1-0.3-0.3v-1.3c0-0.2,0.1-0.3,0.3-0.3c0.2,0,0.3,0.1,0.3,0.3v1.3C414.2,229.4,414.1,229.5,413.9,229.5z
					 M413.9,226.9c-0.2,0-0.3-0.1-0.3-0.3v-1.3c0-0.2,0.1-0.3,0.3-0.3c0.2,0,0.3,0.1,0.3,0.3v1.3
					C414.2,226.8,414.1,226.9,413.9,226.9z M413.9,224.3c-0.2,0-0.3-0.1-0.3-0.3v-1.3c0-0.2,0.1-0.3,0.3-0.3c0.2,0,0.3,0.1,0.3,0.3
					v1.3C414.2,224.2,414.1,224.3,413.9,224.3z M413.9,221.7c-0.2,0-0.3-0.1-0.3-0.3v-1.3c0-0.2,0.1-0.3,0.3-0.3
					c0.2,0,0.3,0.1,0.3,0.3v1.3C414.2,221.6,414.1,221.7,413.9,221.7z"/>
			</g>
			<g>
				<path class="st4" d="M413.9,265.3c-0.2,0-0.3-0.1-0.3-0.3v-0.6c0-0.2,0.1-0.3,0.3-0.3c0.2,0,0.3,0.1,0.3,0.3v0.6
					C414.2,265.2,414.1,265.3,413.9,265.3z"/>
			</g>
		</g>
		<g id="XMLID_18642_">
			<g>
				<path class="st4" d="M376.9,213.6c-0.2,0-0.3-0.1-0.3-0.3v-0.6c0-0.2,0.1-0.3,0.3-0.3c0.2,0,0.3,0.1,0.3,0.3v0.6
					C377.2,213.5,377.1,213.6,376.9,213.6z"/>
			</g>
			<g>
				<path class="st4" d="M376.9,241.6c-0.2,0-0.3-0.1-0.3-0.3V240c0-0.2,0.1-0.3,0.3-0.3c0.2,0,0.3,0.1,0.3,0.3v1.3
					C377.2,241.5,377.1,241.6,376.9,241.6z M376.9,239.1c-0.2,0-0.3-0.1-0.3-0.3v-1.3c0-0.2,0.1-0.3,0.3-0.3c0.2,0,0.3,0.1,0.3,0.3
					v1.3C377.2,238.9,377.1,239.1,376.9,239.1z M376.9,236.5c-0.2,0-0.3-0.1-0.3-0.3v-1.3c0-0.2,0.1-0.3,0.3-0.3
					c0.2,0,0.3,0.1,0.3,0.3v1.3C377.2,236.4,377.1,236.5,376.9,236.5z M376.9,234c-0.2,0-0.3-0.1-0.3-0.3v-1.3
					c0-0.2,0.1-0.3,0.3-0.3c0.2,0,0.3,0.1,0.3,0.3v1.3C377.2,233.8,377.1,234,376.9,234z M376.9,231.4c-0.2,0-0.3-0.1-0.3-0.3v-1.3
					c0-0.2,0.1-0.3,0.3-0.3c0.2,0,0.3,0.1,0.3,0.3v1.3C377.2,231.3,377.1,231.4,376.9,231.4z M376.9,228.9c-0.2,0-0.3-0.1-0.3-0.3
					v-1.3c0-0.2,0.1-0.3,0.3-0.3c0.2,0,0.3,0.1,0.3,0.3v1.3C377.2,228.8,377.1,228.9,376.9,228.9z M376.9,226.4
					c-0.2,0-0.3-0.1-0.3-0.3v-1.3c0-0.2,0.1-0.3,0.3-0.3c0.2,0,0.3,0.1,0.3,0.3v1.3C377.2,226.2,377.1,226.4,376.9,226.4z
					 M376.9,223.8c-0.2,0-0.3-0.1-0.3-0.3v-1.3c0-0.2,0.1-0.3,0.3-0.3c0.2,0,0.3,0.1,0.3,0.3v1.3
					C377.2,223.7,377.1,223.8,376.9,223.8z M376.9,221.3c-0.2,0-0.3-0.1-0.3-0.3v-1.3c0-0.2,0.1-0.3,0.3-0.3c0.2,0,0.3,0.1,0.3,0.3
					v1.3C377.2,221.1,377.1,221.3,376.9,221.3z M376.9,218.7c-0.2,0-0.3-0.1-0.3-0.3v-1.3c0-0.2,0.1-0.3,0.3-0.3
					c0.2,0,0.3,0.1,0.3,0.3v1.3C377.2,218.6,377.1,218.7,376.9,218.7z M376.9,216.2c-0.2,0-0.3-0.1-0.3-0.3v-1.3
					c0-0.2,0.1-0.3,0.3-0.3c0.2,0,0.3,0.1,0.3,0.3v1.3C377.2,216,377.1,216.2,376.9,216.2z"/>
			</g>
			<g>
				<path class="st4" d="M376.9,243.5c-0.2,0-0.3-0.1-0.3-0.3v-0.6c0-0.2,0.1-0.3,0.3-0.3c0.2,0,0.3,0.1,0.3,0.3v0.6
					C377.2,243.4,377.1,243.5,376.9,243.5z"/>
			</g>
		</g>
		<g id="XMLID_18500_">
			<g>
				<path class="st4" d="M450.1,249.6c-0.2,0-0.3-0.1-0.3-0.3v-0.6c0-0.2,0.1-0.3,0.3-0.3s0.3,0.1,0.3,0.3v0.6
					C450.5,249.5,450.3,249.6,450.1,249.6z"/>
			</g>
			<g>
				<path class="st4" d="M450.1,279.7c-0.2,0-0.3-0.1-0.3-0.3v-1.3c0-0.2,0.1-0.3,0.3-0.3s0.3,0.1,0.3,0.3v1.3
					C450.5,279.6,450.3,279.7,450.1,279.7z M450.1,277.2c-0.2,0-0.3-0.1-0.3-0.3v-1.3c0-0.2,0.1-0.3,0.3-0.3s0.3,0.1,0.3,0.3v1.3
					C450.5,277.1,450.3,277.2,450.1,277.2z M450.1,274.7c-0.2,0-0.3-0.1-0.3-0.3v-1.3c0-0.2,0.1-0.3,0.3-0.3s0.3,0.1,0.3,0.3v1.3
					C450.5,274.6,450.3,274.7,450.1,274.7z M450.1,272.2c-0.2,0-0.3-0.1-0.3-0.3v-1.3c0-0.2,0.1-0.3,0.3-0.3s0.3,0.1,0.3,0.3v1.3
					C450.5,272,450.3,272.2,450.1,272.2z M450.1,269.7c-0.2,0-0.3-0.1-0.3-0.3v-1.3c0-0.2,0.1-0.3,0.3-0.3s0.3,0.1,0.3,0.3v1.3
					C450.5,269.5,450.3,269.7,450.1,269.7z M450.1,267.2c-0.2,0-0.3-0.1-0.3-0.3v-1.3c0-0.2,0.1-0.3,0.3-0.3s0.3,0.1,0.3,0.3v1.3
					C450.5,267,450.3,267.2,450.1,267.2z M450.1,264.7c-0.2,0-0.3-0.1-0.3-0.3v-1.3c0-0.2,0.1-0.3,0.3-0.3s0.3,0.1,0.3,0.3v1.3
					C450.5,264.5,450.3,264.7,450.1,264.7z M450.1,262.1c-0.2,0-0.3-0.1-0.3-0.3v-1.3c0-0.2,0.1-0.3,0.3-0.3s0.3,0.1,0.3,0.3v1.3
					C450.5,262,450.3,262.1,450.1,262.1z M450.1,259.6c-0.2,0-0.3-0.1-0.3-0.3v-1.3c0-0.2,0.1-0.3,0.3-0.3s0.3,0.1,0.3,0.3v1.3
					C450.5,259.5,450.3,259.6,450.1,259.6z M450.1,257.1c-0.2,0-0.3-0.1-0.3-0.3v-1.3c0-0.2,0.1-0.3,0.3-0.3s0.3,0.1,0.3,0.3v1.3
					C450.5,257,450.3,257.1,450.1,257.1z M450.1,254.6c-0.2,0-0.3-0.1-0.3-0.3V253c0-0.2,0.1-0.3,0.3-0.3s0.3,0.1,0.3,0.3v1.3
					C450.5,254.5,450.3,254.6,450.1,254.6z M450.1,252.1c-0.2,0-0.3-0.1-0.3-0.3v-1.3c0-0.2,0.1-0.3,0.3-0.3s0.3,0.1,0.3,0.3v1.3
					C450.5,252,450.3,252.1,450.1,252.1z"/>
			</g>
			<g>
				<path class="st4" d="M450.1,281.6c-0.2,0-0.3-0.1-0.3-0.3v-0.6c0-0.2,0.1-0.3,0.3-0.3s0.3,0.1,0.3,0.3v0.6
					C450.5,281.5,450.3,281.6,450.1,281.6z"/>
			</g>
		</g>
	</g>
	<g id="XMLID_1026_">
		<g id="XMLID_18450_">
			<path id="XMLID_18455_" class="st6" d="M400.2,168l0-10.3l-8.8-1.7c-0.4-0.1-0.7,0-1,0.2l0,0l-4.4,2.5l5.7,1.2L400.2,168z"/>
			<g id="XMLID_18449_">
				<path id="XMLID_18448_" class="st6" d="M460.4,226.3l0.7-0.4c1.1-0.6,1.9-2.1,1.9-3.3l0-52.5c0-1.2-0.9-2.7-1.9-3.3l-58.9-34
					c-1.1-0.6-2.8-0.6-3.8,0l-0.7,0.4c-1.1,0.6-1.9,2.1-1.9,3.3l0,52.5c0,1.2,0.9,2.7,1.9,3.3l58.9,34
					C457.6,226.9,459.3,226.9,460.4,226.3z"/>
				<path id="XMLID_18447_" class="st3" d="M462.9,204.2v-34c0-0.6-0.2-1.3-0.6-1.9l-8.4,4.8v51.7l2.6,1.5c1.1,0.6,2.8,0.6,3.8,0
					l0.7-0.4c1.1-0.6,1.9-2.1,1.9-3.3V204.2z"/>
				<path id="XMLID_18437_" class="st7" d="M397.7,135.5l58.9,34c1.1,0.6,1.9,2.1,1.9,3.3v52.5c0,1.2-0.9,1.7-1.9,1.1l-58.9-34
					c-1.1-0.6-1.9-2.1-1.9-3.3l0-52.5C395.8,135.4,396.6,134.9,397.7,135.5z"/>
			</g>
			<path id="XMLID_18451_" class="st7" d="M395.8,170.6l-10-9.7c-1-1-0.1-2.6,1.2-2.4l8.8,1.7L395.8,170.6z"/>
		</g>
		<g id="XMLID_18453_">
			<g id="XMLID_18468_">
				<g id="XMLID_18475_">
					<path id="XMLID_18551_" class="st8" d="M426,179.5c0.2,0.2,0.2,0.6,0.2,0.6c0,8.2,5.9,18.1,12.9,22.3
						c7.3,4.4,13.1,1.1,12.9-7.4c-0.2-7.7-5.2-17.1-11.7-21.6l0.4-0.2l0-0.7c6.9,4.9,12.3,14.8,12.3,23c0,8.8-6.2,12.4-13.9,8
						c-7.7-4.4-14-15.2-13.9-24.1C425.3,179.2,425.8,179.3,426,179.5z"/>
				</g>
			</g>
			<g id="XMLID_18464_">
				<g id="XMLID_18465_">
					<path id="XMLID_18466_" class="st1" d="M423.9,178.8c0-9.6,6.8-13.6,15.1-8.7c3.7,2.1,7.2,5.7,9.9,10l-2.3,1.7
						c-2.1-3.4-4.8-6.1-7.7-7.7c-6.4-3.7-11.7-0.7-11.7,6.7c0,7.4,5.2,16.5,11.7,20.2c6.4,3.7,11.7,0.7,11.7-6.7l3.5,2
						c0,9.6-6.8,13.6-15.1,8.7C430.7,200.2,423.9,188.5,423.9,178.8z"/>
				</g>
			</g>
			<g id="XMLID_18454_">
				<g id="XMLID_18459_">
					<path id="XMLID_18460_" class="st9" d="M439,177.4c4.9,2.8,8.8,9.6,8.8,15.2c0,5.6-3.9,7.9-8.8,5.1c-4.9-2.8-8.8-9.6-8.8-15.2
						C430.2,176.9,434.1,174.6,439,177.4z"/>
				</g>
			</g>
		</g>
		<g id="XMLID_18462_">
			<path id="XMLID_18461_" class="st3" d="M404.3,151.1l15,8.7c0.8,0.5,1.4,1.5,1.4,2.3s-0.6,1.1-1.4,0.6l-15-8.7
				c-0.8-0.5-1.4-1.5-1.4-2.3C402.8,150.9,403.5,150.6,404.3,151.1z"/>
			<path id="XMLID_18463_" class="st3" d="M404.3,158.5l15,8.7c0.8,0.5,1.4,1.5,1.4,2.3s-0.6,1.1-1.4,0.6l-15-8.7
				c-0.8-0.5-1.4-1.5-1.4-2.3C402.8,158.3,403.5,158.1,404.3,158.5z"/>
			<path id="XMLID_18476_" class="st3" d="M404.3,166l15,8.7c0.8,0.5,1.4,1.5,1.4,2.3s-0.6,1.1-1.4,0.6l-15-8.7
				c-0.8-0.5-1.4-1.5-1.4-2.3C402.8,165.8,403.5,165.5,404.3,166z"/>
			<path id="XMLID_18525_" class="st3" d="M404.3,173.4l15,8.7c0.8,0.5,1.4,1.5,1.4,2.3s-0.6,1.1-1.4,0.6l-15-8.7
				c-0.8-0.5-1.4-1.5-1.4-2.3C402.8,173.2,403.5,173,404.3,173.4z"/>
			<path id="XMLID_18526_" class="st3" d="M404.3,180.8l15,8.7c0.8,0.5,1.4,1.5,1.4,2.3c0,0.8-0.6,1.1-1.4,0.6l-15-8.7
				c-0.8-0.5-1.4-1.5-1.4-2.3C402.8,180.7,403.5,180.4,404.3,180.8z"/>
		</g>
	</g>
	<g id="XMLID_18495_">
		<g id="XMLID_1027_">
			<path id="XMLID_16952_" class="st6" d="M104.7,134.1l0-10.3l8.8-1.7c0.4-0.1,0.7,0,1,0.2l0,0l4.4,2.5l-5.7,1.2L104.7,134.1z"/>
			<g id="XMLID_16945_">
				<path id="XMLID_16951_" class="st6" d="M44.6,192.4l-0.7-0.4c-1.1-0.6-1.9-2.1-1.9-3.3l0-52.5c0-1.2,0.9-2.7,1.9-3.3l58.9-34
					c1.1-0.6,2.8-0.6,3.8,0l0.7,0.4c1.1,0.6,1.9,2.1,1.9,3.3l0,52.5c0,1.2-0.9,2.7-1.9,3.3l-58.9,34C47.3,193,45.6,193,44.6,192.4z"
					/>
				<path id="XMLID_16948_" class="st3" d="M42,170.2v-34c0-0.6,0.2-1.3,0.6-1.9l8.4,4.8v51.7l-2.6,1.5c-1.1,0.6-2.8,0.6-3.8,0
					l-0.7-0.4c-1.1-0.6-1.9-2.1-1.9-3.3V170.2z"/>
				<path id="XMLID_16946_" class="st7" d="M107.3,101.5l-58.9,34c-1.1,0.6-1.9,2.1-1.9,3.3v52.5c0,1.2,0.9,1.7,1.9,1.1l58.9-34
					c1.1-0.6,1.9-2.1,1.9-3.3l0-52.5C109.2,101.4,108.3,100.9,107.3,101.5z"/>
			</g>
			<path id="XMLID_16944_" class="st7" d="M109.2,136.6l10-9.7c1-1,0.1-2.6-1.2-2.4l-8.8,1.7L109.2,136.6z"/>
		</g>
		<g id="XMLID_17264_">
			<path id="XMLID_16988_" class="st1" d="M53.1,174.2v-17.4c0-3.3,1.8-6.4,4.7-8.1l0,0c2.5-1.4,5.6,0.2,5.9,3.1l0,0
				c0.2,2.2,2.7,3.5,4.6,2.4l0,0c2.2-1.3,3.5-3.6,3.6-6.1l0.8-15.3c0.1-2.6,1.6-5,3.9-6.4l0,0c2.8-1.7,6.4,0.3,6.6,3.5l0.5,8.5
				c0.1,1.9,2.2,3.1,3.9,2.1l0,0c2.3-1.3,3.8-3.7,4.1-6.3l0.4-3.1c0.3-2.7,1.9-5.2,4.3-6.6l0,0c2.7-1.5,6,0.4,6,3.5v17.5L53.1,174.2
				z"/>
			<g id="XMLID_17259_">
				<g id="XMLID_17140_">
					<g>
						<path class="st4" d="M58.5,149.4c-0.2,0-0.3-0.1-0.3-0.3v-0.6c0-0.2,0.1-0.3,0.3-0.3s0.3,0.1,0.3,0.3v0.6
							C58.8,149.3,58.7,149.4,58.5,149.4z"/>
					</g>
					<g>
						<path class="st4" d="M58.5,169.5c-0.2,0-0.3-0.1-0.3-0.3V168c0-0.2,0.1-0.3,0.3-0.3s0.3,0.1,0.3,0.3v1.3
							C58.8,169.4,58.7,169.5,58.5,169.5z M58.5,167c-0.2,0-0.3-0.1-0.3-0.3v-1.3c0-0.2,0.1-0.3,0.3-0.3s0.3,0.1,0.3,0.3v1.3
							C58.8,166.9,58.7,167,58.5,167z M58.5,164.5c-0.2,0-0.3-0.1-0.3-0.3v-1.3c0-0.2,0.1-0.3,0.3-0.3s0.3,0.1,0.3,0.3v1.3
							C58.8,164.4,58.7,164.5,58.5,164.5z M58.5,162c-0.2,0-0.3-0.1-0.3-0.3v-1.3c0-0.2,0.1-0.3,0.3-0.3s0.3,0.1,0.3,0.3v1.3
							C58.8,161.9,58.7,162,58.5,162z M58.5,159.5c-0.2,0-0.3-0.1-0.3-0.3v-1.3c0-0.2,0.1-0.3,0.3-0.3s0.3,0.1,0.3,0.3v1.3
							C58.8,159.4,58.7,159.5,58.5,159.5z M58.5,157c-0.2,0-0.3-0.1-0.3-0.3v-1.3c0-0.2,0.1-0.3,0.3-0.3s0.3,0.1,0.3,0.3v1.3
							C58.8,156.8,58.7,157,58.5,157z M58.5,154.5c-0.2,0-0.3-0.1-0.3-0.3v-1.3c0-0.2,0.1-0.3,0.3-0.3s0.3,0.1,0.3,0.3v1.3
							C58.8,154.3,58.7,154.5,58.5,154.5z M58.5,152c-0.2,0-0.3-0.1-0.3-0.3v-1.3c0-0.2,0.1-0.3,0.3-0.3s0.3,0.1,0.3,0.3v1.3
							C58.8,151.8,58.7,152,58.5,152z"/>
					</g>
					<g>
						<path class="st4" d="M58.5,171.4c-0.2,0-0.3-0.1-0.3-0.3v-0.6c0-0.2,0.1-0.3,0.3-0.3s0.3,0.1,0.3,0.3v0.6
							C58.8,171.3,58.7,171.4,58.5,171.4z"/>
					</g>
				</g>
				<path id="XMLID_17009_" class="st10" d="M58.5,147.4c-0.5,0.3-0.9,1-0.9,1.6s0.4,0.8,0.9,0.5c0.5-0.3,0.9-1,0.9-1.6
					C59.4,147.4,59,147.1,58.5,147.4z"/>
			</g>
			<g id="XMLID_17208_">
				<g id="XMLID_17160_">
					<g>
						<path class="st4" d="M77.8,126.8c-0.2,0-0.3-0.1-0.3-0.3v-0.6c0-0.2,0.1-0.3,0.3-0.3c0.2,0,0.3,0.1,0.3,0.3v0.6
							C78.1,126.7,78,126.8,77.8,126.8z"/>
					</g>
					<g>
						<path class="st4" d="M77.8,158.3c-0.2,0-0.3-0.1-0.3-0.3v-1.3c0-0.2,0.1-0.3,0.3-0.3c0.2,0,0.3,0.1,0.3,0.3v1.3
							C78.1,158.2,78,158.3,77.8,158.3z M77.8,155.7c-0.2,0-0.3-0.1-0.3-0.3v-1.3c0-0.2,0.1-0.3,0.3-0.3c0.2,0,0.3,0.1,0.3,0.3v1.3
							C78.1,155.6,78,155.7,77.8,155.7z M77.8,153.1c-0.2,0-0.3-0.1-0.3-0.3v-1.3c0-0.2,0.1-0.3,0.3-0.3c0.2,0,0.3,0.1,0.3,0.3v1.3
							C78.1,152.9,78,153.1,77.8,153.1z M77.8,150.5c-0.2,0-0.3-0.1-0.3-0.3v-1.3c0-0.2,0.1-0.3,0.3-0.3c0.2,0,0.3,0.1,0.3,0.3v1.3
							C78.1,150.3,78,150.5,77.8,150.5z M77.8,147.8c-0.2,0-0.3-0.1-0.3-0.3v-1.3c0-0.2,0.1-0.3,0.3-0.3c0.2,0,0.3,0.1,0.3,0.3v1.3
							C78.1,147.7,78,147.8,77.8,147.8z M77.8,145.2c-0.2,0-0.3-0.1-0.3-0.3v-1.3c0-0.2,0.1-0.3,0.3-0.3c0.2,0,0.3,0.1,0.3,0.3v1.3
							C78.1,145.1,78,145.2,77.8,145.2z M77.8,142.6c-0.2,0-0.3-0.1-0.3-0.3V141c0-0.2,0.1-0.3,0.3-0.3c0.2,0,0.3,0.1,0.3,0.3v1.3
							C78.1,142.4,78,142.6,77.8,142.6z M77.8,140c-0.2,0-0.3-0.1-0.3-0.3v-1.3c0-0.2,0.1-0.3,0.3-0.3c0.2,0,0.3,0.1,0.3,0.3v1.3
							C78.1,139.8,78,140,77.8,140z M77.8,137.3c-0.2,0-0.3-0.1-0.3-0.3v-1.3c0-0.2,0.1-0.3,0.3-0.3c0.2,0,0.3,0.1,0.3,0.3v1.3
							C78.1,137.2,78,137.3,77.8,137.3z M77.8,134.7c-0.2,0-0.3-0.1-0.3-0.3v-1.3c0-0.2,0.1-0.3,0.3-0.3c0.2,0,0.3,0.1,0.3,0.3v1.3
							C78.1,134.6,78,134.7,77.8,134.7z M77.8,132.1c-0.2,0-0.3-0.1-0.3-0.3v-1.3c0-0.2,0.1-0.3,0.3-0.3c0.2,0,0.3,0.1,0.3,0.3v1.3
							C78.1,131.9,78,132.1,77.8,132.1z M77.8,129.5c-0.2,0-0.3-0.1-0.3-0.3v-1.3c0-0.2,0.1-0.3,0.3-0.3c0.2,0,0.3,0.1,0.3,0.3v1.3
							C78.1,129.3,78,129.5,77.8,129.5z"/>
					</g>
					<g>
						<path class="st4" d="M77.8,160.3c-0.2,0-0.3-0.1-0.3-0.3v-0.6c0-0.2,0.1-0.3,0.3-0.3c0.2,0,0.3,0.1,0.3,0.3v0.6
							C78.1,160.1,78,160.3,77.8,160.3z"/>
					</g>
				</g>
				<path id="XMLID_17146_" class="st10" d="M77.8,124.8c-0.5,0.3-0.9,1-0.9,1.6c0,0.6,0.4,0.8,0.9,0.5c0.5-0.3,0.9-1,0.9-1.6
					C78.7,124.7,78.3,124.5,77.8,124.8z"/>
			</g>
			<g id="XMLID_17014_">
				<g id="XMLID_17206_">
					<g>
						<path class="st4" d="M97.1,125.4c-0.2,0-0.3-0.1-0.3-0.3v-0.6c0-0.2,0.1-0.3,0.3-0.3c0.2,0,0.3,0.1,0.3,0.3v0.6
							C97.4,125.2,97.3,125.4,97.1,125.4z"/>
					</g>
					<g>
						<path class="st4" d="M97.1,147.3c-0.2,0-0.3-0.1-0.3-0.3v-1.2c0-0.2,0.1-0.3,0.3-0.3c0.2,0,0.3,0.1,0.3,0.3v1.2
							C97.4,147.1,97.3,147.3,97.1,147.3z M97.1,144.8c-0.2,0-0.3-0.1-0.3-0.3v-1.2c0-0.2,0.1-0.3,0.3-0.3c0.2,0,0.3,0.1,0.3,0.3
							v1.2C97.4,144.7,97.3,144.8,97.1,144.8z M97.1,142.4c-0.2,0-0.3-0.1-0.3-0.3v-1.2c0-0.2,0.1-0.3,0.3-0.3
							c0.2,0,0.3,0.1,0.3,0.3v1.2C97.4,142.3,97.3,142.4,97.1,142.4z M97.1,140c-0.2,0-0.3-0.1-0.3-0.3v-1.2c0-0.2,0.1-0.3,0.3-0.3
							c0.2,0,0.3,0.1,0.3,0.3v1.2C97.4,139.8,97.3,140,97.1,140z M97.1,137.5c-0.2,0-0.3-0.1-0.3-0.3V136c0-0.2,0.1-0.3,0.3-0.3
							c0.2,0,0.3,0.1,0.3,0.3v1.2C97.4,137.4,97.3,137.5,97.1,137.5z M97.1,135.1c-0.2,0-0.3-0.1-0.3-0.3v-1.2
							c0-0.2,0.1-0.3,0.3-0.3c0.2,0,0.3,0.1,0.3,0.3v1.2C97.4,135,97.3,135.1,97.1,135.1z M97.1,132.7c-0.2,0-0.3-0.1-0.3-0.3v-1.2
							c0-0.2,0.1-0.3,0.3-0.3c0.2,0,0.3,0.1,0.3,0.3v1.2C97.4,132.5,97.3,132.7,97.1,132.7z M97.1,130.2c-0.2,0-0.3-0.1-0.3-0.3
							v-1.2c0-0.2,0.1-0.3,0.3-0.3c0.2,0,0.3,0.1,0.3,0.3v1.2C97.4,130.1,97.3,130.2,97.1,130.2z M97.1,127.8
							c-0.2,0-0.3-0.1-0.3-0.3v-1.2c0-0.2,0.1-0.3,0.3-0.3c0.2,0,0.3,0.1,0.3,0.3v1.2C97.4,127.6,97.3,127.8,97.1,127.8z"/>
					</g>
					<g>
						<path class="st4" d="M97.1,149.1c-0.2,0-0.3-0.1-0.3-0.3v-0.6c0-0.2,0.1-0.3,0.3-0.3c0.2,0,0.3,0.1,0.3,0.3v0.6
							C97.4,149,97.3,149.1,97.1,149.1z"/>
					</g>
				</g>
				<path id="XMLID_17165_" class="st10" d="M97.1,123.3c-0.5,0.3-0.9,1-0.9,1.6c0,0.6,0.4,0.8,0.9,0.5c0.5-0.3,0.9-1,0.9-1.6
					C98.1,123.3,97.6,123,97.1,123.3z"/>
			</g>
			<g id="XMLID_17207_">
				<path class="st11" d="M53.1,181.6c-0.2,0-0.3-0.1-0.4-0.3c-0.1-0.2-0.1-0.5,0.2-0.7l49.3-28.5c0.2-0.1,0.5-0.1,0.7,0.2
					c0.1,0.2,0.1,0.5-0.2,0.7l-49.3,28.5C53.3,181.5,53.2,181.6,53.1,181.6z"/>
			</g>
		</g>
	</g>
</g>
<g id="Charts_1">
	<g id="XMLID_18501_">
		<g id="XMLID_18280_">
			<g>
				<path id="XMLID_18331_" class="st12" d="M212.6,325.5l-58.9,34c-1.1,0.6-1.9,2.1-1.9,3.3v0.8c0,1.2,0.9,2.7,1.9,3.3l58.9,34
					c1.1,0.6,2.8,0.6,3.8,0l58.9-34c1.1-0.6,1.9-2.1,1.9-3.3l0-0.8c0-1.2-0.9-2.7-1.9-3.3l-58.9-34
					C215.4,324.9,213.7,324.9,212.6,325.5z"/>
				<path id="XMLID_5_" class="st13" d="M212.6,325.5l-58.9,34c-1.1,0.6-1.9,2.1-1.9,3.3v0.8c0,1.2,0.9,2.7,1.9,3.3l58.9,34
					c1.1,0.6,2.8,0.6,3.8,0l58.9-34c1.1-0.6,1.9-2.1,1.9-3.3l0-0.8c0-1.2-0.9-2.7-1.9-3.3l-58.9-34
					C215.4,324.9,213.7,324.9,212.6,325.5z"/>
			</g>
			<g>
				<path id="XMLID_18325_" class="st1" d="M156.3,358l-2.6,1.5c-1.1,0.6-1.9,2.1-1.9,3.3v0.8c0,1.2,0.9,2.7,1.9,3.3l58.9,34
					c0.5,0.3,1.2,0.5,1.9,0.5v-9.7L156.3,358z"/>
				<path id="XMLID_3_" class="st14" d="M156.3,358l-2.6,1.5c-1.1,0.6-1.9,2.1-1.9,3.3v0.8c0,1.2,0.9,2.7,1.9,3.3l58.9,34
					c0.5,0.3,1.2,0.5,1.9,0.5v-9.7L156.3,358z"/>
			</g>
			<g>
				<path id="XMLID_18281_" class="st12" d="M212.6,325.5l-58.9,34c-1.1,0.6-1.1,1.6,0,2.2l58.9,34c1.1,0.6,2.8,0.6,3.8,0l58.9-34
					c1.1-0.6,1.1-1.6,0-2.2l-58.9-34C215.4,324.9,213.7,324.9,212.6,325.5z"/>
				<path id="XMLID_4_" class="st15" d="M212.6,325.5l-58.9,34c-1.1,0.6-1.1,1.6,0,2.2l58.9,34c1.1,0.6,2.8,0.6,3.8,0l58.9-34
					c1.1-0.6,1.1-1.6,0-2.2l-58.9-34C215.4,324.9,213.7,324.9,212.6,325.5z"/>
			</g>
			<g id="XMLID_18402_">
				<g id="XMLID_18414_">
					<g id="XMLID_18415_">
						<g id="XMLID_18416_">
							<path class="st16" d="M211.8,360.9l-27.6,2.5c-2.7-9.7,8.8-18.8,25.6-20.3c10.1-0.9,19.3,0.8,26.6,5l-19.4,11.2
								C215.6,360,213.3,360.7,211.8,360.9z"/>
							<path class="st17" d="M184.2,364.4c-0.4,0-0.8-0.3-1-0.7c-0.9-3.5-0.3-7,1.9-10.2c4.2-6.1,13.4-10.4,24.5-11.4
								c10.3-0.9,19.7,0.8,27.1,5.1c0.3,0.2,0.5,0.5,0.5,0.9s-0.2,0.7-0.5,0.9l-19.4,11.2c-1.4,0.8-3.9,1.6-5.5,1.8l0,0L184.2,364.4
								C184.2,364.4,184.2,364.4,184.2,364.4z M215,343.8c-1.7,0-3.4,0.1-5.2,0.2c-10.4,0.9-19.2,5-23,10.5
								c-1.7,2.5-2.3,5.1-1.8,7.7l26.8-2.4c1.4-0.1,3.5-0.8,4.7-1.5l17.8-10.3C228.7,345.3,222.2,343.8,215,343.8z"/>
						</g>
					</g>
				</g>
				<g id="XMLID_18411_">
					<g id="XMLID_18412_">
						<g id="XMLID_18413_">
							<path class="st18" d="M216.4,362.7l12.1,13.8c-15.1,4.5-33.6,1-41.4-7.8c-1.5-1.7-2.4-3.3-3-5.3l27.6-2.5
								C213.3,360.7,215.3,361.5,216.4,362.7z"/>
							<path class="st1" d="M214.6,379.4c-11.5,0-22.6-3.7-28.3-10c-1.6-1.9-2.6-3.6-3.2-5.7c-0.1-0.3,0-0.6,0.1-0.8
								c0.2-0.2,0.4-0.4,0.7-0.4l27.6-2.5c1.8-0.2,4.2,0.8,5.4,2.1l12.1,13.8c0.2,0.3,0.3,0.6,0.2,0.9c-0.1,0.3-0.4,0.6-0.7,0.7
								C224.2,378.7,219.4,379.4,214.6,379.4z M185.5,364.3c0.5,1.3,1.3,2.5,2.4,3.7c7.2,8.2,24.3,11.6,38.8,7.9l-11.1-12.5l0,0
								c-0.8-0.9-2.5-1.6-3.7-1.5L185.5,364.3z"/>
						</g>
					</g>
				</g>
				<g id="XMLID_18408_">
					<g id="XMLID_18409_">
						<g id="XMLID_18410_">
							<path class="st19" d="M217.3,360.4l27.6-2.5c2.1,7.7-4.3,15-16.4,18.6l-12.1-13.8C215.3,361.5,215.8,360.5,217.3,360.4z"/>
							<path class="st0" d="M228.5,377.4c-0.3,0-0.6-0.1-0.8-0.3l-12.1-13.8c-0.7-0.8-1-1.8-0.7-2.6c0.3-0.8,1.1-1.3,2.2-1.4
								l27.6-2.5c0.5,0,0.9,0.3,1.1,0.7c2.3,8.3-4.4,16.1-17.1,19.8C228.7,377.4,228.6,377.4,228.5,377.4z M217.4,361.4
								c-0.4,0-0.6,0.1-0.6,0.2c0,0,0.1,0.2,0.3,0.5l11.7,13.3c10.7-3.3,16.6-9.6,15.3-16.4L217.4,361.4z"/>
						</g>
					</g>
				</g>
				<g id="XMLID_18405_">
					<g id="XMLID_18406_">
						<g id="XMLID_18407_">
							<path class="st20" d="M216.9,359.2l19.4-11.2c4.8,2.8,7.6,5.9,8.6,9.8l-27.6,2.5C215.8,360.5,215.6,360,216.9,359.2z"/>
							<path class="st9" d="M216.8,361.4c-0.6,0-1.5-0.1-1.7-0.9c-0.3-1.1,0.9-1.8,1.3-2.1l19.4-11.2c0.3-0.2,0.7-0.2,1,0
								c5.1,2.9,8,6.2,9.1,10.4c0.1,0.3,0,0.6-0.1,0.8c-0.2,0.2-0.4,0.4-0.7,0.4l-27.6,2.5C217.2,361.4,217,361.4,216.8,361.4z
								 M236.3,349.2l-17.3,10l24.6-2.2C242.4,354,240.1,351.5,236.3,349.2z"/>
						</g>
					</g>
				</g>
			</g>
		</g>
		<path id="XMLID_17390_" class="st21" d="M169.8,350.3l62.7,36.2l42.9-24.8c1.1-0.6,1.1-1.6,0-2.2l-55.1-31.8l-3.8-2.2
			c-1.1-0.6-2.8-0.6-3.8,0L169.8,350.3z"/>
	</g>
	<g id="XMLID_18498_">
		<g id="XMLID_18336_">
			<g id="XMLID_18276_">
				<g>
					<path id="XMLID_18279_" class="st12" d="M230.5,294.5l-58.9,34c-1.1,0.6-1.9,2.1-1.9,3.3v0.8c0,1.2,0.9,2.7,1.9,3.3l58.9,34
						c1.1,0.6,2.8,0.6,3.8,0l58.9-34c1.1-0.6,1.9-2.1,1.9-3.3l0-0.8c0-1.2-0.9-2.7-1.9-3.3l-58.9-34
						C233.3,293.9,231.6,293.9,230.5,294.5z"/>
					<path id="XMLID_7_" class="st13" d="M230.5,294.5l-58.9,34c-1.1,0.6-1.9,2.1-1.9,3.3v0.8c0,1.2,0.9,2.7,1.9,3.3l58.9,34
						c1.1,0.6,2.8,0.6,3.8,0l58.9-34c1.1-0.6,1.9-2.1,1.9-3.3l0-0.8c0-1.2-0.9-2.7-1.9-3.3l-58.9-34
						C233.3,293.9,231.6,293.9,230.5,294.5z"/>
				</g>
				<g>
					<path id="XMLID_18278_" class="st12" d="M174.2,327l-2.6,1.5c-1.1,0.6-1.9,2.1-1.9,3.3v0.8c0,1.2,0.9,2.7,1.9,3.3l58.9,34
						c0.5,0.3,1.2,0.5,1.9,0.5v-9.7L174.2,327z"/>
					<path id="XMLID_11_" class="st14" d="M174.2,327l-2.6,1.5c-1.1,0.6-1.9,2.1-1.9,3.3v0.8c0,1.2,0.9,2.7,1.9,3.3l58.9,34
						c0.5,0.3,1.2,0.5,1.9,0.5v-9.7L174.2,327z"/>
				</g>
				<g>
					<path id="XMLID_18277_" class="st12" d="M230.5,294.5l-58.9,34c-1.1,0.6-1.1,1.6,0,2.2l58.9,34c1.1,0.6,2.8,0.6,3.8,0l58.9-34
						c1.1-0.6,1.1-1.6,0-2.2l-58.9-34C233.3,293.9,231.6,293.9,230.5,294.5z"/>
					<path id="XMLID_8_" class="st15" d="M230.5,294.5l-58.9,34c-1.1,0.6-1.1,1.6,0,2.2l58.9,34c1.1,0.6,2.8,0.6,3.8,0l58.9-34
						c1.1-0.6,1.1-1.6,0-2.2l-58.9-34C233.3,293.9,231.6,293.9,230.5,294.5z"/>
				</g>
			</g>
			<g id="XMLID_18332_">
				<path id="XMLID_18335_" class="st9" d="M205.6,319.2l12.1-2.3c0.7-0.1,1.4,0.4,1.4,1.1l0,2.4c0,0.8,0.6,1.3,1.4,1.2l19.7-2.3
					c0.8-0.1,1.2,0.4,0.9,1.1l-3.6,10.3c-0.2,0.7,0.2,1.3,0.9,1.3h15.2c0.8,0,1.2,0.6,0.9,1.3l-4,11.6l-17.9,10.3l-44.8-25.9
					L205.6,319.2z"/>
				<path id="XMLID_18333_" class="st1" d="M232.5,355.4l13.4-7.8l4-11.6c0.2-0.7-0.2-1.2-0.9-1l-24.2,4.7c-0.7,0.1-1.2-0.3-0.9-1
					l3.6-10.3c0.2-0.7-0.2-1.2-0.9-1.1l-19.7,2.3c-0.8,0.1-1.1-0.4-0.7-1l3.1-5.4c0.4-0.7,0.1-1.1-0.7-0.9l-12.1,2.3l-9,5.2
					L232.5,355.4z"/>
			</g>
		</g>
		<path id="XMLID_17409_" class="st21" d="M187.7,319.2l62.7,36.2l42.9-24.8c1.1-0.6,1.1-1.6,0-2.2l-55.1-31.8l-3.8-2.2
			c-1.1-0.6-2.8-0.6-3.8,0L187.7,319.2z"/>
	</g>
	<g id="XMLID_18275_">
		<g id="XMLID_18274_">
			<g>
				<path id="XMLID_18221_" class="st12" d="M248.5,263.5l-58.9,34c-1.1,0.6-1.9,2.1-1.9,3.3v0.8c0,1.2,0.9,2.7,1.9,3.3l58.9,34
					c1.1,0.6,2.8,0.6,3.8,0l58.9-34c1.1-0.6,1.9-2.1,1.9-3.3l0-0.8c0-1.2-0.9-2.7-1.9-3.3l-58.9-34
					C251.2,262.9,249.5,262.9,248.5,263.5z"/>
				<path id="XMLID_9_" class="st13" d="M248.5,263.5l-58.9,34c-1.1,0.6-1.9,2.1-1.9,3.3v0.8c0,1.2,0.9,2.7,1.9,3.3l58.9,34
					c1.1,0.6,2.8,0.6,3.8,0l58.9-34c1.1-0.6,1.9-2.1,1.9-3.3l0-0.8c0-1.2-0.9-2.7-1.9-3.3l-58.9-34
					C251.2,262.9,249.5,262.9,248.5,263.5z"/>
			</g>
			<g>
				<path id="XMLID_18260_" class="st12" d="M192.1,296l-2.6,1.5c-1.1,0.6-1.9,2.1-1.9,3.3v0.8c0,1.2,0.9,2.7,1.9,3.3l58.9,34
					c0.5,0.3,1.2,0.5,1.9,0.5v-9.7L192.1,296z"/>
				<path id="XMLID_10_" class="st14" d="M192.1,296l-2.6,1.5c-1.1,0.6-1.9,2.1-1.9,3.3v0.8c0,1.2,0.9,2.7,1.9,3.3l58.9,34
					c0.5,0.3,1.2,0.5,1.9,0.5v-9.7L192.1,296z"/>
			</g>
			<g>
				<path id="XMLID_18228_" class="st12" d="M248.5,263.5l-58.9,34c-1.1,0.6-1.1,1.6,0,2.2l58.9,34c1.1,0.6,2.8,0.6,3.8,0l58.9-34
					c1.1-0.6,1.1-1.6,0-2.2l-58.9-34C251.2,262.9,249.5,262.9,248.5,263.5z"/>
				<path id="XMLID_12_" class="st15" d="M248.5,263.5l-58.9,34c-1.1,0.6-1.1,1.6,0,2.2l58.9,34c1.1,0.6,2.8,0.6,3.8,0l58.9-34
					c1.1-0.6,1.1-1.6,0-2.2l-58.9-34C251.2,262.9,249.5,262.9,248.5,263.5z"/>
			</g>
		</g>
		<g id="XMLID_18240_">
			<path id="XMLID_18239_" class="st1" d="M209.9,294.8l29.5-17c0.5-0.3,1.4-0.3,1.9,0l4.8,2.8c0.5,0.3,0.5,0.8,0,1.1l-29.5,17
				c-0.5,0.3-1.4,0.3-1.9,0l-4.8-2.8C209.4,295.6,209.4,295.1,209.9,294.8z"/>
			<path id="XMLID_18241_" class="st0" d="M223.4,302.5l20.5-11.8c0.5-0.3,1.4-0.3,1.9,0l4.8,2.8c0.5,0.3,0.5,0.8,0,1.1L230,306.4
				c-0.5,0.3-1.4,0.3-1.9,0l-4.8-2.8C222.8,303.3,222.8,302.8,223.4,302.5z"/>
			<path id="XMLID_18272_" class="st22" d="M236.8,310.3l33.9-19.6c0.5-0.3,1.4-0.3,1.9,0l4.8,2.8c0.5,0.3,0.5,0.8,0,1.1l-33.9,19.6
				c-0.5,0.3-1.4,0.3-1.9,0l-4.8-2.8C236.3,311.1,236.3,310.6,236.8,310.3z"/>
			<path id="XMLID_18273_" class="st9" d="M250.2,318.1l16-9.2c0.5-0.3,1.4-0.3,1.9,0l4.8,2.8c0.5,0.3,0.5,0.8,0,1.1l-16,9.2
				c-0.5,0.3-1.4,0.3-1.9,0l-4.8-2.8C249.7,318.9,249.7,318.4,250.2,318.1z"/>
		</g>
	</g>
</g>
<g id="Plants" class="st23">
	<g id="XMLID_1023_" class="st24">
		<g id="XMLID_1021_">
			<g>
				<path id="XMLID_1020_" class="st12" d="M375.9,315.9c-0.1-0.2,1.9-26.4,14.8-39.1c12.8-12.7,24.3-8.8,26.8-4.5
					c2.5,4.3,0.7,6.7-9,13.1c-8.8,5.9-19.7,14-25,31.2L375.9,315.9z"/>
				<path id="XMLID_23_" class="st25" d="M375.9,315.9c-0.1-0.2,1.9-26.4,14.8-39.1c12.8-12.7,24.3-8.8,26.8-4.5
					c2.5,4.3,0.7,6.7-9,13.1c-8.8,5.9-19.7,14-25,31.2L375.9,315.9z"/>
			</g>
			<g id="XMLID_1022_">
				<path class="st4" d="M379.1,316.7C379.1,316.7,379,316.7,379.1,316.7c-0.3,0-0.5-0.3-0.5-0.6c4.2-28.9,24.1-43.6,33.4-44.7
					c0.3,0,0.5,0.2,0.6,0.4c0,0.3-0.2,0.5-0.4,0.6c-9,1.1-28.4,15.5-32.5,43.8C379.5,316.5,379.3,316.7,379.1,316.7z"/>
			</g>
		</g>
		<g id="XMLID_1015_">
			<path id="XMLID_1016_" class="st12" d="M381.3,342.3c2.4-1.6,5.8-2.9,9.8-0.6c4,2.4,9.7,2.6,12.9,0.6c3.2-2,4.4-6.9,4.1-10.3
				c-0.3-3.4,0.9-6.7,4.5-6.7c3.7,0,10.6,0.3,13.1-3.8c2.5-4.1-3.2-8.5-4.4-9.9c-2.2-2.6,0.3-5.9,3.5-8.8c3.5-3.1,4.5-9.8-1.9-10.8
				c-6.4-1-16.1,4.8-21.1,6.7c-7.5,3-7.1-1.1-11.7-1.4c-5.6-0.3-7.4,3.6-7.8,8.7c-0.5,5.7-3.1,7.3-3.1,7.3L381.3,342.3z"/>
			<g id="XMLID_1017_">
				<path class="st4" d="M380.4,331.4c-0.1,0-0.1,0-0.2,0c-0.3-0.1-0.4-0.4-0.3-0.6c3.7-10,27.5-30.6,41-35.5c0.3-0.1,0.5,0,0.6,0.3
					c0.1,0.3,0,0.5-0.3,0.6c-13.1,4.7-36.9,25.3-40.4,34.9C380.8,331.3,380.6,331.4,380.4,331.4z"/>
			</g>
			<g id="XMLID_1018_">
				<path class="st4" d="M414.9,316.8c-0.1,0-0.2,0-0.3-0.1c-4.6-2.8-15.5-3.9-20.3-2.1c-0.3,0.1-0.5,0-0.6-0.3
					c-0.1-0.3,0-0.5,0.3-0.6c5.2-1.9,16.3-0.8,21.2,2.2c0.2,0.1,0.3,0.5,0.2,0.7C415.3,316.7,415.1,316.8,414.9,316.8z"/>
			</g>
			<g id="XMLID_1019_">
				<path class="st4" d="M391.4,317.3c-0.3,0-0.5-0.2-0.5-0.5c-0.2-9.4-2.7-13.7-2.7-13.7c-0.1-0.2-0.1-0.5,0.2-0.7
					c0.2-0.1,0.5-0.1,0.7,0.2c0.1,0.2,2.7,4.5,2.9,14.2C391.9,317.1,391.7,317.3,391.4,317.3C391.4,317.3,391.4,317.3,391.4,317.3z"
					/>
			</g>
		</g>
	</g>
	<g class="st24">
		<g id="XMLID_18617_">
			<g>
				<path id="XMLID_18620_" class="st12" d="M129,272.4c-0.5-6-5.1-16.3-12-23.6s-17.9-10.8-24.7-7.9c-6.3,2.7-4.9,11.2,3.4,16.2
					c8.3,5,20.8,11.2,25,20.6l8.2,11.4V272.4z"/>
				<path id="XMLID_24_" class="st25" d="M129,272.4c-0.5-6-5.1-16.3-12-23.6s-17.9-10.8-24.7-7.9c-6.3,2.7-4.9,11.2,3.4,16.2
					c8.3,5,20.8,11.2,25,20.6l8.2,11.4V272.4z"/>
			</g>
			<g id="XMLID_18618_">
				<path id="XMLID_18619_" class="st4" d="M129,283.2C129.1,283.2,129.1,283.2,129,283.2c0.4-0.1,0.7-0.4,0.6-0.7
					c-3.2-23.5-27.3-38-34.5-39.3c-0.3-0.1-0.7,0.2-0.7,0.5c-0.1,0.3,0.2,0.7,0.5,0.7c7,1.3,30.4,15.4,33.5,38.3
					C128.4,283,128.7,283.2,129,283.2z"/>
			</g>
		</g>
		<g id="XMLID_17395_">
			<path id="XMLID_17265_" class="st12" d="M131.1,292.4c0,0-3.9,4.5-11.3,6.7c-7.4,2.2-11.2-1-11.2-1s2-7.5,6.1-10
				c0,0-7.1,2.4-12.4,7.1c0,0-4.6,0.7-7.3-6.1c0,0,2.2-4.6,11-8.1c0,0-5.8-0.7-13.5,2.4c-0.6,0.3-4.3-8.4-5.6-12.5
				c-1.3-4.1,0.4-4.3,3.5-5.6c3.2-1.3,14.2-3.3,16.5-1.8c2.3,1.5,4.1,7.5,4.1,7.5s1.5-3.7,0.6-6.8c0,0,3.1-1.5,7-0.7
				c3.8,0.8,4.6,3.3,5.5,5.8c0.9,2.6,2,7.8,0.8,10.3c0,0,2.8-3.3,0.7-11.2c0,0,3.9,1.4,6.4,4.8C134.5,276.7,135.2,286.3,131.1,292.4
				z"/>
			<g id="XMLID_17410_">
				<path class="st4" d="M131.1,292.9c-0.2,0-0.3-0.1-0.4-0.2c-7.7-11.8-32.3-23.6-40.6-24.1c-0.3,0-0.5-0.3-0.5-0.5
					c0-0.3,0.3-0.5,0.5-0.5c8.5,0.5,33.5,12.5,41.3,24.5c0.2,0.2,0.1,0.5-0.1,0.7C131.3,292.9,131.2,292.9,131.1,292.9z"/>
			</g>
		</g>
	</g>
</g>
<g id="Character_2">
	<g id="XMLID_18401_">
		<g id="XMLID_18432_">
			<circle id="XMLID_18535_" class="st8" cx="356.1" cy="148.7" r="10.8"/>
			<rect id="XMLID_18533_" x="374.4" y="332.2" class="st26" width="7.6" height="13.1"/>
			<polygon id="XMLID_18532_" class="st26" points="355.5,331.5 347.9,331.8 347.5,317.9 355.5,317.7 			"/>
			<path id="XMLID_18531_" class="st11" d="M381.5,220.1c0,7.3,0.9,59.9,0.9,59.9c0.2,2.1,2.1,6,1.7,14c-0.6,10.9-1.8,44.7-1.8,44.7
				s-3.7,2.2-8.5,0.2c0,0-6.7-44.8-8.1-55.6c-1.2-9.5-3.2-35.2-3.2-35.2l-4.1,30.9c0,0,1.4,5.6,0.9,12.1c-0.4,5-3.3,36.1-3.3,36.1
				s-3.6,2.4-8.8,0.7c0,0-3.9-44.3-3.9-48.9c-0.1-5.3,2.5-58.8,2.5-58.8H381.5z"/>
			<g>
				<path id="XMLID_18436_" class="st17" d="M346.9,175.8c-4.5,3.7-12.6,11.2-12.6,11.2l12.6,6.9l8-21.5
					C354.9,172.3,351.8,171.7,346.9,175.8z"/>
				<path id="XMLID_19_" class="st27" d="M346.9,175.8c-4.5,3.7-12.6,11.2-12.6,11.2l12.6,6.9l8-21.5
					C354.9,172.3,351.8,171.7,346.9,175.8z"/>
			</g>
			<path id="XMLID_18530_" class="st28" d="M378.9,177.6c0,0,2.9,2.9,2.9,9.8v15l0.2,28.3c-11,5.8-24.8,6.1-36.5-2.4
				c0,0,0.6-36.3,0.6-42.3c0-5.9,3.3-13.7,12.4-14.2l11.8,2.7L378.9,177.6z"/>
			<g id="XMLID_18479_">
				<g id="XMLID_18515_">
					<path id="XMLID_18524_" class="st8" d="M374.8,156.4c0,0-1.8,8.3-2.5,9.6c-0.7,1.4-2.2,1.7-2.2,1.7l0.1-5.8L374.8,156.4z"/>
					<path id="XMLID_18523_" class="st8" d="M372.6,144.6c0,0,1.9-0.3,3.4,1.2c1.4,1.5,0.6,6.1-1.2,10.6l-3.3,0.4L372.6,144.6z"/>
					<path id="XMLID_18522_" class="st26" d="M370.5,156.8c0.7,0.4,1.6-0.9,2.4-1.7c0.8-0.9,3.5-2,4.8,0.8c1.4,2.9-1.2,6.6-3.3,7.3
						c-3.6,1.1-4.2-1.2-4.2-1.2l-0.3,13.1l-12.6,8.3c0,0-0.8-4.5,0.8-8.6l0-4c0,0-3.3,0.5-4.9,0.3c-2.7-0.4-4.3-2.5-5.2-5.4
						c-1.3-4.6-1.8-8.4-0.7-17.5c1.2-10,12.8-10.1,19.1-6.1C372.9,145.9,370.5,156.8,370.5,156.8z"/>
					<g>
						<g>
							<path id="XMLID_18521_" class="st17" d="M357.5,183.4l12.6-10.3l0-1.6c0,0,2.9,0.6,3.3,4.7l-7.7,11.7l-3.2-6.1L357.5,183.4z"
								/>
							<path id="XMLID_18520_" class="st17" d="M358.2,170.7c0,0-2.7,0.4-3.9,2.3c-1.2,2-3.4,10.3-3.4,10.3l4.1-3.1l2.4,3.1
								c-0.3-2.5,0-5.4,0.8-8.6L358.2,170.7z"/>
						</g>
						<g class="st25">
							<path id="XMLID_21_" class="st17" d="M357.5,183.4l12.6-10.3l0-1.6c0,0,2.9,0.6,3.3,4.7l-7.7,11.7l-3.2-6.1L357.5,183.4z"/>
							<path id="XMLID_20_" class="st17" d="M358.2,170.7c0,0-2.7,0.4-3.9,2.3c-1.2,2-3.4,10.3-3.4,10.3l4.1-3.1l2.4,3.1
								c-0.3-2.5,0-5.4,0.8-8.6L358.2,170.7z"/>
						</g>
					</g>
					<path id="XMLID_18518_" class="st8" d="M370.5,157.9c0.3,0,1.6-2.1,2.4-2.9c1.1-1-0.3-10.5-0.3-10.5s1.1-2.3-1.1-4.8
						c-1.6-1.7-4.2-1.9-8.7-2.6c-2.3-0.4-5.9-1-8.3-1.5c-2.8-0.5-5.1-1.1-7.1,0.6c-1.5,1.3-2.2,3.7-1.4,5.6c0.2,0.4,0.5,0.8,0.8,1.2
						c0.6,0.6,1.2,1.1,2,1.4c0,0,1.2,1.1,5.5,1.6c4.2,0.5,10.9-0.1,11.8-0.2c1.2-0.2,1.5,1,2.2,4.3
						C368.9,153.1,369.4,157.9,370.5,157.9z"/>
					<path id="XMLID_18517_" class="st8" d="M372.6,145.4l4-2.2c-0.6-1.1-1.9-1.6-3-1C372.5,142.8,372,144.2,372.6,145.4z"/>
					<path id="XMLID_18516_" class="st29" d="M358.2,170.7c0,0,6-1.2,8-2.3c1.4-0.7,2.5-2,2.9-2.8c0,0-0.4,1.8-1.6,3.4
						c-1.5,1.9-9.3,3.4-9.3,3.4L358.2,170.7z"/>
				</g>
				<g id="XMLID_18480_">
					<ellipse id="XMLID_18514_" class="st8" cx="360.9" cy="155.3" rx="1.2" ry="1.2"/>
					<path id="XMLID_18513_" class="st8" d="M360.9,150.8l2.6,1.4c0.4-0.7,0.1-1.6-0.6-2C362.2,149.8,361.3,150.1,360.9,150.8z"/>
					<path id="XMLID_18512_" class="st29" d="M358.8,163.6l-2.7,1c0.3,0.8,1.1,1.2,1.8,0.9C358.7,165.2,359.1,164.4,358.8,163.6z"/>
					<path id="XMLID_18511_" class="st8" d="M349,151.8l2.3-1.8c-0.5-0.7-1.4-0.8-2-0.3C348.7,150.2,348.6,151.2,349,151.8z"/>
					<path id="XMLID_18510_" class="st8" d="M349.8,155c0,0.7,0.5,1.2,1.2,1.2c0.7,0,1.2-0.6,1.2-1.2c0-0.7-0.5-1.2-1.2-1.2
						C350.3,153.8,349.8,154.3,349.8,155z"/>
					<polygon id="XMLID_18481_" class="st29" points="355.8,153.9 355.4,161 351.7,159.8 					"/>
				</g>
			</g>
			<path id="XMLID_18478_" class="st8" d="M374.4,341.5v-1.1c-0.7,0.3-2.4,6.8-5.5,9.6c-2.4,2.2-5.7,4.7-6.5,7.2
				c-0.9,2.5,4.6,4,6.8,3.6c2.6-0.5,7.1-2.3,8.3-4c1.1-1.7,1.7-4.2,2.6-5.5c0.9-1.3,3.1-2.6,3.6-4.1c0.3-0.8-0.1-2.5-0.4-4
				c-0.4-1.4-0.7-2.8-1.2-2.7c0,0.2,0,0.8,0,0.8c-0.6,0.6-2.1,1.2-3.8,1.3C377.1,342.6,374.4,342.4,374.4,341.5z"/>
			<path id="XMLID_18477_" class="st8" d="M347.8,329.4c-0.4,0-0.7,0.6-1.6,1.5c-1.1,1.1-2.8,2.4-4.5,3.2c-2.9,1.4-8.4,3.6-10.9,4.8
				c-1.6,0.7-1.5,2.6,0.1,3.7c1.6,1.1,5.5,1.9,10.3,0.8c2.6-0.6,5.9-2.9,8-2.8c2.1,0.1,6.1,0.1,7.6-1c1.6-1.1,0.9-3.4,0.5-5.3
				c-0.5-2.2-1.1-5.5-1.8-5.4v0.7c-0.9,1.4-5.7,2-7.7,0.9L347.8,329.4z"/>
			<path id="XMLID_18467_" class="st8" d="M362.5,248.1c0,0-6.1-1.7-10.6-6.1c0,0,2.1,3.8,8.2,7.4l-1.3,27L362.5,248.1z"/>
		</g>
		<g id="XMLID_16756_">
			<g>
				<path id="XMLID_31_" class="st12" d="M353.2,270.3l0.7-0.4c1.1-0.6,1.9-2.1,1.9-3.3l0-68c0-1.2-0.9-2.7-1.9-3.3l-58.9-34
					c-1.1-0.6-2.8-0.6-3.8,0l-0.7,0.4c-1.1,0.6-1.9,2.1-1.9,3.3l0,68c0,1.2,0.9,2.7,1.9,3.3l58.9,34
					C350.5,270.9,352.2,270.9,353.2,270.3z"/>
				<path id="XMLID_16_" class="st13" d="M353.2,270.3l0.7-0.4c1.1-0.6,1.9-2.1,1.9-3.3l0-68c0-1.2-0.9-2.7-1.9-3.3l-58.9-34
					c-1.1-0.6-2.8-0.6-3.8,0l-0.7,0.4c-1.1,0.6-1.9,2.1-1.9,3.3l0,68c0,1.2,0.9,2.7,1.9,3.3l58.9,34
					C350.5,270.9,352.2,270.9,353.2,270.3z"/>
			</g>
			<g>
				<path id="XMLID_16738_" class="st12" d="M355.8,232.6v-34c0-0.6-0.2-1.3-0.6-1.9l-8.4,4.8v67.2l2.6,1.5c1.1,0.6,2.8,0.6,3.8,0
					l0.7-0.4c1.1-0.6,1.9-2.1,1.9-3.3V232.6z"/>
				<path id="XMLID_17_" class="st14" d="M355.8,232.6v-34c0-0.6-0.2-1.3-0.6-1.9l-8.4,4.8v67.2l2.6,1.5c1.1,0.6,2.8,0.6,3.8,0
					l0.7-0.4c1.1-0.6,1.9-2.1,1.9-3.3V232.6z"/>
			</g>
			<g>
				<path id="XMLID_18370_" class="st12" d="M290.5,163.9l58.9,34c1.1,0.6,1.9,2.1,1.9,3.3v68c0,1.2-0.9,1.7-1.9,1.1l-58.9-34
					c-1.1-0.6-1.9-2.1-1.9-3.3l0-68C288.6,163.8,289.5,163.3,290.5,163.9z"/>
				<path id="XMLID_18_" class="st15" d="M290.5,163.9l58.9,34c1.1,0.6,1.9,2.1,1.9,3.3v68c0,1.2-0.9,1.7-1.9,1.1l-58.9-34
					c-1.1-0.6-1.9-2.1-1.9-3.3l0-68C288.6,163.8,289.5,163.3,290.5,163.9z"/>
			</g>
			<path id="XMLID_16749_" class="st30" d="M295.4,226c1.8,1.1,4.6,1.3,6.8-3.9c2.1-5.2,4-9.3,6.6-7.6c1.8,1.2,1.6,2.9,3.2,3.8
				c2.5,1.5,4.5-4.9,5.4-10.8c1.3-8.4,2.5-10.6,4.8-9.3c3.4,1.9,3.1,7.5,3.1,12.6c0,4.6,0,7,2.5,8c1.6,0.7,3.2-3.3,3.9-6.4
				c0.7-3.1,2.1-4.5,3.6-3.7c1.5,0.8,3.1,2.9,3.1,11c0.1,7.2,0.2,17.5,0.3,19.8c0.3,5.4,3.4,8.1,6,9.6v8.1l-49.3-28.4V226z"/>
			<g id="XMLID_16335_">
				<path class="st11" d="M344.4,249.5c-3.9-2.2-6-5.6-6.2-10c-0.1-2.4-0.2-13.4-0.3-19.8c-0.1-7.9-1.6-9.8-2.9-10.6
					c-0.3-0.2-0.7-0.2-1-0.1c-0.8,0.3-1.5,1.6-1.9,3.4c-0.5,2.6-1.7,5.8-3.3,6.6c-0.4,0.2-0.9,0.3-1.3,0.1c-2.8-1.1-2.8-3.7-2.8-8.5
					l0-1.1c0-4.6,0-9.4-2.8-11c-0.7-0.4-1-0.3-1.2-0.2c-1.4,0.7-2.2,5.2-2.8,9.1c-0.4,2.3-1.7,9.9-4.4,11.2
					c-0.6,0.3-1.2,0.3-1.8-0.1c-0.9-0.5-1.3-1.3-1.7-2c-0.4-0.7-0.7-1.3-1.5-1.8c-0.5-0.3-0.9-0.4-1.3-0.3c-1.7,0.5-3.4,4.6-4.6,7.6
					c-1,2.5-2.4,4.1-3.9,4.6c-1.1,0.4-2.4,0.2-3.6-0.5l0.5-0.9c0.7,0.4,1.7,0.8,2.7,0.4c1.3-0.4,2.4-1.8,3.3-4.1
					c1.8-4.3,3.3-7.6,5.2-8.2c0.7-0.2,1.4-0.1,2.1,0.4c1,0.7,1.5,1.5,1.8,2.2c0.3,0.6,0.6,1.2,1.3,1.6c0.3,0.2,0.6,0.2,0.9,0.1
					c1.4-0.7,3-4.9,3.8-10.5c1-6.4,1.9-9.2,3.4-9.9c0.6-0.3,1.3-0.2,2.2,0.2c3.4,1.9,3.4,7,3.4,11.9l0,1.1c0,4.6,0,6.6,2.2,7.5
					c0.1,0,0.2,0.1,0.5,0c0.9-0.5,2.1-3.1,2.8-6c0.5-2.2,1.3-3.7,2.4-4.2c0.6-0.3,1.3-0.2,1.9,0.1c1.6,0.9,3.3,3,3.4,11.4
					c0.1,6.4,0.2,17.4,0.3,19.7c0.2,4.1,2.1,7.1,5.7,9.2L344.4,249.5z"/>
			</g>
			<path id="XMLID_16614_" class="st31" d="M295.4,214.5c0,1.8,3.5,11,11.3,11.5c7.8,0.5,10.7-8.2,14.5-6.1
				c3.8,2.1,3.1,8.3,6.6,10.5s7.3-9.8,11.6-7.9s2.8,14.9,5.3,17.3v17.5l-49.3-28.4V214.5z"/>
			<g id="XMLID_16713_">
				<path class="st1" d="M344.3,240.1c-1.2-1.1-1.6-4.1-2-7.5c-0.5-4.1-1-8.8-3.2-9.7c-1.8-0.8-3.8,1.7-5.6,4.1
					c-1.9,2.5-3.9,5.1-6,3.8c-1.9-1.1-2.6-3.3-3.4-5.4c-0.7-2.1-1.5-4.1-3.2-5.1c-1.4-0.8-2.6,0.2-4.7,2c-2.3,2-5.2,4.5-9.6,4.2
					c-7.9-0.5-11.7-9.8-11.8-12l1,0c0,1.5,3.2,10.5,10.8,11c4,0.2,6.7-2.1,8.9-4c2-1.7,3.8-3.2,5.8-2.1c2.1,1.2,2.9,3.4,3.7,5.6
					c0.7,2,1.4,3.9,2.9,4.8c1.3,0.8,3-1.3,4.7-3.6c2-2.6,4.3-5.5,6.8-4.4c2.7,1.2,3.3,5.9,3.8,10.5c0.3,2.9,0.7,6,1.6,6.9
					L344.3,240.1z"/>
			</g>
			<path id="XMLID_16754_" class="st1" d="M299.2,175.2c0.9,0.5,1.6,1.8,1.6,2.8s-0.7,1.5-1.6,0.9c-0.9-0.5-1.6-1.8-1.6-2.8
				C297.6,175.1,298.3,174.7,299.2,175.2z"/>
			<path id="XMLID_16755_" class="st1" d="M302.1,178.4c0,0.7,0.5,1.6,1.2,2l11,6.4c0.7,0.4,1.2,0.1,1.2-0.6c0-0.7-0.5-1.6-1.2-2
				l-11-6.4C302.6,177.4,302.1,177.6,302.1,178.4z"/>
			<path id="XMLID_16758_" class="st11" d="M299.2,182.9c0.9,0.5,1.6,1.8,1.6,2.8c0,1-0.7,1.5-1.6,0.9c-0.9-0.5-1.6-1.8-1.6-2.8
				C297.6,182.8,298.3,182.4,299.2,182.9z"/>
			<path id="XMLID_16757_" class="st1" d="M302.1,186.1c0,0.7,0.5,1.6,1.2,2l11,6.4c0.7,0.4,1.2,0.1,1.2-0.6c0-0.7-0.5-1.6-1.2-2
				l-11-6.4C302.6,185.1,302.1,185.4,302.1,186.1z"/>
		</g>
		<g id="XMLID_18434_">
			<g id="XMLID_18527_">
				<path id="XMLID_18529_" class="st26" d="M391.2,222.3c3.9-2.7,2.6-5.2,1.3-9.8c-8.5-31.5-9.9-33.3-13.6-34.9l-3,12.4l8,25.8
					c-6,4.2-12.1,7.1-17.8,8.4c-1,0.2-3.1,0.1-4-0.4c-2.4-1.4-3.8-1.4-6.3-2l0,4.1c0,0-2.9,0.5-6.7-0.2c-5.2-1-7.4,0.1-4.3,6
					c2,3.7,5.8,4.9,15.4,3.3c2.8-0.5,7-1.6,10.4-2.7C379.4,229.2,386.9,225.2,391.2,222.3z"/>
			</g>
			<g>
				<path id="XMLID_18433_" class="st17" d="M378.9,177.6c0,0-3.7,2.3-4.5,8.1c-0.8,5.8,5.6,20.9,5.6,20.9s6.7,0.2,10.4-4.3
					c0,0-4.7-15.5-5.6-18.8C383.8,180.3,380.3,178.1,378.9,177.6z"/>
				<path id="XMLID_22_" class="st27" d="M378.9,177.6c0,0-3.7,2.3-4.5,8.1c-0.8,5.8,5.6,20.9,5.6,20.9s6.7,0.2,10.4-4.3
					c0,0-4.7-15.5-5.6-18.8C383.8,180.3,380.3,178.1,378.9,177.6z"/>
			</g>
		</g>
		<path id="XMLID_18435_" class="st26" d="M288.6,184.1l0,4.6c0,0,2.5,3.8,5.2,5.2s2.6,7-0.7,7.8c-3.3,0.8-7.9-3.3-8.3-5.6
			C284.5,193.8,285.3,183.8,288.6,184.1z"/>
	</g>
</g>
<g id="Character_1">
	<g id="XMLID_18494_">
		<g id="XMLID_1025_">
			<path id="XMLID_18626_" class="st26" d="M150.7,133.7l24.6-0.6c0.9-0.7,5.8-6.6,5.8-6.6s13.5-1.7,13.5-1.2
				c0.1,0.5-13.2,14.7-14.6,16.2c-0.7,0.8-1.4,1.4-3.1,1.5c-3.5,0.2-22.7,1.4-22.7,1.4L150.7,133.7z"/>
		</g>
		<g id="XMLID_30_">
			<g id="XMLID_16864_">
				<g>
					<path id="XMLID_16781_" class="st12" d="M174.4,205.3l-0.7-0.4c-1.1-0.6-1.9-2.1-1.9-3.3l0-68c0-1.2,0.9-2.7,1.9-3.3l58.9-34
						c1.1-0.6,2.8-0.6,3.8,0l0.7,0.4c1.1,0.6,1.9,2.1,1.9,3.3l0,68c0,1.2-0.9,2.7-1.9,3.3l-58.9,34
						C177.2,205.9,175.5,205.9,174.4,205.3z"/>
					<path id="XMLID_13_" class="st13" d="M174.4,205.3l-0.7-0.4c-1.1-0.6-1.9-2.1-1.9-3.3l0-68c0-1.2,0.9-2.7,1.9-3.3l58.9-34
						c1.1-0.6,2.8-0.6,3.8,0l0.7,0.4c1.1,0.6,1.9,2.1,1.9,3.3l0,68c0,1.2-0.9,2.7-1.9,3.3l-58.9,34
						C177.2,205.9,175.5,205.9,174.4,205.3z"/>
				</g>
				<g>
					<path id="XMLID_16760_" class="st12" d="M171.8,167.6v-34c0-0.6,0.2-1.3,0.6-1.9l8.4,4.8v67.2l-2.6,1.5c-1.1,0.6-2.8,0.6-3.8,0
						l-0.7-0.4c-1.1-0.6-1.9-2.1-1.9-3.3V167.6z"/>
					<path id="XMLID_14_" class="st14" d="M171.8,167.6v-34c0-0.6,0.2-1.3,0.6-1.9l8.4,4.8v67.2l-2.6,1.5c-1.1,0.6-2.8,0.6-3.8,0
						l-0.7-0.4c-1.1-0.6-1.9-2.1-1.9-3.3V167.6z"/>
				</g>
				<g>
					<path id="XMLID_16759_" class="st12" d="M237.1,98.9l-58.9,34c-1.1,0.6-1.9,2.1-1.9,3.3v68c0,1.2,0.9,1.7,1.9,1.1l58.9-34
						c1.1-0.6,1.9-2.1,1.9-3.3l0-68C239,98.8,238.2,98.3,237.1,98.9z"/>
					<path id="XMLID_15_" class="st15" d="M237.1,98.9l-58.9,34c-1.1,0.6-1.9,2.1-1.9,3.3v68c0,1.2,0.9,1.7,1.9,1.1l58.9-34
						c1.1-0.6,1.9-2.1,1.9-3.3l0-68C239,98.8,238.2,98.3,237.1,98.9z"/>
				</g>
			</g>
			<g id="XMLID_17093_">
				<path id="XMLID_17061_" class="st1" d="M197.2,163.3c0-7.7,4.7-16.7,10.5-20v-8.4c-5.2,3-9.8,8.6-13.1,15.8
					c-5.8,13-4.7,26.4,2.5,30.1l4-8.9C198.7,170.7,197.2,167.7,197.2,163.3z"/>
				<path id="XMLID_16943_" class="st22" d="M207.7,134.9v8.4c5.8-3.3,10.5,0.2,10.5,7.9s-4.7,16.7-10.5,20
					c-2.5,1.4-4.8,1.6-6.6,0.7l-4,8.9c3.2,1.6,6.5,1.2,10.6-1.1c9.3-5.4,16.8-19.7,16.8-32.1C224.5,135.2,216.9,129.5,207.7,134.9z"
					/>
				<path id="XMLID_17269_" class="st9" d="M207.7,179.6c9.3-5.4,16.8-19.7,16.8-32.1l-6.3,3.7c0,7.7-4.7,16.6-10.5,19.9
					c-2.5,1.4-4.8,1.6-6.6,0.7l-4,8.9C200.3,182.3,203.6,182,207.7,179.6z"/>
			</g>
			<g id="XMLID_17354_">
				<g id="XMLID_18444_">
					<path id="XMLID_18446_" class="st32" d="M180.8,137.3c-0.9,0.5-1.6,1.8-1.6,2.8s0.7,1.5,1.6,0.9c0.9-0.5,1.6-1.8,1.6-2.8
						C182.4,137.2,181.7,136.8,180.8,137.3z"/>
					<path id="XMLID_18445_" class="st1" d="M197.1,129.9c0,0.7-0.5,1.6-1.2,2l-11,6.4c-0.7,0.4-1.2,0.1-1.2-0.6
						c0-0.7,0.5-1.6,1.2-2l11-6.4C196.6,128.9,197.1,129.2,197.1,129.9z"/>
				</g>
				<g id="XMLID_18441_">
					<path id="XMLID_18443_" class="st32" d="M199.7,126.4c-0.9,0.5-1.6,1.8-1.6,2.8c0,1,0.7,1.5,1.6,0.9c0.9-0.5,1.6-1.8,1.6-2.8
						S200.6,125.9,199.7,126.4z"/>
					<path id="XMLID_18442_" class="st1" d="M216,119c0,0.7-0.5,1.6-1.2,2l-11,6.4c-0.7,0.4-1.2,0.1-1.2-0.6c0-0.7,0.5-1.6,1.2-2
						l11-6.4C215.4,118,216,118.3,216,119z"/>
				</g>
				<g id="XMLID_18438_">
					<path id="XMLID_18440_" class="st32" d="M218.5,115.4c-0.9,0.5-1.6,1.8-1.6,2.8s0.7,1.5,1.6,0.9c0.9-0.5,1.6-1.8,1.6-2.8
						C220.1,115.3,219.4,114.9,218.5,115.4z"/>
					<path id="XMLID_18439_" class="st1" d="M234.8,108c0,0.7-0.5,1.6-1.2,2l-11,6.4c-0.7,0.4-1.2,0.1-1.2-0.6c0-0.7,0.5-1.6,1.2-2
						l11-6.4C234.3,107.1,234.8,107.3,234.8,108z"/>
				</g>
			</g>
		</g>
		<g id="XMLID_18431_">
			<g id="XMLID_18629_">
				<path id="XMLID_18630_" class="st8" d="M160,131.7h-17.5c-9.7,0-17.5-7.8-17.5-17.5v-2.7c0-9.7,7.8-17.5,17.5-17.5l0,0
					c9.7,0,17.5,7.8,17.5,17.5V131.7z"/>
			</g>
			<path id="XMLID_18628_" class="st8" d="M129,100.9l-4.2-2.3c0.6-1.2,2-1.7,3.2-1.1C129.1,98.1,129.6,99.6,129,100.9z"/>
			<path id="XMLID_18627_" class="st8" d="M129.2,101.3l-4.5,1.7c-0.5-1.3,0.1-2.6,1.3-3.1C127.3,99.4,128.7,100.1,129.2,101.3z"/>
			<g id="XMLID_18623_">
				<path id="XMLID_18624_" class="st26" d="M195.2,114.8c-2,1.6-4.3,2.5-4.3,3.3c0,1.2,1.9,1.3,2.5,1l2.9-1.6c0,0,0.9,0.2,3.7,2
					c1.6,1.1,2.5,5.3,4.6,5.1c2.2-0.2,4.1-1.2,4.4-2.7c0.4-1.9-0.6-6.1-2.8-7.6C201,110.8,197.3,113.1,195.2,114.8z"/>
			</g>
			<g id="XMLID_18528_">
				<g id="XMLID_18553_">
					<g id="XMLID_18590_">
						<path id="XMLID_18591_" class="st8" d="M145.2,288.7c0,0.7,0,1.3,0.6,2.4c0.7,1.4,2.6,3.7,4,5.2c2.1,2.3,5.3,5,7.6,7
							c1.3,1.1,1.3,2.8-0.5,3.4c-1.8,0.6-5.9,0.8-10-1.4c-2.3-1.2-5.5-6.9-7.4-7.7c-2.2-1-3.4-1.5-4.1-2.5c-1.1-1.5-1.4-2.6-0.4-4.4
							c1-1.9,2.6-4.9,3.2-4.5l-0.2,0.6c0.5,1.6,4.7,3.4,6.9,2.9L145.2,288.7z"/>
					</g>
					<path id="XMLID_18586_" class="st26" d="M147.2,281.2c-1,3.4-1.8,6.1-1.9,7.5c0.1,1.3,0.1,1.3,0.6,2.4c0.7,1.4,2.6,3.7,4,5.2
						c1,1.1,2.3,2.3,3.7,3.5c0.1,0.2,0.2,0.4,0.2,0.6c0,1.2-2.9,1.5-4.6,1c-2.1-0.6-3.8-2.2-5.2-4c-1-1.3-3.2-3.8-4.6-5.7
						c-0.6-0.8-1.1-1.5-1.2-1.9c-0.5-1.2-0.4-2.1-0.2-2.7l0.1-0.3c0.8-2.3,1.2-4.8,1.4-7.2"/>
					<path id="XMLID_18584_" class="st26" d="M127,291.3c0.4,2.2,0.5,4.4,0.5,6.6v4.9h7.3v-8.4c0,0,0.1,0,0.1-0.1
						c0,0,0.1-1.6,0.3-4.2"/>
					<g id="XMLID_18582_">
						<path id="XMLID_18583_" class="st10" d="M147.2,281.2c4-13,13-36.3,14.2-40.4c1.3-4.4-0.3-42.4-1.3-54.7l-38-2
							c-2.9,12.4-0.1,29.1,0.9,39.5c1,10.1,2.2,22,2.2,22s-3,10.3-2.2,18.6c0.5,5.2,3,20.5,4.1,27.2c2.8,0.8,5.5,0.4,8.3-1.1
							c0.5-5.9,1.3-16.6,2.2-23.6c1.3-10.5,1.7-18.2,2.8-24.3c1.4-7.7,1.8-37.7,1.8-37.7l4.4,34c0,0-2.3,3.9-3.9,10.1
							c-1.3,4.8-2.6,23-3.1,30.9C141.3,281,143.9,281.5,147.2,281.2z"/>
					</g>
					<path id="XMLID_18581_" class="st8" d="M142,204.7c0,0,6.9-2.4,10.9-6.1c0,0-2.7,4.6-8.1,7.1l-0.1,19.9L142,204.7"/>
					<g id="XMLID_18579_">
						<path id="XMLID_18580_" class="st28" d="M136.5,134c0,0-8.8,0.8-10,1.3c6.3,6.9-3.3,9.7-3.3,9.7l7.3,24.3
							c-4.1,5.3-7.7,9.4-8.6,15.7c4.4,7.8,29.2,8.9,38.3,3.1c-0.8-10.9-2.6-18.6-2-21.9c4.3-13.3,3-16.1,2.6-19.2
							c-0.8-6-6.7-11.1-10.1-13.3c0,0-2.5,0-3.1,0L136.5,134z"/>
					</g>
					<g>
						<polygon class="st28" points="128.5,162.8 133.3,170.2 130.5,169.3 						"/>
						<polygon class="st33" points="128.5,162.8 133.3,170.2 130.5,169.3 						"/>
					</g>
					<g id="XMLID_18576_">
						<path id="XMLID_18577_" class="st8" d="M134.8,299.3v-1c0.2,1.6,2.3,6.5,5.2,9.1c2.3,2.1,5.4,4.5,6.2,6.9
							c0.8,2.4-3.7,3.4-6.7,3.1c-3.5-0.3-6.2-2.4-7.5-3.9c-1.9-2.2-1.9-3.6-2.7-4.8c-0.9-1.2-2.9-2.5-3.4-3.9
							c-0.3-0.8,0-2.4,0.4-3.8c0.3-1.3,0.7-2.7,1.1-2.6c0,0.2,0,0.8,0,0.8c0.5,0.6,2,1.2,3.6,1.2
							C132.3,300.3,134.9,300.1,134.8,299.3z"/>
					</g>
					<g id="XMLID_18572_">
						<path id="XMLID_18573_" class="st26" d="M127.6,299c0.5,0.6,2,1.2,3.6,1.2c1.1,0,3.7-0.2,3.6-1v-1c0.2,1.6,2.3,6.5,5.2,9.1
							c0.6,0.5,1.1,1,1.8,1.6c1.2,1.4,0.9,2.6-2,2.8c-2.9,0.2-5.4-1.5-7.6-4.2C130.1,304.9,127.6,299,127.6,299z"/>
					</g>
					<g id="XMLID_18570_">
						<path id="XMLID_18571_" class="st26" d="M154.3,102.5c1.8,1.1,4.1,5.7,3.9,15.5c-0.2,8.3-2.9,10.3-4.2,10.9
							c-1.3,0.6-3.9,0.2-6.5-0.2v5c0,0,3.5,4,3.3,6.3c-0.2,2.3-5,2.8-8.3,0.6c-3.3-2.2-6-6.6-6-6.6l0.1-11.4c0,0-1.5,1.4-4-0.8
							c-2.1-1.8-2.8-4.9-1.2-6.5c1.6-1.6,4.6-1.2,5.8,1.1c0,0,1.4-3.9,7.2-5.8C149.6,109,152.5,107,154.3,102.5z"/>
					</g>
					<g id="XMLID_18568_">
						
							<ellipse id="XMLID_18569_" transform="matrix(0.9989 -4.735007e-002 4.735007e-002 0.9989 -5.3264 7.1351)" class="st8" cx="147.9" cy="116" rx="1" ry="1.1"/>
					</g>
					<g id="XMLID_18566_">
						<path id="XMLID_18567_" class="st29" d="M149.3,122.9l2.4,0.8c-0.2,0.7-0.9,1.1-1.6,0.9C149.4,124.4,149.1,123.6,149.3,122.9z
							"/>
					</g>
					<g id="XMLID_18564_">
						<path id="XMLID_18565_" class="st8" d="M157.5,112.8l-2.1-1.5c0.4-0.6,1.2-0.8,1.7-0.4C157.7,111.3,157.9,112.2,157.5,112.8z"
							/>
					</g>
					<g id="XMLID_18562_">
						<path id="XMLID_18563_" class="st8" d="M146,113.5l2.1-1.5c-0.4-0.6-1.2-0.8-1.7-0.4C145.7,112.1,145.6,112.9,146,113.5z"/>
					</g>
					<g id="XMLID_18560_">
						
							<ellipse id="XMLID_18561_" transform="matrix(0.9989 -4.739825e-002 4.739825e-002 0.9989 -5.287 7.5225)" class="st8" cx="156" cy="115.2" rx="1" ry="1.1"/>
					</g>
					<g id="XMLID_18558_">
						<polygon id="XMLID_18559_" class="st29" points="152.1,114.6 152.3,120.9 155.6,119.8 						"/>
					</g>
					<g id="XMLID_18556_">
						<path id="XMLID_18557_" class="st29" d="M147.5,128.7c-2.7-0.3-8.1-1.9-9-4.1c0,0,0.3,1.4,1.9,2.8c1.6,1.4,7.1,3,7.1,3V128.7z
							"/>
					</g>
				</g>
			</g>
		</g>
		<g id="XMLID_18377_">
			<path id="XMLID_18417_" class="st26" d="M132.2,139.2c2,2.9,14,27.2,14,27.2s13.8-1,20.9-1.8c2.2-0.2,1.7-2.6,2.6-5
				c0.9-2.4,2.1-1.8,2.1-1.8l0,3c0,1.3,2.7,3.5,4.5,3.5c4.7-0.1,9.4-4.7,9.6-0.9c0.1,2.5-1,6.2-3.1,7.2c-6.1,2.8-9.3,1.9-13.3,2.2
				c-3.1,0.2-21,2.9-25.2,3.1c-2.2,0.1-3.9-0.3-5.8-3.1c-1.9-2.7-13.5-24.6-13.5-24.6c-4.4-6.3-1.9-11.6,1.4-12.8
				C128.4,134.7,130.3,136.3,132.2,139.2z"/>
		</g>
	</g>
</g>
</svg>
