<?xml version="1.0" encoding="utf-8"?>
<!-- Generator: Adobe Illustrator 19.0.0, SVG Export Plug-In . SVG Version: 6.00 Build 0)  -->
<svg version="1.1" xmlns="http://www.w3.org/2000/svg" xmlns:xlink="http://www.w3.org/1999/xlink" x="0px" y="0px"
	 viewBox="0 0 382.5 411" style="enable-background:new 0 0 382.5 411;" xml:space="preserve">
<style type="text/css">
	.st0{display:none;}
	.st1{display:inline;}
	.st2{fill:#FFFFFF;}
	.st3{opacity:0.8;fill:#FFFFFF;}
	.st4{enable-background:new    ;}
	.st5{fill:#ADCDFC;}
	.st6{fill:#E2EDFF;}
	.st7{fill:#C7D8F2;}
	.st8{fill:#7BAEFF;}
	.st9{fill:#4DA5DC;}
	.st10{fill:#3AAEEF;}
	.st11{fill:#E1E8F2;}
	.st12{fill:#E16B40;}
	.st13{fill:#FF8654;}
	.st14{fill:#0046A6;}
	.st15{fill:#003783;}
	.st16{fill:#FF9F75;}
	.st17{fill:#CFDAE4;}
	.st18{fill:#00A5FF;}
	.st19{fill:#382747;}
	.st20{fill:#94A3C0;}
	.st21{fill:#FF5668;}
	.st22{fill:#B391FF;}
	.st23{fill:#D4D9DF;}
	.st24{fill:#F2F8FD;}
	.st25{fill:url(#SVGID_1_);}
	.st26{fill:url(#SVGID_2_);}
	.st27{fill:#05CCFF;}
	.st28{fill:#540CC7;}
	.st29{fill:#3F0995;}
	.st30{fill:#7974F5;}
	.st31{fill:#2689FD;}
	.st32{fill:#3548DB;}
	.st33{fill:#58AFFB;}
	.st34{fill:#EE2C6A;}
	.st35{fill:#EE428C;}
	.st36{fill:#FF3D9D;}
	.st37{fill:#7CCCFF;}
	.st38{fill:#3EABFF;}
	.st39{fill:#CC096A;}
	.st40{fill:none;}
	.st41{fill:#3278CC;}
	.st42{fill:#E2A029;}
	.st43{fill:#FFBE3D;}
	.st44{fill:url(#SVGID_3_);}
	.st45{fill:url(#SVGID_4_);}
	.st46{fill:#343996;}
	.st47{fill:#1AE5FF;}
	.st48{fill:none;stroke:#16C5DC;stroke-miterlimit:10;}
	.st49{fill:#F1F1F1;}
	.st50{fill:#FDB913;}
	.st51{opacity:0.53;}
	.st52{fill:#FF4272;}
	.st53{fill:#212973;}
	.st54{fill:#1CE5FF;}
	.st55{fill:#00A935;}
	.st56{fill:#61E041;}
	.st57{fill:#00CC41;}
	.st58{fill:#14347C;}
	.st59{fill:#18388F;}
	.st60{fill:#CE7C56;}
	.st61{fill:#FFAA83;}
	.st62{fill:#4D2C63;}
	.st63{fill:#392836;}
</style>
<g id="BACKGROUND" class="st0">
	<g class="st1">
		<rect x="-45.5" y="-44" class="st2" width="500" height="500"/>
	</g>
</g>
<g id="OBJECTS">
	<g>
		<path class="st3" d="M335.6,344.5c-13.8-8-33.3-10.7-50.9-8.3l62.6-36.4c6.8-4,6.8-10.4-0.1-14.4l-143.4-82.8c-6.9-4-18-4-24.9,0
			l-49,28.5c-21.2-9.4-51.5-8.4-70.8,2.8c-19.3,11.2-20.8,28.8-4.5,41l-18.1,10.5c-6.8,4-6.8,10.4,0.1,14.4l143.4,82.8
			c6.9,4,18,4,24.9,0l40.2-23.4c-4.2,10.2,0.6,21.5,14.4,29.5c21.1,12.2,55.3,12.2,76.3,0C356.9,376.5,356.8,356.7,335.6,344.5z"/>
		<g>
			<g>
				<g>
					<g>
						<g class="st4">
							<path class="st5" d="M119.4,253.1c-0.6,6.3-6.5,10.5-11.8,12.8c-5.8,2.5-12.2,3.5-18.5,3.4c-6.4-0.1-13-1.3-18.8-4.2
								c-5.1-2.5-10.4-7-10.4-13.2c0,4.5,0.3,8.2,3.5,11.7c4.2,4.5,10.4,6.9,16.3,8.1c11.5,2.4,27.1,1.2,35.8-7.6
								c3.5-3.6,4-7.3,4-12C119.5,252.5,119.5,252.8,119.4,253.1z"/>
							<g>
								<path class="st6" d="M110.7,239.9c11.7,6.7,11.7,17.7,0.2,24.4c-11.6,6.7-30.5,6.7-42.2,0c-11.7-6.7-11.7-17.7-0.1-24.4
									C80.2,233.2,99,233.2,110.7,239.9z"/>
							</g>
						</g>
					</g>
					<g>
						<g class="st4">
							<g>
								<polygon class="st7" points="95,226.3 94.9,252.4 90.4,255 90.4,229 								"/>
							</g>
							<g>
								<polygon class="st8" points="90.4,229 90.4,255 85.8,252.4 85.9,226.3 								"/>
							</g>
							<g>
								<polygon class="st9" points="95,226.3 90.4,229 85.9,226.3 90.4,223.7 								"/>
							</g>
						</g>
					</g>
				</g>
				<path class="st10" d="M60.8,141.9c0,0-9.3,2.5-11.8,8.1c-2.5,5.6-1.9,47.9,11.2,65.4c13.1,17.4,37.4,19.9,43,17.4
					c5.6-2.5,38-18.7,40.5-26.8c2.5-8.1-10-14.3-16.8-17.4c-6.8-3.1-11.2-7.5-14.9-18.7c-3.7-11.2-5.6-30.5-10-33.6
					C97.5,133.1,87,128.2,60.8,141.9z"/>
				<g>
					<path class="st11" d="M116.6,130.6c0,0-15.3-12.7-18.4-13c-3.7-0.3-8.4,1-9.6,6.3c-1.2,5.3,1.6,9.3,4.4,10.9
						c2.8,1.5,27.5,13.2,31.8,13.2c4.4,0,7.1-3.8,4.3-8.4C126.3,134.9,116.6,130.6,116.6,130.6z"/>
					<g>
						<g>
							<g>
								<g>
									<g>
										<g>
											<path class="st12" d="M90.1,114.7c0,0,0,0.2,0,0.5c0.2,1.1,0.9,4,1.1,5.3c0.2,1.2-1.1,3.3-4.2,3.4
												c-3.2,0.1-8.6-1-10.6-4.7c0.1-0.7-0.5-7.7-1.1-11.1L90.1,114.7z"/>
											<g>
												<g>
													<path class="st13" d="M97,91.7c-2.3-9.6-10.2-14.7-18.8-12.3c0,0-9.4,1.4-13.1,9.9c-3.8,8.5,2.7,15.1,6.9,19.3
														c1.7,1.7,3.1,3,3.9,3.9c0.3,0.3,0.6,0.6,0.9,0.9c0.1,0.1,0.1,0.1,0.1,0.1l0,0c2.8,2.6,6,3.9,8.3,4.5
														c3.8,0.9,8.3,0.1,10.6-2.6C97.9,112.7,99.2,101.3,97,91.7z"/>
												</g>
											</g>
										</g>
									</g>
								</g>
							</g>
							<path class="st14" d="M77.2,115.5c0,0-15.1,11.9-16.4,15.7c-1.4,3.8-1.2,14.2,2.4,20.9c3.6,6.7,3.6,32.2,5,37.1
								c1.4,4.9,14.9,5.8,23.1,3.8c8.2-2,21.2-8.9,18.6-18.2c-3.9-13.7-2.9-27.6-2.6-32c0.3-4.4-0.8-15.3-3.2-22.5
								c-0.5-1.5-5.9-3.7-5.9-3.7S92.5,114.1,77.2,115.5z"/>
						</g>
						<path class="st15" d="M79.9,172.4c-6.2-7.9,2.9-34.9-7.9-42.3c-3.3-2.3-6.1-2.9-8.5-2.6c-1.4,1.5-2.5,2.9-2.8,3.7
							c-1.4,3.8-1.2,14.2,2.4,20.9c3.6,6.7,3.6,32.2,5,37.1c1.3,4.5,12.5,5.6,20.7,4.3l11.8-12.3C100.7,181.1,86.1,180.3,79.9,172.4
							z"/>
						<path class="st11" d="M76.7,117.5c13.1-1.2,19.1,1.1,20.6,1.7c0.2,2.6,0.3,6.1-0.2,9.3c-1,6.2-3.5,23.2-3.5,23.2
							s-8.1-14-13.4-19.7c-3.7-4.1-7.4-7.9-9.3-9.8C74,119.6,76.7,117.5,76.7,117.5z"/>
						<path class="st13" d="M90.1,114.7c0,0,0,0.2,0,0.5c0.2,1.1,0.9,4,1.1,5.3c0.2,1.2-1.1,3.3-4.2,3.4c-3.2,0.1-8.6-1-10.6-4.7
							c0.1-0.7-0.5-7.7-1.1-11.1L90.1,114.7z"/>
						<g>
							<g>
								<path class="st16" d="M97,91.7c-2.3-9.6-10.2-14.7-18.8-12.3c0,0-9.4,1.4-13.1,9.9c-3.8,8.5,2.7,15.1,6.9,19.3
									c1.7,1.7,3.1,3,3.9,3.9c0.3,0.3,0.6,0.6,0.9,0.9c0.1,0.1,0.1,0.1,0.1,0.1l0,0c2.8,2.6,6,3.9,8.3,4.5
									c3.8,0.9,8.3,0.1,10.6-2.6C97.9,112.7,99.2,101.3,97,91.7z"/>
							</g>
						</g>
						<path class="st17" d="M95.4,132l-5.8-5.2l-4.7,8.2l-4.7-3c5.3,5.8,13.4,19.7,13.4,19.7s2.1-14.2,3.2-21.4L95.4,132z"/>
						<path class="st18" d="M95,142l-2.6-9.2l0.4-3.1l-3.2-2.9l-2.3,4l2.6,2.4l0.7,13.6c1.8,2.9,3,4.9,3,4.9S94.3,147.3,95,142z"/>
					</g>
					<path class="st12" d="M63.9,88.3c0,0-3.7,6.8,0.9,14c4.7,7.2,9.7,10.3,10.9,10.2c1.2-0.2,1.9-0.5,1.5-1.4c-0.3-0.9-1.9-4-1.9-4
						s-5.3-0.6-5.3-4c0-3.4,1.9-4,4-3.1c2.2,0.9,2.5,2.5,3.7,3.7c1.2,1.2,1.6,4.4,2.5,4c0.9-0.3,1.6-1.2,1.6-2.8
						c0-1.6,0-3.4-1.9-5.3c-1.9-1.9,0.3-5-1.6-7.5c-1.9-2.5-3.1-3.4-3.1-3.4s1.2,1.9,7.5,0.6c6.2-1.2,9-0.9,11.5-2.5
						c2.5-1.6,1.9-5,0.3-6.2c-1.6-1.2-5.3-1.9-9.7-3.4c-4.4-1.6-6.8-0.6-12.1,0.6C67.7,79,62.7,84.6,63.9,88.3z"/>
				</g>
			</g>
			<path class="st19" d="M151.7,275.7c0,0-0.2,3.1,3.1,5.4c3.3,2.3,3.9,3.7,6.6,4.8c2.7,1,5.2,4.6,3.9,7.1
				c-1.2,2.5-7.1,2.9-10.8,1.9c-3.7-1-4.4-4.4-7.9-5.6s-4.8-2.7-5.8-3.7c-1-1-0.6-5.2-0.6-5.2l12.7-4.2"/>
			<path class="st19" d="M167.9,263.7c0,0-0.2,3.1,3.1,5.4c3.3,2.3,3.9,3.7,6.6,4.8c2.7,1,5.2,4.6,3.9,7.1s-7.1,2.9-10.8,1.9
				c-3.7-1-4.4-4.4-7.9-5.6c-3.5-1.2-4.8-2.7-5.8-3.7c-1-1-0.6-5.2-0.6-5.2l12.7-4.2"/>
			<path class="st20" d="M69.1,189.3c0,0,0.6,2.5,0.6,4.7c0,2.2-1.6,8.4,1.6,15.9s24,9,30.8,12.1c6.8,3.1,10.9,5.9,12.1,6.8
				c1.2,0.9,3,14.1,8.4,22c5.4,7.9,14.5,23.7,16.6,30.3c0,0,5.9,1.4,11.2-2.1c2.8-1.8,2.5-2.9,2.5-2.9s-10.8-23.7-13.3-33.6
				s-5.4-21.6-10-24.5s-19.1-13.3-22.4-15.4c-3.3-2.1-12.3-8.6-14-12.6C91.5,186.1,74.5,179.6,69.1,189.3z"/>
			<path class="st20" d="M86.2,179c0,0,0.6,2.5,0.6,4.7c0,2.2-1.6,8.4,1.6,15.9c3.1,7.5,24,9,30.8,12.1c6.8,3.1,10.9,5.9,12.1,6.8
				c1.2,0.9,3,14.1,8.4,22s14.5,23.7,16.6,30.3c0,0,5.9,1.4,11.2-2.1c2.8-1.8,2.5-2.9,2.5-2.9s-10.8-23.7-13.3-33.6
				c-2.5-10-5.4-21.6-10-24.5s-19.1-13.3-22.4-15.4s-12.3-8.6-14-12.6C108.6,175.8,91.6,169.4,86.2,179z"/>
		</g>
		<g>
			<g>
				<g class="st4">
					<g>
						<polygon class="st7" points="170.3,257.7 170.1,321 159,327.5 159.2,264.2 						"/>
					</g>
					<g>
						<g>
							<polygon class="st8" points="159.2,264.2 159,327.5 147.9,321 148.1,257.7 							"/>
						</g>
					</g>
					<g>
						<polygon class="st9" points="170.3,257.7 159.2,264.2 148.1,257.7 159.1,251.3 						"/>
					</g>
				</g>
			</g>
			<g>
				<path class="st5" d="M352.4,214.4c0,0.2,0,0.4-0.1,0.6c0,0.2-0.1,0.3-0.1,0.5c0,0.2-0.1,0.4-0.2,0.5c-0.1,0.1-0.1,0.3-0.2,0.4
					c-0.1,0.2-0.2,0.4-0.3,0.5c-0.1,0.1-0.2,0.3-0.2,0.4c-0.1,0.2-0.3,0.4-0.4,0.6c-0.1,0.2-0.3,0.4-0.5,0.6c0,0-0.1,0.1-0.1,0.1
					c-0.2,0.2-0.5,0.5-0.7,0.7c-0.2,0.2-0.4,0.3-0.5,0.4c-0.2,0.1-0.3,0.3-0.5,0.4c-0.2,0.1-0.4,0.3-0.6,0.4
					c-0.2,0.1-0.4,0.3-0.7,0.4l-142.4,82.8c-1.2,0.7-2.5,1.2-3.9,1.7c-1.1,0.3-2.2,0.6-3.3,0.8c-0.7,0.1-1.5,0.2-2.2,0.3
					c-0.6,0.1-1.3,0.1-1.9,0.1c-0.6,0-1.2,0-1.8,0c-0.6,0-1.2,0-1.7-0.1l0,10.2c0.6,0,1.2,0.1,1.7,0.1c0.6,0,1.2,0,1.8,0
					c0.7,0,1.3-0.1,1.9-0.1c0.8-0.1,1.5-0.2,2.2-0.3c1.1-0.2,2.3-0.5,3.3-0.8c1.4-0.4,2.7-1,3.9-1.7l142.4-82.8
					c0.1,0,0.1-0.1,0.2-0.1c0.2-0.1,0.3-0.2,0.4-0.3c0.2-0.1,0.4-0.3,0.6-0.4c0.2-0.1,0.3-0.3,0.5-0.4c0.2-0.1,0.4-0.3,0.5-0.4
					c0,0,0.1-0.1,0.1-0.1c0.2-0.2,0.4-0.4,0.6-0.6c0,0,0.1-0.1,0.1-0.1c0.1-0.1,0.2-0.3,0.3-0.4c0-0.1,0.1-0.1,0.1-0.2
					c0.2-0.2,0.3-0.4,0.4-0.6c0.1-0.1,0.1-0.2,0.2-0.3c0,0,0-0.1,0.1-0.1c0.1-0.2,0.2-0.4,0.3-0.5c0-0.1,0.1-0.2,0.1-0.3
					c0,0,0-0.1,0-0.1c0.1-0.2,0.1-0.3,0.2-0.5c0-0.1,0.1-0.2,0.1-0.4c0,0,0-0.1,0-0.1c0-0.2,0-0.4,0.1-0.6c0-0.1,0-0.2,0-0.4
					c0-0.1,0-0.1,0-0.2l0-10.2C352.5,214,352.4,214.2,352.4,214.4z"/>
				<path class="st5" d="M188.3,306.4c-0.6-0.1-1.2-0.2-1.7-0.3c-0.6-0.1-1.2-0.3-1.8-0.4c-0.7-0.2-1.4-0.4-2.1-0.7
					c-0.9-0.4-1.7-0.8-2.5-1.2L36.7,221c-3.5-2-5.2-4.6-5.2-7.2l0,10.2c0,2.6,1.7,5.2,5.2,7.2l143.4,82.8c0.8,0.5,1.6,0.9,2.5,1.2
					c0.7,0.3,1.4,0.5,2.1,0.7c0.6,0.2,1.2,0.3,1.8,0.4c0.6,0.1,1.2,0.2,1.7,0.3c0.6,0.1,1.1,0.1,1.7,0.2l0-10.2
					C189.5,306.6,188.9,306.5,188.3,306.4z"/>
				<g>
					<g>
						<path class="st6" d="M347.3,207c6.9,4,6.9,10.4,0.1,14.4l-142.4,82.8c-6.8,4-18,4-24.9,0L36.7,221.4c-6.9-4-6.9-10.4-0.1-14.4
							l142.4-82.8c6.8-4,18-4,24.9,0L347.3,207z"/>
					</g>
				</g>
			</g>
		</g>
		<g>
			<g>
				<g>
					<polygon class="st2" points="193.2,237 232.4,259.8 260.1,243.8 220.8,221 					"/>
				</g>
				<g>
					<g>
						<path class="st21" d="M226.6,231.3l-6.2,3.6l-7.8-2.3c2.2-2.5,7.5-3.5,11.8-2.2C225.2,230.6,225.9,230.9,226.6,231.3z"/>
					</g>
					<g>
						<path class="st22" d="M228,231.8c4.1,2.4,4.2,6.3,0,8.7s-10.8,2.4-15,0c-3.3-1.9-4.1-4.7-2-7.1l9.5,2.8L228,231.8z"/>
					</g>
				</g>
				<g>
					<g>
						<g>
							<path class="st5" d="M222.3,248.8c-0.3,0.2-0.3,0.5,0,0.7c0.3,0.2,0.9,0.2,1.2,0l17.5-10.1c0.3-0.2,0.3-0.5,0-0.7
								c-0.3-0.2-0.9-0.2-1.2,0L222.3,248.8z"/>
						</g>
					</g>
					<g>
						<path class="st23" d="M234.4,244.2c-0.3,0.2-0.3,0.5,0,0.7c0.3,0.2,0.9,0.2,1.2,0l7.4-4.3c0.3-0.2,0.3-0.5,0-0.7
							c-0.3-0.2-0.9-0.2-1.2,0L234.4,244.2z"/>
					</g>
					<g>
						<path class="st23" d="M232.1,247.7c-0.3,0.2-0.4,0.5,0,0.7c0.3,0.2,0.9,0.2,1.2,0l11.6-6.7c0.3-0.2,0.3-0.5,0-0.7
							c-0.3-0.2-0.9-0.2-1.2,0L232.1,247.7z"/>
					</g>
				</g>
			</g>
			<g>
				<g>
					<path class="st24" d="M239.4,269.5c1,0.6,1,1.4,0,2l-28,16.3c-0.9,0.6-2.5,0.6-3.4,0l-19.6-11.3c-1-0.6-1-1.4,0-2l28-16.3
						c0.9-0.6,2.5-0.6,3.4,0L239.4,269.5z"/>
				</g>
				<g>
					
						<linearGradient id="SVGID_1_" gradientUnits="userSpaceOnUse" x1="232.1865" y1="211.2734" x2="225.6194" y2="261.8117" gradientTransform="matrix(-1 0 0 1 438.0054 0)">
						<stop  offset="0" style="stop-color:#C6E6FF"/>
						<stop  offset="1" style="stop-color:#8D9FFF"/>
					</linearGradient>
					<path class="st25" d="M240.1,270.5C240.1,270.6,240.1,270.6,240.1,270.5c0,0.1,0,0.1,0,0.1c0,0,0,0,0,0.1c0,0,0,0,0,0.1
						c0,0,0,0.1,0,0.1c0,0,0,0,0,0.1c0,0,0,0.1-0.1,0.1c0,0,0,0,0,0c0,0-0.1,0.1-0.1,0.1c0,0,0,0,0,0c0,0,0,0-0.1,0.1
						c0,0,0,0-0.1,0.1c0,0-0.1,0-0.1,0.1c0,0-0.1,0-0.1,0.1l-28,16.3c-0.1,0.1-0.2,0.1-0.3,0.2c0,0-0.1,0-0.1,0
						c-0.1,0-0.2,0-0.2,0.1c-0.1,0-0.2,0-0.2,0.1c-0.1,0-0.2,0-0.3,0.1c0,0,0,0-0.1,0c-0.1,0-0.3,0-0.4,0c0,0,0,0-0.1,0
						c-0.1,0-0.3,0-0.4,0c0,0,0,0-0.1,0c-0.1,0-0.3,0-0.4-0.1c0,0,0,0-0.1,0c-0.1,0-0.2-0.1-0.3-0.1c0,0,0,0-0.1,0
						c-0.1-0.1-0.3-0.1-0.4-0.2l-19.6-11.3c-0.4-0.2-0.6-0.5-0.7-0.7c0-0.1,0-0.2,0-0.3l0,1.1c0,0,0,0.1,0,0.1
						c0.1,0.3,0.3,0.6,0.7,0.9l19.6,11.3c0.1,0.1,0.2,0.1,0.4,0.2c0,0,0,0,0,0c0,0,0,0,0.1,0c0.1,0,0.1,0.1,0.2,0.1c0,0,0.1,0,0.1,0
						c0,0,0,0,0.1,0c0,0,0,0,0.1,0c0.1,0,0.2,0,0.2,0c0,0,0.1,0,0.1,0c0,0,0,0,0.1,0c0,0,0.1,0,0.1,0c0.1,0,0.2,0,0.2,0
						c0,0,0.1,0,0.1,0c0,0,0,0,0.1,0c0,0,0.1,0,0.1,0c0.1,0,0.2,0,0.3,0c0,0,0,0,0,0c0,0,0,0,0.1,0c0.1,0,0.1,0,0.2,0
						c0,0,0.1,0,0.1,0c0.1,0,0.2,0,0.2-0.1c0,0,0.1,0,0.1,0c0,0,0.1,0,0.1,0c0,0,0.1,0,0.1,0c0.1,0,0.2-0.1,0.3-0.2l28-16.3
						c0,0,0,0,0,0c0,0,0,0,0.1,0c0,0,0.1,0,0.1-0.1c0,0,0,0,0.1-0.1c0,0,0.1,0,0.1-0.1c0,0,0,0,0,0c0,0,0,0,0,0c0,0,0.1-0.1,0.1-0.1
						c0,0,0,0,0,0c0,0,0,0,0,0c0,0,0-0.1,0.1-0.1c0,0,0,0,0,0c0,0,0,0,0,0c0,0,0-0.1,0-0.1c0,0,0,0,0,0c0,0,0,0,0,0c0,0,0,0,0-0.1
						c0,0,0,0,0,0c0,0,0,0,0,0c0,0,0-0.1,0-0.1c0,0,0,0,0,0c0,0,0,0,0,0L240.1,270.5C240.1,270.5,240.1,270.5,240.1,270.5z"/>
					<g>
						
							<linearGradient id="SVGID_2_" gradientUnits="userSpaceOnUse" x1="367.2154" y1="299.9893" x2="385.9519" y2="258.0193" gradientTransform="matrix(1 0 0 1 -165.5001 0)">
							<stop  offset="0" style="stop-color:#1AE5FF"/>
							<stop  offset="1" style="stop-color:#EAEEEE"/>
						</linearGradient>
						<path class="st26" d="M236.5,269.8c0.3,0.2,0.3,0.5,0,0.6l-26.6,15.5c-0.3,0.2-0.8,0.2-1.1,0l-17.6-10.2
							c-0.3-0.2-0.3-0.5,0-0.6l26.6-15.5c0.3-0.2,0.8-0.2,1.1,0L236.5,269.8z"/>
					</g>
				</g>
			</g>
			<g>
				<g>
					<polygon class="st2" points="106,177.2 145.3,200 172.9,184.1 133.6,161.3 					"/>
				</g>
				<g>
					<g>
						<path class="st22" d="M139.4,171.5l-6.2,3.6l-7.8-2.3c2.2-2.5,7.5-3.5,11.8-2.2C138,170.8,138.7,171.1,139.4,171.5z"/>
					</g>
					<g>
						<path class="st27" d="M140.8,172c4.1,2.4,4.2,6.3,0,8.7c-4.1,2.4-10.8,2.4-15,0c-3.3-1.9-4.1-4.7-2-7.1l9.5,2.8L140.8,172z"/>
					</g>
				</g>
				<g>
					<g>
						<g>
							<path class="st5" d="M135.1,189c-0.3,0.2-0.3,0.5,0,0.7c0.3,0.2,0.9,0.2,1.2,0l17.5-10.1c0.3-0.2,0.3-0.5,0-0.7
								c-0.3-0.2-0.9-0.2-1.2,0L135.1,189z"/>
						</g>
					</g>
					<g>
						<path class="st23" d="M147.2,184.4c-0.3,0.2-0.3,0.5,0,0.7c0.3,0.2,0.9,0.2,1.2,0l7.4-4.3c0.3-0.2,0.3-0.5,0-0.7
							c-0.3-0.2-0.9-0.2-1.2,0L147.2,184.4z"/>
					</g>
					<g>
						<path class="st27" d="M144.9,187.9c-0.3,0.2-0.4,0.5,0,0.7c0.3,0.2,0.9,0.2,1.2,0l11.6-6.7c0.3-0.2,0.3-0.5,0-0.7
							c-0.3-0.2-0.9-0.2-1.2,0L144.9,187.9z"/>
					</g>
				</g>
			</g>
			<g>
				<g>
					<g class="st4">
						<g>
							<polygon class="st28" points="169.1,247.5 169.1,249.8 163.7,253 163.7,250.7 							"/>
						</g>
						<g>
							<polygon class="st29" points="163.7,250.7 163.7,253 117.5,226.3 117.5,224 							"/>
						</g>
						<g>
							<polygon class="st30" points="169.1,247.5 163.7,250.7 117.5,224 122.9,220.8 							"/>
						</g>
					</g>
					<g class="st4">
						<g>
							<polygon class="st31" points="148.6,247.9 148.6,250.3 143.2,253.5 143.2,251.1 							"/>
						</g>
						<g>
							<polygon class="st32" points="143.2,251.1 143.2,253.5 106.8,232.5 106.8,230.1 							"/>
						</g>
						<g>
							<polygon class="st33" points="148.6,247.9 143.2,251.1 106.8,230.1 112.3,227 							"/>
						</g>
					</g>
					<g class="st4">
						<g>
							<polygon class="st34" points="118.3,242.8 118.3,245.1 112.8,248.3 112.8,245.9 							"/>
						</g>
						<g>
							<polygon class="st35" points="112.8,245.9 112.8,248.3 96.2,238.7 96.2,236.3 							"/>
						</g>
						<g>
							<polygon class="st36" points="118.3,242.8 112.8,245.9 96.2,236.3 101.6,233.2 							"/>
						</g>
					</g>
				</g>
				<g>
					<g>
						<g>
							<path class="st5" d="M81.6,229.7c-0.5,0.3-0.5,0.8,0,1.1c0.5,0.3,1.4,0.3,1.9,0l27.6-15.9c0.5-0.3,0.5-0.8,0-1.1
								c-0.5-0.3-1.4-0.3-1.9,0L81.6,229.7z"/>
						</g>
						<g>
							<path class="st5" d="M100.7,222.4c-0.5,0.3-0.5,0.8,0,1.1c0.5,0.3,1.4,0.3,2,0l11.7-6.8c0.5-0.3,0.5-0.8,0-1.1
								c-0.5-0.3-1.4-0.3-1.9,0L100.7,222.4z"/>
						</g>
						<g>
							<path class="st5" d="M97,228c-0.5,0.3-0.6,0.8,0,1.1c0.5,0.3,1.4,0.3,2,0l18.3-10.6c0.5-0.3,0.5-0.8,0-1.1
								c-0.5-0.3-1.4-0.3-1.9,0L97,228z"/>
						</g>
					</g>
				</g>
				<g>
					<g class="st4">
						<g>
							<path class="st37" d="M95.4,202.4L91,205c-4-2.2-10.2-2.1-14.1,0.1c-0.1,0-0.2,0.1-0.2,0.1l-4.4-2.6c0.1,0,0.2-0.1,0.2-0.1
								C78.8,198.9,89,198.8,95.4,202.4z"/>
						</g>
						<g>
							<path class="st37" d="M96,202.8c5.2,3.3,5.8,8.1,1.6,11.7l-4.6-2.6c1.8-2.1,1.3-4.7-1.4-6.5L96,202.8z"/>
						</g>
						<g>
							<path class="st38" d="M97.1,215c-0.4,0.3-0.9,0.6-1.4,0.9c-6.2,3.6-16.2,3.7-22.6,0.3l4.4-2.6c4,2,10,1.9,13.8-0.3
								c0.5-0.3,1-0.6,1.4-1L97.1,215z"/>
						</g>
					</g>
					<g>
						<path class="st38" d="M76,205.6c-3,2.3-2.8,5.5,0.7,7.6l-4.4,2.6c-5.9-3.5-6.2-9-0.8-12.7L76,205.6z"/>
					</g>
				</g>
			</g>
		</g>
		<g>
			<g>
				<g>
					<path class="st33" d="M182.3,84.6c2,1.2,3.7,4,3.6,6.3l0,35.3c0,2.3-1.7,3.3-3.7,2.1l-9.8-5.7l-0.5,0.7L170,126l-1.9-4.9
						l-0.5-1.2l-9.8-5.7c-2-1.2-3.6-4-3.6-6.3l0-35.3c0-2.3,1.6-3.3,3.7-2.1L182.3,84.6z"/>
				</g>
				<g>
					<g>
						<path class="st2" d="M165.2,84.9l0,1c0,0.6-0.6,0.9-1.1,0.7l-4.7-2.7c-0.2-0.1-0.4-0.4-0.4-0.7l0-1c0-0.6,0.6-0.9,1.1-0.7
							l4.7,2.7C165.1,84.4,165.2,84.7,165.2,84.9z"/>
					</g>
					<g>
						<path class="st5" d="M180.1,98.4l0,1c0,0.6-0.6,0.9-1.1,0.7l-19.5-11.3c-0.2-0.1-0.4-0.4-0.4-0.7l0-1c0-0.6,0.6-0.9,1.1-0.7
							l19.5,11.3C179.9,97.9,180.1,98.2,180.1,98.4z"/>
					</g>
				</g>
			</g>
			<g>
				<g>
					<polygon class="st2" points="164.1,98 164.1,99.2 161.4,108.2 160.3,107.6 162.9,98.6 159.5,96.6 159.5,95.4 					"/>
				</g>
				<g>
					<path class="st2" d="M169.4,101.1l0,1.2l-3-1.7l-0.2,3.5c0.3-0.4,0.8-0.5,1.5-0.1c1.3,0.8,1.9,2.2,1.9,3.9l0,2.3
						c0,1.8-0.7,2.5-2.3,1.6c-1.6-0.9-2.3-2.5-2.3-4.3l0-0.8l1.1,0.6l0,0.9c0,1.1,0.4,1.9,1.2,2.4c0.8,0.5,1.2,0,1.2-1l0-2.3
						c0-1.1-0.4-1.9-1.2-2.4c-0.6-0.4-1-0.2-1.1,0.6l0,0.3l-1.1-0.6l0.3-6.3L169.4,101.1z"/>
				</g>
				<g>
					<path class="st2" d="M177.1,109.9c1,0.6,1.4,1.6,1.4,2.7l0,3.7c0,1.1-0.5,1.6-1.5,1.1c-1-0.6-1.5-1.6-1.5-2.7l0-3.7
						C175.7,109.8,176.2,109.3,177.1,109.9z M177.8,115.9l0-3.8c0-0.6-0.2-1.2-0.7-1.5c-0.5-0.3-0.7,0-0.7,0.6l0,3.8
						c0,0.6,0.2,1.2,0.7,1.5C177.6,116.9,177.8,116.6,177.8,115.9"/>
				</g>
				<g>
					<path class="st2" d="M173.6,109.1c0,1.1-0.5,1.6-1.5,1c-1-0.6-1.4-1.6-1.4-2.7l0-3.7c0-1.1,0.5-1.6,1.5-1
						c1,0.6,1.5,1.6,1.5,2.7L173.6,109.1z M172.9,108.7l0-3.8c0-0.6-0.2-1.2-0.7-1.5c-0.5-0.3-0.7,0-0.7,0.6l0,3.8
						c0,0.6,0.2,1.2,0.7,1.5C172.6,109.6,172.9,109.4,172.9,108.7"/>
				</g>
				<g>
					<polygon class="st2" points="176.3,105.1 177,105.5 172.9,114.9 172.2,114.5 					"/>
				</g>
			</g>
		</g>
		<g>
			<g>
				<g>
					<path class="st5" d="M226.9,157.7c11.7,6.7,11.7,17.7,0.2,24.4c-11.6,6.7-30.5,6.7-42.2,0c-11.7-6.7-11.7-17.7-0.1-24.4
						C196.4,151,215.2,151,226.9,157.7z"/>
				</g>
			</g>
			<g>
				<g>
					<polygon class="st39" points="227.2,150.5 227.2,154.8 219.8,159.1 219.8,154.8 					"/>
				</g>
				<path class="st39" d="M197.3,157.9c0.1,0,0.1,0,0.2-0.1c0.4-0.2,0.8-0.3,1.3-0.4c0.3-0.1,0.6-0.2,0.9-0.3
					c0.2-0.1,0.5-0.1,0.7-0.2c0.3-0.1,0.6-0.1,1-0.2c0.2,0,0.5-0.1,0.7-0.1c0.1,0,0.2,0,0.3,0c0.4-0.1,0.8-0.1,1.2-0.2
					c0.1,0,0.2,0,0.4,0c0.5-0.1,1-0.1,1.4-0.1c0.1,0,0.2,0,0.3,0c0.3,0,0.6,0,1,0c0.3,0,0.6,0,1,0c0.3,0,0.5,0,0.8,0
					c0.3,0,0.6,0,0.9,0c0.3,0,0.5,0,0.8,0.1c0.3,0,0.6,0.1,0.9,0.1c0.3,0,0.5,0.1,0.8,0.1c0.3,0,0.6,0.1,0.9,0.2
					c0.3,0.1,0.7,0.1,1,0.2c0.1,0,0.2,0,0.2,0.1c0.5,0.1,0.9,0.2,1.3,0.4c0.1,0,0.2,0.1,0.4,0.1c0.4,0.1,0.7,0.2,1.1,0.4
					c0.1,0,0.2,0.1,0.3,0.1c0.3,0.1,0.6,0.3,0.9,0.4c0.2,0.1,0.3,0.1,0.5,0.2c0.4,0.2,0.9,0.4,1.3,0.7l0-5c-0.4-0.2-0.9-0.5-1.3-0.7
					c-0.1-0.1-0.3-0.1-0.5-0.2c-0.3-0.1-0.5-0.2-0.8-0.3c0,0-0.1,0-0.1-0.1c-0.1,0-0.2-0.1-0.3-0.1c-0.4-0.1-0.7-0.3-1.1-0.4
					c-0.1,0-0.2-0.1-0.4-0.1c-0.1,0-0.2-0.1-0.3-0.1c-0.4-0.1-0.7-0.2-1.1-0.3c-0.1,0-0.2,0-0.2-0.1c-0.2,0-0.4-0.1-0.5-0.1
					c-0.1,0-0.3,0-0.4-0.1c-0.3-0.1-0.6-0.1-0.9-0.2c-0.1,0-0.2,0-0.4-0.1c-0.1,0-0.3,0-0.4,0c-0.3,0-0.6-0.1-0.9-0.1
					c-0.1,0-0.3,0-0.4,0c-0.1,0-0.3,0-0.4,0c-0.3,0-0.6,0-0.9,0c-0.2,0-0.3,0-0.5,0c-0.1,0-0.2,0-0.4,0c-0.3,0-0.6,0-1,0
					c-0.2,0-0.3,0-0.5,0c-0.2,0-0.3,0-0.5,0c-0.1,0-0.2,0-0.3,0c-0.4,0-0.8,0.1-1.2,0.1c-0.1,0-0.2,0-0.2,0c-0.1,0-0.2,0-0.4,0
					c-0.4,0-0.8,0.1-1.2,0.2c-0.1,0-0.2,0-0.3,0c0,0-0.1,0-0.1,0c-0.2,0-0.4,0.1-0.6,0.1c-0.3,0.1-0.7,0.1-1,0.2
					c-0.2,0.1-0.5,0.1-0.7,0.2c-0.3,0.1-0.6,0.2-0.9,0.3c-0.1,0-0.1,0-0.2,0.1c-0.4,0.1-0.7,0.2-1.1,0.4c-0.1,0-0.1,0-0.2,0.1
					c-0.4,0.2-0.8,0.3-1.1,0.5c-0.1,0.1-0.2,0.1-0.3,0.2c-0.4,0.2-0.8,0.4-1.2,0.6c-0.1,0-0.1,0.1-0.2,0.1c-0.1,0-0.1,0.1-0.2,0.1
					c-0.1,0.1-0.2,0.1-0.3,0.2c-0.1,0.1-0.2,0.1-0.3,0.2c-0.1,0.1-0.2,0.1-0.3,0.2c-0.1,0.1-0.2,0.1-0.3,0.2
					c-0.1,0.1-0.2,0.1-0.3,0.2c-0.1,0.1-0.2,0.1-0.2,0.2c-0.1,0.1-0.2,0.1-0.3,0.2c0,0-0.1,0.1-0.1,0.1c0,0-0.1,0.1-0.1,0.1
					c-0.1,0.1-0.3,0.3-0.4,0.4c0,0-0.1,0.1-0.1,0.1c-0.2,0.2-0.3,0.4-0.5,0.5c0,0,0,0,0,0c0,0-0.1,0.1-0.1,0.1
					c-0.1,0.1-0.2,0.2-0.2,0.3c0,0.1-0.1,0.1-0.1,0.2c-0.1,0.1-0.1,0.2-0.2,0.3c0,0,0,0.1-0.1,0.1c0,0,0,0.1-0.1,0.1
					c0,0.1-0.1,0.2-0.1,0.3c0,0.1-0.1,0.1-0.1,0.2c0,0.1-0.1,0.2-0.1,0.3c0,0,0,0.1-0.1,0.1c0,0,0,0.1,0,0.1c0,0.1-0.1,0.2-0.1,0.3
					c0,0.1,0,0.2-0.1,0.2c0,0.1,0,0.2-0.1,0.3c0,0,0,0.1,0,0.1c0,0,0,0.1,0,0.1c0,0.1,0,0.2,0,0.3c0,0.1,0,0.2,0,0.2
					c0,0.1,0,0.2,0,0.3c0,0.1,0,0.1,0,0.2c0,0.1,0,0.8,0,0.9l0,4.3c0-0.1,0-0.2,0-0.3c0-0.1,0-0.2,0-0.3c0-0.1,0-0.2,0-0.2
					c0-0.1,0-0.2,0-0.3c0-0.1,0-0.2,0-0.2c0-0.1,0-0.2,0.1-0.3c0-0.1,0-0.2,0.1-0.2c0-0.1,0.1-0.2,0.1-0.3c0-0.1,0.1-0.2,0.1-0.2
					c0-0.1,0.1-0.2,0.1-0.3c0-0.1,0.1-0.1,0.1-0.2c0-0.1,0.1-0.2,0.1-0.3c0-0.1,0.1-0.1,0.1-0.2c0.1-0.1,0.1-0.2,0.2-0.3
					c0-0.1,0.1-0.1,0.1-0.2c0.1-0.1,0.2-0.2,0.2-0.3c0,0,0.1-0.1,0.1-0.1c0.1-0.2,0.3-0.4,0.5-0.5c0,0,0.1-0.1,0.1-0.1
					c0.1-0.1,0.3-0.3,0.4-0.4c0.1-0.1,0.1-0.1,0.2-0.2c0.1-0.1,0.2-0.1,0.3-0.2c0.1-0.1,0.2-0.1,0.2-0.2c0.1-0.1,0.2-0.1,0.3-0.2
					c0.1-0.1,0.2-0.1,0.3-0.2c0.1-0.1,0.2-0.1,0.3-0.2c0.1-0.1,0.2-0.1,0.3-0.2c0.1-0.1,0.2-0.1,0.3-0.2c0.1-0.1,0.3-0.2,0.4-0.3
					c0.4-0.2,0.8-0.4,1.2-0.6c0.1-0.1,0.2-0.1,0.3-0.2C196.6,158.2,197,158,197.3,157.9z"/>
				<g>
					<polygon class="st39" points="194.8,169.4 194.8,173.6 187.4,178 187.4,173.7 					"/>
				</g>
				<path class="st40" d="M179,166.3l0-4.3c0,4.2,2.8,8.4,8.3,11.7l0,4.3C181.8,174.7,179,170.5,179,166.3z"/>
				<g>
					<path class="st39" d="M187.4,173.7l0,4.3c-5.6-3.2-8.4-7.4-8.3-11.7l0-4.3C179,166.2,181.8,170.4,187.4,173.7"/>
				</g>
				<g>
					<path class="st21" d="M227.2,150.5l-7.4,4.3c-6.9-4-18.2-4-25.1,0c-6.9,4-6.9,10.5,0.1,14.5l-7.4,4.3
						c-11.1-6.4-11.1-16.8-0.1-23.1C198.2,144.1,216.1,144.1,227.2,150.5z"/>
				</g>
				<path class="st41" d="M219.8,156.1l0,3c3.5,2,5.2,4.7,5.2,7.3l0-4.3C225,159.5,223.3,158.2,219.8,156.1z"/>
				<g>
					<polygon class="st41" points="227.1,175.1 227.1,178.1 219.6,173.8 219.6,170.8 					"/>
				</g>
				<path class="st41" d="M235.5,162.7c0,0.1,0,0.3,0,0.4c0,0.1,0,0.2,0,0.4c0,0.1,0,0.3-0.1,0.4c0,0.1-0.1,0.2-0.1,0.4
					c0,0.1-0.1,0.3-0.1,0.4c0,0.1-0.1,0.2-0.1,0.4c0,0.1-0.1,0.3-0.1,0.4c0,0.1-0.1,0.2-0.1,0.4c-0.1,0.1-0.1,0.3-0.2,0.4
					c-0.1,0.1-0.1,0.2-0.2,0.4c-0.1,0.1-0.1,0.3-0.2,0.4c-0.1,0.1-0.1,0.2-0.2,0.3c-0.1,0.2-0.2,0.3-0.3,0.5
					c-0.1,0.1-0.1,0.2-0.2,0.3c-0.1,0.2-0.3,0.4-0.4,0.5c-0.1,0.1-0.1,0.2-0.2,0.2c-0.2,0.3-0.5,0.6-0.7,0.9
					c-0.1,0.1-0.1,0.1-0.2,0.2c-0.2,0.2-0.4,0.4-0.6,0.6c-0.1,0.1-0.2,0.2-0.3,0.3c-0.1,0.1-0.3,0.2-0.4,0.4
					c-0.1,0.1-0.3,0.2-0.4,0.3c-0.1,0.1-0.3,0.2-0.4,0.3c-0.1,0.1-0.3,0.2-0.4,0.3c-0.2,0.1-0.3,0.2-0.5,0.3
					c-0.1,0.1-0.3,0.2-0.5,0.3c-0.2,0.1-0.3,0.2-0.5,0.3c-0.2,0.1-0.4,0.3-0.7,0.4c-0.1,0-0.1,0.1-0.2,0.1l0,4.3
					c0.1,0,0.1-0.1,0.2-0.1c0.1-0.1,0.2-0.1,0.3-0.2c0.1-0.1,0.2-0.1,0.3-0.2c0.2-0.1,0.3-0.2,0.5-0.3c0.2-0.1,0.3-0.2,0.4-0.3
					c0.2-0.1,0.3-0.2,0.5-0.3c0.1-0.1,0.3-0.2,0.4-0.3c0.2-0.1,0.3-0.2,0.4-0.3c0.1-0.1,0.3-0.2,0.4-0.3c0.1-0.1,0.3-0.2,0.4-0.4
					c0.1,0,0.1-0.1,0.2-0.1c0,0,0.1-0.1,0.1-0.1c0.2-0.2,0.4-0.4,0.6-0.6c0.1-0.1,0.1-0.1,0.2-0.2c0.3-0.3,0.5-0.6,0.7-0.9
					c0,0,0,0,0,0c0.1-0.1,0.1-0.1,0.1-0.2c0.1-0.2,0.3-0.4,0.4-0.5c0.1-0.1,0.1-0.2,0.2-0.3c0.1-0.2,0.2-0.3,0.3-0.5
					c0,0,0.1-0.1,0.1-0.1c0-0.1,0.1-0.1,0.1-0.2c0.1-0.1,0.1-0.3,0.2-0.4c0.1-0.1,0.1-0.2,0.2-0.4c0.1-0.1,0.1-0.3,0.2-0.4
					c0-0.1,0.1-0.1,0.1-0.2c0-0.1,0-0.1,0.1-0.2c0-0.1,0.1-0.3,0.1-0.4c0-0.1,0.1-0.2,0.1-0.4c0-0.1,0.1-0.3,0.1-0.4
					c0-0.1,0-0.1,0.1-0.2c0-0.1,0-0.1,0-0.2c0-0.1,0-0.3,0.1-0.4c0-0.1,0-0.2,0-0.4c0-0.1,0-0.3,0-0.4c0-0.1,0-0.2,0-0.3
					c0-0.1,0-0.2,0-0.2l0-4.3C235.5,162.3,235.5,162.5,235.5,162.7z"/>
				<g>
					<path class="st33" d="M227.2,151.8c11.1,6.4,11.1,16.8,0.1,23.1c-0.1,0-0.1,0.1-0.2,0.1l-7.5-4.3c0.1,0,0.1-0.1,0.2-0.1
						c6.9-4,6.9-10.5-0.1-14.5L227.2,151.8z"/>
				</g>
				<path class="st42" d="M222.9,180c0.3-0.1,0.6-0.2,0.9-0.4c0.2-0.1,0.4-0.2,0.5-0.2c0.3-0.1,0.6-0.3,0.9-0.4
					c0.1-0.1,0.3-0.1,0.4-0.2c0.5-0.2,0.9-0.5,1.3-0.7l0-1c-0.4,0.2-0.9,0.5-1.3,0.7c-0.1,0.1-0.3,0.1-0.4,0.2
					c-0.3,0.1-0.6,0.3-0.9,0.4c-0.2,0.1-0.4,0.2-0.5,0.2c-0.3,0.1-0.6,0.2-0.9,0.4c-0.2,0.1-0.4,0.1-0.6,0.2c-0.3,0.1-0.6,0.2-1,0.3
					c-0.2,0.1-0.4,0.1-0.6,0.2c-0.2,0-0.3,0.1-0.5,0.1c-0.3,0.1-0.6,0.2-0.9,0.2c-0.2,0-0.3,0.1-0.5,0.1c-0.3,0.1-0.6,0.2-0.9,0.2
					c-0.1,0-0.3,0.1-0.4,0.1c-0.4,0.1-0.9,0.2-1.4,0.3v1c0.5-0.1,0.9-0.2,1.4-0.3c0.1,0,0.3-0.1,0.4-0.1c0.3-0.1,0.6-0.1,0.9-0.2
					c0.2,0,0.3-0.1,0.5-0.1c0.3-0.1,0.6-0.2,0.9-0.2c0.2,0,0.3-0.1,0.5-0.1c0.1,0,0.2,0,0.2-0.1c0.1,0,0.2-0.1,0.4-0.1
					c0.3-0.1,0.6-0.2,1-0.3C222.5,180.2,222.7,180.1,222.9,180z"/>
				<g>
					<path class="st43" d="M227.1,177.1c-3.2,1.8-6.9,3.1-10.8,3.8l-3.5-5.8c2.5-0.5,4.8-1.3,6.8-2.4L227.1,177.1z"/>
				</g>
				<path class="st30" d="M215,180.3c-0.3,0-0.6,0.1-0.9,0.1c-0.3,0-0.7,0.1-1,0.1c-0.3,0-0.6,0.1-0.9,0.1c-0.5,0.1-1.1,0.1-1.6,0.1
					c0,0-0.1,0-0.1,0c-0.6,0-1.2,0.1-1.8,0.1c-0.2,0-0.3,0-0.5,0c-0.4,0-0.9,0-1.3,0c-0.2,0-0.4,0-0.5,0c-0.5,0-1,0-1.4,0
					c-0.1,0-0.2,0-0.3,0c-0.6,0-1.1-0.1-1.7-0.1c-0.1,0-0.3,0-0.4,0c-0.4,0-0.9-0.1-1.3-0.1c-0.2,0-0.3,0-0.5-0.1
					c-0.6-0.1-1.1-0.2-1.7-0.3c0,0,0,0,0,0c-0.6-0.1-1.1-0.2-1.6-0.3c-0.2,0-0.4-0.1-0.6-0.1c-0.4-0.1-0.7-0.2-1.1-0.3
					c-0.2-0.1-0.4-0.1-0.6-0.2c-0.3-0.1-0.6-0.2-0.9-0.3c-0.3-0.1-0.6-0.2-0.9-0.3c-0.3-0.1-0.6-0.2-0.9-0.3
					c-0.3-0.1-0.6-0.2-0.8-0.3c-0.4-0.2-0.8-0.3-1.2-0.5c0,0-0.1,0-0.1-0.1c-0.5-0.2-0.9-0.4-1.4-0.6c-0.1-0.1-0.2-0.1-0.3-0.2
					c-0.5-0.2-0.9-0.5-1.3-0.7l0,1.8c0.4,0.3,0.9,0.5,1.3,0.7c0.1,0.1,0.2,0.1,0.3,0.2c0.5,0.2,0.9,0.4,1.4,0.6c0,0,0.1,0,0.1,0
					c0.3,0.1,0.6,0.3,0.9,0.4c0.1,0,0.2,0.1,0.3,0.1c0.3,0.1,0.6,0.2,0.8,0.3c0.3,0.1,0.6,0.2,0.9,0.3c0.3,0.1,0.6,0.2,0.9,0.3
					c0.2,0.1,0.3,0.1,0.5,0.2c0.1,0,0.3,0.1,0.4,0.1c0.2,0.1,0.4,0.1,0.6,0.2c0.4,0.1,0.7,0.2,1.1,0.3c0.2,0,0.4,0.1,0.6,0.1
					c0.1,0,0.2,0,0.3,0.1c0.5,0.1,0.9,0.2,1.4,0.3c0,0,0,0,0,0c0.5,0.1,0.9,0.2,1.4,0.2c0.1,0,0.2,0,0.3,0c0.2,0,0.3,0,0.5,0.1
					c0.4,0.1,0.9,0.1,1.3,0.1c0.1,0,0.3,0,0.4,0c0.1,0,0.2,0,0.2,0c0.5,0,1,0.1,1.5,0.1c0.1,0,0.2,0,0.3,0c0.3,0,0.7,0,1,0
					c0.1,0,0.3,0,0.4,0c0.2,0,0.4,0,0.5,0c0.4,0,0.9,0,1.3,0c0.2,0,0.3,0,0.5,0c0.1,0,0.1,0,0.2,0c0.5,0,1.1,0,1.6-0.1
					c0,0,0.1,0,0.1,0c0.5,0,0.9-0.1,1.4-0.1c0.1,0,0.1,0,0.2,0c0.3,0,0.6-0.1,0.9-0.1c0.3,0,0.7-0.1,1-0.1c0.3,0,0.6-0.1,0.9-0.1
					c0.2,0,0.5-0.1,0.7-0.1c0.2,0,0.3-0.1,0.5-0.1l0-1.8C215.9,180.2,215.5,180.3,215,180.3z"/>
				<g>
					<path class="st22" d="M212.8,174.4l3.5,5.8c-9.8,1.9-21.1,0.6-28.9-4l7.4-4.3C199.7,174.7,206.7,175.5,212.8,174.4z"/>
				</g>
			</g>
		</g>
		<g>
			<g>
				<g>
					
						<linearGradient id="SVGID_3_" gradientUnits="userSpaceOnUse" x1="-108.7973" y1="199.4278" x2="-79.5121" y2="-18.214" gradientTransform="matrix(-1 0 0 1 200.8979 0)">
						<stop  offset="0" style="stop-color:#1AE5FF"/>
						<stop  offset="0.2589" style="stop-color:#64E8F9"/>
						<stop  offset="0.7043" style="stop-color:#EAEEEE"/>
					</linearGradient>
					<path class="st44" d="M228.8,9.2c-0.1,0-0.2-0.1-0.2-0.1c-0.1-0.1-0.2-0.1-0.3-0.1c-0.1,0-0.2-0.1-0.3-0.1
						c-0.1,0-0.2-0.1-0.3-0.1c-0.1,0-0.2-0.1-0.3-0.1c0,0,0,0-0.1,0c0,0,0,0,0,0c-0.1,0-0.1,0-0.2-0.1c-0.1,0-0.2-0.1-0.3-0.1
						c-0.1,0-0.2,0-0.3-0.1c-0.1,0-0.2,0-0.3-0.1c-0.1,0-0.1,0-0.2,0c0,0,0,0,0,0c0,0-0.1,0-0.1,0c-0.1,0-0.2,0-0.3,0
						c-0.1,0-0.2,0-0.4,0c-0.1,0-0.3,0-0.4,0.1c0,0,0,0,0,0c0,0,0,0,0,0c-0.2,0-0.3,0.1-0.5,0.1c-0.2,0.1-0.4,0.2-0.6,0.3l-4.7,2.7
						c0.3-0.2,0.7-0.3,1-0.4c0,0,0,0,0,0c0.4-0.1,0.8-0.1,1.2-0.1c0,0,0,0,0,0c0.4,0,0.9,0.1,1.3,0.3c0,0,0,0,0,0
						c0.5,0.2,0.9,0.4,1.4,0.7l130.8,75.5l4.7-2.7L228.8,9.2z"/>
					
						<linearGradient id="SVGID_4_" gradientUnits="userSpaceOnUse" x1="-165.7232" y1="139.1063" x2="-154.0006" y2="139.1063" gradientTransform="matrix(-1 0 0 1 200.8979 0)">
						<stop  offset="0" style="stop-color:#5155D4"/>
						<stop  offset="1" style="stop-color:#45F7FF"/>
					</linearGradient>
					<path class="st45" d="M366.6,96.6c0-0.1,0-0.2,0-0.3c0-0.1,0-0.2,0-0.3c0-0.1,0-0.2,0-0.3c0-0.1,0-0.2-0.1-0.4c0,0,0,0,0,0
						c0,0,0,0,0,0c0-0.1,0-0.2-0.1-0.3c0-0.1,0-0.2-0.1-0.4c0-0.1-0.1-0.2-0.1-0.4c0-0.1-0.1-0.3-0.1-0.4c0-0.1-0.1-0.2-0.1-0.3
						c0,0,0,0,0,0c0,0,0,0,0-0.1c0-0.1-0.1-0.2-0.1-0.4c0-0.1-0.1-0.2-0.1-0.4c0-0.1-0.1-0.2-0.1-0.3c0-0.1-0.1-0.2-0.1-0.3
						c0-0.1-0.1-0.2-0.1-0.3c0,0,0,0,0,0c0,0,0,0,0-0.1c-0.1-0.1-0.1-0.2-0.2-0.3c-0.1-0.1-0.1-0.2-0.2-0.4
						c-0.1-0.1-0.1-0.3-0.2-0.4c-0.1-0.2-0.2-0.3-0.3-0.4c0,0,0-0.1,0-0.1c0,0,0-0.1-0.1-0.1c-0.2-0.3-0.3-0.6-0.5-0.8
						c-0.1-0.2-0.3-0.4-0.4-0.6c-0.1-0.1-0.2-0.3-0.3-0.4c-0.1-0.1-0.2-0.2-0.3-0.3c-0.1-0.1-0.2-0.2-0.3-0.3
						c-0.1-0.1-0.2-0.2-0.3-0.3c0,0,0,0-0.1-0.1c0,0,0,0,0,0c-0.1-0.1-0.1-0.1-0.2-0.2c-0.1-0.1-0.2-0.2-0.3-0.3
						c-0.1-0.1-0.2-0.2-0.3-0.3c-0.1-0.1-0.2-0.2-0.3-0.3c-0.1,0-0.1-0.1-0.2-0.1c0,0,0,0,0,0c0,0-0.1-0.1-0.1-0.1
						c-0.1-0.1-0.2-0.2-0.3-0.2c-0.1-0.1-0.2-0.1-0.3-0.2c-0.1-0.1-0.2-0.1-0.3-0.2c-0.1-0.1-0.2-0.1-0.3-0.2c0,0,0,0-0.1,0
						l-4.7,2.7c0.5,0.3,1,0.6,1.4,1c0,0,0,0,0,0c0.4,0.4,0.9,0.8,1.3,1.2c0,0,0,0,0,0c0.8,0.9,1.6,1.9,2.2,3c0,0,0,0.1,0,0.1
						c0.3,0.5,0.6,1.1,0.8,1.6c0,0,0,0,0,0c0.2,0.6,0.5,1.2,0.6,1.7c0,0,0,0,0,0c0.2,0.6,0.3,1.2,0.4,1.7c0,0,0,0,0,0
						c0.1,0.6,0.1,1.2,0.1,1.7l-0.3,89.4c0,0.5-0.1,1.1-0.1,1.5c0,0,0,0,0,0c-0.1,0.5-0.2,0.9-0.4,1.2c0,0,0,0,0,0
						c-0.1,0.3-0.3,0.6-0.5,0.8c-0.1,0.1-0.1,0.2-0.2,0.2c-0.2,0.2-0.5,0.5-0.8,0.6l4.7-2.7c0.3-0.2,0.5-0.4,0.8-0.6
						c0.1-0.1,0.1-0.2,0.2-0.2c0.1-0.1,0.2-0.2,0.3-0.3c0.1-0.2,0.2-0.3,0.3-0.5c0,0,0,0,0,0c0,0,0,0,0,0c0.1-0.1,0.1-0.2,0.2-0.4
						c0-0.1,0.1-0.2,0.1-0.4c0-0.1,0.1-0.2,0.1-0.4c0-0.1,0-0.1,0-0.2c0,0,0,0,0,0c0,0,0-0.1,0-0.1c0-0.1,0-0.2,0.1-0.3
						c0-0.1,0-0.2,0-0.3c0-0.1,0-0.2,0-0.3c0-0.1,0-0.2,0-0.3c0,0,0,0,0,0l0.3-89.4C366.6,96.8,366.6,96.7,366.6,96.6z"/>
					<g>
						<g>
							<path class="st46" d="M354.9,87.4c3.9,2.3,7.1,7.7,7,12.2l-0.3,89.4c0,4.5-3.2,6.3-7.1,4l-130.8-75.5
								c-3.9-2.3-7.1-7.7-7-12.2l0.3-89.4c0-4.5,3.2-6.3,7.1-4L354.9,87.4z"/>
						</g>
					</g>
				</g>
				<g>
					<path class="st31" d="M317,50.8c1.2,0.7,2.2,2.4,2.2,3.8l-0.1,28.1c0,1.4-1,2-2.2,1.3l-41.1-23.7c-1.2-0.7-2.2-2.4-2.2-3.8
						l0.1-28.1c0-1.4,1-2,2.2-1.3L317,50.8z"/>
				</g>
				<g>
					<g>
						<path class="st2" d="M239.2,38.3l0,1.3c0,0.8-0.8,1.2-1.5,0.8l-6-3.5c-0.3-0.2-0.5-0.5-0.5-0.8l0-1.3c0-0.8,0.8-1.2,1.5-0.8
							l6,3.5C239,37.6,239.2,38,239.2,38.3z"/>
					</g>
					<g>
						<path class="st47" d="M258.2,55.6l0,1.3c0,0.8-0.8,1.2-1.5,0.8l-25.1-14.5c-0.3-0.2-0.5-0.5-0.5-0.8l0-1.3
							c0-0.8,0.8-1.2,1.5-0.8l25.1,14.5C258,55,258.2,55.3,258.2,55.6z"/>
					</g>
				</g>
				<polyline class="st48" points="227.6,97.4 237.6,92.3 244.1,102.8 251.4,110.3 258.7,105.9 274.3,100.8 281.3,110.9 
					288.3,116.7 294.7,126.1 303.4,107.9 313.9,112.9 319.4,108.4 330.9,111.4 347.8,109.9 				"/>
				<g>
					<g>
						<path class="st49" d="M286.6,40c-3.8-2.2-7.4-1.6-8.9,1.8c-1.9,4.3,0.3,11.6,4.7,16.6l1-2.4c-3-3.5-4.4-8.5-3.1-11.5
							c1-2.4,3.6-2.8,6.2-1.3c0.7,0.4,1.3,0.9,2,1.5l1-2.4C288.6,41.3,287.6,40.5,286.6,40z"/>
					</g>
					<g>
						<path class="st50" d="M289.6,42.2l-1,2.4c0.2,0.2,0.3,0.3,0.5,0.5c3.4,3.5,5.1,9,3.8,12.2c-0.1,0.1-0.1,0.2-0.2,0.3
							c0,0,0,0.1-0.1,0.1c-1,1.7-2.9,2.2-5,1.3c-0.3-0.1-0.7-0.3-1-0.5c-0.1-0.1-0.2-0.1-0.3-0.2c-0.2-0.1-0.3-0.2-0.4-0.3l-0.1,0
							c-0.3-0.2-0.5-0.4-0.8-0.6c0,0-0.1-0.1-0.1-0.1c-0.1-0.1-0.2-0.2-0.3-0.3c0,0-0.1-0.1-0.1-0.1c-0.1-0.1-0.3-0.3-0.4-0.4
							c-0.2-0.2-0.4-0.4-0.6-0.7l-1,2.4c0.2,0.2,0.4,0.4,0.6,0.7c0.2,0.2,0.4,0.4,0.6,0.5c0.1,0.1,0.1,0.1,0.2,0.1
							c0.1,0.1,0.3,0.3,0.4,0.4c0,0,0.1,0.1,0.1,0.1c0.4,0.3,0.8,0.6,1.2,0.9c0,0,0.1,0,0.1,0.1c0.2,0.1,0.4,0.2,0.5,0.3l0.1,0
							c0.1,0.1,0.2,0.1,0.4,0.2c0.3,0.2,0.6,0.3,0.8,0.4c0.2,0.1,0.4,0.2,0.6,0.3c3.2,1.3,6.1,0.5,7.4-2.5
							c1.9-4.5-0.4-12.2-5.3-17.2C289.9,42.6,289.8,42.4,289.6,42.2z"/>
					</g>
				</g>
				<g>
					<g>
						<path class="st2" d="M304.4,55.5l0,0.7c0,0.4-0.5,0.7-0.8,0.5l-3.5-2c-0.2-0.1-0.3-0.3-0.3-0.5l0-0.7c0-0.4,0.5-0.7,0.8-0.5
							l3.5,2C304.3,55.1,304.4,55.3,304.4,55.5z"/>
					</g>
					<g>
						<path class="st2" d="M315.4,65.5l0,0.7c0,0.4-0.5,0.7-0.8,0.5l-14.5-8.4c-0.2-0.1-0.3-0.3-0.3-0.5l0-0.7
							c0-0.4,0.5-0.7,0.8-0.5l14.5,8.4C315.3,65.1,315.4,65.3,315.4,65.5z"/>
					</g>
					<g class="st51">
						<path class="st2" d="M309.4,69.4l0,0.7c0,0.4-0.5,0.7-0.8,0.5l-8.5-4.9c-0.2-0.1-0.3-0.3-0.3-0.5l0-0.7c0-0.4,0.5-0.7,0.8-0.5
							l8.5,4.9C309.3,69,309.4,69.2,309.4,69.4z"/>
					</g>
					<g>
						<path class="st33" d="M313.2,67.9l0,0.7c0,0.4-0.5,0.7-0.8,0.5l-12.2-7.1c-0.2-0.1-0.3-0.3-0.3-0.5l0-0.7
							c0-0.4,0.5-0.7,0.8-0.5l12.2,7.1C313.1,67.5,313.2,67.7,313.2,67.9z"/>
					</g>
				</g>
				<g>
					<g>
						<path class="st52" d="M347.8,100.6c-4.2-2.4-7.7-0.5-7.7,4.4c0,4.8,3.4,10.8,7.6,13.2c4.2,2.4,7.6,0.5,7.7-4.4
							C355.5,109,352.1,103,347.8,100.6z"/>
					</g>
					<g>
						<path class="st53" d="M347.8,105.4c-1.9-1.1-3.5-0.2-3.5,2c0,2.2,1.5,4.9,3.4,6c1.9,1.1,3.5,0.2,3.5-2
							C351.3,109.2,349.7,106.5,347.8,105.4z"/>
					</g>
				</g>
			</g>
			<g>
				<g>
					<path class="st54" d="M239.7,54.8l0,1.3c0,0.8-0.8,1.3-1.5,0.9l-6.2-3.6c-0.3-0.2-0.5-0.5-0.5-0.9l0-1.3c0-0.8,0.8-1.3,1.5-0.9
						l6.2,3.6C239.5,54.1,239.7,54.5,239.7,54.8z"/>
				</g>
				<g>
					<path class="st54" d="M259.4,72.6l0,1.3c0,0.8-0.8,1.3-1.5,0.9L232,60c-0.3-0.2-0.5-0.5-0.5-0.9l0-1.3c0-0.8,0.8-1.3,1.5-0.9
						l25.9,14.8C259.2,71.9,259.4,72.3,259.4,72.6z"/>
				</g>
				<g class="st51">
					<path class="st54" d="M248.7,79.6l0,1.3c0,0.8-0.8,1.3-1.5,0.9L232,73.1c-0.3-0.2-0.5-0.5-0.5-0.9v-1.3c0-0.8,0.8-1.3,1.5-0.9
						l15.2,8.7C248.5,78.9,248.7,79.2,248.7,79.6z"/>
				</g>
				<g>
					<path class="st54" d="M255.4,76.9l0,1.3c0,0.8-0.8,1.3-1.5,0.9L232,66.5c-0.3-0.2-0.5-0.5-0.5-0.9l0-1.3c0-0.8,0.8-1.3,1.5-0.9
						L254.9,76C255.2,76.2,255.4,76.5,255.4,76.9z"/>
				</g>
			</g>
			<g>
				<g>
					<g class="st4">
						<g>
							<polygon class="st55" points="329,166.2 332.6,164.2 332.5,188.2 329,190.2 							"/>
						</g>
						<path class="st56" d="M336.2,165.6C336.2,165.6,336.2,165.6,336.2,165.6C336.2,165.6,336.2,165.6,336.2,165.6
							C336.2,165.5,336.2,165.5,336.2,165.6c0-0.1,0-0.1,0-0.1c0,0,0,0,0,0c0,0,0,0,0,0c0,0,0,0,0,0c0,0,0,0,0,0c0,0,0,0,0,0
							c0,0,0,0,0,0c0,0,0,0,0,0c0,0,0,0,0,0c0,0,0,0,0,0c0,0,0,0,0,0c0,0,0,0,0,0c0,0,0,0,0,0c0,0,0,0,0,0c0,0,0,0,0,0c0,0,0,0,0,0
							l0,0l-11-21.9c0,0,0,0,0,0c0,0,0,0,0-0.1c0,0,0-0.1-0.1-0.1c0,0,0,0,0,0c0,0,0,0,0,0c0,0,0,0,0,0c0,0,0,0,0,0c0,0,0,0,0,0l0,0
							c0,0,0,0,0,0c0,0,0,0,0,0c0,0,0,0,0,0c0,0,0,0,0,0c0,0,0,0,0,0c0,0,0,0,0,0c0,0,0,0,0,0c0,0,0,0,0,0c0,0,0,0,0,0c0,0,0,0,0,0
							c0,0,0,0,0,0c0,0,0,0,0,0c0,0,0,0,0,0c0,0,0,0,0,0c0,0,0,0,0,0c0,0,0,0,0,0c0,0,0,0,0,0c0,0,0,0,0,0c0,0,0,0,0,0c0,0,0,0,0,0
							c0,0,0,0,0,0c0,0,0,0,0,0c0,0,0,0,0,0c0,0,0,0,0,0c0,0,0,0,0,0c0,0,0,0,0,0c0,0,0,0,0,0c0,0,0,0-0.1,0l-3.5,2.1
							c0.1,0,0.1,0,0.2,0h0c0.1,0,0.2,0,0.2,0.1c0.1,0.1,0.2,0.1,0.3,0.2c0,0,0,0,0,0c0.1,0.1,0.2,0.2,0.2,0.3l11,21.9
							c0.1,0.1,0.1,0.2,0.1,0.3l0,0c0,0.1,0,0.2,0,0.3v0c0,0.1,0,0.2-0.1,0.2c0,0,0,0,0,0c0,0.1-0.1,0.1-0.1,0.1l3.5-2.1
							c0,0,0.1-0.1,0.1-0.1c0,0,0,0,0,0c0,0,0,0,0,0c0,0,0,0,0,0c0,0,0,0,0,0c0,0,0,0,0,0c0,0,0,0,0,0c0,0,0,0,0,0
							C336.2,165.7,336.2,165.7,336.2,165.6C336.2,165.7,336.2,165.7,336.2,165.6C336.2,165.7,336.2,165.7,336.2,165.6L336.2,165.6
							C336.2,165.7,336.2,165.6,336.2,165.6C336.2,165.6,336.2,165.6,336.2,165.6z"/>
						<g>
							<path class="st57" d="M321.1,144.7c0.2,0.1,0.4,0.3,0.5,0.5l11,21.9c0.3,0.7,0,1.2-0.5,0.9l-3.1-1.8l-0.1,24l-16.1-9.3
								l0.1-24l-3-1.7c-0.5-0.3-0.8-1.2-0.5-1.4l11.1-9.1C320.8,144.6,320.9,144.6,321.1,144.7z"/>
						</g>
					</g>
				</g>
			</g>
		</g>
		<g>
			<g>
				<g>
					<polygon class="st2" points="207.2,195.8 238.9,228.2 269.8,220.2 238,187.8 					"/>
				</g>
				<g>
					<g class="st4">
						<g>
							<path class="st6" d="M241.3,197.8l-3,1.1c-2.3-1.8-6.2-2.4-8.9-1.4c-0.1,0-0.1,0-0.2,0.1l-2.5-2.1c0.1,0,0.1,0,0.2-0.1
								C231.1,193.8,237.6,194.9,241.3,197.8z"/>
						</g>
						<g>
							<path class="st6" d="M241.6,198.1c3,2.6,2.8,5.7-0.2,7.6l-2.6-2.1c1.4-1.1,1.3-2.8-0.2-4.3L241.6,198.1z"/>
						</g>
						<g>
							<path class="st38" d="M241,205.9c-0.3,0.2-0.6,0.3-1,0.4c-4.3,1.6-10.6,0.6-14.3-2.2l3-1.2c2.3,1.7,6.1,2.3,8.8,1.3
								c0.4-0.1,0.7-0.3,1-0.5L241,205.9z"/>
						</g>
					</g>
					<g>
						<path class="st38" d="M228.7,197.8c-2.1,1.1-2.3,3.2-0.4,4.9l-3,1.1c-3.4-2.8-2.9-6.4,0.9-8.1L228.7,197.8z"/>
					</g>
				</g>
			</g>
			<g>
				<g>
					<path class="st20" d="M238.1,356.2c0,0-2.5,1.7-0.2,5.8c2.3,4,4.4,1.6,9.7,5.6c5.3,4,7.2,4.8,10,4.5c2.8-0.3,4.5-1.7,5-3.3
						c0.5-1.6-0.9-4.2-0.9-4.2L238.1,356.2z"/>
					<path class="st19" d="M260.5,356.4c0,0,1.1,5.3,1.7,9.3c0.2,1.9-2.3,4.4-5.9,4.3c-3.6-0.2-5.6-1.2-6.8-2.8
						c-1.2-1.6-9-4.6-10.4-5.8c-1.4-1.2-1.7-5-1.1-5.9c0.6-0.9,3-2.5,5.4-1.4c2.5,1.1,4.5,3.1,9.5,3.4
						C257.9,357.8,260.5,356.4,260.5,356.4z"/>
				</g>
				<g>
					<g>
						<path class="st20" d="M262.8,342.7c0,0-2.5,1.7-0.2,5.8c2.3,4,4.4,1.6,9.7,5.6c5.3,4,7.2,4.8,10,4.5c2.8-0.3,4.5-1.7,5-3.3
							c0.5-1.6-0.9-4.2-0.9-4.2L262.8,342.7z"/>
						<path class="st19" d="M285.2,342.9c0,0,1.1,5.3,1.7,9.3c0.2,1.9-2.3,4.4-5.9,4.3c-3.6-0.2-5.6-1.2-6.8-2.8
							c-1.2-1.6-9-4.6-10.4-5.8c-1.4-1.2-1.7-5-1.1-5.9c0.6-0.9,3-2.5,5.4-1.4s4.5,3.1,9.5,3.4C282.6,344.3,285.2,342.9,285.2,342.9
							z"/>
					</g>
					<path class="st58" d="M265.9,299.8c1.2,10,6.2,36.1,7.1,45.2c0,0,2.1,3.3,8.3,2.5l3-1.2c1.2-0.5,1.9-1.7,1.7-3
						c-0.6-5-2-17.7-1.4-25.2c0.8-9.5-1.7-15.4-1.7-15.4c0.2-3.1,0.6-13.9-5.6-16.8C277.3,285.9,262,283.1,265.9,299.8"/>
				</g>
				<path class="st59" d="M278.5,290.5l-1.7,3.3c0,0-25.5,1.2-32.4,8.7c0,0-4.6,0.8-3.3,10.8c1.2,10,6.2,36.1,7.1,45.2
					c0,0,2.1,3.3,8.3,2.5l3-1.2c1.2-0.5,1.9-1.7,1.7-3c-0.6-5-2-17.7-1.4-25.2c0.8-9.5-1.7-15.4-1.7-15.4s11.2,2.1,23.2,7.1
					s22.4-0.8,27-3.3s6.2-4.2,6.2-4.2s5.8,0,11.2-4.6s6.2-16.6,0.4-23.7C320.4,280.5,278.5,290.5,278.5,290.5z"/>
			</g>
			<g>
				<path class="st60" d="M287.7,227.4c0,0,4.1-1.5,3.9-7c-1.3-5.4-2.8-5.8-2.8-5.8s5.8-5.3,12.7-3.7c0,0,4.3,8.7,9.2,12.5
					C310.6,223.3,306.8,233.6,287.7,227.4z"/>
				<g>
					<path class="st42" d="M296.7,230.5c0,0,15.3-12.8,18.4-13.1c3.7-0.3,8.4,0.9,9.7,6.2s-1.6,9.3-4.4,10.9
						c-2.8,1.6-27.4,13.4-31.8,13.4c-4.4,0-7.2-3.7-4.4-8.4C287,234.8,296.7,230.5,296.7,230.5z"/>
					<path class="st43" d="M301.4,222c0,0-16.2,5.4-20.8,12.9s-3.7,15.8-0.4,27.4c3.3,11.6-3.3,22-1.7,28.2
						c1.7,6.2,13.3,12,30.3,9.1c17-2.9,18.3-9.5,19.5-13.3c1.2-3.7-3.3-21.6,0.8-36.1c4.2-14.5-4.2-24.5-7.5-27
						S311.7,217.4,301.4,222z"/>
					<path class="st42" d="M321.7,223.2c-3.3-2.5-10-5.8-20.3-1.2c0,0-16.2,5.4-20.8,12.9c-1.1,1.8-1.9,3.7-2.4,5.6
						c6.6-8.5,15.9-12.3,21.9,2.3c5.7,13.6-8.7,53.4-21.3,40.9c-0.5,2.6-0.8,4.9-0.3,6.8c1.7,6.2,13.3,12,30.3,9.1
						c17-2.9,18.3-9.5,19.5-13.3c1.2-3.7-3.3-21.6,0.8-36.1C333.3,235.7,325,225.7,321.7,223.2z"/>
					<path class="st2" d="M285.9,229c0,0,4.4,2.8,15.3,1.2c10.9-1.6,11.5-9.3,10.6-10c-0.9-0.6-2.8-3.1-2.8-3.1s-11.5,5.3-15.6,6.8
						s-6.2,2.5-6.2,2.5L285.9,229z"/>
				</g>
			</g>
			<g>
				<path class="st61" d="M278.7,195.1c0,0-0.9,11.2,5,18.7c5.9,7.5,11.8,3.1,15.6,1.2c3.7-1.9,5.3-5,6.5-14
					c1.2-9,1.2-17.7-5.3-20.5c-6.5-2.8-13.7-3.4-17.7,3.4C278.7,190.7,278.7,195.1,278.7,195.1z"/>
				<path class="st62" d="M283.1,181.7c0,0-5.3,4-5,10c0.3,5.9-1.6,6.8-0.9,10c0.6,3.1,5.6,4,5.9,8.4c0.3,4.4,6.8,5.9,10.3,7.2
					c3.4,1.2,9-2.8,10.6-5c1.6-2.2,1.2-7.8,3.1-12.8c1.9-5,0.9-11.2-0.6-15.6c-1.6-4.4-4.7-5.3-4.7-5.3s-1.6-3.4-5.3-4
					C292.7,173.9,281.2,174.5,283.1,181.7z"/>
			</g>
			<g>
				<g>
					<g>
						<g>
							<g class="st4">
								<path class="st5" d="M333,365.8c-0.6,6.3-6.5,10.5-11.8,12.8c-5.8,2.5-12.2,3.5-18.5,3.4c-6.4-0.1-13-1.3-18.8-4.2
									c-5.1-2.5-10.4-7-10.4-13.2c0,4.5,0.3,8.2,3.5,11.7c4.2,4.5,10.4,6.9,16.3,8.1c11.5,2.4,27.1,1.2,35.8-7.6
									c3.5-3.6,4-7.3,4-12C333,365.2,333,365.5,333,365.8z"/>
								<g>
									<path class="st6" d="M324.3,352.6c11.7,6.7,11.7,17.7,0.2,24.4c-11.6,6.7-30.5,6.7-42.2,0c-11.7-6.7-11.7-17.7-0.1-24.4
										C293.7,345.9,312.6,345.9,324.3,352.6z"/>
								</g>
							</g>
						</g>
						<g>
							<g class="st4">
								<g>
									<polygon class="st7" points="308.6,339 308.5,365.1 303.9,367.7 304,341.7 									"/>
								</g>
								<g>
									<polygon class="st8" points="304,341.7 303.9,367.7 299.3,365.1 299.4,339 									"/>
								</g>
								<g>
									<polygon class="st9" points="308.6,339 304,341.7 299.4,339 304,336.4 									"/>
								</g>
							</g>
						</g>
					</g>
					<path class="st41" d="M361.7,250.1c-0.1-3.6-3.7-6.1-7.1-4.9c-14.9,5.2-49,17.6-51.2,22c-2.1,4.2-8.8,27.5-12.2,39.2
						c-1,3.4-4.9,4.9-7.9,3.1l-20.6-12.2c-3.9-2.3-8.8,1-8,5.5l3.3,19.9c0.3,1.6,1.2,3,2.6,3.8l22.1,12.7
						c12.3,7.1,27.4,7.5,40.1,1.2l17-8.5c14.9-7.4,24-22.9,23.4-39.5L361.7,250.1z"/>
				</g>
				<path class="st10" d="M303.4,267.2c-2.1,4.2-8.8,27.5-12.2,39.2c-1,3.4-4.9,4.9-7.9,3.1l-20.6-12.2c-3.9-2.3-8.8,1-8,5.5
					l3.3,19.9c0.1,0.5,0.2,0.9,0.4,1.3c0.3,0.4,0.5,0.8,0.8,1.2c0.4,0.5,0.9,0.9,1.4,1.2l22.1,12.7c4.7,2.7,9.7,4.4,14.9,5.2
					c17.9-13.9,15.6-71.9,9.2-76.7c-1-0.7-1.8-1.2-2.6-1.4C303.8,266.6,303.5,266.9,303.4,267.2z"/>
			</g>
			<g>
				<path class="st43" d="M263.5,249.6c0,0,15.3-12.8,18.4-13.1c3.7-0.3,8.4,0.9,9.7,6.2c1.2,5.3-1.6,9.3-4.4,10.9
					c-2.8,1.6-27.4,13.4-31.8,13.4s-7.2-3.7-4.4-8.4C253.8,253.9,263.5,249.6,263.5,249.6z"/>
				<path class="st61" d="M242,229.3c0,0-0.8-1.6-0.9-2.6c-0.2-1.1,0.5-2.5-0.2-5c-0.6-2.5-1.7-4.7-2.2-6.4
					c-1.2-1.6-2.3,1.2-1.4,3.6c0.9,2.3,0.6,3.7-0.3,3.9c-0.9,0.2-4.8-2.2-5.9-3.4c-1.1-1.2-7.3-7.3-7.9-6.5
					c-0.6,0.8-0.6,1.6,1.6,3.9c2.2,2.3,3,3.4,3.1,4c0.2,0.6,0,1.2,0.8,3.1c0.8,1.9,0.2,3.1,1.6,4.8c1.4,1.7,4,2,5.3,3.1
					c1.2,1.1,1.2,1.1,1.2,1.1L242,229.3z"/>
				<path class="st43" d="M255.4,267c0,0-6.5,1.2-10.1-6c-3.5-7.3-9.5-26.8-10.4-28.6c0,0,2.1-4.6,7.3-4.4c0,0,5.8,11.4,9.1,16.6
					C254.7,249.8,266.5,264.9,255.4,267z"/>
			</g>
		</g>
		<g>
			<g>
				<path class="st16" d="M159.2,143.3c0,0,2-1.3,3.2-0.9c1.2,0.4,5.3,1,6.6,1.1c1.3,0.1,3.9-2.2,4.3-2.6c0.5-0.4,0.7-1.2,1.3-1.8
					c0.6-0.6,0.8-0.5,0.8-1.5c0-1,1-1.9,1.5-2.4c0.5-0.5,2.3-1.6,2.1-2.4c-0.2-0.8-1.1-0.4-1.7-0.2c-0.6,0.2-2.7,2.1-3.6,2.7
					c-0.9,0.6-3.1,1.4-4.2,1.4c-1.1,0-2.1-0.3-2.1-0.3s-0.3,0,0.8-0.4c1.1-0.4,1.8-0.1,2.7-0.3c0.9-0.2,1.4-0.7,1.3-1.2
					c-0.1-0.5-1.3-0.5-1.8-0.5c-0.5,0-3.2,0.1-4.3-0.1c-1.1-0.2-3,1.7-3.3,2c-0.4,0.4-2.3,0.9-3.3,1
					C158.5,137.2,159.2,143.3,159.2,143.3z"/>
				<path class="st11" d="M119.5,142.3c0,0,1.9,6.4,10,6.1c8.1-0.2,28.1-4,30.2-4.1c0,0,3.1-4,0.5-8.5c0,0-12.8,0.1-18.9-0.4
					C135.1,134.9,116.2,131.5,119.5,142.3z"/>
			</g>
			<g>
				<path class="st11" d="M76.8,155c0,0-3.4-19.6-5.5-21.9c-2.6-2.7-7-4.7-11.4-1.5c-4.4,3.2-4.9,8.1-3.7,11.1
					c1.1,3,12.2,27.9,15.6,30.8c3.3,2.8,7.9,1.8,8.8-3.6C81.3,164.6,76.8,155,76.8,155z"/>
				<path class="st16" d="M110.8,165.5c0,0,2.6,0.2,3.6,0.2c0.9,0,8.1-0.6,9.3-0.6c1.2,0,1.2,1.4,1.2,1.4s1.2,2,1.2,2.8
					s0,1.9,0.3,2.6c0.3,0.8-0.2,1.4-0.5,2c-0.3,0.6-1.1,0.9-1.9,1.4s-1.7,0.5-2.3,0.2c-0.6-0.3-0.6-0.5,0.2-0.9
					c0.8-0.5,1.4-1.1,1.4-1.1s-0.9,0.9-2.3,1.1c-1.4,0.2-3.6,0.2-4.8-0.5c-1.2-0.6-3.4-1.7-3.4-1.7l-2.5-0.3L110.8,165.5z"/>
				<path class="st11" d="M71.1,170.9c0,0,1.9,6.4,10,6.1c8.1-0.2,28.1-4,30.2-4.1c0,0,3.1-4,0.5-8.5c0,0-12.8,0.1-18.9-0.4
					C86.7,163.6,67.8,160.1,71.1,170.9z"/>
			</g>
		</g>
	</g>
</g>
<g id="DESIGNED_BY_FREEPIK" class="st0">
	<g class="st1">
		<g id="XMLID_319_">
			<g id="XMLID_338_">
				<path id="XMLID_346_" class="st63" d="M216.6,418.3c-0.5,0.5-0.9,1.1-1.3,1.6l-0.5-0.3c-0.1-0.3-0.4-0.6-0.7-0.5
					c-0.4,0-0.6,0.4-0.6,0.8c0,0.4,0.4,0.6,0.8,0.6c0.1,0,0.1,0,0.2-0.1l0.5,0.3c-0.3,0.6-0.5,1.3-0.6,2l0.8,0.1
					c0.3-1.5,1-2.8,2-3.9L216.6,418.3z"/>
				<path id="XMLID_345_" class="st63" d="M222.9,415.6c-0.2,0-0.4,0-0.6,0l-0.1-0.7c0.2-0.2,0.3-0.4,0.3-0.7
					c-0.1-0.4-0.5-0.8-0.9-0.7c-0.4,0.1-0.8,0.5-0.7,0.9c0,0.3,0.2,0.5,0.5,0.6l0.1,0.7c-0.8,0.1-1.6,0.4-2.3,0.7l0.4,0.8
					c1.1-0.5,2.2-0.8,3.4-0.8c0.6,0,1.1,0.1,1.7,0.2l0.2-0.8C224.1,415.7,223.5,415.6,222.9,415.6z"/>
				<path id="XMLID_344_" class="st63" d="M230.3,418.5c0.4,0,0.6-0.4,0.6-0.8c0-0.4-0.4-0.6-0.8-0.6c-0.4,0-0.6,0.3-0.6,0.7
					l-0.5,0.4c-0.5-0.5-1-0.9-1.6-1.3l-0.5,0.7c1.3,0.8,2.3,2,2.9,3.3l0.8-0.4c-0.3-0.6-0.6-1.2-1.1-1.7l0.5-0.4
					C230.2,418.5,230.3,418.5,230.3,418.5z"/>
				<path id="XMLID_343_" class="st63" d="M222.2,427.2c-0.4,0-0.9,0-1.3,0c-1,0-2-0.1-2.8-0.2c-0.4-0.1-1-0.2-1.4-0.3
					c1.2,2.1,3.5,3.5,6.1,3.5c3.2,0,6-2.2,6.7-5.1c-0.8,0.5-1.7,0.9-2.8,1.3C225.4,426.8,223.8,427.1,222.2,427.2z"/>
				<path id="XMLID_339_" class="st63" d="M222.9,417.4c-3.8,0-6.9,3-6.9,6.7c0,0.5,0.1,1,0.2,1.4c0.8,0.5,3.1,1,6.1,0.8
					c3.3-0.2,6-1.1,7.6-2.4c0-0.2,0-0.4-0.1-0.7C229.3,419.9,226.3,417.4,222.9,417.4z M220.4,424.7c-1.2,0-2.1-0.9-2.1-2.1
					c0-1.2,0.9-2.1,2.1-2.1c1.2,0,2.1,0.9,2.1,2.1C222.5,423.8,221.6,424.7,220.4,424.7z M225.8,423.7c-0.8,0-1.5-0.7-1.5-1.5
					c0-0.8,0.7-1.5,1.5-1.5c0.8,0,1.5,0.7,1.5,1.5C227.3,423,226.6,423.7,225.8,423.7z"/>
			</g>
			<path id="XMLID_336_" class="st63" d="M241,419.5c-0.3-0.1-0.9-0.3-1.6-0.3c-0.6,0.1-1,0.4-1,1.1v1h2.5v1.9h-2.5v6.2h-2.2v-6.2
				h-1.5v-1.9h1.5v-1c0-1.9,1-3.2,2.9-3.2c0.7,0,1.3,0.1,1.8,0.3L241,419.5z"/>
			<path id="XMLID_334_" class="st63" d="M246.3,423.3c-0.2,0-0.4-0.1-0.6-0.1c-1,0-1.7,0.6-1.7,1.8v4.4h-2.2v-8.1h2.1v0.9
				c0.5-0.8,1.3-1.1,2.3-1.1c0.5,0,1,0.1,1.2,0.4L246.3,423.3z"/>
			<path id="XMLID_331_" class="st63" d="M255,425.4c0,0.3,0,0.6,0,0.7h-5.8c0.2,1.2,1.1,1.7,2.1,1.7c0.7,0,1.5-0.3,2.1-0.8l1.3,1.4
				c-0.9,0.8-2.1,1.2-3.5,1.2c-2.5,0-4.2-1.7-4.2-4.2c0-2.6,1.7-4.3,4.1-4.3C253.4,421.1,255,422.8,255,425.4z M249.2,424.6h3.6
				c-0.2-1-0.8-1.6-1.8-1.6C250,423,249.4,423.6,249.2,424.6z"/>
			<path id="XMLID_328_" class="st63" d="M263.7,425.4c0,0.3,0,0.6,0,0.7h-5.8c0.2,1.2,1.1,1.7,2.1,1.7c0.7,0,1.5-0.3,2.1-0.8
				l1.3,1.4c-0.9,0.8-2.1,1.2-3.5,1.2c-2.5,0-4.2-1.7-4.2-4.2c0-2.6,1.7-4.3,4.1-4.3C262,421.1,263.6,422.8,263.7,425.4z
				 M257.9,424.6h3.6c-0.2-1-0.8-1.6-1.8-1.6C258.7,423,258.1,423.6,257.9,424.6z"/>
			<path id="XMLID_325_" class="st63" d="M273.1,425.4c0,2.4-1.7,4.3-3.9,4.3c-1.1,0-1.9-0.4-2.4-1.1v4.2h-2.2v-11.5h2.1v0.9
				c0.5-0.7,1.3-1.1,2.4-1.1C271.4,421.1,273.1,422.9,273.1,425.4z M266.7,425.4c0,1.3,0.8,2.2,2.1,2.2c1.3,0,2.1-1,2.1-2.2
				c0-1.2-0.8-2.2-2.1-2.2C267.5,423.1,266.7,424.1,266.7,425.4z"/>
			<path id="XMLID_322_" class="st63" d="M276.6,418.7c0,0.8-0.6,1.4-1.4,1.4c-0.8,0-1.4-0.6-1.4-1.4c0-0.8,0.6-1.4,1.4-1.4
				C276,417.3,276.6,417.9,276.6,418.7z M276.3,429.5h-2.2v-8.1h2.2V429.5z"/>
			<path id="XMLID_320_" class="st63" d="M280,424.2l3.1-2.9h2.7l-3.9,3.8l4,4.3h-2.7l-3.1-3.3v3.3h-2.2v-12.1h2.2V424.2z"/>
		</g>
		<g>
			<path class="st63" d="M130.9,429.4v-1.2c-0.6,0.8-1.6,1.4-2.7,1.4c-2.1,0-3.6-1.6-3.6-4.2c0-2.6,1.5-4.2,3.6-4.2
				c1.1,0,2.1,0.5,2.7,1.4v-4.3h1.2v11.1H130.9z M130.9,427.2v-3.6c-0.4-0.7-1.4-1.3-2.4-1.3c-1.6,0-2.6,1.3-2.6,3.1
				c0,1.8,1,3.1,2.6,3.1C129.5,428.5,130.5,427.9,130.9,427.2z"/>
			<path class="st63" d="M133.8,425.4c0-2.3,1.7-4.2,3.9-4.2c2.4,0,3.8,1.9,3.8,4.3v0.3h-6.5c0.1,1.5,1.2,2.8,2.9,2.8
				c0.9,0,1.8-0.4,2.5-1l0.6,0.8c-0.8,0.8-1.9,1.2-3.2,1.2C135.5,429.6,133.8,427.9,133.8,425.4z M137.7,422.2
				c-1.7,0-2.6,1.4-2.6,2.7h5.3C140.3,423.7,139.5,422.2,137.7,422.2z"/>
			<path class="st63" d="M142.5,428.3l0.6-0.9c0.5,0.6,1.5,1.1,2.6,1.1c1.2,0,1.9-0.6,1.9-1.4c0-1.9-5-0.7-5-3.7
				c0-1.2,1.1-2.3,3-2.3c1.4,0,2.3,0.5,3,1.2l-0.6,0.9c-0.5-0.6-1.4-1-2.4-1c-1.1,0-1.8,0.5-1.8,1.3c0,1.8,5,0.6,5,3.7
				c0,1.3-1.1,2.4-3.2,2.4C144.4,429.6,143.3,429.2,142.5,428.3z"/>
			<path class="st63" d="M150.3,419.4c0-0.5,0.4-0.8,0.8-0.8c0.5,0,0.8,0.4,0.8,0.8c0,0.5-0.4,0.8-0.8,0.8
				C150.6,420.2,150.3,419.9,150.3,419.4z M150.5,429.4v-8h1.2v8H150.5z"/>
			<path class="st63" d="M153.8,431.4l0.6-0.9c0.7,0.8,1.5,1.1,2.6,1.1c1.3,0,2.6-0.6,2.6-2.4v-1.1c-0.6,0.8-1.6,1.4-2.7,1.4
				c-2.1,0-3.6-1.6-3.6-4.1c0-2.6,1.5-4.2,3.6-4.2c1.1,0,2,0.5,2.7,1.4v-1.2h1.2v7.8c0,2.7-1.9,3.5-3.8,3.5
				C155.6,432.6,154.7,432.4,153.8,431.4z M159.6,427.1v-3.5c-0.4-0.7-1.4-1.3-2.4-1.3c-1.6,0-2.6,1.3-2.6,3.1c0,1.8,1,3.1,2.6,3.1
				C158.2,428.4,159.1,427.8,159.6,427.1z"/>
			<path class="st63" d="M168.3,429.4v-5.2c0-1.4-0.7-1.9-1.8-1.9c-1,0-1.9,0.6-2.4,1.2v5.9h-1.2v-8h1.2v1.2
				c0.6-0.7,1.7-1.4,2.9-1.4c1.7,0,2.6,0.8,2.6,2.6v5.6H168.3z"/>
			<path class="st63" d="M171.2,425.4c0-2.3,1.7-4.2,3.9-4.2c2.4,0,3.8,1.9,3.8,4.3v0.3h-6.5c0.1,1.5,1.2,2.8,2.9,2.8
				c0.9,0,1.8-0.4,2.5-1l0.6,0.8c-0.8,0.8-1.9,1.2-3.2,1.2C172.9,429.6,171.2,427.9,171.2,425.4z M175.1,422.2
				c-1.7,0-2.6,1.4-2.6,2.7h5.3C177.7,423.7,176.9,422.2,175.1,422.2z"/>
			<path class="st63" d="M186.4,429.4v-1.2c-0.6,0.8-1.6,1.4-2.7,1.4c-2.1,0-3.6-1.6-3.6-4.2c0-2.6,1.5-4.2,3.6-4.2
				c1.1,0,2.1,0.5,2.7,1.4v-4.3h1.2v11.1H186.4z M186.4,427.2v-3.6c-0.4-0.7-1.4-1.3-2.4-1.3c-1.6,0-2.6,1.3-2.6,3.1
				c0,1.8,1,3.1,2.6,3.1C184.9,428.5,185.9,427.9,186.4,427.2z"/>
			<path class="st63" d="M193.5,429.4v-11.1h1.2v4.3c0.6-0.9,1.6-1.4,2.7-1.4c2.1,0,3.6,1.7,3.6,4.2c0,2.6-1.5,4.2-3.6,4.2
				c-1.1,0-2.1-0.6-2.7-1.4v1.2H193.5z M197.2,428.5c1.6,0,2.6-1.3,2.6-3.1c0-1.8-1-3.1-2.6-3.1c-1,0-2,0.6-2.4,1.3v3.6
				C195.2,427.9,196.2,428.5,197.2,428.5z"/>
			<path class="st63" d="M202.4,431.4c0.2,0.1,0.5,0.1,0.7,0.1c0.5,0,0.9-0.2,1.2-0.8l0.5-1.2l-3.4-8.1h1.3l2.7,6.6l2.7-6.6h1.4
				l-4,9.6c-0.5,1.2-1.3,1.6-2.4,1.6c-0.3,0-0.7,0-0.9-0.1L202.4,431.4z"/>
		</g>
	</g>
</g>
</svg>
