<?xml version="1.0" encoding="iso-8859-1"?>
<!-- Generator: Adobe Illustrator 19.0.0, SVG Export Plug-In . SVG Version: 6.00 Build 0)  -->
<svg version="1.1" id="Layer_1" xmlns="http://www.w3.org/2000/svg" xmlns:xlink="http://www.w3.org/1999/xlink" x="0px" y="0px"
	 viewBox="0 0 512 512" style="enable-background:new 0 0 512 512;" xml:space="preserve">
<path style="fill:#ACABB1;" d="M511.972,232.131c0.297-11.405-7.048-22.903-22.218-31.662L298.984,90.328
	c-30.908-17.845-81.346-16.884-109.956,2.1l-169.2,112.256c-13.428,8.913-19.91,20.023-19.626,31.07
	c-0.006-0.257-0.03-0.513-0.03-0.77L0,295.419c-0.033,11.969,7.898,23.928,23.621,33.006l160.145,92.46
	c29.892,17.258,77.697,18.173,109.297,2.086l193.253-98.369c16.918-8.611,25.478-20.594,25.513-32.626L512,231.541
	C511.999,231.737,511.977,231.933,511.972,232.131z"/>
<path style="fill:#898890;" d="M512,231.54l-0.171,60.433c-0.034,12.032-8.594,24.016-25.513,32.627l0.171-60.433
	C503.405,255.555,511.966,243.572,512,231.54z"/>
<path style="fill:#ACABB1;" d="M0,295.419l0.171-60.433c-0.033,11.969,7.898,23.928,23.621,33.006l-0.171,60.433
	C7.899,319.346-0.033,307.388,0,295.419z"/>
<polygon style="fill:#C6C5CB;" points="183.938,360.45 183.766,420.883 23.621,328.423 23.793,267.99 "/>
<polygon style="fill:#ACABB1;" points="486.488,264.167 486.316,324.6 293.063,422.969 293.234,362.535 "/>
<path style="fill:#D8D8DA;" d="M293.234,362.535l-0.171,60.433c-31.598,16.087-79.405,15.172-109.296-2.086l0.171-60.433
	C213.83,377.708,261.635,378.623,293.234,362.535z"/>
<path style="fill:#E0E0E2;" d="M489.754,200.469c30.908,17.845,29.414,47.064-3.266,63.698l-193.253,98.369
	c-31.598,16.087-79.405,15.172-109.297-2.086L23.793,267.99c-29.899-17.262-31.627-44.946-3.965-63.306L189.027,92.428
	c28.61-18.984,79.048-19.945,109.957-2.1L489.754,200.469z"/>
<path style="fill:#ACABB1;" d="M240.597,361.666c-18.964,0-37.364-4.344-50.482-11.917L29.97,257.29
	c-10.844-6.261-17.199-14.197-17.435-21.773c-0.22-7.053,4.796-14.347,14.125-20.539l169.198-112.255
	c12.284-8.151,30.429-12.825,49.787-12.825c17.982,0,34.73,3.952,47.161,11.129l190.77,110.142
	c10.397,6.003,16.253,13.526,16.064,20.644c-0.201,7.598-7.037,15.376-18.757,21.341l-193.253,98.37
	C274.781,358.064,258.078,361.666,240.597,361.666z"/>
<path style="fill:#3E3D43;" d="M313.404,83.422l-63.579,36.948c-5.831,3.389-8.735,7.826-8.728,12.268
	c0-0.015-0.003-0.03-0.003-0.045l-0.043,15.108c-0.013,4.487,2.95,8.981,8.879,12.404l88.766,51.25
	c11.778,6.8,30.815,6.804,42.517,0.004l63.58-36.948l0.043-15.108L313.404,83.422z"/>
<path style="fill:#1D1D1F;" d="M241.051,147.703l0.043-15.108c-0.013,4.487,2.95,8.981,8.879,12.404l-0.043,15.108
	C244,156.684,241.038,152.19,241.051,147.703z"/>
<polygon style="fill:#010101;" points="444.834,159.303 444.791,174.412 381.213,211.36 381.256,196.251 "/>
<polygon style="fill:#1D1D1F;" points="338.738,196.247 338.695,211.356 249.929,160.106 249.972,144.998 "/>
<path style="fill:#2E2E30;" d="M381.256,196.251l-0.043,15.108c-11.702,6.8-30.739,6.796-42.517-0.004l0.043-15.108
	C350.516,203.048,369.554,203.052,381.256,196.251z"/>
<path style="fill:#3E3D43;" d="M444.834,159.303l-63.579,36.948c-11.702,6.8-30.739,6.796-42.517-0.004l-88.766-51.25
	c-11.778-6.8-11.848-17.827-0.146-24.628l63.579-36.948L444.834,159.303z"/>
<polygon style="fill:#1D1D1F;" points="328.399,105.807 403.758,149.601 397.038,153.48 359.747,175.007 291.107,135.118 
	284.388,131.213 "/>
<polygon style="fill:#2E2E30;" points="284.432,131.239 291.151,135.144 328.399,113.592 328.399,105.807 "/>
<polygon style="fill:#57565C;" points="291.107,135.118 328.399,113.592 397.038,153.48 359.747,175.007 "/>
<polygon style="fill:#1D1D1F;" points="328.399,105.807 328.399,113.592 397.038,153.48 403.758,149.601 "/>
<g>
	<polyline style="fill:#3E3D43;" points="352.226,137.076 335.605,127.481 332.379,129.355 343.419,135.729 314.202,141.34 
		318.194,143.645 352.226,137.076 	"/>
	<path style="fill:#3E3D43;" d="M346.025,151.63c-0.698-0.402-1.18-0.875-1.422-1.375c-0.29-0.499-0.318-1.042-0.201-1.611
		c0.164-0.569,0.521-1.139,1.069-1.736c0.573-0.583,1.312-1.153,2.267-1.708c0.956-0.556,1.96-1,2.965-1.333
		c1.005-0.305,2.011-0.528,2.994-0.625c1.006-0.084,1.917-0.055,2.806,0.097c0.864,0.139,1.68,0.417,2.378,0.819
		c0.674,0.389,1.108,0.833,1.374,1.347c0.242,0.499,0.318,1.042,0.154,1.611c-0.165,0.569-0.521,1.166-1.069,1.736
		c-0.573,0.583-1.336,1.166-2.292,1.722c-0.956,0.556-1.936,0.985-2.941,1.32c-1.005,0.333-2.011,0.528-2.994,0.625
		c-0.959,0.084-1.918,0.055-2.758-0.097C347.468,152.269,346.699,152.019,346.025,151.63 M362.133,142.27
		c-1.179-0.68-2.523-1.153-4.012-1.458c-1.512-0.292-3.047-0.402-4.629-0.32c-1.582,0.084-3.163,0.333-4.767,0.791
		c-1.604,0.43-3.087,1.069-4.496,1.888c-1.386,0.806-2.484,1.667-3.245,2.611c-0.762,0.916-1.212,1.847-1.351,2.764
		c-0.139,0.916,0.057,1.806,0.59,2.667c0.532,0.861,1.376,1.625,2.554,2.305c1.179,0.68,2.5,1.167,3.964,1.459
		c1.488,0.305,3.023,0.417,4.605,0.333c1.606-0.069,3.211-0.333,4.791-0.777c1.628-0.444,3.111-1.084,4.496-1.889
		c1.41-0.819,2.508-1.68,3.247-2.61c0.786-0.93,1.212-1.847,1.327-2.777c0.139-0.916-0.057-1.806-0.566-2.68
		C364.131,143.728,363.311,142.951,362.133,142.27"/>
</g>
<g>
</g>
<g>
</g>
<g>
</g>
<g>
</g>
<g>
</g>
<g>
</g>
<g>
</g>
<g>
</g>
<g>
</g>
<g>
</g>
<g>
</g>
<g>
</g>
<g>
</g>
<g>
</g>
<g>
</g>
</svg>
