<?xml version="1.0" encoding="iso-8859-1"?>
<!-- Generator: Adobe Illustrator 19.0.0, SVG Export Plug-In . SVG Version: 6.00 Build 0)  -->
<svg version="1.1" id="Layer_1" xmlns="http://www.w3.org/2000/svg" xmlns:xlink="http://www.w3.org/1999/xlink" x="0px" y="0px"
	 viewBox="0 0 512 512" style="enable-background:new 0 0 512 512;" xml:space="preserve">
<path style="fill:#E0E0E2;" d="M507.293,229.527L301.041,110.447c-6.244-3.605-16.337-3.609-22.546,0L4.634,269.414
	c-6.21,3.609-6.171,9.454,0.073,13.059l82.125,47.415c4.14,2.39,3.292,8.592-1.336,9.79c-3.389,0.878-6.562,2.123-9.338,3.737
	c-12.178,7.077-12.114,18.56,0.15,25.64c12.264,7.08,32.087,7.08,44.265,0.003c4.086-2.375,6.793-5.244,8.126-8.275
	c1.264-2.875,4.792-3.955,7.513-2.385l74.747,43.155c6.244,3.605,16.336,3.609,22.546,0l273.86-158.967
	C513.576,238.978,513.537,233.132,507.293,229.527z M111.018,363.542c-6.935,4.031-18.226,4.031-25.214-0.003
	c-6.987-4.034-7.024-10.575-0.089-14.604c6.941-4.034,18.233-4.034,25.22,0C117.923,352.967,117.96,359.508,111.018,363.542z"/>
<path style="fill:#FF3E61;" d="M129.716,310.283c52.712,30.433,95.423,62.595,95.397,71.835
	c-0.026,9.232-42.779-7.948-95.492-38.381c-52.706-30.43-95.417-62.592-95.39-71.824C34.256,262.674,77.009,279.853,129.716,310.283
	z"/>
<path style="fill:#A50020;" d="M364.43,171.855l42.214-24.6c1.349-0.784,3.217-0.673,5.279,0.517l-42.214,24.6
	C367.646,171.181,365.779,171.07,364.43,171.855z"/>
<path style="fill:#C60024;" d="M411.922,147.772c-2.062-1.191-3.93-1.302-5.279-0.517l-42.214,24.6
	c0.004-0.002,0.009-0.004,0.014-0.006c-1.339,0.771-2.17,2.419-2.177,4.765c-0.014,4.709,3.296,10.447,7.395,12.813
	c2.192,1.265,4.159,1.3,5.523,0.348c-0.08,0.056-0.157,0.119-0.242,0.168l42.214-24.6c1.333-0.774,2.159-2.421,2.166-4.76
	C419.335,155.873,416.021,150.138,411.922,147.772z"/>
<g>
	<path style="fill:#A50020;" d="M417.155,165.342l-42.214,24.6c1.333-0.774,2.159-2.421,2.166-4.76
		c0.014-4.709-3.301-10.444-7.399-12.811l42.214-24.6c4.098,2.366,7.412,8.101,7.399,12.811
		C419.315,162.921,418.488,164.568,417.155,165.342z"/>
	<path style="fill:#A50020;" d="M369.709,172.372c4.098,2.366,7.412,8.101,7.399,12.811c-0.014,4.709-3.349,6.61-7.448,4.244
		c-4.098-2.366-7.408-8.104-7.395-12.813C362.28,171.904,365.611,170.006,369.709,172.372z"/>
	<path style="fill:#A50020;" d="M224.065,383.99c-0.013,0.007-0.021,0.018-0.033,0.025L465.136,243.65
		c0.709-0.413,1.079-1.041,1.081-1.896c0-0.153-0.013-0.312-0.036-0.477c-0.007-0.052-0.021-0.109-0.031-0.163
		c-0.021-0.115-0.042-0.231-0.073-0.351c-0.017-0.067-0.041-0.136-0.061-0.205c-0.034-0.114-0.069-0.23-0.113-0.349
		c-0.026-0.073-0.057-0.148-0.087-0.223c-0.048-0.121-0.099-0.244-0.156-0.37c-0.034-0.076-0.071-0.153-0.109-0.23
		c-0.064-0.132-0.132-0.266-0.205-0.402c-0.041-0.076-0.083-0.154-0.126-0.231c-0.081-0.146-0.169-0.295-0.26-0.446
		c-0.044-0.072-0.087-0.145-0.134-0.218c-0.106-0.168-0.218-0.341-0.335-0.516c-0.041-0.061-0.078-0.119-0.12-0.181
		c-0.144-0.211-0.298-0.426-0.459-0.645c-0.021-0.028-0.039-0.055-0.061-0.084c-0.766-1.035-1.713-2.164-2.828-3.376
		c-0.008-0.009-0.018-0.019-0.026-0.028c-0.266-0.289-0.543-0.583-0.828-0.882c-0.025-0.026-0.05-0.052-0.075-0.078
		c-0.276-0.287-0.56-0.58-0.854-0.875c-0.026-0.027-0.053-0.054-0.08-0.08c-0.3-0.302-0.608-0.608-0.925-0.917
		c-0.019-0.019-0.039-0.038-0.057-0.056c-0.333-0.326-0.676-0.656-1.029-0.991c-0.002-0.002-0.004-0.004-0.006-0.006l0,0
		c-15.259-14.492-48.17-37.423-86.325-59.454c-47.821-27.609-87.447-44.311-94.402-40.269L35.314,270.014
		c0.003-0.001,0.006-0.002,0.009-0.004c-0.716,0.413-1.09,1.044-1.092,1.902"/>
	<path style="fill:#A50020;" d="M34.23,271.913c0.026-9.24,42.779,7.941,95.486,38.371c52.712,30.433,95.423,62.595,95.397,71.835
		L34.23,271.913z"/>
</g>
<path style="fill:#C60024;" d="M370.82,169.919C323,142.31,283.373,125.608,276.418,129.65L35.314,270.014
	c6.955-4.042,46.582,12.66,94.402,40.269c52.712,30.433,95.423,62.595,95.397,71.835c-0.002,0.855-0.372,1.484-1.081,1.896
	l241.105-140.365c0.709-0.413,1.079-1.041,1.081-1.896C466.243,232.514,423.532,200.352,370.82,169.919z"/>
<path style="fill:#FF3E61;" d="M224.031,384.014l241.105-140.365c0.709-0.413,1.079-1.041,1.081-1.896
	c0.007-2.551-3.25-6.853-9.071-12.382L216.105,369.797c5.782,5.499,9.015,9.779,9.008,12.322
	C225.109,382.974,224.74,383.603,224.031,384.014z"/>
<path style="fill:#D8D8DA;" d="M341.604,189.213c-26.614-15.691-52.173-28.018-70.119-33.827L98.518,254.473l0.14,0.862
	c17.903,5.798,43.407,18.099,69.97,33.761c25.062,14.777,48.669,31.055,66.464,45.834l172.967-99.086l0.146-0.694
	C390.366,220.331,366.709,204.015,341.604,189.213z"/>
<polygon style="fill:#C6C5CB;" points="235.237,334.236 408.204,235.15 408.059,235.844 235.092,334.93 "/>
<path style="fill:#E0E0E2;" d="M341.604,189.214c-26.614-15.691-52.173-28.018-70.119-33.827L98.518,254.473
	c17.945,5.81,43.506,18.137,70.119,33.827c25.106,14.802,48.762,31.117,66.6,45.936l172.967-99.086
	C390.366,220.331,366.71,204.016,341.604,189.214z"/>
<path style="fill:#D8D8DA;" d="M168.637,288.3c25.106,14.802,48.762,31.117,66.6,45.936l-0.146,0.694
	c-17.795-14.779-41.402-31.058-66.464-45.835c-26.563-15.662-52.067-27.963-69.97-33.761l-0.14-0.862
	C116.464,260.281,142.024,272.609,168.637,288.3z"/>
<g style="enable-background:new    ;">
	<path style="fill:#3E3D43;" d="M167.353,249.41l7.151-3.507c17.563,6.895,42.313,20.768,67.915,38.061l-7.151,3.507
		C209.666,270.178,184.916,256.304,167.353,249.41z"/>
</g>
<g style="enable-background:new    ;">
	<path style="fill:#3E3D43;" d="M192.053,236.227l7.151-3.507c17.556,6.898,42.313,20.768,67.915,38.061l-7.151,3.507
		C234.366,256.996,209.609,243.126,192.053,236.227z"/>
	<path style="fill:#3E3D43;" d="M215.937,222.995l7.151-3.507c17.556,6.898,42.313,20.768,67.915,38.061l-7.151,3.507
		C258.249,243.763,233.493,229.893,215.937,222.995z"/>
</g>
<polygon style="fill:#A50020;" points="296.387,223.354 313.217,233.342 330.988,223.397 330.988,215.966 320.532,209.76 
	331.266,203.733 331.335,196.302 313.867,185.935 296.748,195.513 279.946,185.477 262.12,195.518 262.051,202.949 272.49,209.145 
	261.772,215.183 261.772,222.614 279.24,232.981 "/>
<polygon style="fill:#C60024;" points="278.95,205.506 278.881,212.937 262.051,202.949 262.12,195.518 "/>
<polygon style="fill:#A50020;" points="331.335,196.302 331.266,203.733 314.118,213.361 314.158,205.977 "/>
<polygon style="fill:#C60024;" points="279.24,225.55 279.24,232.981 261.772,222.614 261.772,215.183 "/>
<polygon style="fill:#A50020;" points="296.387,215.923 296.387,223.354 279.24,232.981 279.24,225.55 "/>
<polygon style="fill:#C60024;" points="313.217,225.911 313.217,233.342 296.387,223.354 296.387,215.923 "/>
<polygon style="fill:#A50020;" points="330.988,215.966 330.988,223.397 313.217,233.342 313.217,225.911 "/>
<polygon style="fill:#FE0B37;" points="313.217,225.911 296.387,215.923 279.24,225.55 261.772,215.183 278.95,205.506 
	262.12,195.518 279.946,185.477 296.748,195.513 313.867,185.935 331.335,196.302 314.158,205.977 330.988,215.966 "/>
<g>
</g>
<g>
</g>
<g>
</g>
<g>
</g>
<g>
</g>
<g>
</g>
<g>
</g>
<g>
</g>
<g>
</g>
<g>
</g>
<g>
</g>
<g>
</g>
<g>
</g>
<g>
</g>
<g>
</g>
</svg>
