<?xml version="1.0" encoding="iso-8859-1"?>
<!-- Generator: Adobe Illustrator 19.0.0, SVG Export Plug-In . SVG Version: 6.00 Build 0)  -->
<svg version="1.1" id="Layer_1" xmlns="http://www.w3.org/2000/svg" xmlns:xlink="http://www.w3.org/1999/xlink" x="0px" y="0px"
	 viewBox="0 0 512.002 512.002" style="enable-background:new 0 0 512.002 512.002;" xml:space="preserve">
<g style="enable-background:new    ;">
	<path style="fill:#2E2E30;" d="M451.351,120.043c0.009,3.161,1.124,5.384,2.925,6.43l17.396,10.108
		c-0.052-0.03-0.102-0.066-0.154-0.098c1.834,1.161,4.421,1.054,7.287-0.601c5.536-3.196,10.01-10.945,9.992-17.308
		c-0.009-3.171-1.133-5.398-2.942-6.44c0.006,0.003,0.011,0.006,0.018,0.009l-17.397-10.108c-1.822-1.06-4.347-0.91-7.132,0.698
		C455.807,105.932,451.333,113.68,451.351,120.043z"/>
	<path style="fill:#57565C;" d="M485.872,112.146l-17.396-10.108c-1.822-1.06-4.347-0.91-7.132,0.698l17.397,10.108
		C481.526,111.235,484.05,111.086,485.872,112.146z"/>
	<path style="fill:#3E3D43;" d="M454.276,126.473l17.396,10.108c-1.799-1.046-2.915-3.269-2.925-6.43
		c-0.018-6.362,4.455-14.111,9.992-17.308l-17.397-10.108c-5.537,3.196-10.01,10.945-9.992,17.308
		C451.36,123.204,452.475,125.427,454.276,126.473z"/>
	<path style="fill:#2E2E30;" d="M478.74,112.844c-5.537,3.196-10.01,10.945-9.992,17.308c0.018,6.362,4.521,8.929,10.058,5.731
		c5.536-3.196,10.01-10.945,9.992-17.308C488.779,112.213,484.277,109.647,478.74,112.844z"/>
</g>
<path style="fill:#D8D8DA;" d="M508,134.944c-0.497-0.744-1.939-2.725-4.572-5.05c-1.047-0.924-2.568-2.006-3.707-2.814
	c-0.602-0.426-1.463-0.904-2.09-1.291c-0.316-0.182-0.681-0.259-1.069-0.275c0.387,0.015,0.751,0.091,1.068,0.274
	c-4.537-2.615-9.091-5.247-13.629-7.864c-0.711-0.452-1.631-0.581-2.648-0.323c-0.565,0.13-1.146,0.355-1.76,0.711
	c-0.694,0.403-1.356,0.921-1.97,1.518c-0.016,0-0.016,0-0.016,0c-2.099,2.051-3.681,5.087-4.021,7.88
	c-0.048,0.388-0.08,0.775-0.08,1.146c0,0.097,0,0.193,0.016,0.29c0.065,1.744,0.711,2.972,1.712,3.585
	c0.403,0.242,0.888,0.517,1.276,0.743c0.468,0.275,1.081,0.63,1.551,0.904c0.485,0.275,1.131,0.646,1.631,0.921
	c3.181,1.841,6.362,3.681,9.543,5.522c-0.23-0.134-0.439-0.309-0.623-0.525c0.183,0.213,0.39,0.388,0.619,0.52
	c1.204,0.722,3.217,1.931,4.921,3.961c1.133,1.349,1.498,2.471,1.625,3.202c-0.255,1.373-1.101,2.523-1.5,3
	c-0.777,0.929-1.319,1.433-1.636,1.692c-1.446,1.181-1.446,1.181-3.26,2.306l0,0l-14.622,8.497l-14.622,8.497l-14.622,8.497
	l-14.622,8.497l-14.622,8.497l-14.622,8.497l-14.622,8.497l-14.622,8.497l-14.622,8.497l-14.622,8.497l0,0
	c-4.2,2.405-7.329,3.628-7.673,3.76c-2.326,0.891-5.467,1.975-7.841,2.726c-1.31,0.415-3.095,0.841-4.432,1.159
	c-9.475,2.252-18.544,2.588-23.106,2.587c-5.58,0-14.15-0.456-23.293-2.622c-1.402-0.332-3.272-0.787-4.644-1.225
	c-2.383-0.761-5.53-1.872-7.866-2.766c-1.265-0.484-2.895-1.274-4.113-1.87c-0.999-0.49-2.287-1.226-3.267-1.751l0,0l-3.131-1.807
	l-3.129-1.807l-3.131-1.807l-3.129-1.807l-3.131-1.807l-3.129-1.807l-3.129-1.807l-3.131-1.807l-3.129-1.807l-3.131-1.807l0,0
	c-2.693-1.615-4.261-2.636-6.439-4.411c-3.034-2.473-4.737-4.689-4.753-4.712c-0.537-0.705-1.274-1.635-1.733-2.393
	c-0.466-0.768-1.17-1.93-1.714-3.291c-0.569-1.427-0.792-2.423-0.847-2.695c-0.234-1.157-0.292-1.609-0.331-2.453
	c0.093-1.748,0.424-3.393,1.016-4.884c1.108-2.793,2.203-4.233,3.469-5.901c1.15-1.513,3.327-3.555,3.961-4.076
	c1.3-1.069,3.1-2.413,4.475-3.384c0.75-0.53,1.822-1.13,2.603-1.614l0,0l14.622-8.497l14.622-8.497l14.622-8.497l14.622-8.497
	l14.622-8.497l14.622-8.497l14.622-8.497l14.622-8.497l14.622-8.497l14.622-8.497l0,0c7.491-4.288,16.335-4.927,20.941-4.925
	c4.941,0.002,8.961,0.703,11.464,1.29c2.453,0.577,4.192,1.217,4.209,1.224c2.65,1.011,2.872,1.096,5.342,2.419
	c0.005,0.003,0.009,0.009,0.016,0.014c2.81,1.614,5.619,3.245,8.429,4.86c1.05,0.646,2.503,0.613,4.118-0.242
	c0.097-0.032,0.193-0.097,0.29-0.145c0.307-0.178,0.613-0.372,0.904-0.613c0.936-0.694,1.809-1.614,2.567-2.648
	c1.582-2.18,2.632-4.892,2.615-7.283c0-0.371-0.032-0.727-0.08-1.05c0-0.016,0-0.016,0-0.016c0-0.016,0-0.032,0-0.032
	c-0.226-1.308-0.808-2.26-1.647-2.777c-2.939-1.696-5.878-3.391-8.8-5.087c-0.199-0.115-0.414-0.197-0.642-0.249
	c0.229,0.05,0.445,0.133,0.644,0.248c-10.352-5.896-21.714-7.132-29.422-7.131c-3.086,0.001-9.195,0.229-15.454,1.751
	c-0.95,0.231-2.218,0.535-3.148,0.834c-1.646,0.529-3.82,1.296-5.431,1.921c-1.593,0.618-2.765,1.251-5.333,2.636l0,0l-14.622,8.497
	l-14.622,8.497l-14.622,8.497l-14.622,8.497l-14.622,8.497l-14.622,8.497l-14.622,8.497l-14.622,8.497l-14.622,8.497l-14.622,8.497
	c0.204-0.118,0.425-0.205,0.659-0.256c-0.235,0.051-0.456,0.138-0.659,0.256c-1.623,0.978-3.748,2.348-5.307,3.424
	c-0.959,0.662-2.207,1.597-3.081,2.368c-1.467,1.295-3.425,3.027-4.762,4.455c-1.261,1.348-2.835,3.254-3.878,4.777
	c-2.746,4.008-3.924,6.996-4.714,9.388c-0.742,2.249-1.039,4.099-1.182,4.988c-0.218,1.356-0.298,3.193-0.353,4.566
	c-0.01,3.499,0.703,7,2.14,10.419c-1.436-3.42-2.149-6.92-2.14-10.419l-0.004,1.463c0.032,2.529,0.133,10.222,6.073,18.881
	c3.051,4.448,6.187,7.224,7.87,8.717c1.736,1.537,4.274,3.319,6.168,4.655c1.006,0.709,2.444,1.508,3.491,2.155l0,0l3.129,1.807
	l3.129,1.807l3.131,1.807l3.129,1.807l3.131,1.807l3.129,1.807l3.131,1.807l3.129,1.807l3.131,1.807l3.129,1.807
	c-0.231-0.134-0.44-0.309-0.624-0.525c0.184,0.216,0.393,0.391,0.624,0.525c5.262,2.997,9.208,4.539,9.64,4.705
	c2.831,1.087,6.659,2.396,9.55,3.31c1.561,0.493,3.688,0.993,5.28,1.376c8.019,1.932,17.899,3.04,27.107,3.039
	c9.359-0.001,19.045-1.098,27.272-3.087c12.721-3.076,19.557-6.757,24.2-9.358l0,0l14.622-8.497l14.622-8.497l14.622-8.497
	l14.622-8.497l14.622-8.497l14.622-8.497l14.622-8.497l14.622-8.497l14.622-8.497l14.622-8.497l0,0
	c3.312-1.988,4.298-2.852,6.457-4.743c0.84-0.736,2.704-2.753,3.56-4.033c0.451-0.676,1.079-1.566,1.454-2.288
	c0.61-1.172,1.137-2.186,1.615-3.613c0.292-0.869,0.622-2.052,0.774-2.955c0.25-1.479,0.259-1.721,0.334-3.606l0.004-1.463
	C511.954,140.857,509.183,136.713,508,134.944z M216.606,236.373c0.029,0.034,0.069,0.051,0.099,0.084
	C216.674,236.425,216.636,236.408,216.606,236.373z"/>
<g>
	<path style="fill:#C6C5CB;" d="M412.017,93.638v-0.009c-10.784-6.224-28.251-6.224-38.954-0.004
		c-0.001,0.561-0.085,1.046-0.202,1.493c0.117-0.447,0.201-0.932,0.202-1.493l-146.221,84.974c-0.003,1.126-0.274,2.006-0.708,2.65
		c-0.063,0.092-0.11,0.206-0.179,0.287c-0.034,0.041-0.082,0.062-0.118,0.099c-0.158,0.163-0.32,0.318-0.508,0.427l14.622-8.497
		l14.622-8.497l14.622-8.497l14.622-8.497l14.622-8.497l14.622-8.497l14.622-8.497l14.622-8.497l14.622-8.497l14.622-8.497l0,0
		c7.491-4.288,16.335-4.927,20.941-4.925c4.941,0.002,8.961,0.703,11.464,1.29c2.453,0.577,4.192,1.217,4.209,1.224
		c2.65,1.011,2.872,1.096,5.342,2.419c0.005,0.003,0.009,0.009,0.016,0.014c2.81,1.614,5.619,3.245,8.429,4.86
		c1.05,0.646,2.503,0.613,4.118-0.242l-5.813-3.343L412.017,93.638z M371.905,96.789c0.17-0.15,0.323-0.325,0.459-0.53
		C372.228,96.463,372.076,96.639,371.905,96.789z M412.112,94.714c0.131,0.775,0.397,1.413,0.782,1.867
		C412.508,96.128,412.242,95.493,412.112,94.714z"/>
	<path style="fill:#C6C5CB;" d="M487.732,137.343c-0.001,0.208,0.033,0.383,0.049,0.577c-0.016-0.191-0.05-0.365-0.05-0.571
		l-8.397-4.844l-5.813-3.358c0.065,1.744,0.711,2.972,1.712,3.585c0.403,0.242,0.888,0.517,1.276,0.743
		c0.468,0.275,1.081,0.63,1.551,0.904c0.485,0.275,1.131,0.646,1.631,0.921c3.181,1.841,6.362,3.681,9.543,5.522
		c-0.23-0.134-0.439-0.309-0.623-0.525c0.183,0.213,0.39,0.388,0.619,0.52c1.204,0.722,3.217,1.931,4.921,3.961
		c1.133,1.349,1.498,2.471,1.625,3.202c0.003-0.019,0.009-0.038,0.013-0.057C495.475,144.072,492.811,140.274,487.732,137.343z"/>
</g>
<path style="fill:#D8D8DA;" d="M508,134.944c-0.497-0.744-1.939-2.725-4.572-5.05c-1.047-0.924-2.568-2.006-3.707-2.814
	c-0.602-0.426-1.463-0.904-2.09-1.291c-0.316-0.182-0.681-0.259-1.069-0.275c0.387,0.015,0.751,0.091,1.068,0.274
	c-4.537-2.615-9.091-5.247-13.629-7.864c-0.711-0.452-1.631-0.581-2.648-0.323c-0.565,0.13-1.146,0.355-1.76,0.711
	c-0.694,0.403-1.356,0.921-1.97,1.518c-0.016,0-0.016,0-0.016,0c-2.099,2.051-3.681,5.087-4.021,7.88
	c-0.048,0.388-0.08,0.775-0.08,1.146c0,0.097,0,0.193,0.016,0.29l5.813,3.358l8.397,4.844v-1.469
	c0.005-1.119,0.269-2.305,0.697-3.442c-0.427,1.137-0.689,2.323-0.692,3.443l-0.004,1.463c5.078,2.932,7.743,6.73,8.055,10.577
	c-0.003,0.02-0.009,0.038-0.013,0.057c-0.255,1.373-1.101,2.523-1.5,3c-0.777,0.929-1.319,1.433-1.636,1.692
	c-1.446,1.181-1.446,1.181-3.26,2.306l0,0l-14.622,8.497l-14.622,8.497l-14.622,8.497l-14.622,8.497l-14.622,8.497l-14.622,8.497
	l-14.622,8.497l-14.622,8.497l-14.622,8.497l-14.622,8.497l0,0c-4.2,2.405-7.329,3.628-7.673,3.76
	c-2.326,0.891-5.467,1.975-7.841,2.726c-1.31,0.415-3.095,0.841-4.432,1.159c-9.475,2.252-18.544,2.588-23.106,2.587
	c-5.58,0-14.15-0.456-23.293-2.622c-1.402-0.332-3.272-0.787-4.644-1.225c-2.383-0.761-5.53-1.872-7.866-2.766
	c-1.265-0.484-2.895-1.274-4.113-1.87c-0.999-0.49-2.287-1.226-3.267-1.751l0,0l-3.131-1.807l-3.129-1.807l-3.131-1.807
	l-3.129-1.807l-3.131-1.807l-3.129-1.807l-3.129-1.807l-3.131-1.807l-3.129-1.807l-3.131-1.807l0,0
	c-2.693-1.615-4.261-2.636-6.439-4.411c-3.034-2.473-4.737-4.689-4.753-4.712c-0.537-0.705-1.274-1.635-1.733-2.393
	c-0.466-0.768-1.17-1.93-1.714-3.291c-0.569-1.427-0.792-2.423-0.847-2.695c-0.234-1.157-0.292-1.609-0.331-2.453
	c0.093-1.748,0.424-3.393,1.016-4.884c1.108-2.793,2.203-4.233,3.469-5.901c1.15-1.513,3.327-3.555,3.961-4.076
	c1.3-1.069,3.1-2.413,4.475-3.384c0.75-0.53,1.822-1.13,2.603-1.614l0,0c0.187-0.109,0.35-0.264,0.508-0.427
	c0.037-0.038,0.084-0.059,0.118-0.099c0.07-0.081,0.117-0.195,0.179-0.287c0.434-0.643,0.705-1.523,0.708-2.65l146.221-84.974
	c10.703-6.219,28.169-6.22,38.954,0.004v0.009l8.235,4.747l5.813,3.343c0.097-0.032,0.193-0.097,0.291-0.145
	c0.307-0.178,0.613-0.372,0.904-0.613c0.936-0.694,1.809-1.614,2.567-2.648c0-2.18,0-4.441-0.016-6.2
	c0.004,0.008,0.002,0.027,0.004,0.04c0.001,0.037,0.003,0.062,0.004,0.104c0-0.025,0-0.046,0-0.07
	c0.002,0.026,0.008,0.047,0.008,0.071v6.055c1.582-2.18,2.632-4.892,2.615-7.283c0-0.371-0.032-0.727-0.08-1.05
	c0-0.016,0-0.016,0-0.016c0-0.016,0-0.032,0-0.032c-0.226-1.308-0.808-2.26-1.647-2.777c-2.939-1.696-5.878-3.391-8.8-5.087
	c-0.199-0.115-0.414-0.197-0.642-0.249c0.229,0.05,0.445,0.133,0.644,0.248c-10.352-5.896-21.714-7.132-29.422-7.131
	c-3.086,0.001-9.195,0.229-15.454,1.751c-0.95,0.231-2.218,0.535-3.148,0.834c-1.646,0.529-3.82,1.296-5.431,1.921
	c-1.593,0.618-2.765,1.251-5.333,2.636l0,0l-14.622,8.497l-14.622,8.497l-14.622,8.497l-14.622,8.497l-14.622,8.497l-14.622,8.497
	l-14.622,8.497l-14.622,8.497l-14.622,8.497l-14.622,8.497c0.409-0.237,0.883-0.344,1.404-0.305
	c-0.521-0.039-0.996,0.068-1.404,0.305c-1.623,0.978-3.748,2.348-5.307,3.424c-0.959,0.662-2.207,1.597-3.081,2.368
	c-1.467,1.295-3.425,3.027-4.762,4.455c-1.261,1.348-2.835,3.254-3.878,4.777c-2.746,4.008-3.924,6.996-4.714,9.388
	c-0.742,2.249-1.039,4.099-1.182,4.988c-0.218,1.356-0.298,3.193-0.353,4.566c-0.01,3.499,0.703,7,2.14,10.419
	c1.148,2.736,2.761,5.42,4.834,8.009c-2.074-2.59-3.685-5.274-4.834-8.009c-1.436-3.42-2.149-6.92-2.14-10.419l-0.004,1.463
	c0.032,2.529,0.133,10.222,6.073,18.881c3.051,4.448,6.187,7.224,7.87,8.717c1.736,1.537,4.274,3.319,6.168,4.655
	c1.006,0.709,2.444,1.509,3.492,2.155c-0.462-0.266-0.837-0.703-1.096-1.288c0.259,0.586,0.634,1.022,1.096,1.288l3.129,1.807
	l3.129,1.807l3.131,1.807l3.129,1.807l3.131,1.807l3.129,1.807l3.131,1.807l3.129,1.807l3.131,1.807l3.129,1.807
	c-0.231-0.134-0.44-0.309-0.624-0.525c-0.368-0.432-0.634-1.022-0.77-1.752c0.136,0.73,0.402,1.321,0.77,1.752
	c0.184,0.216,0.393,0.391,0.624,0.525c5.262,2.997,9.208,4.539,9.64,4.705c2.831,1.087,6.659,2.396,9.55,3.31
	c1.561,0.493,3.689,0.993,5.28,1.376c8.019,1.932,17.899,3.04,27.107,3.039c9.359-0.001,19.045-1.098,27.272-3.087
	c12.721-3.076,19.557-6.757,24.2-9.358l0,0l14.622-8.497l14.622-8.497l14.622-8.497l14.622-8.497l14.622-8.497l14.622-8.497
	l14.622-8.497l14.622-8.497l14.622-8.497l14.622-8.497l0,0c3.312-1.988,4.298-2.852,6.457-4.743c0.84-0.736,2.704-2.753,3.56-4.033
	c0.451-0.676,1.079-1.566,1.454-2.288c0.61-1.172,1.137-2.186,1.615-3.613c0.292-0.869,0.622-2.052,0.774-2.955
	c0.25-1.479,0.259-1.721,0.334-3.606l0.004-1.463C511.954,140.857,509.183,136.713,508,134.944z M490.781,154.671
	c-0.425-0.031-0.81,0.057-1.163,0.212C489.972,154.728,490.355,154.639,490.781,154.671z M345.373,239.813
	c-0.671-0.224-1.28-0.206-1.814-0.019C344.093,239.607,344.703,239.59,345.373,239.813z M256.676,239.853
	c-0.346-0.148-0.721-0.234-1.138-0.201C255.955,239.62,256.33,239.705,256.676,239.853z M225.332,221.766
	c-0.334-0.135-0.695-0.215-1.093-0.184C224.637,221.551,224.998,221.63,225.332,221.766z M209.772,201.075
	c0.004-1.626,0.208-3.253,0.611-4.864C209.98,197.822,209.776,199.448,209.772,201.075L209.772,201.075z M212.19,191.429
	c-0.534,1.047-0.98,2.107-1.336,3.173C211.21,193.536,211.655,192.476,212.19,191.429c0.801-1.57,1.801-3.114,3.002-4.616
	C213.991,188.315,212.99,189.859,212.19,191.429z M364.532,81.78c-0.018-0.001-0.032,0.004-0.049,0.003
	C364.499,81.785,364.514,81.779,364.532,81.78z M219.991,167.319l146.221-84.974c14.456-8.407,38.115-8.407,52.666,0
	c0.24-0.14,0.473-0.236,0.703-0.324c-0.228,0.089-0.459,0.187-0.696,0.328c2.95,1.702,5.897,3.404,8.283,4.783h0.01l0.015,0.015
	c0.508,0.294,0.983,0.567,1.435,0.828c1.67,0.956,2.925,1.677,3.46,1.983c-0.005,0.001-0.01,0.005-0.015,0.006
	c0.007,0.005,0.02,0.011,0.027,0.016c0.032-0.019,0.047-0.027,0.063-0.037c0.037-0.021,0.038-0.022,0,0
	c-0.235,0.137-1.812,1.053-2.3,1.336c-0.015,0.008-0.037,0.024-0.049,0.032c0-0.001,0-0.003,0-0.004
	c-0.033,0.019-0.047,0.027-0.063,0.037c-0.037,0.021-0.038,0.022,0,0c0.014-0.008,0.028-0.017,0.051-0.03h-0.008
	c-0.678-0.403-2.47-1.437-4.828-2.793c-2.405-1.405-5.393-3.116-8.38-4.844c0.002-0.001,0.003-0.002,0.005-0.003
	c-13.325-7.688-34.861-7.688-48.09-0.005l-146.221,84.974c-25.388,14.759-25.252,38.745,0.301,53.504l31.3,18.07
	c25.564,14.754,66.962,14.747,92.36-0.006l146.221-84.974c13.219-7.688,13.149-20.162-0.157-27.85
	c-0.941,0.548-1.818,1.424-2.545,2.475c0.728-1.053,1.603-1.93,2.541-2.474c-2.265-1.312-4.524-2.607-6.526-3.772
	c-2.58-1.49-4.741-2.737-5.949-3.435c-0.303-0.172-0.56-0.319-0.734-0.415c0.002-0.001,0.005-0.002,0.008-0.003
	c-0.008-0.005-0.02-0.011-0.028-0.016c-0.612,0.356,1.764-1.025,2.285-1.328l0,0c0.143-0.084,0.122-0.071,0,0
	c0.372,0.215,1.097,0.633,2.064,1.191c0.652,0.374,1.412,0.811,2.259,1.303c0.184,0.108,0.396,0.23,0.59,0.343
	c1.293,0.746,2.752,1.588,4.286,2.474c0.243,0.136,0.488,0.272,0.726,0.412l2.075,1.206c0.41,0.236,0.82,0.473,1.232,0.711
	c14.56,8.4,14.629,22.099,0.161,30.5l-146.222,84.974c-26.624,15.478-70.137,15.478-96.924,0.006l-31.3-18.07
	C193.498,207.995,193.356,182.791,219.991,167.319z M498.032,169.783c0.781-0.6,1.278-1.712,1.282-3.268
	C499.309,168.072,498.811,169.183,498.032,169.783z"/>
<g>
	<path style="fill:#E0E0E2;" d="M220.306,223.467l31.3,18.07c26.787,15.472,70.3,15.472,96.924-0.006l146.222-84.974
		c14.467-8.402,14.399-22.1-0.161-30.5c-0.411-0.237-0.822-0.474-1.232-0.711c-0.949-0.548-1.888-1.09-2.802-1.618
		c-1.534-0.886-2.995-1.728-4.286-2.474c-1.089-0.628-2.05-1.184-2.849-1.646c-0.967-0.558-1.692-0.977-2.064-1.191
		c-0.521,0.303-2.898,1.684-2.285,1.328c0.007,0.004,0.02,0.011,0.028,0.016c0.174,0.101,0.419,0.241,0.725,0.419
		c1.208,0.697,3.369,1.945,5.949,3.435c2.008,1.16,4.268,2.465,6.531,3.771c13.306,7.688,13.376,20.161,0.157,27.85L346.241,240.21
		c-25.396,14.753-66.795,14.76-92.36,0.006l-31.3-18.07c-25.553-14.759-25.689-38.745-0.301-53.504l146.221-84.974
		c13.229-7.682,34.766-7.682,48.09,0.005c5.935,3.426,11.869,6.852,13.222,7.634c0.014-0.007,0.033-0.02,0.049-0.028
		c0.488-0.283,2.064-1.2,2.3-1.336c-0.017,0.009-0.03,0.018-0.063,0.037c-0.007-0.004-0.02-0.011-0.027-0.016
		c-0.546-0.316-1.787-1.031-3.445-1.989c-0.451-0.26-0.927-0.535-1.435-0.828c-0.008-0.005-0.017-0.009-0.025-0.015
		c-2.387-1.377-5.334-3.079-8.283-4.783c-0.002-0.002-0.005-0.003-0.007-0.004c-14.55-8.406-38.21-8.406-52.666,0l-146.221,84.974
		C193.356,182.791,193.498,207.995,220.306,223.467z"/>
	<path style="fill:#E0E0E2;" d="M429.803,91.312c-0.023,0.014-0.038,0.022-0.051,0.03c0.017-0.009,0.03-0.018,0.063-0.037l0,0
		C429.811,91.308,429.807,91.31,429.803,91.312z"/>
	<path style="fill:#E0E0E2;" d="M432.164,89.941C432.201,89.92,432.2,89.921,432.164,89.941L432.164,89.941z"/>
	<path style="fill:#E0E0E2;" d="M429.752,91.343C429.714,91.365,429.715,91.364,429.752,91.343L429.752,91.343z"/>
	<path style="fill:#E0E0E2;" d="M481.357,118.417L481.357,118.417C481.48,118.346,481.502,118.333,481.357,118.417z"/>
</g>
<path style="fill:#ACABB1;" d="M426.358,101.577c3.371-1.947,6.095-6.662,6.083-10.538c-0.01-3.873-2.752-5.436-6.123-3.49
	c-3.371,1.947-6.095,6.664-6.083,10.538C420.246,101.964,422.987,103.524,426.358,101.577z"/>
<g style="enable-background:new    ;">
	<path style="fill:#2E2E30;" d="M409.839,97.133c0.009,3.161,1.124,5.384,2.925,6.43l17.396,10.108
		c-0.052-0.03-0.102-0.066-0.154-0.098c1.834,1.161,4.421,1.054,7.287-0.601c5.536-3.196,10.01-10.945,9.992-17.308
		c-0.009-3.171-1.133-5.398-2.942-6.44c0.006,0.003,0.011,0.006,0.018,0.009l-17.396-10.108c-1.822-1.06-4.347-0.91-7.132,0.698
		C414.295,83.023,409.821,90.771,409.839,97.133z"/>
	<path style="fill:#57565C;" d="M444.361,89.236l-17.397-10.108c-1.822-1.06-4.347-0.91-7.132,0.698l17.396,10.108
		C440.014,88.326,442.538,88.178,444.361,89.236z"/>
	<path style="fill:#3E3D43;" d="M412.763,103.564l17.396,10.108c-1.799-1.046-2.915-3.269-2.925-6.43
		c-0.018-6.362,4.455-14.111,9.992-17.308l-17.397-10.108c-5.537,3.196-10.01,10.945-9.992,17.308
		C409.848,100.294,410.964,102.518,412.763,103.564z"/>
	<path style="fill:#2E2E30;" d="M437.228,89.935c-5.537,3.196-10.01,10.945-9.992,17.308c0.018,6.362,4.521,8.929,10.058,5.731
		c5.536-3.196,10.01-10.945,9.992-17.308C447.268,89.304,442.764,86.739,437.228,89.935z"/>
	<path style="fill:#1D1D1F;" d="M437.246,96.359c-2.449,1.414-4.428,4.842-4.42,7.656s2,3.95,4.449,2.535
		c2.449-1.414,4.428-4.842,4.42-7.656C441.687,96.08,439.695,94.944,437.246,96.359z"/>
</g>
<path style="fill:#2E2E30;" d="M387.311,233.828c-0.565-3.698-2.552-7.621-5.199-10.496c-1.114-1.227-2.357-2.261-3.665-3.02
	c-1.018-0.581-1.97-0.952-2.875-1.114c-1.211-0.242-2.309-0.13-3.23,0.307c-0.048,0.032-0.113,0.065-0.162,0.08
	c-0.145,0.097-0.29,0.178-0.436,0.258c-2.277,1.324-4.537,2.648-6.814,3.956c-6.41,3.729-12.82,7.46-19.215,11.173
	c-0.002,0.001-0.004,0.001-0.005,0.002c-14.894,8.554-32.308,9.828-41.363,9.827c-5.36,0-13.59-0.438-22.362-2.517
	c-1.328-0.315-3.098-0.743-4.398-1.158c-2.318-0.739-5.378-1.816-7.65-2.685c-1.197-0.458-2.74-1.203-3.89-1.768
	c-0.976-0.479-2.236-1.196-3.194-1.709l0,0l-3.13-1.807l-3.129-1.807l-3.129-1.807l-3.131-1.807l-3.129-1.807l-3.131-1.807
	l-3.129-1.807l-3.131-1.807l-3.129-1.807l-3.129-1.807l0,0c-1.276-0.77-2.947-1.846-4.173-2.692
	c-0.678-0.468-1.531-1.164-2.17-1.682c-1.929-1.564-3.436-3.267-4.163-4.143c-1.808-2.179-2.656-4.106-2.692-4.187
	c-0.588-1.35-0.91-2.314-1.043-3.578c0.12-0.944,0.387-1.9,0.823-2.942c0.755-1.799,1.993-3.53,2.542-4.193
	c0.641-0.774,2.141-2.588,3.877-4.022c1.227-1.015,2.935-2.28,4.237-3.197c0.715-0.504,1.733-1.074,2.476-1.534
	c0.002-0.001,0.004-0.003,0.006-0.004c3.259-1.888,6.518-3.791,9.776-5.679c5.765-3.358,11.529-6.701,17.294-10.059
	c1.582-0.969,2.535-2.938,2.552-5.732v-0.178c-0.016-0.646-0.065-1.291-0.161-1.954c-0.581-3.681-2.552-7.589-5.199-10.464v-0.016
	c-1.114-1.227-2.357-2.261-3.665-3.02c-1.018-0.581-2.002-0.953-2.907-1.114c-1.308-0.258-2.487-0.097-3.455,0.436
	c-0.097,0.048-0.178,0.113-0.275,0.162c-8.584,4.985-17.184,9.971-25.769,14.974c-0.003,0.002-0.007,0.002-0.011,0.004
	c-1.774,1.076-4.138,2.528-5.801,3.768c-1.914,1.426-4.332,3.505-6.104,5.103c-0.033,0.03-3.431,3.146-6.419,7.661
	c-2.179,3.291-3.722,6.533-4.858,10.201c-0.715,2.31-1.056,4.369-1.06,4.388c-0.467,3.08-0.47,3.204-0.572,6.372l-0.006,2.047
	c-0.002,0.734,0.026,1.466,0.086,2.198c0.398,6.84,2.532,13.134,6.527,19.167c3.092,4.669,6.723,7.918,8.468,9.48
	c1.799,1.61,4.448,3.462,6.421,4.854c1.045,0.738,2.538,1.567,3.627,2.239h0.001c10.433,6.024,20.867,12.047,31.299,18.07l0,0
	c5.463,3.119,9.668,4.746,9.845,4.814c2.954,1.135,6.949,2.505,9.965,3.461c1.604,0.508,3.79,1.021,5.425,1.415
	c8.309,2.001,18.533,3.148,28.053,3.146c9.669-0.001,19.668-1.132,28.154-3.183c1.695-0.41,3.959-0.952,5.619-1.484
	c2.998-0.961,6.961-2.356,9.897-3.492c1.601-0.619,3.665-1.619,5.205-2.379c1.311-0.648,3.005-1.62,4.292-2.314
	c0.542-0.316,1-0.888,1.354-1.652c-0.353,0.766-0.81,1.339-1.351,1.651c0.485-0.29,1.146-0.662,1.631-0.953
	c0.501-0.29,1.146-0.661,1.647-0.953c8.042-4.667,16.083-9.349,24.124-14.032c1.566-0.969,2.535-2.938,2.552-5.732v-0.178
	C387.457,235.136,387.409,234.474,387.311,233.828z"/>
<g>
	<path style="fill:#3E3D43;" d="M248.203,154.916c-1.469,0.856-3.003,1.744-4.602,2.664c-4.618,2.68-9.705,5.635-14.775,8.59
		c-0.032-0.412-0.002,0.002-0.002,0.002c-7.543,4.385-12.716,9.627-15.523,15.188c-3.087,6.118-3.311,12.623-0.677,18.806
		c2.635,6.182,8.128,12.039,16.476,16.862c0.227-0.132,0.448-0.231,0.666-0.3c-0.217,0.069-0.44,0.168-0.666,0.3l31.3,18.07
		c3.979,2.296,8.389,4.178,13.041,5.722c19.236,6.378,43.029,6.338,62.128-0.116c4.506-1.523,8.777-3.365,12.632-5.603
		c0.001,0.001,0.002,0.001,0.003,0.001c7.751-4.489,15.485-8.994,21.605-12.563c2.147-1.243,4.086-2.374,5.765-3.343
		c-1.211-0.242-2.309-0.13-3.23,0.307c-0.048,0.032-0.113,0.065-0.162,0.08c-0.145,0.097-0.29,0.178-0.436,0.258
		c-2.277,1.324-4.537,2.648-6.814,3.956c-6.41,3.729-12.82,7.46-19.215,11.173c-0.002,0.001-0.004,0.001-0.005,0.002
		c-14.894,8.554-32.308,9.828-41.363,9.827c-5.36,0-13.59-0.438-22.362-2.517c-1.328-0.315-3.098-0.743-4.398-1.158
		c-2.318-0.739-5.378-1.816-7.65-2.685c-1.197-0.458-2.74-1.203-3.89-1.768c-0.976-0.479-2.236-1.196-3.194-1.709l0,0l-3.131-1.807
		l-3.129-1.807l-3.129-1.807l-3.131-1.807l-3.129-1.807l-3.131-1.807l-3.129-1.807l-3.131-1.807l-3.129-1.807l-3.129-1.807l0,0
		c-1.276-0.77-2.947-1.846-4.173-2.692c-0.678-0.468-1.531-1.164-2.17-1.682c-1.929-1.564-3.436-3.267-4.163-4.143
		c-1.808-2.179-2.656-4.106-2.692-4.187c-0.588-1.35-0.91-2.314-1.043-3.578c0.12-0.944,0.387-1.9,0.823-2.942
		c0.755-1.799,1.993-3.53,2.542-4.193c0.641-0.774,2.141-2.588,3.877-4.022c1.227-1.015,2.935-2.28,4.237-3.197
		c0.715-0.504,1.733-1.074,2.476-1.534c0.002-0.001,0.004-0.003,0.006-0.004c3.259-1.888,6.518-3.791,9.776-5.679
		c5.765-3.358,11.529-6.701,17.294-10.059c1.582-0.969,2.535-2.938,2.552-5.732v-0.178c-0.016-0.646-0.065-1.291-0.161-1.954
		c-0.581-3.681-2.552-7.589-5.199-10.464c-0.791,0.452-1.631,0.936-2.519,1.469L248.203,154.916z M346.882,234.683
		c-0.4-0.016-0.775,0.084-1.121,0.274C346.106,234.763,346.481,234.665,346.882,234.683z"/>
	<path style="fill:#3E3D43;" d="M217.686,233.882l31.3,18.072c30.599,17.666,80.231,17.666,110.641-0.006v-0.006l18.691-10.863
		l9.155-5.312c-0.016-0.63-0.065-1.291-0.162-1.937c-0.565-3.698-2.552-7.621-5.199-10.496c-0.888,0.516-1.841,1.081-2.858,1.679
		l-3.133,1.824c-0.371,0.226-0.759,0.436-1.146,0.662l-2.39,1.389c-0.775,0.468-1.582,0.921-2.406,1.404h-0.016
		c-0.871,0.516-1.76,1.033-2.68,1.566c-1.308,0.759-2.664,1.55-4.036,2.342c-2.729,1.582-5.555,3.23-8.364,4.861
		c-0.007,0.004-0.007,0.004-0.007,0.004l0,0c-1.741,1.011-3.551,1.96-5.42,2.846c-19.197,9.091-44.748,11.514-67.402,7.292
		c-10.489-1.955-20.36-5.324-28.685-10.132c-0.002,0.001-0.003,0.003-0.005,0.004c-10.43-6.023-20.86-12.045-31.291-18.067
		c-4.135-2.389-7.648-5.003-10.571-7.768c-6.568-6.211-10.074-13.206-10.514-20.255c-0.694-11.103,6.206-22.326,20.757-30.783
		c-0.502-0.288-0.981-0.41-1.433-0.404c0.453-0.008,0.934,0.111,1.437,0.401c6.83-3.972,13.661-7.929,19.377-11.255l1.922-1.114
		l2.89-1.679c1.001-0.598,1.954-1.146,2.825-1.647c-1.308-0.258-2.487-0.097-3.455,0.436c-0.097,0.048-0.178,0.113-0.275,0.162
		c-8.584,4.985-17.184,9.971-25.769,14.974c-0.003,0.002-0.007,0.002-0.012,0.004c-1.774,1.076-4.138,2.528-5.801,3.768
		c-1.914,1.426-4.332,3.505-6.104,5.103c-0.033,0.03-3.431,3.146-6.419,7.661c-2.179,3.291-3.722,6.533-4.858,10.201
		c-0.715,2.31-1.056,4.369-1.06,4.388c-0.467,3.08-0.47,3.204-0.572,6.372l-0.006,2.047c-0.002,0.734,0.026,1.466,0.086,2.198
		C195.596,214.756,203.256,225.551,217.686,233.882z"/>
</g>
<path style="fill:#57565C;" d="M243.246,149.831c0,0,0,0-0.016,0.016c-0.613,0.355-1.259,0.726-1.905,1.098
	c-5.716,3.327-12.546,7.283-19.377,11.255c-0.001,0.001-0.003,0.002-0.004,0.002c-14.551,8.456-21.452,19.679-20.757,30.783
	c0.441,7.048,3.947,14.042,10.514,20.255c2.923,2.765,6.436,5.379,10.571,7.768c10.43,6.023,20.86,12.045,31.291,18.067
	c0.002-0.001,0.003-0.003,0.005-0.004c8.325,4.809,18.196,8.177,28.685,10.132c22.654,4.219,48.204,1.797,67.402-7.292
	c1.87-0.886,3.68-1.834,5.42-2.846l0,0c0.002-0.001,0.005-0.003,0.007-0.004c2.81-1.631,5.635-3.278,8.364-4.861
	c1.373-0.791,2.729-1.582,4.036-2.342c0.921-0.533,1.809-1.05,2.68-1.566h0.016c0.823-0.484,1.631-0.936,2.406-1.404l2.39-1.389
	c0.388-0.226,0.775-0.436,1.146-0.662l3.133-1.824c1.018-0.598,1.97-1.163,2.858-1.679c-1.114-1.227-2.357-2.261-3.665-3.02
	c-1.018-0.581-1.97-0.952-2.875-1.114c-1.679,0.969-3.617,2.099-5.765,3.343c-6.12,3.568-13.854,8.074-21.605,12.563
	c-3.855,2.238-8.127,4.078-12.635,5.602c-19.099,6.454-42.891,6.495-62.128,0.116c-4.654-1.543-9.067-3.423-13.048-5.718
	c-10.431-6.023-20.862-12.046-31.294-18.068c-8.349-4.824-13.843-10.684-16.477-16.868c-2.634-6.183-2.41-12.688,0.677-18.806
	c2.807-5.563,7.981-10.804,15.525-15.19c5.07-2.955,10.156-5.91,14.775-8.59c1.599-0.921,3.133-1.809,4.602-2.664l4.812-2.793
	c0.888-0.533,1.728-1.017,2.519-1.469v-0.016c-1.114-1.227-2.357-2.261-3.665-3.02c-1.018-0.581-2.002-0.953-2.907-1.114
	c-0.871,0.501-1.824,1.05-2.825,1.647C245.231,148.685,244.263,149.233,243.246,149.831z"/>
<path style="fill:#3E3D43;" d="M241.695,242.047v0.178c-0.016,2.793-0.969,4.764-2.552,5.732c-1.647,1.033-3.956,0.921-6.523-0.565
	c-0.016-0.016-0.048-0.032-0.065-0.032c-0.549-0.323-1.098-0.694-1.614-1.114c-2.923-2.309-5.345-5.958-6.54-9.673
	c-0.517-1.614-0.808-3.245-0.808-4.796c0-1.131,0.161-2.115,0.452-2.955v-0.016c0.436-1.243,1.131-2.18,2.051-2.745
	c0.032-0.032,0.065-0.048,0.097-0.065c0.985-0.581,2.212-0.775,3.568-0.501c0.258,0.032,0.517,0.097,0.775,0.178
	c0,0,0-0.016,0.016,0h0.016c0.678,0.21,1.372,0.517,2.099,0.936c0.711,0.403,1.404,0.904,2.067,1.469
	c0.016,0.016,0.016,0.016,0.016,0.016c0.549,0.468,1.081,0.969,1.599,1.534c2.632,2.875,4.602,6.782,5.184,10.464
	C241.631,240.756,241.68,241.402,241.695,242.047z"/>
<path style="fill:#898890;" d="M287.54,349.085c0.402-4.6-2.41-9.28-8.493-12.792c-11.376-6.567-29.75-6.567-41.052,0
	c-5.629,3.271-8.435,7.557-8.43,11.847c0-0.014-0.003-0.027-0.003-0.04l-0.006,3.904c-0.013,4.33,2.844,8.667,8.567,11.971
	c11.366,6.562,29.75,6.557,41.043-0.005c5.615-3.263,8.426-7.533,8.439-11.808l0.006-3.904
	C287.609,348.533,287.564,348.809,287.54,349.085z"/>
<path style="fill:#ACABB1;" d="M229.556,352.003l0.006-3.904c-0.013,4.33,2.844,8.667,8.567,11.971l-0.006,3.904
	C232.4,360.67,229.543,356.333,229.556,352.003z"/>
<path style="fill:#898890;" d="M287.61,348.257l-0.006,3.904c-0.013,4.276-2.822,8.545-8.439,11.808
	c-11.292,6.562-29.676,6.568-41.043,0.005l0.006-3.904c11.366,6.562,29.75,6.557,41.043-0.005
	C284.787,356.802,287.598,352.533,287.61,348.257z"/>
<path style="fill:#C6C5CB;" d="M238.129,360.071c-11.376-6.568-11.426-17.217-0.134-23.779c11.302-6.568,29.676-6.568,41.052,0
	c11.366,6.562,11.426,17.205,0.124,23.774C267.88,366.628,249.496,366.634,238.129,360.071z"/>
<path style="fill:#898890;" d="M277.406,327.638c0.264-3.025-1.585-6.103-5.586-8.414c-7.482-4.32-19.568-4.32-27.001,0
	c-3.702,2.151-5.548,4.971-5.545,7.792c0-0.008-0.002-0.018-0.002-0.026l-0.006,20.8c-0.008,2.848,1.871,5.701,5.635,7.874
	c7.476,4.316,19.568,4.312,26.995-0.003c3.694-2.146,5.542-4.955,5.551-7.767l0.006-20.8
	C277.451,327.276,277.422,327.457,277.406,327.638z"/>
<path style="fill:#ACABB1;" d="M239.265,347.791l0.006-20.8c-0.008,2.848,1.87,5.701,5.635,7.874l-0.006,20.8
	C241.136,353.491,239.257,350.638,239.265,347.791z"/>
<path style="fill:#898890;" d="M277.452,327.095l-0.006,20.8c-0.008,2.812-1.857,5.621-5.551,7.767
	c-7.427,4.316-19.519,4.32-26.995,0.003l0.006-20.8c7.476,4.316,19.568,4.312,26.995-0.003
	C275.595,332.715,277.443,329.906,277.452,327.095z"/>
<g>
	<path style="fill:#C6C5CB;" d="M244.906,334.864c-7.483-4.32-7.515-11.324-0.088-15.64c7.433-4.32,19.519-4.32,27.001,0
		c7.476,4.316,7.515,11.316,0.082,15.637C264.474,339.178,252.383,339.181,244.906,334.864z"/>
	<path style="fill:#C6C5CB;" d="M242.519,342.317c-1.392-0.804-2.653-0.879-3.564-0.349l-23.559,13.814
		c0.003-0.002,0.006-0.003,0.009-0.004c-0.904,0.52-1.466,1.632-1.47,3.217c-0.009,3.181,2.228,7.051,4.993,8.648
		c1.481,0.855,2.809,0.879,3.728,0.236c-0.054,0.038-0.107,0.08-0.164,0.114l23.559-13.814c0.899-0.522,1.457-1.634,1.461-3.214
		C247.521,347.785,245.287,343.914,242.519,342.317z"/>
</g>
<path style="fill:#D8D8DA;" d="M215.395,355.781l23.559-13.814c0.911-0.53,2.172-0.455,3.564,0.349L218.96,356.13
	C217.568,355.327,216.307,355.251,215.395,355.781z"/>
<path style="fill:#ACABB1;" d="M246.052,354.178l-23.559,13.814c0.899-0.522,1.457-1.634,1.461-3.214
	c0.009-3.181-2.225-7.05-4.993-8.648l23.559-13.814c2.768,1.598,5.002,5.467,4.993,8.648
	C247.507,352.544,246.95,353.656,246.052,354.178z"/>
<path style="fill:#C6C5CB;" d="M218.96,356.13c2.768,1.598,5.002,5.467,4.993,8.648c-0.009,3.181-2.257,4.462-5.025,2.864
	c-2.765-1.597-5.002-5.467-4.993-8.648C213.944,355.814,216.195,354.534,218.96,356.13z"/>
<path style="fill:#898890;" d="M280.488,329.914c0.307-3.518-1.843-7.097-6.495-9.783c-8.7-5.023-22.753-5.023-31.396,0
	c-4.305,2.502-6.451,5.779-6.447,9.06c0-0.01-0.002-0.021-0.002-0.03l-0.004,4.913c-0.009,3.311,2.175,6.629,6.553,9.155
	c8.693,5.019,22.753,5.014,31.389-0.004c4.295-2.496,6.444-5.762,6.453-9.031l0.004-4.913
	C280.541,329.493,280.506,329.703,280.488,329.914z"/>
<path style="fill:#ACABB1;" d="M236.143,334.073l0.004-4.913c-0.009,3.311,2.175,6.629,6.553,9.155l-0.004,4.913
	C238.318,340.702,236.133,337.385,236.143,334.073z"/>
<path style="fill:#898890;" d="M280.542,329.282l-0.004,4.913c-0.009,3.269-2.159,6.535-6.453,9.031
	c-8.636,5.019-22.696,5.023-31.389,0.004l0.004-4.913c8.693,5.019,22.753,5.014,31.389-0.004
	C278.383,335.816,280.532,332.551,280.542,329.282z"/>
<path style="fill:#C6C5CB;" d="M242.7,338.316c-8.7-5.023-8.738-13.167-0.102-18.185c8.643-5.023,22.696-5.023,31.396,0
	c8.693,5.019,8.738,13.158,0.095,18.181C265.451,343.331,251.392,343.335,242.7,338.316z"/>
<path style="fill:#77767E;" d="M256.249,330.438c-1.165-0.673-1.17-1.763-0.014-2.436c1.158-0.673,3.04-0.673,4.205,0
	c1.164,0.672,1.17,1.762,0.013,2.435C259.296,331.11,257.413,331.111,256.249,330.438z"/>
<path style="fill:#57565C;" d="M258.394,340.083c-4.705,0-9.413-0.985-13.092-2.957l0,0c-3.82-2.049-5.927-4.862-5.931-7.923
	c-0.005-3.044,2.072-5.842,5.847-7.88c7.315-3.949,18.809-3.949,26.168-0.003c3.818,2.047,5.924,4.861,5.928,7.919
	c0.005,3.044-2.073,5.842-5.849,7.881C267.807,339.095,263.103,340.083,258.394,340.083z M258.288,320.763
	c-4.151,0-8.295,0.914-11.446,2.745c-2.738,1.591-4.243,3.611-4.24,5.687c0.002,2.096,1.536,4.133,4.315,5.739
	c6.343,3.661,16.625,3.661,22.925,0c2.739-1.592,4.245-3.612,4.242-5.689c-0.002-2.093-1.534-4.129-4.312-5.733
	C266.601,321.679,262.441,320.763,258.288,320.763z"/>
<g>
	<path style="fill:#2E2E30;" d="M241.535,240.093c-0.581-3.681-2.552-7.589-5.184-10.464c-0.517-0.565-1.049-1.066-1.599-1.534
		c0,0,0,0-0.016-0.016c-0.662-0.565-1.356-1.066-2.067-1.469c-0.726-0.42-1.421-0.727-2.099-0.936h-0.032
		c-0.016-0.016-0.032-0.032-0.048-0.032c-0.226-0.13-0.388-0.226-0.485-0.29c-0.08,0.048-0.161,0.097-0.242,0.145
		c-1.356-0.275-2.584-0.08-3.568,0.501c-0.032,0.016-0.065,0.032-0.097,0.065c-59.793,34.732-119.586,69.482-179.38,104.231
		L26.13,342.258c0.531-0.307,1.132-0.374,1.775-0.184c-0.645-0.189-1.247-0.119-1.774,0.187c-1.876,1.138-4.374,2.672-6.133,3.983
		c-2.022,1.506-4.575,3.701-6.447,5.389c-0.034,0.031-3.582,3.283-6.755,8.061c-2.986,4.496-4.334,8.249-5.089,10.682
		c-0.745,2.403-1.102,4.558-1.106,4.578c-0.486,3.208-0.49,3.336-0.596,6.638L0,383.639c0.005,1.47,0.084,2.889,0.231,4.28
		c0.004,0.048,0.007,0.104,0.011,0.151c0.04,0.434,0.114,0.938,0.195,1.44c0.039,0.261,0.085,0.521,0.129,0.781
		c0.029,0.177,0.06,0.353,0.085,0.513c0.034,0.214,0.359,2.171,1.291,5.034c0.673,2.066,1.46,3.816,1.888,4.714
		c0.05,0.107,0.101,0.212,0.154,0.318c0.056,0.114,0.101,0.205,0.13,0.259c0.001,0.002,0.002,0.003,0.002,0.005
		c1.05,2.108,2.276,4.075,2.803,4.828c0.122,0.176,0.241,0.344,0.362,0.514c0.099,0.147,0.212,0.312,0.301,0.447
		c0.841,1.265,2.113,2.856,3.147,3.97c0.022,0.024,0.049,0.051,0.071,0.075c0.599,0.671,1.284,1.405,2.101,2.24
		c1.119,1.143,2.346,2.256,3.613,3.316c1.029,0.891,2.97,2.421,5.445,4.1c0.186,0.126,0.366,0.245,0.55,0.367
		c0.308,0.206,0.611,0.404,0.911,0.599c0.417,0.27,0.818,0.522,1.215,0.768c0.069,0.043,0.137,0.085,0.206,0.126
		c0.555,0.34,1.08,0.651,1.581,0.937c0.013,0.007,0.024,0.015,0.037,0.022c0.007,0.004,0.015,0.007,0.023,0.013
		c0.211,0.12,0.439,0.256,0.638,0.366c0.835,0.459,1.913,1.048,3.231,1.722c0.048,0.025,0.1,0.05,0.149,0.075
		c1.918,0.975,4.347,2.119,7.316,3.306c0.095,0.038,0.191,0.076,0.288,0.114c0.95,0.376,1.954,0.755,3.013,1.134
		c0.203,0.072,0.402,0.145,0.609,0.217c0.839,0.294,1.714,0.586,2.621,0.877c0.264,0.085,0.531,0.169,0.8,0.253
		c0.793,0.247,1.602,0.492,2.445,0.734c0.023,0.006,0.046,0.011,0.068,0.018c1.999,0.568,3.817,1.026,5.4,1.409
		c0.021,0.005,0.043,0.009,0.063,0.014c0.169,0.04,0.342,0.075,0.511,0.114c1.601,0.37,3.209,0.704,4.828,1.008
		c0.276,0.051,0.553,0.107,0.829,0.156c1.682,0.303,3.383,0.572,5.112,0.81c0.373,0.051,0.758,0.096,1.134,0.144
		c1.488,0.191,3.002,0.359,4.543,0.506c0.261,0.025,0.507,0.063,0.769,0.086c4.979,0.446,9.549,0.569,13.471,0.534
		c1.202-0.003,2.054-0.016,3.176-0.065c3.179-0.103,5.775-0.298,7.584-0.471c0.924-0.063,1.996-0.184,3.065-0.315
		c0.839-0.094,1.77-0.206,2.782-0.34c0.027-0.003,0.06-0.007,0.086-0.01c0.231-0.026,0.775-0.1,1.535-0.215
		c3.524-0.514,7.826-1.295,12.561-2.518c1.154-0.288,2.326-0.597,3.3-0.906c0.021-0.006,0.045-0.015,0.066-0.021
		c0.101-0.029,0.201-0.056,0.302-0.086c3.066-0.907,7.052-2.281,10.085-3.535c0.019-0.007,0.04-0.015,0.059-0.022
		c0.13-0.05,2.34-0.909,5.622-2.55c0.074-0.037,0.16-0.076,0.232-0.112c0.14-0.069,0.299-0.155,0.447-0.23
		c0.104-0.053,0.209-0.107,0.317-0.163c0.13-0.068,0.251-0.128,0.383-0.199c1.06-0.552,2.196-1.168,3.397-1.858
		c0.002-0.001,0.003-0.003,0.005-0.004c28.806-16.745,57.611-33.488,86.417-50.217c1.566-0.969,2.519-2.955,2.535-5.748v-0.162
		c0-0.646-0.065-1.291-0.161-1.954c-0.565-3.681-2.535-7.589-5.184-10.479c-1.114-1.227-2.357-2.277-3.665-3.035
		c-1.001-0.581-1.97-0.953-2.875-1.114c0,0,0,0-0.016,0c-1.195-0.242-2.293-0.13-3.213,0.307c-0.178,0.097-0.355,0.193-0.533,0.307
		c-8.462,4.909-16.939,9.834-25.399,14.758l-18.166,10.561c-1.372,0.791-3.455,1.534-4.586,2.664
		c-9.22,5.36-18.456,10.722-27.693,16.083l-9.268,5.393c0.383-0.227,0.811-0.315,1.266-0.274c-0.455-0.038-0.883,0.052-1.271,0.277
		c-8.444,4.849-18.247,7.996-29.968,9.62c-6.325,0.877-19.148,1.943-33.96-0.76c-8.766-1.6-14.133-3.72-17.685-5.122
		c-2.861-1.13-5.515-2.584-7.648-3.753c-1.414-0.775-3.185-2.003-4.516-2.913c-1.726-1.18-5.624-4.334-8.026-7.833
		c-0.391-0.568-1.579-2.3-2.222-4.036c-0.436-1.174-0.701-2.11-0.819-3.326c0.15-1.444,0.552-2.632,0.959-3.615
		c0.694-1.675,1.944-3.583,2.813-4.647c1.484-1.819,2.904-3.294,4.22-4.382c1.33-1.101,3.182-2.473,4.593-3.468
		c0.773-0.545,1.876-1.163,2.68-1.66c0.008-0.005,0.016-0.014,0.025-0.019c20.563-11.943,41.125-23.903,61.703-35.847
		c46.504-27.015,92.976-54.045,139.48-81.076c1.582-0.969,2.535-2.939,2.552-5.732v-0.178
		C241.68,241.402,241.631,240.756,241.535,240.093z"/>
	<path style="fill:#2E2E30;" d="M232.556,247.359L40.049,359.228c-0.002,0.322-0.018,0.63-0.039,0.93
		c0.021-0.3,0.036-0.606,0.037-0.928c-11.049,6.421-16.835,14.747-17.392,23.176c0.006,0.086,0.009,0.181,0.018,0.264
		c0.15-1.444,0.552-2.632,0.959-3.615c0.694-1.675,1.944-3.583,2.813-4.647c1.484-1.819,2.904-3.294,4.22-4.382
		c1.33-1.101,3.182-2.473,4.593-3.468c0.773-0.545,1.876-1.163,2.68-1.66c0.008-0.005,0.016-0.014,0.025-0.019
		c20.563-11.943,41.125-23.903,61.703-35.847c46.504-27.015,92.976-54.045,139.48-81.076c1.582-0.969,2.535-2.939,2.552-5.732
		v-0.178L232.556,247.359z"/>
</g>
<path style="fill:#3E3D43;" d="M40.046,359.23l0.002-0.002l192.508-111.868l9.14-5.312c-0.016-0.646-0.065-1.291-0.161-1.954
	c-0.581-3.681-2.552-7.589-5.184-10.464c-3.956,2.293-7.944,4.618-11.948,6.943c-16.034,9.317-32.327,18.779-48.813,28.371
	c-8.315,4.828-16.664,9.688-25.077,14.565c-20.991,12.208-42.241,24.544-63.604,36.961l-25.674,14.92
	c-8.574,4.989-17.165,9.963-25.739,14.952l-0.002,0.005c-0.789,0.459-1.552,0.927-2.293,1.402c-0.016,0.01-0.032,0.02-0.047,0.03
	c-0.054,0.033-0.102,0.07-0.157,0.104c-0.533,0.346-1.044,0.697-1.551,1.051c-0.351,0.24-0.693,0.488-1.03,0.738
	c-0.466,0.342-0.929,0.683-1.372,1.031c-0.723,0.562-1.423,1.136-2.075,1.726c-0.27,0.228-0.51,0.468-0.758,0.705
	c-0.145,0.135-0.292,0.269-0.433,0.404c-0.335,0.308-0.653,0.629-0.964,0.95c-0.044,0.045-0.085,0.09-0.129,0.134
	c-0.001-0.002-0.001-0.004-0.002-0.006c-0.003,0.003-0.006,0.005-0.008,0.008c-0.872,0.904-1.679,1.809-2.422,2.745
	c-0.242,0.307-0.485,0.613-0.711,0.936c-0.953,1.276-1.776,2.584-2.47,3.908c-0.161,0.29-0.307,0.581-0.436,0.871
	c-0.162,0.323-0.307,0.646-0.452,0.969c-0.307,0.695-0.565,1.405-0.808,2.116c-0.21,0.598-0.371,1.211-0.533,1.809
	c-0.161,0.678-0.29,1.341-0.403,2.019v0.016c-0.08,0.549-0.161,1.098-0.193,1.647c-0.017,0.137-0.018,0.267-0.026,0.401
	c-0.015,0.233-0.017,0.466-0.025,0.699c-0.016,0.452-0.02,0.904-0.008,1.356c0.005,0.197,0.017,0.395,0.028,0.592
	c0.023,0.429,0.055,0.859,0.102,1.287c0.024,0.214,0.053,0.427,0.083,0.642c0.057,0.413,0.125,0.825,0.205,1.237
	c0.044,0.225,0.092,0.449,0.143,0.674c0.091,0.401,0.191,0.801,0.304,1.202c0.065,0.23,0.133,0.46,0.205,0.69
	c0.123,0.394,0.258,0.787,0.403,1.18c0.085,0.231,0.172,0.461,0.264,0.691c0.157,0.391,0.327,0.781,0.506,1.169
	c0.104,0.227,0.209,0.453,0.32,0.679c0.192,0.391,0.399,0.778,0.613,1.166c0.121,0.22,0.242,0.441,0.371,0.66
	c0.23,0.392,0.476,0.782,0.729,1.171c0.136,0.209,0.269,0.419,0.412,0.627c0.273,0.398,0.563,0.793,0.86,1.187
	c0.145,0.193,0.286,0.389,0.438,0.581c0.321,0.409,0.661,0.813,1.008,1.215c0.149,0.174,0.294,0.349,0.448,0.522
	c0.378,0.423,0.777,0.84,1.184,1.257c0.144,0.147,0.281,0.297,0.429,0.444c0.449,0.446,0.924,0.887,1.406,1.325
	c0.123,0.112,0.239,0.226,0.365,0.337c0.552,0.489,1.128,0.971,1.722,1.448c0.07,0.056,0.135,0.114,0.206,0.17
	c2.042,1.623,4.328,3.173,6.859,4.634c5.23,3.021,11.117,5.426,17.383,7.236c24.981,7.206,56.113,4.804,76.818-7.22
	c0,0,0.001,0,0.001,0.001c9.656-5.619,19.329-11.239,28.855-16.777l10.528-6.12c13.967-8.122,27.531-16.002,40.207-23.349
	l1.033-0.613c1.937-1.131,3.859-2.244,5.748-3.343c-1.195-0.242-2.293-0.13-3.213,0.307c-0.178,0.097-0.355,0.193-0.533,0.307
	c-8.462,4.909-16.939,9.834-25.399,14.758l-18.166,10.561c-1.372,0.791-3.455,1.534-4.586,2.664
	c-9.22,5.36-18.456,10.722-27.693,16.083l-9.268,5.393c0.383-0.227,0.811-0.315,1.266-0.274c-0.455-0.038-0.883,0.052-1.271,0.277
	c-8.444,4.849-18.247,7.996-29.968,9.62c-6.325,0.877-19.148,1.943-33.96-0.76c-8.766-1.6-14.133-3.72-17.685-5.122
	c-2.861-1.13-5.515-2.584-7.648-3.753c-1.414-0.775-3.185-2.003-4.516-2.913c-1.726-1.18-5.624-4.334-8.026-7.833
	c-0.391-0.568-1.579-2.3-2.222-4.036c-0.436-1.174-0.701-2.11-0.819-3.326c-0.008-0.083-0.01-0.179-0.018-0.264
	C23.21,373.977,28.997,365.651,40.046,359.23z"/>
<path style="fill:#2E2E30;" d="M141.437,417.761c-0.016,2.799-0.808,4.799-2.001,5.583c1.195-0.792,1.985-2.793,1.994-5.581
	c-32.161,18.69-84.662,18.696-117.043,0.001C8.099,408.362-0.034,395.991,0,383.639c0.005,1.47,0.084,2.889,0.231,4.28
	c0.056,0.535,0.129,1.064,0.207,1.591c0.039,0.261,0.085,0.521,0.129,0.781c0.539,3.143,1.471,6.195,2.871,9.404
	c0.124,0.284,0.257,0.57,0.393,0.857c0.05,0.107,0.101,0.212,0.154,0.318c0.043,0.089,0.088,0.176,0.132,0.263
	c1.05,2.108,2.276,4.075,2.803,4.828c0.122,0.176,0.241,0.344,0.362,0.514c1.014,1.442,1.966,2.75,3.519,4.492
	c0.599,0.671,1.284,1.405,2.101,2.24c1.119,1.143,2.346,2.256,3.613,3.317c1.791,1.498,3.664,2.886,5.445,4.1
	c0.186,0.126,0.366,0.245,0.55,0.367c0.308,0.206,0.611,0.404,0.911,0.599c0.417,0.27,0.818,0.522,1.215,0.768
	c0.069,0.043,0.137,0.085,0.206,0.126c0.555,0.34,1.08,0.651,1.581,0.937c0.02,0.011,0.04,0.023,0.059,0.033
	c0.211,0.12,0.439,0.256,0.638,0.366c0.835,0.459,1.913,1.048,3.231,1.722c0.048,0.025,0.1,0.05,0.149,0.075
	c1.918,0.975,4.347,2.119,7.316,3.306c0.095,0.038,0.191,0.076,0.288,0.114c0.95,0.376,1.954,0.755,3.013,1.134
	c0.203,0.072,0.402,0.145,0.609,0.217c0.839,0.294,1.714,0.586,2.621,0.877c0.264,0.085,0.531,0.169,0.8,0.253
	c0.793,0.247,1.602,0.492,2.445,0.734c0.023,0.006,0.046,0.011,0.068,0.018c1.828,0.52,3.644,0.993,5.464,1.422
	c0.169,0.04,0.342,0.075,0.511,0.114c1.601,0.37,3.209,0.704,4.828,1.008c0.276,0.051,0.553,0.107,0.829,0.156
	c1.682,0.303,3.383,0.572,5.112,0.81c0.373,0.051,0.758,0.096,1.134,0.144c1.488,0.191,3.002,0.359,4.543,0.506
	c0.261,0.025,0.507,0.063,0.769,0.086c4.979,0.446,9.549,0.569,13.471,0.534c1.115-0.01,2.174-0.032,3.176-0.065
	c3.179-0.103,5.775-0.298,7.584-0.471c0.007-0.001,0.015-0.001,0.022-0.002c0.8-0.077,1.832-0.178,3.043-0.312
	c0.839-0.094,1.77-0.206,2.782-0.34c0.52-0.069,1.06-0.144,1.621-0.226c3.524-0.514,7.826-1.295,12.561-2.518
	c1.1-0.284,2.224-0.592,3.366-0.927c0.101-0.029,0.201-0.056,0.302-0.086c3.066-0.907,7.052-2.281,10.085-3.535
	c0.132-0.054,0.273-0.111,0.401-0.165c1.601-0.675,3.674-1.621,5.278-2.406c0.074-0.037,0.16-0.076,0.232-0.112
	c0.14-0.069,0.299-0.155,0.447-0.23c0.104-0.053,0.209-0.107,0.317-0.163c0.13-0.068,0.251-0.127,0.383-0.199
	c1.142-0.608,2.388-1.313,3.397-1.858c0.002-0.001,0.003-0.003,0.005-0.004c28.806-16.744,57.611-33.488,86.417-50.217
	c1.566-0.969,2.519-2.955,2.535-5.748v-0.162l-9.123,5.297L141.437,417.761z"/>
<g>
	<path style="fill:#3E3D43;" d="M70.084,436.429c-1.541-0.146-3.054-0.315-4.543-0.506
		C67.042,436.115,68.556,436.284,70.084,436.429z"/>
	<path style="fill:#3E3D43;" d="M58.465,434.813c-1.621-0.304-3.228-0.638-4.828-1.008
		C55.203,434.173,56.819,434.505,58.465,434.813z"/>
	<path style="fill:#3E3D43;" d="M64.407,435.779c-1.728-0.237-3.429-0.506-5.112-0.81C60.969,435.27,62.673,435.541,64.407,435.779z
		"/>
	<path style="fill:#3E3D43;" d="M30.502,425.617c-0.049-0.025-0.1-0.05-0.149-0.075C30.402,425.567,30.452,425.592,30.502,425.617z"
		/>
	<path style="fill:#3E3D43;" d="M53.063,433.677c0.021,0.005,0.043,0.009,0.063,0.014c-1.82-0.429-3.636-0.901-5.464-1.422
		C49.661,432.837,51.479,433.295,53.063,433.677z"/>
	<path style="fill:#3E3D43;" d="M26.461,423.443c0.007,0.004,0.015,0.007,0.023,0.013c-0.02-0.012-0.04-0.023-0.059-0.033
		C26.437,423.428,26.449,423.435,26.461,423.443z"/>
	<path style="fill:#3E3D43;" d="M38.105,429.037c-0.096-0.038-0.192-0.076-0.288-0.114
		C37.914,428.962,38.009,428.999,38.105,429.037z"/>
	<path style="fill:#3E3D43;" d="M41.728,430.388c-0.207-0.072-0.406-0.145-0.609-0.217
		C41.324,430.244,41.526,430.317,41.728,430.388z"/>
	<path style="fill:#3E3D43;" d="M45.149,431.518c-0.27-0.085-0.536-0.168-0.8-0.253C44.618,431.351,44.884,431.435,45.149,431.518z"
		/>
	<path style="fill:#3E3D43;" d="M0.244,388.071c0.04,0.434,0.114,0.938,0.195,1.44c-0.079-0.528-0.15-1.057-0.207-1.591
		C0.235,387.967,0.239,388.024,0.244,388.071z"/>
	<path style="fill:#3E3D43;" d="M24.843,422.483c-0.068-0.042-0.137-0.084-0.206-0.126C24.706,422.4,24.774,422.442,24.843,422.483z
		"/>
	<path style="fill:#3E3D43;" d="M139.319,423.432c-1.01,0.544-2.255,1.25-3.397,1.858
		C136.982,424.738,138.119,424.122,139.319,423.432z"/>
	<path style="fill:#3E3D43;" d="M7.583,406.923c0.841,1.265,2.113,2.856,3.147,3.97c0.022,0.024,0.049,0.051,0.071,0.075
		c-1.554-1.742-2.506-3.05-3.519-4.492C7.38,406.623,7.493,406.788,7.583,406.923z"/>
	<path style="fill:#3E3D43;" d="M4.115,401.129c0.001,0.002,0.002,0.003,0.002,0.005c-0.044-0.088-0.089-0.176-0.132-0.263
		C4.042,400.984,4.087,401.074,4.115,401.129z"/>
	<path style="fill:#3E3D43;" d="M21.962,420.624c-1.782-1.214-3.654-2.602-5.445-4.1C17.545,417.416,19.485,418.944,21.962,420.624z
		"/>
	<path style="fill:#3E3D43;" d="M128.864,428.565c0.019-0.007,0.04-0.015,0.059-0.022c0.13-0.05,2.34-0.909,5.622-2.55
		c-1.604,0.786-3.677,1.731-5.278,2.406C129.138,428.454,128.997,428.51,128.864,428.565z"/>
	<path style="fill:#3E3D43;" d="M23.423,421.59c-0.3-0.194-0.603-0.393-0.911-0.599C22.81,421.191,23.11,421.388,23.423,421.59z"/>
	<path style="fill:#3E3D43;" d="M0.567,390.291c0.029,0.177,0.06,0.353,0.085,0.513c0.034,0.214,0.359,2.171,1.291,5.034
		c0.673,2.066,1.46,3.816,1.888,4.714c-0.136-0.285-0.269-0.572-0.393-0.857C2.039,396.486,1.107,393.434,0.567,390.291z"/>
	<path style="fill:#3E3D43;" d="M95.084,436.511c0.924-0.063,1.996-0.184,3.065-0.314c-1.21,0.135-2.242,0.235-3.043,0.312
		C95.099,436.509,95.091,436.51,95.084,436.511z"/>
	<path style="fill:#3E3D43;" d="M87.501,436.982c-1.003,0.032-2.063,0.055-3.176,0.065
		C85.526,437.044,86.378,437.031,87.501,436.982z"/>
	<path style="fill:#3E3D43;" d="M135.539,425.487c-0.108,0.056-0.211,0.11-0.317,0.163
		C135.327,425.598,135.434,425.542,135.539,425.487z"/>
	<path style="fill:#3E3D43;" d="M101.016,435.845c0.231-0.026,0.775-0.1,1.535-0.215c-0.562,0.082-1.1,0.157-1.621,0.226
		C100.957,435.853,100.989,435.849,101.016,435.845z"/>
	<path style="fill:#3E3D43;" d="M118.411,432.207c0.021-0.006,0.045-0.015,0.066-0.021c-1.142,0.334-2.265,0.643-3.366,0.927
		C116.265,432.825,117.437,432.516,118.411,432.207z"/>
	<path style="fill:#3E3D43;" d="M222.932,354.868c-3.891,2.261-7.88,4.586-11.949,6.943c-22.994,13.371-48.554,28.226-74.1,43.064
		c0.013,0.007,0.025,0.021,0.038,0.029c-0.015-0.008-0.031-0.016-0.045-0.024c-29.635,17.228-78.07,17.234-107.909,0
		c-1.17-0.675-2.278-1.373-3.357-2.08c-0.358-0.235-0.708-0.472-1.056-0.711c-0.618-0.422-1.216-0.849-1.801-1.282
		c-0.271-0.2-0.542-0.398-0.806-0.601c-0.666-0.509-1.305-1.026-1.928-1.547c-0.185-0.156-0.379-0.308-0.561-0.465
		c-0.19-0.164-0.378-0.328-0.564-0.493c-0.392-0.348-0.767-0.7-1.141-1.053c-0.261-0.248-0.529-0.493-0.782-0.742
		c-0.49-0.485-0.961-0.974-1.418-1.466c-0.333-0.361-0.647-0.725-0.961-1.09c-0.301-0.348-0.612-0.694-0.895-1.045
		c-0.045-0.055-0.087-0.111-0.131-0.166c-0.305-0.381-0.584-0.768-0.869-1.154c-0.819-1.107-1.558-2.228-2.214-3.362
		c-0.144-0.249-0.283-0.498-0.42-0.748c-0.243-0.447-0.474-0.897-0.693-1.347c-0.11-0.226-0.215-0.451-0.319-0.677
		c-0.162-0.355-0.323-0.712-0.469-1.069c-0.164-0.399-0.315-0.8-0.459-1.202c-0.113-0.306-0.215-0.613-0.316-0.922
		c-0.102-0.318-0.193-0.637-0.283-0.957c-0.046-0.167-0.099-0.332-0.14-0.5c-0.078-0.262-0.14-0.534-0.197-0.801
		c-0.098-0.423-0.193-0.847-0.27-1.272c-0.023-0.129-0.05-0.257-0.066-0.381c-0.124-0.682-0.201-1.366-0.263-2.048
		c-0.027-0.313-0.028-0.626-0.044-0.939c-0.019-0.416-0.048-0.832-0.048-1.242c0,0,0-0.009,0-0.016c0-0.535,0.024-1.07,0.057-1.604
		c0.022-0.333,0.053-0.666,0.086-0.999c0.037-0.367,0.077-0.732,0.13-1.098c0.033-0.228,0.062-0.455,0.104-0.69
		c0.096-0.565,0.207-1.13,0.341-1.692c0.057-0.223,0.121-0.449,0.181-0.676c0.079-0.3,0.166-0.599,0.256-0.897
		c0.118-0.4,0.246-0.8,0.389-1.2c0.083-0.234,0.172-0.469,0.261-0.703c0.112-0.29,0.218-0.582,0.344-0.874
		c0.143-0.357,0.311-0.715,0.476-1.071c0.075-0.164,0.146-0.327,0.226-0.49c0.182-0.375,0.375-0.748,0.574-1.12
		c0.031-0.057,0.064-0.116,0.096-0.173c0.43-0.795,0.901-1.583,1.41-2.365c0.08-0.124,0.158-0.249,0.24-0.373
		c0.168-0.251,0.334-0.502,0.511-0.751c0.155-0.219,0.325-0.436,0.486-0.654c0.302-0.409,0.6-0.817,0.925-1.221
		c0.329-0.41,0.68-0.814,1.032-1.219c0.336-0.388,0.685-0.772,1.043-1.156c0.334-0.357,0.669-0.715,1.021-1.068
		c0.442-0.443,0.91-0.879,1.381-1.314c0.201-0.186,0.393-0.374,0.6-0.559c0.998-0.893,2.068-1.766,3.189-2.624
		c0.201-0.154,0.405-0.306,0.609-0.458c0.852-0.634,1.736-1.258,2.656-1.87c0.047-0.03,0.091-0.063,0.138-0.093
		c0.446-0.296,0.9-0.588,1.363-0.878c0.398-0.25,0.804-0.496,1.213-0.741c0.269-0.161,0.522-0.328,0.796-0.487
		c0.002,0.001,0.005,0.002,0.007,0.003c4.941-2.875,9.866-5.732,14.807-8.607l23.768-13.822
		c47.085-27.353,93.767-54.481,138.56-80.51l18.278-10.625v-0.016l5.717-3.31c-1.356-0.275-2.584-0.08-3.568,0.501
		c-0.032,0.016-0.065,0.032-0.097,0.065c-59.793,34.732-119.586,69.482-179.38,104.231l-20.588,11.965
		c0.531-0.307,1.132-0.374,1.775-0.184c-0.645-0.189-1.247-0.119-1.774,0.187c-1.876,1.138-4.374,2.672-6.133,3.983
		c-2.022,1.506-4.575,3.701-6.447,5.389c-0.034,0.031-3.582,3.283-6.755,8.061c-2.986,4.496-4.334,8.249-5.089,10.682
		c-0.745,2.403-1.102,4.558-1.106,4.578c-0.486,3.208-0.49,3.336-0.596,6.638L0,383.639c-0.034,12.352,8.098,24.722,24.386,34.126
		c32.382,18.695,84.882,18.69,117.043-0.001l0.007-0.013v0.01l77.716-45.164l9.123-5.297c0-0.646-0.065-1.292-0.161-1.954
		C227.551,361.666,225.581,357.759,222.932,354.868z"/>
</g>
<path style="fill:#57565C;" d="M210.629,354.077c-0.339,0.193-0.678,0.388-1.033,0.598c-12.676,7.347-26.239,15.227-40.207,23.349
	l-10.528,6.12c-9.526,5.539-19.199,11.157-28.855,16.777c-20.706,12.031-51.838,14.433-76.82,7.22
	c-6.267-1.81-12.153-4.215-17.383-7.236c-2.532-1.462-4.817-3.012-6.859-4.634c-0.071-0.056-0.136-0.114-0.206-0.17
	c-0.594-0.478-1.17-0.959-1.722-1.448c-0.125-0.112-0.241-0.226-0.365-0.338c-0.483-0.438-0.957-0.879-1.406-1.325
	c-0.148-0.147-0.285-0.297-0.429-0.444c-0.406-0.416-0.807-0.834-1.184-1.257c-0.155-0.172-0.298-0.348-0.448-0.522
	c-0.347-0.402-0.688-0.807-1.008-1.215c-0.152-0.192-0.293-0.387-0.438-0.581c-0.297-0.394-0.587-0.789-0.86-1.187
	c-0.142-0.208-0.276-0.418-0.412-0.627c-0.253-0.389-0.499-0.778-0.729-1.171c-0.129-0.219-0.249-0.44-0.371-0.66
	c-0.214-0.388-0.421-0.775-0.613-1.166c-0.111-0.226-0.215-0.452-0.32-0.679c-0.179-0.389-0.348-0.778-0.506-1.169
	c-0.092-0.23-0.18-0.46-0.264-0.691c-0.144-0.392-0.28-0.786-0.403-1.18c-0.072-0.23-0.14-0.46-0.205-0.69
	c-0.112-0.399-0.213-0.8-0.304-1.202c-0.051-0.225-0.099-0.449-0.143-0.674c-0.08-0.412-0.147-0.824-0.205-1.237
	c-0.029-0.213-0.06-0.427-0.083-0.642c-0.047-0.428-0.079-0.858-0.102-1.287c-0.01-0.197-0.023-0.395-0.028-0.592
	c-0.013-0.452-0.007-0.904,0.008-1.356c0.004-0.114-0.003-0.228,0.002-0.342c0-0.114,0.016-0.238,0.023-0.357
	c0.008-0.134,0.008-0.264,0.026-0.401c0.032-0.549,0.113-1.098,0.193-1.647v-0.016c0.113-0.678,0.242-1.341,0.403-2.019
	c0.162-0.598,0.323-1.211,0.533-1.809c0.242-0.711,0.501-1.421,0.808-2.116c0.145-0.323,0.29-0.646,0.452-0.969
	c0.13-0.29,0.275-0.581,0.436-0.871c0.694-1.324,1.518-2.632,2.47-3.908c0.226-0.323,0.468-0.63,0.711-0.936
	c0.743-0.936,1.55-1.841,2.422-2.745c0.003-0.003,0.006-0.005,0.008-0.008c0.042-0.043,0.088-0.085,0.13-0.128
	c0.311-0.321,0.629-0.643,0.964-0.95c0.004-0.004,0.007-0.007,0.011-0.011c0.133-0.133,0.284-0.26,0.421-0.393
	c0.248-0.237,0.488-0.476,0.758-0.705c0.651-0.59,1.352-1.164,2.075-1.726c0.048-0.038,0.089-0.077,0.137-0.114
	c0.242-0.193,0.485-0.388,0.743-0.565c0.157-0.123,0.331-0.233,0.492-0.352c0.338-0.25,0.678-0.496,1.03-0.738
	c0.12-0.082,0.23-0.169,0.351-0.251c0.386-0.272,0.789-0.539,1.2-0.8c0.053-0.033,0.102-0.071,0.157-0.104
	c0.016-0.01,0.032-0.02,0.047-0.03c0.341-0.231,0.695-0.448,1.051-0.665c0.403-0.258,0.823-0.501,1.243-0.743
	c8.574-4.989,17.165-9.963,25.739-14.952l25.674-14.92c21.363-12.418,42.613-24.754,63.604-36.961
	c8.412-4.877,16.761-9.736,25.077-14.565c16.486-9.591,32.779-19.054,48.813-28.371c4.004-2.325,7.992-4.651,11.948-6.943
	c-0.517-0.565-1.049-1.066-1.599-1.534c0,0,0,0-0.016-0.016c-0.662-0.565-1.356-1.066-2.067-1.469
	c-0.726-0.42-1.421-0.727-2.099-0.936h-0.032c-0.016-0.016-0.032-0.032-0.048-0.032c-0.226-0.13-0.388-0.226-0.485-0.29
	c-0.08,0.048-0.161,0.097-0.242,0.145c-1.906,1.098-3.811,2.212-5.717,3.326l-18.278,10.625
	c-44.793,26.029-91.475,53.157-138.56,80.51L43.44,333.778c-4.941,2.875-9.866,5.732-14.807,8.607
	c-0.275,0.156-0.535,0.322-0.804,0.484c-0.41,0.246-0.815,0.492-1.213,0.741c-0.464,0.288-0.917,0.577-1.363,0.878
	c-0.047,0.031-0.092,0.063-0.138,0.093c-0.675,0.447-1.325,0.893-1.957,1.356c-0.236,0.165-0.467,0.341-0.699,0.514
	c-0.205,0.153-0.409,0.304-0.609,0.458c-0.353,0.27-0.713,0.538-1.049,0.82c-0.747,0.592-1.456,1.194-2.14,1.804
	c-0.207,0.185-0.398,0.373-0.6,0.559c-0.471,0.435-0.937,0.87-1.381,1.314c-0.352,0.353-0.686,0.711-1.021,1.068
	c-0.044,0.05-0.095,0.097-0.138,0.147c-0.323,0.336-0.615,0.672-0.905,1.008c-0.352,0.404-0.703,0.81-1.032,1.219
	c-0.027,0.032-0.054,0.065-0.082,0.098c-0.048,0.065-0.113,0.13-0.145,0.193c-0.245,0.306-0.471,0.62-0.698,0.93
	c-0.161,0.218-0.331,0.435-0.486,0.654c-0.172,0.251-0.344,0.501-0.511,0.751c-0.083,0.123-0.16,0.249-0.24,0.373
	c-0.509,0.781-0.981,1.572-1.41,2.365c-0.031,0.057-0.065,0.116-0.096,0.173c-0.203,0.371-0.394,0.749-0.574,1.12
	c-0.078,0.163-0.149,0.327-0.226,0.49c-0.165,0.357-0.333,0.715-0.476,1.071c-0.125,0.292-0.232,0.583-0.344,0.874
	c-0.089,0.234-0.179,0.468-0.261,0.703c-0.143,0.4-0.271,0.8-0.389,1.2c-0.09,0.299-0.177,0.598-0.256,0.897
	c-0.06,0.227-0.123,0.453-0.181,0.676c-0.134,0.563-0.245,1.127-0.341,1.692c-0.043,0.235-0.071,0.461-0.104,0.69
	c-0.052,0.366-0.093,0.731-0.13,1.098c-0.033,0.333-0.064,0.666-0.086,0.999c-0.033,0.534-0.057,1.069-0.057,1.604
	c0,0.006,0,0.016,0,0.016c0,0.411,0.028,0.828,0.048,1.242c0.016,0.313,0.017,0.626,0.044,0.939c0.064,0.683,0.14,1.366,0.263,2.048
	c0.017,0.124,0.044,0.253,0.066,0.381c0.076,0.425,0.171,0.848,0.27,1.272c0.057,0.266,0.118,0.538,0.197,0.801
	c0.041,0.168,0.094,0.333,0.14,0.501c0.09,0.32,0.181,0.638,0.283,0.957c0.1,0.307,0.204,0.614,0.316,0.922
	c0.144,0.401,0.296,0.802,0.459,1.202c0.038,0.093,0.072,0.185,0.11,0.28c0.032,0.08,0.065,0.161,0.097,0.226
	c0.077,0.185,0.177,0.376,0.262,0.563c0.103,0.226,0.209,0.451,0.319,0.677c0.207,0.461,0.445,0.907,0.693,1.347
	c0.136,0.25,0.276,0.499,0.42,0.748c0.167,0.292,0.328,0.583,0.519,0.88c0.52,0.847,1.093,1.666,1.696,2.484
	c0.285,0.386,0.564,0.772,0.869,1.154c0.043,0.055,0.086,0.111,0.131,0.166c0.284,0.351,0.596,0.697,0.895,1.045
	c0.23,0.264,0.448,0.533,0.688,0.788c0.092,0.106,0.183,0.202,0.274,0.302c0.456,0.493,0.927,0.982,1.418,1.466
	c0.253,0.246,0.52,0.493,0.782,0.742c0.374,0.353,0.749,0.705,1.141,1.053c0.186,0.165,0.371,0.329,0.564,0.493
	c0.182,0.157,0.376,0.309,0.561,0.465c0.622,0.521,1.262,1.038,1.928,1.547c0.263,0.202,0.535,0.401,0.806,0.601
	c0.585,0.434,1.186,0.861,1.801,1.282c0.348,0.238,0.699,0.475,1.056,0.711c0.45,0.292,0.899,0.587,1.358,0.864
	c0.646,0.42,1.324,0.823,2.002,1.211c29.84,17.245,78.266,17.229,107.912,0c25.545-14.84,51.106-29.695,74.1-43.064
	c4.069-2.357,8.057-4.683,11.949-6.943c-1.114-1.227-2.357-2.277-3.665-3.035c-1.001-0.581-1.97-0.953-2.875-1.114c0,0,0,0-0.016,0
	c-1.889,1.098-3.811,2.212-5.748,3.343v0.018H210.629z"/>
<g>
</g>
<g>
</g>
<g>
</g>
<g>
</g>
<g>
</g>
<g>
</g>
<g>
</g>
<g>
</g>
<g>
</g>
<g>
</g>
<g>
</g>
<g>
</g>
<g>
</g>
<g>
</g>
<g>
</g>
</svg>
