<?xml version="1.0" encoding="iso-8859-1"?>
<!-- Generator: Adobe Illustrator 19.0.0, SVG Export Plug-In . SVG Version: 6.00 Build 0)  -->
<svg version="1.1" id="Layer_1" xmlns="http://www.w3.org/2000/svg" xmlns:xlink="http://www.w3.org/1999/xlink" x="0px" y="0px"
	 viewBox="0 0 512.002 512.002" style="enable-background:new 0 0 512.002 512.002;" xml:space="preserve">
<g>
	<path style="fill:#E0E0E2;" d="M432.681,160.207c0.035-0.379,0.07-0.759,0.099-1.138c0.035-0.478,0.06-0.956,0.083-1.434
		c0.018-0.372,0.039-0.744,0.05-1.116c0.015-0.493,0.018-0.985,0.021-1.478c0.002-0.357,0.008-0.714,0.004-1.073
		c-0.006-0.519-0.027-1.038-0.047-1.557c-0.013-0.332-0.019-0.663-0.037-0.995c-0.033-0.589-0.082-1.18-0.132-1.769
		c-0.022-0.261-0.036-0.52-0.061-0.781c-0.083-0.847-0.184-1.694-0.303-2.54c-0.024-0.174-0.058-0.348-0.084-0.522
		c-0.101-0.672-0.207-1.346-0.331-2.017c-0.058-0.316-0.129-0.63-0.192-0.947c-0.106-0.531-0.211-1.061-0.332-1.591
		c-0.08-0.352-0.172-0.704-0.258-1.056c-0.121-0.493-0.242-0.984-0.375-1.475c-0.1-0.368-0.21-0.734-0.317-1.102
		c-0.138-0.475-0.276-0.949-0.427-1.423c-0.119-0.375-0.245-0.749-0.371-1.123c-0.157-0.466-0.315-0.932-0.483-1.396
		c-0.135-0.376-0.277-0.75-0.42-1.125c-0.177-0.462-0.356-0.923-0.543-1.384c-0.153-0.377-0.311-0.753-0.472-1.129
		c-0.195-0.457-0.396-0.913-0.602-1.368c-0.17-0.375-0.342-0.75-0.519-1.125c-0.216-0.457-0.44-0.912-0.668-1.368
		c-0.185-0.37-0.37-0.741-0.562-1.109c-0.24-0.46-0.489-0.918-0.74-1.376c-0.199-0.362-0.395-0.725-0.6-1.085
		c-0.266-0.468-0.543-0.934-0.822-1.399c-0.208-0.348-0.411-0.697-0.625-1.044c-0.302-0.489-0.617-0.974-0.932-1.46
		c-0.208-0.323-0.411-0.645-0.625-0.967c-0.361-0.541-0.739-1.079-1.117-1.618c-0.185-0.263-0.361-0.528-0.549-0.79
		c-0.572-0.796-1.161-1.589-1.768-2.378c-0.102-0.132-0.212-0.264-0.316-0.397c-0.514-0.659-1.035-1.316-1.574-1.971
		c-0.234-0.284-0.48-0.565-0.719-0.848c-0.421-0.5-0.843-1-1.28-1.496c-0.282-0.319-0.575-0.637-0.862-0.955
		c-0.412-0.456-0.822-0.912-1.246-1.365c-0.313-0.334-0.636-0.665-0.955-0.998c-0.417-0.434-0.834-0.868-1.263-1.299
		c-0.337-0.339-0.683-0.676-1.027-1.013c-0.43-0.42-0.86-0.84-1.302-1.259c-0.358-0.339-0.723-0.677-1.088-1.014
		c-0.448-0.413-0.898-0.825-1.357-1.236c-0.375-0.335-0.754-0.669-1.137-1.002c-0.466-0.407-0.938-0.811-1.415-1.215
		c-0.393-0.333-0.789-0.664-1.19-0.995c-0.486-0.401-0.981-0.801-1.479-1.199c-0.408-0.326-0.815-0.651-1.23-0.975
		c-0.513-0.4-1.035-0.796-1.558-1.194c-0.418-0.316-0.833-0.632-1.259-0.947c-0.547-0.404-1.105-0.805-1.665-1.206
		c-0.419-0.3-0.834-0.602-1.261-0.9c-0.59-0.414-1.196-0.824-1.8-1.233c-0.413-0.281-0.819-0.562-1.238-0.84
		c-0.673-0.448-1.364-0.889-2.052-1.331c-0.366-0.234-0.722-0.472-1.092-0.704c-1.023-0.644-2.063-1.284-3.12-1.916
		c-0.043-0.026-0.085-0.053-0.129-0.079c-27.6-16.499-62.428-26.482-98.742-29.89c-2.794-0.263-5.596-0.485-8.404-0.67
		c-28.084-1.844-56.786,0.206-83.494,6.174c-21.365,4.775-41.454,12.058-58.928,21.863c-1.155,0.648-2.288,1.304-3.405,1.966
		c-0.373,0.221-0.733,0.445-1.102,0.667c-0.738,0.444-1.474,0.89-2.196,1.341c-0.425,0.266-0.842,0.536-1.261,0.804
		c-0.648,0.414-1.295,0.828-1.93,1.247c-0.434,0.287-0.86,0.575-1.288,0.864c-0.604,0.408-1.204,0.815-1.794,1.227
		c-0.427,0.297-0.849,0.596-1.268,0.895c-0.576,0.411-1.146,0.824-1.709,1.239c-0.412,0.303-0.822,0.607-1.227,0.912
		c-0.557,0.419-1.105,0.842-1.649,1.265c-0.39,0.303-0.78,0.606-1.163,0.911c-0.553,0.44-1.093,0.884-1.632,1.327
		c-0.355,0.292-0.713,0.584-1.062,0.878c-0.575,0.485-1.135,0.974-1.694,1.462c-0.294,0.257-0.596,0.513-0.885,0.772
		c-0.726,0.648-1.434,1.301-2.132,1.956c-0.11,0.103-0.226,0.205-0.335,0.309c-0.802,0.76-1.582,1.523-2.347,2.292
		c-0.236,0.238-0.461,0.478-0.694,0.717c-0.521,0.534-1.04,1.068-1.543,1.607c-0.281,0.299-0.549,0.602-0.825,0.904
		c-0.439,0.482-0.877,0.963-1.303,1.449c-0.284,0.324-0.559,0.649-0.837,0.974c-0.4,0.47-0.797,0.939-1.184,1.411
		c-0.273,0.334-0.542,0.668-0.809,1.003c-0.373,0.468-0.74,0.936-1.1,1.407c-0.261,0.34-0.518,0.68-0.771,1.021
		c-0.351,0.473-0.693,0.947-1.032,1.421c-0.242,0.339-0.483,0.679-0.718,1.019c-0.336,0.487-0.662,0.977-0.984,1.467
		c-0.216,0.329-0.437,0.657-0.647,0.987c-0.336,0.526-0.658,1.055-0.978,1.583c-0.18,0.295-0.365,0.59-0.539,0.887
		c-0.386,0.656-0.754,1.313-1.117,1.973c-0.094,0.171-0.195,0.34-0.288,0.512c-0.449,0.831-0.877,1.665-1.288,2.502
		c-0.115,0.233-0.217,0.466-0.329,0.7c-0.29,0.606-0.576,1.212-0.846,1.821c-0.14,0.315-0.269,0.631-0.403,0.948
		c-0.225,0.528-0.449,1.057-0.659,1.586c-0.138,0.347-0.266,0.693-0.397,1.04c-0.19,0.502-0.376,1.004-0.553,1.508
		c-0.126,0.36-0.247,0.722-0.367,1.083c-0.164,0.495-0.323,0.991-0.474,1.487c-0.111,0.364-0.219,0.726-0.323,1.091
		c-0.143,0.498-0.277,0.997-0.407,1.497c-0.093,0.361-0.187,0.722-0.274,1.083c-0.123,0.511-0.235,1.022-0.345,1.534
		c-0.075,0.35-0.152,0.699-0.222,1.049c-0.106,0.54-0.199,1.08-0.29,1.621c-0.055,0.321-0.115,0.643-0.163,0.966
		c-0.098,0.639-0.178,1.278-0.254,1.916c-0.026,0.224-0.061,0.445-0.085,0.669c-0.093,0.864-0.168,1.727-0.225,2.592
		c-0.013,0.2-0.016,0.4-0.027,0.6c-0.037,0.664-0.067,1.329-0.081,1.993c-0.006,0.317-0.002,0.635-0.004,0.952
		c-0.003,0.547-0.004,1.096,0.008,1.644c0.008,0.352,0.025,0.703,0.039,1.055c0.021,0.516,0.044,1.031,0.078,1.547
		c0.024,0.365,0.055,0.728,0.086,1.093c0.043,0.504,0.09,1.009,0.146,1.512c0.02,0.179,0.03,0.358,0.051,0.537l0,0l0,0
		c10.864,91.168,21.728,182.321,32.592,273.489c0.022,0.184,0.062,0.367,0.086,0.551c0.065,0.502,0.153,1.003,0.235,1.506
		c0.123,0.758,0.254,1.513,0.413,2.268c0.109,0.52,0.233,1.038,0.359,1.557c0.18,0.739,0.375,1.475,0.588,2.212
		c0.151,0.52,0.309,1.04,0.477,1.559c0.241,0.74,0.503,1.477,0.779,2.214c0.189,0.505,0.375,1.011,0.58,1.515
		c0.311,0.764,0.655,1.524,1.003,2.284c0.215,0.469,0.419,0.938,0.649,1.406c0.418,0.85,0.877,1.694,1.344,2.537
		c0.204,0.37,0.389,0.742,0.602,1.111c0.7,1.207,1.444,2.408,2.242,3.6c0.104,0.156,0.225,0.309,0.331,0.464
		c0.705,1.034,1.44,2.062,2.22,3.084c0.309,0.403,0.646,0.802,0.966,1.203c0.611,0.767,1.229,1.534,1.884,2.291
		c0.393,0.456,0.81,0.906,1.219,1.358c0.629,0.697,1.267,1.391,1.932,2.079c0.453,0.468,0.921,0.932,1.39,1.395
		c0.674,0.666,1.363,1.328,2.072,1.986c0.499,0.462,1.005,0.922,1.521,1.38c0.734,0.652,1.491,1.298,2.26,1.94
		c0.534,0.445,1.065,0.891,1.616,1.332c0.818,0.656,1.666,1.302,2.521,1.947c0.545,0.411,1.08,0.825,1.641,1.231
		c0.963,0.7,1.967,1.386,2.975,2.072c0.495,0.336,0.971,0.679,1.477,1.012c1.535,1.01,3.111,2.007,4.745,2.983
		c55.061,32.916,145.619,33.831,202.265,2.043c1.706-0.957,3.357-1.935,4.962-2.929c0.533-0.33,1.032-0.67,1.553-1.003
		c1.053-0.672,2.104-1.346,3.112-2.034c0.595-0.407,1.158-0.823,1.738-1.234c0.887-0.63,1.775-1.26,2.624-1.901
		c0.593-0.448,1.158-0.902,1.732-1.355c0.789-0.622,1.576-1.244,2.331-1.875c0.567-0.474,1.112-0.954,1.659-1.433
		c0.714-0.625,1.42-1.251,2.102-1.885c0.532-0.494,1.046-0.991,1.558-1.49c0.65-0.634,1.288-1.27,1.906-1.912
		c0.489-0.507,0.967-1.016,1.436-1.528c0.594-0.647,1.168-1.299,1.73-1.953c0.442-0.515,0.879-1.031,1.302-1.55
		c0.541-0.666,1.058-1.335,1.568-2.008c0.392-0.517,0.785-1.034,1.157-1.554c0.494-0.69,0.957-1.386,1.417-2.082
		c0.337-0.512,0.684-1.021,1.003-1.536c0.452-0.728,0.867-1.46,1.283-2.194c0.278-0.491,0.57-0.978,0.833-1.472
		c0.427-0.804,0.81-1.614,1.195-2.424c0.203-0.429,0.428-0.854,0.618-1.284c0.489-1.099,0.928-2.204,1.337-3.313
		c0.054-0.144,0.121-0.287,0.172-0.431c0.451-1.253,0.847-2.513,1.197-3.776c0.109-0.395,0.187-0.793,0.286-1.188
		c0.219-0.869,0.435-1.739,0.606-2.611c0.097-0.496,0.162-0.994,0.244-1.491c0.103-0.625,0.228-1.25,0.307-1.876
		c11.38-91.101,22.763-182.201,34.142-273.302l0,0c0.021-0.167,0.033-0.334,0.051-0.501
		C432.591,161.15,432.637,160.678,432.681,160.207z"/>
	<path style="fill:#E0E0E2;" d="M155.982,369.55c56.647-31.786,147.204-30.871,202.266,2.043s53.776,85.367-2.871,117.153
		s-147.204,30.871-202.266-2.043S99.335,401.337,155.982,369.55z"/>
	<path style="fill:#E0E0E2;" d="M398.342,435.425c2.843-22.758-10.47-46.122-40.095-63.831
		c-55.062-32.916-145.619-33.831-202.266-2.043L133.446,80.842c69.894-39.221,181.629-38.091,249.568,2.521
		c36.552,21.851,52.979,50.679,49.471,78.758C421.104,253.223,409.721,344.324,398.342,435.425z"/>
</g>
<path style="fill:#C6C5CB;" d="M414.057,159.825l-32.451,259.718c2.509-20.081-9.239-40.698-35.378-56.325
	c-48.586-29.044-128.491-29.851-178.477-1.804l-21.42-274.36c62.576-35.114,162.611-34.102,223.435,2.258
	C402.491,108.876,417.197,134.685,414.057,159.825z"/>
<path style="fill:#E0E0E2;" d="M80.39,161.139c-3.452-28.968,14.302-58.551,53.055-80.297l22.537,288.708
	c-31.408,17.624-45.796,41.6-42.999,65.077C102.118,343.459,91.255,252.307,80.39,161.139z"/>
<path style="fill:#ACABB1;" d="M129.809,418.84c-10.325-86.637-20.652-173.258-30.977-259.895
	c-3.091-25.934,12.804-52.422,47.499-71.891l21.42,274.361C140.036,376.967,127.339,398.124,129.809,418.84z"/>
<path style="fill:#D8D8DA;" d="M112.983,434.628c-10.864-91.168-21.728-182.321-32.592-273.489
	c2.774,23.278,19.242,46.159,49.512,64.254c67.938,40.613,179.673,41.742,249.568,2.521c32.29-18.119,50.001-41.68,53.013-65.792
	l0,0c-11.379,91.101-22.763,182.201-34.142,273.302c-2.442,19.541-16.795,38.637-42.965,53.322
	c-56.647,31.786-147.204,30.871-202.266-2.043C128.578,472.037,115.231,453.494,112.983,434.628z"/>
<path style="fill:#FFB657;" d="M98.831,158.945c2.484,20.84,17.228,41.325,44.328,57.524c60.824,36.361,160.86,37.371,223.435,2.258
	c28.909-16.222,44.765-37.315,47.463-58.902l-32.45,259.718c-2.155,17.243-14.82,34.093-37.911,47.05
	c-49.984,28.048-129.891,27.24-178.477-1.804c-21.647-12.94-33.424-29.303-35.408-45.95
	C119.483,332.203,109.157,245.581,98.831,158.945z"/>
<path style="fill:#FFA834;" d="M167.75,361.416c49.984-28.048,129.891-27.24,178.477,1.804s47.451,75.326-2.533,103.374
	c-49.984,28.048-129.891,27.24-178.477-1.804S117.766,389.464,167.75,361.416z"/>
<circle style="fill:#FEC377;" cx="170.768" cy="292.86" r="18.778"/>
<circle style="fill:#FFB657;" cx="316.32" cy="368.42" r="13.477"/>
<circle style="fill:#FEC377;" cx="342.018" cy="311.634" r="12.211"/>
<circle style="fill:#FFB657;" cx="202.339" cy="389.275" r="12.794"/>
<circle style="fill:#FEC377;" cx="229.245" cy="316.583" r="10.031"/>
<path style="fill:#E0E0E2;" d="M383.013,83.364c-67.938-40.613-179.673-41.742-249.568-2.523
	c-69.894,39.221-71.481,103.937-3.543,144.55s179.673,41.742,249.568,2.523S450.951,123.977,383.013,83.364z M366.594,218.727
	c-62.576,35.114-162.611,34.103-223.436-2.258s-59.404-94.301,3.172-129.415s162.611-34.102,223.435,2.258
	C430.589,125.673,429.17,183.613,366.594,218.727z"/>
<path style="fill:#D8D8DA;" d="M443.5,110.059c0.548-28.287-17.876-56.703-55.258-78.287
	c-73.375-42.363-191.945-42.363-264.844,0.001c-36.331,21.113-54.456,48.764-54.417,76.435c0-0.089-0.005-0.178-0.005-0.267
	l-0.499,42.683c-0.079,27.939,18.362,55.921,55.286,77.238c73.37,42.36,191.945,42.363,264.844-0.001
	c36.215-21.046,54.341-48.586,54.42-76.169l0.499-42.683C443.523,109.36,443.507,109.71,443.5,110.059z"/>
<path style="fill:#C6C5CB;" d="M443.524,109.011l-0.499,42.683c-0.079,27.582-18.205,55.123-54.42,76.169
	c-72.898,42.364-191.474,42.361-264.844,0.001c-36.923-21.318-55.364-49.299-55.286-77.238l0.499-42.683
	c-0.08,27.939,18.362,55.921,55.286,77.238c73.37,42.36,191.945,42.363,264.844-0.001
	C425.319,164.135,443.447,136.594,443.524,109.011z"/>
<path style="fill:#E0E0E2;" d="M388.241,31.772c73.37,42.36,73.762,111.044,0.864,153.408s-191.474,42.362-264.844,0.001
	c-73.375-42.363-73.762-111.044-0.864-153.408C196.296-10.59,314.866-10.591,388.241,31.772z"/>
<path style="fill:#D8D8DA;" d="M275.242,97.44c10.557,6.095,10.613,15.978,0.124,22.072c-10.489,6.096-27.55,6.095-38.107,0
	c-10.558-6.096-10.613-15.978-0.124-22.072C247.623,91.344,264.684,91.344,275.242,97.44z"/>
<g>
</g>
<g>
</g>
<g>
</g>
<g>
</g>
<g>
</g>
<g>
</g>
<g>
</g>
<g>
</g>
<g>
</g>
<g>
</g>
<g>
</g>
<g>
</g>
<g>
</g>
<g>
</g>
<g>
</g>
</svg>
