<?xml version="1.0" encoding="iso-8859-1"?>
<!-- Generator: Adobe Illustrator 19.0.0, SVG Export Plug-In . SVG Version: 6.00 Build 0)  -->
<svg version="1.1" id="Layer_1" xmlns="http://www.w3.org/2000/svg" xmlns:xlink="http://www.w3.org/1999/xlink" x="0px" y="0px"
	 viewBox="0 0 512.001 512.001" style="enable-background:new 0 0 512.001 512.001;" xml:space="preserve">
<path style="fill:#E0E0E2;" d="M332.206,47.86c-0.001-3.295-0.479-6.485-1.421-9.481c-0.397-1.264-1.606-5.109-4.545-9.498
	c-2.516-3.757-5.22-6.532-7.046-8.197c-0.599-0.546-2.422-2.21-4.806-3.977c-1.589-1.178-3.816-2.595-5.489-3.651
	c-0.017-0.01-0.034-0.02-0.051-0.03C280.496-3.922,233.87-4.393,204.702,11.974c-1.485,0.865-3.468,2.02-4.879,3.001
	c-1.84,1.279-3.579,2.487-5.698,4.348c-4.664,4.098-6.714,7.021-8.211,9.154c-1.229,1.751-2.335,3.932-2.886,5.075
	c-0.903,1.876-1.521,3.803-1.785,4.626c-0.247,0.771-0.715,2.408-1.066,4.72c-0.271,1.777-0.303,3.056-0.342,4.536
	c0,0.001,0,0.001,0,0.002l-0.041,14.374c0.043,2.389,0.109,4.028,0.88,7.491c0.238,1.072,0.84,3.316,2.192,6.311
	c0.884,1.957,3.493,7.054,8.624,12.106c2.9,2.855,5.903,5.002,8.545,6.952l-0.072,364.967c0.072-0.126,0.072-0.127,0.072-0.127
	v0.001v0.038c0,0.016,0,0.032,0,0.048c-0.037,13.516,4.168,22.754,5.916,25.794c1.887,3.281,4.868,7.157,7.595,9.877
	c0.855,0.853,2.634,2.626,4.887,4.394c1.166,0.914,2.763,2.167,5.946,4.104c1.756,1.069,6.523,3.759,12.821,5.651
	c0.034,0.01,3.513,1.046,6.126,1.501c1.606,0.28,3.759,0.58,5.378,0.776c0.834,0.101,1.952,0.186,2.792,0.214
	c0.832,0.028,1.94,0.099,2.772,0.089c1.658-0.02,3.869-0.086,5.523-0.19c2.38-0.151,5.843-0.732,6.288-0.823
	c1.562-0.32,3.639-0.784,5.181-1.193c1.142-0.303,2.637-0.806,3.758-1.181c1.579-0.53,4.52-1.736,6.864-2.928
	c6.017-3.062,9.866-6.272,12.237-8.422c2.436-2.208,4.475-4.628,4.495-4.651c1.565-1.882,2.727-3.331,4.543-6.213
	c1.685-2.675,4.047-7.093,5.723-12.943c1.783-6.218,2.974-11.526,3.001-13.578c0-0.005,0-364.988,0-364.988
	c1.527-1.048,4-2.794,6.06-4.604c1.135-0.997,2.752-2.481,4.011-3.887c0.54-0.604,1.268-1.404,1.772-2.04
	c0.735-0.926,1.674-2.192,2.352-3.16c0.529-0.753,1.606-2.414,2.885-5.068c0.908-1.884,1.526-3.808,1.789-4.629
	c0.248-0.773,0.717-2.415,1.069-4.727c0.271-1.777,0.304-3.057,0.343-4.54L332.206,47.86
	C332.179,57.188,332.178,57.188,332.206,47.86z"/>
<path style="fill:#C6C5CB;" d="M224.383,503.77c-3.184-1.937-4.78-3.19-5.946-4.104c-2.253-1.768-4.032-3.541-4.887-4.394
	c-2.728-2.72-5.709-6.596-7.596-9.877c-1.752-3.047-5.977-12.318-5.916-25.882c-0.04,8.167,4.112,16.359,14.715,22.697
	c21.528,12.869,56.933,13.227,79.08,0.799c11.273-6.326,18.046-17.804,18.052-23.185l0,0c-0.026,2.013-1.204,7.363-3.001,13.633
	c-1.677,5.85-4.037,10.268-5.723,12.943c-1.816,2.883-2.978,4.331-4.543,6.213c-0.02,0.023-2.059,2.443-4.495,4.651
	c-2.371,2.149-6.219,5.36-12.237,8.422c-2.344,1.192-5.285,2.398-6.864,2.928c-1.12,0.376-2.615,0.878-3.758,1.181
	c-1.541,0.41-3.618,0.872-5.181,1.193c-0.445,0.091-3.908,0.673-6.288,0.823c-1.655,0.104-3.865,0.17-5.523,0.19
	c-0.832,0.01-1.94-0.061-2.772-0.089c-0.84-0.028-1.958-0.113-2.792-0.214c-1.619-0.196-3.772-0.496-5.378-0.776
	c-2.613-0.456-6.092-1.491-6.126-1.501C230.905,507.529,226.14,504.839,224.383,503.77z"/>
<path style="fill:#D8D8DA;" d="M200.037,459.551V68.922c-0.023,8.153,5.236,16.329,15.823,22.658
	c21.528,12.869,56.933,13.227,79.08,0.799c11.255-6.316,16.921-14.719,16.945-23.145v390.63c0,5.38-6.797,16.829-18.052,23.145
	c-22.147,12.428-57.552,12.069-79.08-0.799C204.166,475.881,200.013,467.705,200.037,459.551z"/>
<path style="fill:#C6C5CB;" d="M283.682,27.412c-14.871-8.89-39.328-9.136-54.628-0.552c-7.775,4.363-11.689,10.168-11.706,15.989
	v397.682c0.017-5.821,2.802-11.625,10.577-15.989l0,0l0,0c15.299-8.585,39.757-8.338,54.629,0.552
	c7.313,4.372,12.074,10.019,12.057,15.652V43.064C294.627,37.431,290.995,31.784,283.682,27.412z"/>
<path style="fill:#D8D8DA;" d="M289.946,21.57c-18.201-10.88-48.136-11.183-66.862-0.676c-9.517,5.34-14.307,12.445-14.326,19.57
	c-0.02,6.894,4.426,13.807,13.378,19.157c18.201,10.88,48.136,11.183,66.862,0.676c9.517-5.34,14.307-12.445,14.326-19.57
	C303.344,33.834,298.898,26.921,289.946,21.57z M291.565,54.558c-1.738,1.961-4.164,3.798-7.211,5.46
	c-3.849,2.099-7.668,3.35-10.195,4.031c-8.061,2.171-16.297,2.818-25.176,1.978c-2.884-0.273-7.346-0.908-12.219-2.381
	c-5.563-1.682-8.699-3.517-10.206-4.399c-1.293-0.756-4.541-2.825-6.79-5.698c-2.26-2.886-2.338-4.995-2.376-6.008
	c0.017-5.821,3.93-11.625,11.706-15.989c15.299-8.585,39.757-8.338,54.628,0.552c7.313,4.372,10.946,10.019,10.931,15.652
	C294.628,48.69,294.566,51.171,291.565,54.558z"/>
<path style="fill:#ACABB1;" d="M307.3,97.698c1.811-1.007,6.472-3.745,10.645-7.411c1.135-0.997,2.752-2.481,4.011-3.887
	c0.54-0.604,1.268-1.404,1.772-2.04c0.735-0.926,1.673-2.192,2.352-3.16c0.529-0.753,1.606-2.414,2.885-5.068
	c0.908-1.884,1.526-3.808,1.789-4.629c0.248-0.773,0.717-2.415,1.069-4.727c0.271-1.777,0.304-3.057,0.343-4.54
	c-0.032,11.479-7.75,22.927-23.084,31.53c-30.171,16.93-78.404,16.442-107.731-1.089c-14.423-8.621-21.586-19.76-21.555-30.867
	c0.043,2.389,0.109,4.028,0.88,7.491c0.238,1.072,0.84,3.316,2.192,6.311c0.884,1.957,3.492,7.054,8.624,12.106
	c5.29,5.208,10.461,8.335,14.823,10.708c3.704,2.016,8.274,3.833,8.467,3.909c3.042,1.205,6.207,2.273,9.408,3.174
	c18.177,5.116,34.946,4.558,43.324,3.77c4.891-0.46,12.417-1.37,21.271-3.948C293.096,104.079,299.707,101.921,307.3,97.698z"/>
<path style="fill:#E0E0E2;" d="M208.971,12.457c26.745-15.008,69.5-14.575,95.496,0.965c25.997,15.541,25.39,40.304-1.355,55.312
	c-26.745,15.008-69.5,14.575-95.496-0.965S182.225,27.465,208.971,12.457z M223.085,20.895
	c-18.725,10.507-19.151,27.846-0.949,38.726s48.137,11.183,66.862,0.676c18.725-10.507,19.151-27.846,0.949-38.727
	S241.811,10.387,223.085,20.895"/>
<g>
	<path style="fill:#820018;" d="M294.475,178.344c0.112-5.789-3.148-11.611-10.647-16.105c-15.058-9.024-39.822-9.274-55.313-0.56
		c-8.256,4.643-12.049,10.896-11.664,17.089v272.364c0,0.013,0,0.026,0,0.039c-0.024,9.447,2.756,15.904,3.979,18.029
		c1.319,2.294,3.403,5.004,5.311,6.906c0.598,0.596,1.842,1.836,3.417,3.072c0.815,0.639,1.932,1.515,4.158,2.87
		c1.229,0.747,4.561,2.629,8.964,3.952c0.024,0.007,2.457,0.731,4.283,1.05c1.123,0.195,2.629,0.405,3.76,0.542
		c0.583,0.071,1.366,0.131,1.952,0.149c0.582,0.02,1.356,0.069,1.938,0.062c1.159-0.015,2.705-0.06,3.862-0.133
		c1.664-0.106,4.085-0.512,4.397-0.576c1.092-0.224,2.544-0.548,3.623-0.834c0.798-0.212,1.844-0.563,2.628-0.825
		c1.103-0.37,3.161-1.213,4.799-2.047c4.207-2.14,6.897-4.385,8.556-5.888c1.703-1.544,3.129-3.236,3.143-3.252
		c1.094-1.316,1.907-2.329,3.176-4.345c1.179-1.87,2.83-4.959,4.002-9.05c1.245-4.346,1.664-8.052,1.683-9.488
		c0-0.005,0-0.011,0-0.017V178.228C294.48,178.268,294.476,178.306,294.475,178.344z"/>
	<path style="fill:#820018;" d="M233.715,482.051c-2.226-1.355-3.343-2.231-4.158-2.87c-1.576-1.236-2.819-2.476-3.417-3.072
		c-1.907-1.902-3.991-4.612-5.311-6.906c-1.225-2.131-4.021-8.613-3.979-18.096c-0.028,5.71,2.717,11.437,10.13,15.87
		c15.052,8.997,39.807,9.248,55.291,0.559c7.883-4.423,12.203-10.31,12.207-16.21l0,0c-0.019,1.408-0.427,5.148-1.683,9.531
		c-1.172,4.091-2.823,7.179-4.002,9.05c-1.27,2.016-2.082,3.028-3.176,4.345c-0.014,0.017-1.44,1.708-3.143,3.252
		c-1.658,1.503-4.348,3.748-8.555,5.888c-1.638,0.834-3.696,1.677-4.799,2.047c-0.784,0.263-1.829,0.613-2.628,0.825
		c-1.077,0.286-2.53,0.61-3.623,0.834c-0.311,0.064-2.732,0.47-4.397,0.576c-1.157,0.073-2.703,0.119-3.862,0.133
		c-0.582,0.007-1.356-0.043-1.938-0.062c-0.587-0.02-1.369-0.079-1.952-0.15c-1.132-0.137-2.637-0.347-3.759-0.542
		c-1.827-0.319-4.259-1.043-4.283-1.05C238.276,484.68,234.944,482.798,233.715,482.051z"/>
</g>
<path style="fill:#A50020;" d="M216.851,451.134V178.011c-0.016,5.701,3.502,11.417,10.904,15.843
	c15.052,8.997,39.807,9.248,55.291,0.559c7.87-4.416,11.416-10.291,11.433-16.183v273.123c-0.017,5.892-4.337,11.766-12.207,16.183
	c-15.485,8.689-40.239,8.44-55.291-0.559C219.58,462.551,216.835,456.835,216.851,451.134z"/>
<path style="fill:#C60024;" d="M228.515,161.68c-15.232,8.568-15.6,23.238-0.785,32.116c15.058,9.024,39.822,9.274,55.313,0.56
	c14.921-8.393,15.308-23.413,0.785-32.116C268.771,153.217,244.006,152.966,228.515,161.68"/>
<path style="fill:#C6C5CB;" d="M179.796,61.812l0.041-14.377c-0.031,11.108,7.132,22.246,21.555,30.867
	c29.327,17.531,77.56,18.019,107.731,1.089c15.334-8.605,23.051-20.051,23.084-31.53l-0.041,14.377
	c-0.032,11.479-7.75,22.927-23.084,31.53c-30.171,16.93-78.404,16.442-107.731-1.089C186.928,84.058,179.764,72.921,179.796,61.812z
	"/>
<path style="fill:#D8D8DA;" d="M330.785,38.38c-0.397-1.264-1.606-5.109-4.545-9.498c-2.516-3.757-5.22-6.532-7.046-8.197
	c-0.599-0.546-2.422-2.21-4.806-3.977c-1.589-1.178-3.816-2.595-5.489-3.651c-0.017-0.01-0.034-0.02-0.051-0.03
	C280.496-3.921,233.87-4.392,204.702,11.975c-1.485,0.865-3.468,2.02-4.879,3.001c-1.84,1.279-3.579,2.487-5.698,4.348
	c-4.664,4.098-6.714,7.021-8.211,9.154c-1.229,1.751-2.335,3.932-2.886,5.075c-0.903,1.876-1.521,3.803-1.785,4.626
	c-0.247,0.771-0.715,2.408-1.066,4.72c-0.271,1.777-0.303,3.056-0.342,4.536c-0.031,11.108,7.132,22.246,21.555,30.867
	c29.327,17.531,77.559,18.019,107.731,1.089c15.334-8.605,23.051-20.051,23.084-31.53C332.205,44.567,331.726,41.377,330.785,38.38z
	 M303.112,68.734c-26.745,15.008-69.5,14.575-95.496-0.965c-25.997-15.541-25.39-40.304,1.355-55.312s69.5-14.575,95.496,0.965
	C330.464,28.962,329.857,53.727,303.112,68.734z"/>
<g>
</g>
<g>
</g>
<g>
</g>
<g>
</g>
<g>
</g>
<g>
</g>
<g>
</g>
<g>
</g>
<g>
</g>
<g>
</g>
<g>
</g>
<g>
</g>
<g>
</g>
<g>
</g>
<g>
</g>
</svg>
