<?xml version="1.0" encoding="iso-8859-1"?>
<!-- Generator: Adobe Illustrator 19.0.0, SVG Export Plug-In . SVG Version: 6.00 Build 0)  -->
<svg version="1.1" id="Layer_1" xmlns="http://www.w3.org/2000/svg" xmlns:xlink="http://www.w3.org/1999/xlink" x="0px" y="0px"
	 viewBox="0 0 512 512" style="enable-background:new 0 0 512 512;" xml:space="preserve">
<path style="fill:#A50020;" d="M412.988,118.219c-27.596-15.933-52.6-17.401-70.657-6.907l-13.28,7.717
	c-17.846-40.049-47.644-76.778-81.483-96.315c-27.605-15.938-52.619-17.416-70.681-6.919L65.492,80.53
	c0.057-0.033,0.12-0.061,0.178-0.093c-17.934,10.32-29.066,32.389-29.155,63.806C36.191,258.618,208.758,490.696,217.84,502.911
	c5.092-0.951,61.334-11.469,110.101-40.458c-0.704,0.419-1.407,0.842-2.114,1.253l111.396-64.736
	c39.47-22.938,74.631-57.799,74.777-109.256C512.178,226.678,467.846,149.891,412.988,118.219z"/>
<path style="fill:#FE0B37;" d="M65.492,80.53l111.396-64.736c18.062-10.497,43.076-9.019,70.681,6.919
	c34.512,19.925,64.854,57.725,82.565,98.7L218.739,186.15c-17.711-40.975-48.053-78.775-82.565-98.7
	C108.568,71.512,83.554,70.034,65.492,80.53z"/>
<path style="fill:#FF3E61;" d="M230.936,176.048l111.396-64.736c18.057-10.494,43.06-9.026,70.657,6.907l-111.396,64.736
	C273.996,167.022,248.993,165.554,230.936,176.048z"/>
<path style="fill:#A50020;" d="M437.222,398.97l-111.396,64.736c39.471-22.938,74.632-57.799,74.777-109.256
	c0.179-63.037-44.153-139.822-99.011-171.494l111.396-64.736c54.858,31.671,99.191,108.457,99.012,171.494
	C511.854,341.171,476.693,376.032,437.222,398.97z"/>
<path style="fill:#C60024;" d="M301.593,182.955c54.858,31.672,99.19,108.458,99.011,171.494
	c-0.325,114.377-173.642,146.758-182.764,148.462c-9.082-12.215-181.65-244.293-181.325-358.669
	c0.179-63.037,44.8-88.465,99.658-56.792c34.512,19.925,64.854,57.725,82.565,98.7C236.624,165.728,267.081,163.03,301.593,182.955z
	"/>
<polygon style="fill:#ACABB1;" points="257.849,307.395 242.147,316.52 221.304,201.477 187.496,221.124 182.405,193.963 
	125.581,226.985 124.409,230.353 56.87,191.359 0.047,224.381 0,240.817 115.614,307.567 126.387,301.306 142.655,388.068 
	175.669,368.883 195.334,477.418 252.157,444.396 260.497,391.216 321.685,426.515 378.509,393.493 378.509,377.057 "/>
<polygon style="fill:#E0E0E2;" points="0.047,224.381 56.87,191.359 162.15,252.143 105.327,285.165 "/>
<polygon style="fill:#ACABB1;" points="123.379,285.264 180.202,252.241 172.437,274.545 115.614,307.567 "/>
<polygon style="fill:#E0E0E2;" points="125.581,226.985 182.405,193.963 199.806,286.777 142.984,319.8 "/>
<polygon style="fill:#ACABB1;" points="163.885,303.843 220.709,270.821 199.478,355.047 142.655,388.068 "/>
<polygon style="fill:#E0E0E2;" points="164.481,234.499 221.304,201.477 249.796,358.74 192.973,391.762 "/>
<polygon style="fill:#ACABB1;" points="213.141,363.875 269.964,330.852 252.157,444.396 195.334,477.418 "/>
<polygon style="fill:#E0E0E2;" points="201.027,340.417 257.849,307.395 378.509,377.057 321.685,410.079 "/>
<polygon style="fill:#C6C5CB;" points="164.481,234.499 192.973,391.762 201.027,340.417 321.685,410.079 321.685,426.515 
	213.141,363.875 195.334,477.418 163.885,303.843 142.655,388.068 123.379,285.264 115.614,307.567 0,240.817 0.047,224.381 
	105.327,285.165 125.581,226.985 142.984,319.8 "/>
<polygon style="fill:#ACABB1;" points="321.685,410.079 378.509,377.057 378.509,393.493 321.685,426.515 "/>
<g>
</g>
<g>
</g>
<g>
</g>
<g>
</g>
<g>
</g>
<g>
</g>
<g>
</g>
<g>
</g>
<g>
</g>
<g>
</g>
<g>
</g>
<g>
</g>
<g>
</g>
<g>
</g>
<g>
</g>
</svg>
