<?xml version="1.0" encoding="iso-8859-1"?>
<!-- Generator: Adobe Illustrator 19.0.0, SVG Export Plug-In . SVG Version: 6.00 Build 0)  -->
<svg version="1.1" id="Layer_1" xmlns="http://www.w3.org/2000/svg" xmlns:xlink="http://www.w3.org/1999/xlink" x="0px" y="0px"
	 viewBox="0 0 512.001 512.001" style="enable-background:new 0 0 512.001 512.001;" xml:space="preserve">
<g>
	<path style="fill:#A50020;" d="M460.023,169.826L171.669,3.344c-6.774-3.911-12.91-4.274-17.34-1.7L88.737,39.762
		c0.014-0.008,0.028-0.015,0.042-0.022c-4.399,2.533-7.129,7.947-7.15,15.654v209.207c-0.044,15.462,10.233,34.298,23.696,42.071
		L393.68,473.154c7.655,4.419,14.685,4.301,19.337,0.536l63.594-36.957c4.375-2.542,7.68-7.947,7.702-15.63V211.897
		C484.357,196.434,473.48,177.596,460.023,169.826z"/>
	<path style="fill:#A50020;" d="M88.737,39.762l65.591-38.118c4.43-2.575,10.565-2.212,17.34,1.699l-65.591,38.118
		C99.303,37.551,93.168,37.189,88.737,39.762z"/>
	<path style="fill:#A50020;" d="M476.611,436.734l-65.591,38.118c4.375-2.542,7.68-7.947,7.702-15.63l65.591-38.118
		C484.291,428.786,480.985,434.191,476.611,436.734z"/>
	<polygon style="fill:#A50020;" points="418.721,250.015 484.313,211.897 484.313,421.104 418.721,459.222 	"/>
	<polygon style="fill:#A50020;" points="106.077,41.462 171.669,3.344 460.024,169.826 394.432,207.944 	"/>
	<path style="fill:#A50020;" d="M394.432,207.944l65.591-38.118c13.456,7.769,24.333,26.608,24.29,42.071l-65.591,38.118
		C418.765,234.552,407.889,215.713,394.432,207.944z"/>
</g>
<path id="SVGCleanerId_0" style="fill:#A50020;" d="M394.432,207.944c13.456,7.769,24.333,26.608,24.289,42.071v209.207
	c-0.044,15.462-11.585,21.702-25.041,13.933L105.325,306.672c-13.464-7.773-23.74-26.608-23.696-42.071V55.394
	c0.044-15.462,10.984-21.706,24.447-13.933L394.432,207.944z"/>
<path style="fill:#820018;" d="M88.737,39.762l65.591-38.118c4.43-2.575,10.565-2.212,17.34,1.699l-65.591,38.118
	C99.303,37.551,93.168,37.189,88.737,39.762z"/>
<path style="fill:#720017;" d="M476.611,436.734l-65.591,38.118c4.375-2.542,7.68-7.947,7.702-15.63l65.591-38.118
	C484.291,428.786,480.985,434.191,476.611,436.734z"/>
<polygon style="fill:#820018;" points="418.721,250.015 484.313,211.897 484.313,421.104 418.721,459.222 "/>
<polygon style="fill:#C60024;" points="106.077,41.462 171.669,3.344 460.024,169.826 394.432,207.944 "/>
<path style="fill:#FE0B37;" d="M394.432,207.944l65.591-38.118c13.456,7.769,24.333,26.608,24.29,42.071l-65.591,38.118
	C418.765,234.552,407.889,215.713,394.432,207.944z"/>
<g>
	<path id="SVGCleanerId_0_1_" style="fill:#A50020;" d="M394.432,207.944c13.456,7.769,24.333,26.608,24.289,42.071v209.207
		c-0.044,15.462-11.585,21.702-25.041,13.933L105.325,306.672c-13.464-7.773-23.74-26.608-23.696-42.071V55.394
		c0.044-15.462,10.984-21.706,24.447-13.933L394.432,207.944z"/>
</g>
<path style="fill:#C6C5CB;" d="M413.292,199.141L118.289,28.821c-6.927-3.999-13.203-4.37-17.736-1.735L34.962,65.204
	c0.015-0.008,0.03-0.015,0.044-0.023c-4.5,2.59-7.294,8.128-7.317,16.01v214.035c-0.045,15.817,10.476,35.09,24.24,43.036
	l295.003,170.319c7.128,4.116,13.561,4.381,18.12,1.494c-0.127,0.08-0.252,0.167-0.382,0.243l65.591-38.118
	c4.475-2.601,7.857-8.131,7.879-15.989V242.177C438.184,226.36,427.063,207.091,413.292,199.141z"/>
<path style="fill:#ACABB1;" d="M34.961,65.203l65.591-38.118c4.533-2.634,10.811-2.264,17.736,1.735L52.697,66.938
	C45.771,62.939,39.494,62.569,34.961,65.203z"/>
<path style="fill:#898890;" d="M430.26,472.201l-65.591,38.118c4.475-2.601,7.857-8.131,7.879-15.989l65.591-38.118
	C438.116,464.07,434.735,469.6,430.26,472.201z"/>
<polygon style="fill:#ACABB1;" points="372.547,280.295 438.139,242.177 438.139,456.212 372.547,494.329 "/>
<polygon style="fill:#D8D8DA;" points="52.698,66.938 118.289,28.821 413.292,199.141 347.7,237.258 "/>
<path style="fill:#E0E0E2;" d="M347.7,237.258l65.591-38.118c13.771,7.951,24.892,27.22,24.847,43.036l-65.591,38.118
	C372.591,264.478,361.471,245.209,347.7,237.258z"/>
<path style="fill:#C6C5CB;" d="M347.7,237.258c13.771,7.951,24.892,27.22,24.847,43.036v214.035
	c-0.045,15.816-11.845,22.203-25.616,14.251L51.928,338.261c-13.764-7.946-24.284-27.221-24.24-43.036V81.19
	c0.045-15.817,11.245-22.199,25.009-14.252L347.7,237.258z"/>
<polygon style="fill:#3E3D43;" points="386.104,134.725 349.626,155.923 344.951,158.64 344.951,158.64 310.48,178.672 
	310.48,187.598 343.097,206.429 418.721,162.481 418.721,153.556 "/>
<polygon style="fill:#2E2E30;" points="418.721,153.556 418.721,162.481 343.097,206.429 343.097,197.504 "/>
<polygon style="fill:#3E3D43;" points="343.097,197.504 343.097,206.429 310.48,187.598 310.48,178.672 "/>
<polygon style="fill:#4B4A4F;" points="418.721,153.556 343.097,197.504 310.48,178.672 386.104,134.725 "/>
<g>
	<polygon style="fill:#3E3D43;" points="384.251,173.588 377.568,177.471 344.951,158.64 351.652,154.745 	"/>
	<polygon style="fill:#3E3D43;" points="175.201,14.697 138.723,35.896 134.047,38.614 134.047,38.614 99.577,58.646 99.577,67.57 
		132.194,86.402 207.818,42.454 207.818,33.529 	"/>
</g>
<polygon style="fill:#2E2E30;" points="207.818,33.529 207.818,42.454 132.194,86.402 132.194,77.477 "/>
<polygon style="fill:#3E3D43;" points="132.194,77.477 132.194,86.402 99.577,67.571 99.577,58.646 "/>
<polygon style="fill:#4B4A4F;" points="207.818,33.529 132.194,77.477 99.577,58.646 175.201,14.698 "/>
<polygon style="fill:#3E3D43;" points="173.348,53.561 166.665,57.445 134.047,38.614 140.749,34.719 "/>
<polygon style="fill:#A50020;" points="232.238,264.819 232.238,199.942 173.821,166.108 152.52,178.487 152.52,218.794 
	117.177,198.388 95.876,210.767 95.876,278.104 152.146,310.701 151.961,375.579 210.747,409.413 232.048,397.034 232.048,356.792 
	267.398,377.133 288.698,364.754 288.698,297.416 "/>
<polygon style="fill:#820018;" points="210.747,344.536 232.048,332.157 232.048,397.034 210.747,409.413 "/>
<polygon style="fill:#C60024;" points="95.876,210.767 117.177,198.388 173.637,230.985 152.52,243.364 "/>
<polygon style="fill:#820018;" points="267.398,309.795 288.698,297.416 288.698,364.755 267.398,377.133 "/>
<polygon style="fill:#C60024;" points="210.938,277.198 232.238,264.819 288.698,297.416 267.398,309.795 "/>
<polygon style="fill:#820018;" points="210.938,212.321 232.238,199.942 232.238,264.819 210.938,277.198 "/>
<polygon style="fill:#C60024;" points="152.52,178.487 173.821,166.108 232.238,199.942 210.938,212.321 "/>
<polygon style="fill:#A50020;" points="210.938,212.321 210.938,277.198 267.398,309.795 267.398,377.133 210.747,344.536 
	210.747,409.413 151.962,375.579 152.146,310.702 95.876,278.104 95.876,210.767 152.52,243.364 152.52,178.487 "/>
<polygon style="fill:#2E2E30;" points="336.417,72.239 227.103,9.126 207.597,20.462 187.228,67.111 208.361,79.314 227.868,67.978 
	232.477,57.421 303.535,98.447 315.821,141.355 336.954,153.556 356.46,142.221 "/>
<g>
	<polygon style="fill:#1D1D1F;" points="220.85,50.709 240.356,39.374 227.868,67.978 208.361,79.314 	"/>
	<polygon style="fill:#1D1D1F;" points="316.911,83.574 336.417,72.239 356.46,142.221 336.954,153.556 	"/>
</g>
<polygon style="fill:#3E3D43;" points="207.597,20.462 227.103,9.126 336.417,72.239 316.911,83.574 "/>
<polygon style="fill:#2E2E30;" points="316.911,83.574 336.954,153.556 315.821,141.355 303.535,98.447 220.85,50.709 
	208.361,79.314 187.228,67.111 207.597,20.462 "/>
<g>
</g>
<g>
</g>
<g>
</g>
<g>
</g>
<g>
</g>
<g>
</g>
<g>
</g>
<g>
</g>
<g>
</g>
<g>
</g>
<g>
</g>
<g>
</g>
<g>
</g>
<g>
</g>
<g>
</g>
</svg>
