<?xml version="1.0" encoding="iso-8859-1"?>
<!-- Generator: Adobe Illustrator 19.0.0, SVG Export Plug-In . SVG Version: 6.00 Build 0)  -->
<svg version="1.1" id="Layer_1" xmlns="http://www.w3.org/2000/svg" xmlns:xlink="http://www.w3.org/1999/xlink" x="0px" y="0px"
	 viewBox="0 0 512 512" style="enable-background:new 0 0 512 512;" xml:space="preserve">
<polygon style="fill:#FFA834;" points="309.411,97.126 512,214.858 512,236.236 202.603,414.874 0,297.141 0,275.764 "/>
<g style="enable-background:new    ;">
	<polygon style="fill:#FF9911;" points="0,275.764 0,297.141 202.603,414.874 202.59,393.496 	"/>
	<polygon style="fill:#F18700;" points="202.59,393.496 202.603,414.874 512,236.235 512,214.858 	"/>
</g>
<g style="enable-background:new    ;">
	<polygon style="fill:#E0E0E2;" points="303.943,104.72 497.402,216.413 225.588,373.345 31.436,261.251 	"/>
	<path style="fill:#57565C;" d="M168.481,208.672l143.935,83.646l3.812-2.201l-143.935-83.646L168.481,208.672 M185.719,198.72
		l143.935,83.646l3.812-2.201l-143.935-83.646L185.719,198.72 M202.958,188.767l143.935,83.646l3.809-2.199l-143.935-83.647
		L202.958,188.767 M220.194,178.816l107.092,62.235l3.812-2.201l-107.092-62.235L220.194,178.816 M158.255,242.667l119.688,69.556
		l3.812-2.201l-119.689-69.557L158.255,242.667 M151.246,218.623l143.935,83.646l3.809-2.199l-143.935-83.646L151.246,218.623"/>
</g>
<polygon style="fill:#A50020;" points="292.872,167.623 309.704,177.612 327.477,167.666 327.477,160.233 317.02,154.027 
	327.756,147.999 327.824,140.566 310.353,130.197 293.231,139.777 276.428,129.74 258.598,139.782 258.53,147.215 268.97,153.411 
	258.25,159.451 258.25,166.883 275.721,177.252 "/>
<polygon style="fill:#C60024;" points="275.43,149.772 275.362,157.204 258.53,147.215 258.598,139.782 "/>
<polygon style="fill:#A50020;" points="327.824,140.566 327.756,147.999 310.605,157.628 310.645,150.243 "/>
<polygon style="fill:#C60024;" points="275.721,169.819 275.721,177.252 258.25,166.883 258.25,159.451 "/>
<polygon style="fill:#A50020;" points="292.872,160.191 292.872,167.623 275.721,177.252 275.721,169.819 "/>
<polygon style="fill:#C60024;" points="309.704,170.18 309.704,177.612 292.872,167.623 292.872,160.191 "/>
<polygon style="fill:#A50020;" points="327.477,160.233 327.477,167.666 309.704,177.612 309.704,170.18 "/>
<polygon style="fill:#FE0B37;" points="309.704,170.18 292.872,160.191 275.721,169.819 258.25,159.451 275.43,149.772 
	258.598,139.782 276.428,129.74 293.231,139.777 310.353,130.197 327.824,140.566 310.645,150.243 327.477,160.233 "/>
<path style="fill:#898890;" d="M386.835,136.947l0.004,1.502l39.003,22.666l12.178-7.031c0.478-0.276,0.716-0.637,0.715-0.999
	l-0.004-1.502c0,0.001-0.001,0.002-0.001,0.003c0.001-0.357-0.233-0.716-0.702-0.988l-5.01-2.912
	c2.417-1.742,3.629-3.859,3.623-5.974l-0.004-1.502c0,0.007-0.002,0.016-0.002,0.023c0.003-2.424-1.583-4.846-4.766-6.696
	c-6.384-3.71-16.77-3.71-23.197,0l-6.234-3.623c-0.941-0.548-2.475-0.548-3.423,0L386.835,136.947z M426.372,143.824
	c-3.413,1.971-8.927,1.97-12.317-0.001c-1.354-0.787-2.155-1.769-2.422-2.791c0.265-1.04,1.081-2.042,2.467-2.841
	c3.413-1.971,8.927-1.971,12.317-0.001c1.354,0.787,2.155,1.77,2.422,2.792C428.572,142.022,427.757,143.024,426.372,143.824z"/>
<g>
	<polygon style="fill:#ACABB1;" points="386.835,136.947 386.84,138.448 425.842,161.114 425.838,159.613 	"/>
	<path style="fill:#ACABB1;" d="M402.438,129.915l6.234,3.623c6.427-3.71,16.813-3.71,23.197,0
		c6.385,3.712,6.353,9.726-0.074,13.438l6.234,3.623c0.941,0.548,0.937,1.436-0.011,1.983l-12.178,7.031l-39.003-22.666
		l12.178-7.031C399.962,129.368,401.495,129.368,402.438,129.915z M426.372,143.824c3.413-1.971,3.43-5.165,0.04-7.136
		c-3.391-1.97-8.905-1.97-12.317,0.001c-3.413,1.971-3.43,5.164-0.04,7.134C417.444,145.794,422.959,145.794,426.372,143.824"/>
</g>
<path style="fill:#898890;" d="M345.343,152.573l65.403,38.008l1.881-1.086c-0.025-8.826,6.204-19.615,13.885-24.05
	c0.048-0.028,0.095-0.047,0.143-0.074l13.833,8.038l1.881,1.084v-2.169c-0.007-2.452-0.432-4.59-1.263-6.355
	c-0.803-1.703-1.949-2.988-3.404-3.818c0.018,0.01,0.037,0.021,0.054,0.031l-65.403-38.009c-0.018-0.01-0.037-0.021-0.054-0.031
	c-1.457-0.83-3.151-1.164-5.036-0.992c-1.953,0.179-4.025,0.893-6.159,2.125c-2.135,1.232-4.204,2.908-6.15,4.982
	c-1.881,2.002-3.567,4.288-5.015,6.795c-1.447,2.507-2.582,5.108-3.372,7.731C345.747,147.499,345.336,150.121,345.343,152.573z"/>
<path style="fill:#C6C5CB;" d="M437.756,162.181l-65.403-38.008c-0.018-0.01-0.037-0.021-0.054-0.031
	c-1.457-0.83-3.151-1.164-5.036-0.992c-1.953,0.179-4.025,0.893-6.159,2.125l65.403,38.009c2.135-1.232,4.207-1.948,6.159-2.125
	c1.885-0.172,3.58,0.162,5.036,0.992C437.719,162.16,437.738,162.171,437.756,162.181z"/>
<path style="fill:#ACABB1;" d="M411.969,182.791c0.79-2.623,1.925-5.224,3.372-7.73c1.447-2.506,3.134-4.792,5.015-6.795
	c1.947-2.073,4.017-3.749,6.15-4.982c2.135-1.232,4.207-1.948,6.159-2.125c1.885-0.172,3.58,0.162,5.036,0.992
	c1.457,0.831,2.602,2.115,3.404,3.818c0.831,1.765,1.256,3.903,1.263,6.355v2.169l-1.881-1.084
	c-0.025-8.826-6.295-12.399-13.976-7.964c-7.681,4.435-13.91,15.223-13.885,24.05l-1.881,1.086
	C410.739,188.128,411.15,185.508,411.969,182.791z"/>
<g>
</g>
<g>
</g>
<g>
</g>
<g>
</g>
<g>
</g>
<g>
</g>
<g>
</g>
<g>
</g>
<g>
</g>
<g>
</g>
<g>
</g>
<g>
</g>
<g>
</g>
<g>
</g>
<g>
</g>
</svg>
