<?xml version="1.0" encoding="iso-8859-1"?>
<!-- Generator: Adobe Illustrator 19.0.0, SVG Export Plug-In . SVG Version: 6.00 Build 0)  -->
<svg version="1.1" id="Layer_1" xmlns="http://www.w3.org/2000/svg" xmlns:xlink="http://www.w3.org/1999/xlink" x="0px" y="0px"
	 viewBox="0 0 512 512" style="enable-background:new 0 0 512 512;" xml:space="preserve">
<g>
	<path style="fill:#2E2E30;" d="M511.994,155.626c0.052-2.719-1.84-5.256-5.018-7.09c-2.493-1.44-5.774-2.446-9.519-2.77
		c-7.733-0.664-15.984-2.307-23.994-4.811c-8.01-2.495-15.759-5.838-22.539-9.752c-7.516-4.34-13.834-9.376-18.215-14.642
		c-3.358-4.035-5.564-8.145-6.558-11.963c-0.571-2.168-2.321-4.067-4.814-5.507c-3.686-2.128-8.997-3.256-14.524-2.781
		c-8.596,0.743-14.685,5.094-14.416,10.006c-0.006-0.11-0.021-0.22-0.021-0.33l-0.066,23.068c-0.001,0.494,0.062,0.995,0.192,1.498
		c1.567,5.954,4.829,11.88,9.558,17.571c6.244,7.482,14.813,14.242,24.866,20.054c9.071,5.237,19.376,9.706,30.438,13.156
		c11.062,3.451,22.92,5.896,35.143,6.956c9.276,0.797,17.899-2.909,19.245-8.279c0.12-0.475,0.179-0.948,0.18-1.414l0.066-23.07
		C512,155.563,511.994,155.594,511.994,155.626z M392.413,106.582c0.03,0.3,0.076,0.601,0.156,0.904
		C392.491,107.183,392.443,106.882,392.413,106.582z M511.965,156.072c-0.007,0.071-0.01,0.141-0.02,0.212
		C511.954,156.214,511.958,156.144,511.965,156.072z"/>
	<path style="fill:#2E2E30;" d="M512,155.531l-0.066,23.068c-0.001,0.467-0.06,0.939-0.18,1.414
		c-1.346,5.37-9.969,9.076-19.245,8.279c-12.223-1.06-24.081-3.505-35.143-6.956c-11.064-3.451-21.368-7.919-30.438-13.156
		c-10.053-5.813-18.621-12.572-24.866-20.054c-4.729-5.692-7.989-11.617-9.558-17.571c-0.132-0.504-0.194-1.004-0.192-1.498
		l0.066-23.068c-0.001,0.494,0.062,0.995,0.192,1.498c1.568,5.955,4.829,11.88,9.558,17.571
		c6.244,7.482,14.813,14.242,24.866,20.054c9.07,5.237,19.376,9.706,30.438,13.156s22.92,5.896,35.143,6.956
		c9.276,0.797,17.899-2.909,19.245-8.279C511.939,156.47,511.998,155.997,512,155.531z"/>
</g>
<path style="fill:#3E3D43;" d="M421.337,99.091c2.493,1.44,4.244,3.337,4.815,5.507c0.994,3.818,3.2,7.928,6.558,11.963
	c4.381,5.266,10.698,10.303,18.215,14.642c6.779,3.914,14.528,7.257,22.539,9.752c8.01,2.504,16.261,4.147,23.994,4.811
	c3.745,0.323,7.026,1.33,9.519,2.77c3.686,2.128,5.651,5.203,4.843,8.409c-1.346,5.37-9.97,9.076-19.245,8.279
	c-12.223-1.06-24.081-3.505-35.143-6.956c-11.064-3.451-21.368-7.919-30.438-13.156c-10.053-5.813-18.621-12.572-24.866-20.054
	c-4.729-5.692-7.989-11.617-9.558-17.571c-1.399-5.375,4.97-10.374,14.244-11.174C412.341,95.835,417.651,96.963,421.337,99.091z"/>
<path style="fill:#E0E0E2;" d="M471.343,176.563c-0.051-0.556-0.155-1.133-0.278-1.699c-0.7-2.965-2.379-5.994-4.541-8.197
	c-0.865-0.895-1.802-1.648-2.781-2.214c-1.164-0.68-2.265-1.02-3.264-1.05c-0.67-0.031-1.287,0.083-1.833,0.329
	c-0.248,0.144-0.505,0.288-0.751,0.443c-0.021,0-0.041,0.021-0.062,0.031c-50.11,29.123-227.947,132.484-227.947,132.484
	c0.371-0.216,0.783-0.216,1.215,0.031c-0.001,0-0.002,0.001-0.003,0.002c-0.431-0.249-0.84-0.247-1.209-0.031
	c-2.954,1.715-6.078,2.695-8.179,3.214c-4.528,1.12-8.05,1.216-9.942,1.269c-0.619,0-32.605,0.537-39.477,0.651
	c0.063-0.292,0.125-0.583,0.188-0.875c0.783-3.63,1.565-7.259,2.348-10.889c0.1-0.463,0.167-0.952,0.214-1.454
	c0.157-0.343,0.655-1.252,1.986-2.503c1.258-1.182,2.552-1.962,3.407-2.479c0.005-0.003,0.01-0.009,0.016-0.014
	c49.309-28.657,173.398-100.781,230.978-134.245c0.257-0.144,0.515-0.299,0.762-0.443c0.021-0.01,0.041-0.021,0.062-0.041
	c1.133-0.886,1.802-2.482,1.812-4.645c0-0.381-0.021-0.772-0.062-1.164c-0.051-0.566-0.155-1.133-0.278-1.709
	c-0.7-2.956-2.369-5.973-4.532-8.187c-0.855-0.895-1.802-1.668-2.801-2.244c-1.154-0.659-2.244-0.999-3.224-1.04
	c-0.598-0.041-1.154,0.041-1.658,0.227c-0.01,0.01-0.021,0.021-0.041,0.021c-0.361,0.216-0.721,0.433-1.092,0.638
	c-45.857,26.662-147.757,85.896-180.731,105.05c-10.535,6.127-21.07,12.244-31.604,18.372l-15.828,9.196
	c0.111-0.065,0.227-0.103,0.345-0.129c-0.117,0.025-0.231,0.064-0.341,0.127c-5.317,3.094-8.23,6.565-9.739,8.932
	c-0.822,1.29-1.876,3.123-2.725,5.863c-0.662,2.138-3.788,19.606-5.17,26.743c-40.25,23.39-80.497,46.78-120.747,70.171
	c0.022-0.013,0.046-0.022,0.068-0.033c-2.054,1.155-3.496,3.777-3.506,6.831l-0.005,1.865c-0.008,3.031,1.395,5.64,3.419,6.809
	c0.083,0.083,0.237,0.137,0.339,0.195c0.224,0.129,0.52,0.301,0.744,0.429c0.272,0.157,0.544,0.315,0.816,0.471
	c0.26,0.15,0.608,0.351,0.868,0.502c0.27,0.156,0.629,0.364,0.9,0.519c1.526,0.881,3.05,1.761,4.576,2.642
	c1.455-1.454,4.149-2.412,5.928-3.445c3.976-2.31,87.57-50.89,116.359-67.62c4.076-0.05,45.383-0.749,47.717-0.788
	c2.409-0.04,4.82-0.211,7.168-0.512c3.208-0.41,5.838-1.029,6.819-1.277c6.426-1.619,10.231-3.748,12.058-4.772
	c0.008-0.005,0.015-0.014,0.023-0.019c49.231-28.597,173.012-100.552,230.703-134.086c0.021,0,0.03-0.01,0.041-0.01
	c0.185-0.113,0.361-0.216,0.536-0.319c1.236-0.844,1.987-2.482,1.998-4.768C471.405,177.336,471.384,176.955,471.343,176.563z"/>
<path style="fill:#C6C5CB;" d="M182.174,277.814c-0.007,2.276-0.412,4.08-1.045,5.085c0.631-1.006,1.034-2.811,1.041-5.081
	c-4.403,2.558-6.913,5.96-7.064,9.573c0,0.178-0.004,0.354-0.012,0.529c-0.008,0.174-0.022,0.326-0.042,0.463
	c-0.006,0.073-0.005,0.15-0.013,0.223c0.157-0.343,0.655-1.252,1.986-2.503c1.258-1.182,2.552-1.962,3.407-2.479
	c0.005-0.003,0.01-0.009,0.016-0.014c49.309-28.657,173.398-100.781,230.978-134.245c0.257-0.144,0.515-0.299,0.762-0.443
	c0.021-0.01,0.041-0.021,0.062-0.041c1.133-0.886,1.802-2.482,1.812-4.645c0-0.381-0.021-0.772-0.062-1.164l-8.558,4.974
	L182.174,277.814z"/>
<g>
	<path style="fill:#D8D8DA;" d="M389.02,144.897l-3.048,1.771c-61.809,35.92-163.019,94.753-206.702,120.137l0,0
		c-4.742,2.757-7.603,6.355-8.162,10.211c-0.047,0.326-0.084,0.653-0.097,0.983c-0.041,0.18-5.134,23.751-5.252,24.304
		c0.001,0,0.003,0,0.004,0c0.219-0.115,0.219-0.114,0.001,0c0.904-0.01,46.043-0.755,46.043-0.755
		c6.867-0.113,13.338-1.658,18.37-4.337c0.306-0.163,0.625-0.316,0.92-0.487c-0.431-0.249-0.84-0.247-1.209-0.031
		c-2.954,1.715-6.078,2.695-8.179,3.214c-4.528,1.12-8.05,1.216-9.942,1.268c-0.619,0-32.605,0.537-39.477,0.651
		c0.063-0.292,0.125-0.583,0.188-0.875c0.783-3.63,1.565-7.259,2.348-10.889c0.1-0.463,0.167-0.952,0.214-1.455
		c0.007-0.073,0.006-0.149,0.013-0.223c0.025-0.327,0.052-0.653,0.053-0.992c0.15-3.614,2.66-7.016,7.064-9.573l0.004-1.339v1.335
		l223.272-129.765l8.558-4.974c-0.051-0.566-0.155-1.133-0.278-1.709c-0.7-2.956-2.369-5.973-4.532-8.187
		c-3.12,1.802-6.456,3.748-9.979,5.788C395.972,140.86,392.563,142.838,389.02,144.897z M166.558,302.002
		c0.208-0.052,0.413-0.087,0.61-0.091C166.971,301.915,166.766,301.949,166.558,302.002z"/>
	<path style="fill:#D8D8DA;" d="M237.227,293.159c9.309-5.406,222.036-129.055,223.251-129.755c-0.67-0.031-1.287,0.083-1.833,0.329
		c-0.248,0.144-0.505,0.288-0.751,0.443c-0.021,0-0.041,0.021-0.062,0.031c-50.11,29.123-227.947,132.484-227.947,132.484
		c0.371-0.216,0.783-0.216,1.215,0.031c0.649-0.381,1.319-0.762,1.998-1.164C234.426,294.785,235.806,293.982,237.227,293.159z"/>
</g>
<path style="fill:#C6C5CB;" d="M471.343,176.563l-8.547,4.963l-222.953,129.58c-0.007,2.076-0.349,3.745-0.888,4.788
	c0.537-1.044,0.879-2.712,0.884-4.783c-7.381,4.289-17.204,6.746-27.67,6.916l0,0l-46.677,0.771L42.086,390.516l0,0
	c0,0.001,0,0.002,0,0.004c-0.007,2.651-0.018,4.351-0.027,4.73c0,0.014-0.001,0.012-0.001,0.022
	c-0.001,0.028-0.002,0.061-0.003,0.061c1.455-1.455,4.149-2.412,5.928-3.445c3.976-2.31,87.57-50.89,116.359-67.62
	c4.076-0.05,45.383-0.749,47.717-0.788c2.409-0.04,4.82-0.211,7.168-0.512c3.208-0.41,5.838-1.029,6.819-1.277
	c6.426-1.619,10.231-3.748,12.058-4.772c0.008-0.005,0.015-0.014,0.023-0.019c49.231-28.597,173.012-100.552,230.703-134.086
	c0.021,0,0.03-0.01,0.041-0.01c0.185-0.113,0.361-0.216,0.536-0.319c1.236-0.844,1.987-2.482,1.998-4.768
	C471.405,177.336,471.384,176.955,471.343,176.563z M164.47,324.18c0.033-0.023,0.065-0.06,0.097-0.092
	C164.535,324.12,164.503,324.157,164.47,324.18z M165.467,319.939c-0.005,0.12-0.015,0.229-0.021,0.345
	C165.452,320.167,165.462,320.059,165.467,319.939z M165.4,320.967c-0.012,0.128-0.026,0.242-0.039,0.364
	C165.374,321.209,165.389,321.093,165.4,320.967z M165.297,321.871c-0.017,0.118-0.037,0.226-0.055,0.336
	C165.26,322.096,165.279,321.988,165.297,321.871z M165.158,322.644c-0.022,0.101-0.045,0.194-0.069,0.287
	C165.113,322.839,165.136,322.745,165.158,322.644z M164.988,323.279c-0.026,0.08-0.053,0.156-0.082,0.227
	C164.935,323.435,164.962,323.36,164.988,323.279z M164.791,323.763c-0.029,0.057-0.06,0.114-0.091,0.162
	C164.731,323.878,164.762,323.82,164.791,323.763z"/>
<g>
	<path style="fill:#D8D8DA;" d="M42.086,390.52c0-0.001,0-0.002,0-0.004l-11.69-6.749c-0.008,3.031,1.395,5.64,3.419,6.809
		c0.083,0.083,0.237,0.137,0.339,0.195c0.224,0.129,0.52,0.301,0.744,0.429c0.272,0.157,0.544,0.315,0.816,0.471
		c0.26,0.15,0.608,0.351,0.868,0.502c0.27,0.156,0.629,0.364,0.9,0.519c1.526,0.881,3.05,1.761,4.576,2.642
		c0.001,0,0.002-0.03,0.003-0.061c0-0.01,0.001-0.007,0.001-0.022C42.068,394.868,42.078,393.168,42.086,390.52z"/>
	<path style="fill:#D8D8DA;" d="M165.492,318.8l46.677-0.771c10.465-0.171,20.288-2.627,27.67-6.916l0.004-1.377v1.372
		l222.953-129.58l8.547-4.963c-0.051-0.556-0.155-1.133-0.278-1.699c-0.7-2.965-2.379-5.994-4.541-8.197
		c-3.11,1.802-215.569,125.286-229.585,133.432l0.001,0.001c-0.533,0.31-1.103,0.591-1.665,0.88
		c-6.414,3.304-14.55,5.197-23.206,5.339l-48.318,0.796L42.093,377.814v0.002l-0.004,0.002c-0.072-0.041-0.155-0.093-0.257-0.144
		c-0.155-0.093-5.585-3.235-5.585-3.235l118.178-68.678c0,0.002-0.001,0.003-0.001,0.005c0.002-0.001,0.004-0.003,0.007-0.004
		c0.123-0.072,0.248-0.144,0.371-0.216c0,0,0,0,0.01-0.01c0.378-0.219,0.76-0.441,1.141-0.662l1.805-1.049
		c0.155-0.813,5.178-27.543,5.394-28.41c1.145-4.6,4.694-8.742,10.278-11.987c-0.108-0.062-0.213-0.109-0.318-0.14
		c0.106,0.031,0.212,0.077,0.321,0.14c25.137-14.613,69.327-40.296,114.092-66.309l4.407-2.564c0.731-0.422,1.472-0.855,2.204-1.277
		l4.407-2.564c4.397-2.554,8.785-5.108,13.15-7.641l4.356-2.534c3.614-2.111,7.219-4.202,10.782-6.272l4.263-2.471
		c17.939-10.431,34.931-20.308,49.647-28.866l2.543-1.472c5.232-3.048,10.154-5.901,14.706-8.558
		c0.453-0.257,0.906-0.526,1.349-0.783c1.308-0.762,2.596-1.504,3.831-2.225c-0.598-0.041-1.154,0.041-1.658,0.227
		c-0.01,0.01-0.021,0.021-0.041,0.021c-0.361,0.216-0.721,0.433-1.092,0.638c-45.857,26.662-147.757,85.896-180.731,105.05
		c-10.535,6.127-21.07,12.244-31.604,18.372l-15.828,9.196c0.111-0.065,0.227-0.103,0.345-0.129
		c-0.117,0.025-0.231,0.064-0.341,0.127c-5.316,3.094-8.23,6.565-9.739,8.932c-0.822,1.29-1.876,3.123-2.725,5.863
		c-0.662,2.138-3.788,19.606-5.17,26.743c-40.25,23.39-80.497,46.78-120.747,70.171c0.022-0.013,0.046-0.022,0.068-0.033
		c-2.054,1.155-3.496,3.777-3.506,6.831l-0.005,1.865l11.69,6.749L165.492,318.8z M157.197,303.751
		c-0.047,0-0.093,0.001-0.139,0.004C157.104,303.752,157.15,303.751,157.197,303.751z M156.524,303.854
		c0.006-0.002,0.014-0.002,0.02-0.005C156.536,303.852,156.53,303.852,156.524,303.854z M34.457,374.802
		c-0.08,0.033-0.158,0.073-0.236,0.111C34.3,374.875,34.377,374.835,34.457,374.802z M35.63,374.482
		c-0.067,0.009-0.132,0.027-0.199,0.039C35.499,374.509,35.564,374.491,35.63,374.482z M35.033,374.604
		c-0.077,0.021-0.153,0.05-0.23,0.075C34.88,374.654,34.955,374.625,35.033,374.604z"/>
</g>
<path style="fill:#E0E0E2;" d="M397.99,132.899c-4.552,2.657-9.474,5.51-14.706,8.558l-2.543,1.472
	c-14.715,8.558-31.708,18.433-49.647,28.866l-4.263,2.471c-3.563,2.07-7.167,4.161-10.782,6.272l-4.356,2.534
	c-4.367,2.533-8.753,5.088-13.15,7.641l-4.407,2.564c-0.731,0.422-1.472,0.855-2.204,1.277l-4.407,2.564
	c-44.766,26.013-88.954,51.696-114.092,66.309c-5.588,3.249-9.133,7.39-10.28,11.987c-0.216,0.867-5.239,27.597-5.394,28.41v0.001
	c-0.6,0.347-1.203,0.697-1.805,1.048c-0.38,0.222-0.762,0.443-1.141,0.662c-0.01,0.01-0.01,0.01-0.01,0.01
	c-0.123,0.072-0.248,0.144-0.371,0.216c-0.002,0.001-0.004,0.002-0.007,0.004c-18.894,10.986-110.461,64.194-118.173,68.674
	c0.072,0.041,5.427,3.141,5.582,3.234c0.103,0.051,0.185,0.103,0.257,0.144l0.004-0.002v-0.002l121.658-70.703
	c2.153-0.03,48.319-0.793,48.319-0.793c8.656-0.142,16.793-2.035,23.206-5.339c0.561-0.288,1.131-0.571,1.663-0.881
	c14.015-8.146,226.475-131.63,229.585-133.432c-0.865-0.895-1.802-1.648-2.781-2.214c-1.164-0.68-2.265-1.02-3.264-1.05
	c-1.215,0.7-213.942,124.349-223.251,129.755c-1.421,0.823-2.801,1.627-4.129,2.399c-0.679,0.401-1.349,0.783-1.998,1.164
	c-0.001,0-0.002,0.001-0.003,0.002c-0.295,0.171-0.614,0.324-0.92,0.487c-5.034,2.684-11.502,4.225-18.365,4.342
	c-2.893,0.051-45.143,0.741-46.047,0.751h-0.001c-0.002,0-0.003,0-0.005,0c0.119-0.553,5.212-24.123,5.252-24.304
	c0.014-0.329,0.05-0.657,0.097-0.983c0.557-3.855,3.424-7.458,8.162-10.211c43.685-25.385,144.894-84.218,206.702-120.137
	l3.048-1.771c3.542-2.06,6.951-4.036,10.195-5.932c3.521-2.039,6.859-3.985,9.979-5.788c-0.855-0.895-1.802-1.668-2.801-2.244
	c-1.154-0.659-2.244-0.999-3.224-1.04c-1.236,0.721-2.523,1.462-3.831,2.225C398.896,132.375,398.443,132.642,397.99,132.899z"/>
<path style="fill:#3E3D43;" d="M40.611,372.162c-3.025-1.746-5.765-1.909-7.744-0.76L3.173,388.537
	c0.006-0.004,0.014-0.006,0.02-0.01c-1.964,1.131-3.184,3.547-3.193,6.992c-0.02,6.906,4.837,15.317,10.846,18.786
	c3.039,1.754,5.79,1.907,7.77,0.739c-0.009,0.005-0.018,0.014-0.027,0.019l29.693-17.134c1.953-1.135,3.165-3.549,3.174-6.98
	C51.477,384.04,46.62,375.632,40.611,372.162z"/>
<path style="fill:#57565C;" d="M3.173,388.537l29.693-17.134c1.979-1.149,4.719-0.987,7.744,0.76l-29.693,17.134
	C7.893,387.551,5.153,387.387,3.173,388.537z"/>
<path style="fill:#2E2E30;" d="M48.282,397.929l-29.693,17.134c1.953-1.135,3.165-3.549,3.174-6.98
	c0.02-6.91-4.837-15.317-10.846-18.786l29.693-17.134c6.009,3.47,10.866,11.878,10.846,18.786
	C51.447,394.38,50.236,396.794,48.282,397.929z"/>
<g>
	<path style="fill:#3E3D43;" d="M10.917,389.297c6.009,3.47,10.866,11.878,10.846,18.786c-0.02,6.906-4.908,9.692-10.917,6.221
		C4.837,410.835-0.02,402.424,0,395.518C0.02,388.608,4.908,385.826,10.917,389.297z"/>
	<path style="fill:#3E3D43;" d="M255.036,232.587c0.005,1.832,0.652,3.12,1.695,3.726l49.154,28.608
		c-0.005-0.003-0.009-0.007-0.015-0.01c1.057,0.624,2.527,0.542,4.148-0.395c3.209-1.853,5.801-6.344,5.791-10.03
		c-0.005-1.838-0.656-3.128-1.705-3.732c0.003,0.002,0.007,0.003,0.01,0.005l-49.154-28.608c-1.056-0.614-2.519-0.527-4.135,0.405
		C257.618,224.41,255.025,228.898,255.036,232.587z"/>
</g>
<path style="fill:#57565C;" d="M314.114,250.759l-49.154-28.608c-1.056-0.614-2.519-0.527-4.135,0.405l49.154,28.608
	C311.595,250.233,313.057,250.146,314.114,250.759z"/>
<path style="fill:#2E2E30;" d="M256.73,236.313l49.154,28.608c-1.043-0.606-1.69-1.894-1.695-3.726
	c-0.01-3.689,2.582-8.177,5.791-10.03l-49.154-28.608c-3.209,1.853-5.801,6.341-5.791,10.03
	C255.041,234.419,255.688,235.707,256.73,236.313z"/>
<path style="fill:#3E3D43;" d="M309.98,251.165c-3.209,1.853-5.801,6.34-5.791,10.03c0.01,3.686,2.621,5.174,5.828,3.322
	c3.209-1.853,5.801-6.344,5.791-10.03C315.798,250.798,313.188,249.313,309.98,251.165z"/>
<path style="fill:#E0E0E2;" d="M471.343,176.563c-0.051-0.556-0.155-1.133-0.278-1.699c-0.7-2.965-2.379-5.994-4.541-8.197
	c-0.865-0.895-1.802-1.648-2.781-2.214c-1.164-0.68-2.265-1.02-3.264-1.05c-0.67-0.031-1.287,0.083-1.833,0.329
	c-0.248,0.144-0.505,0.288-0.751,0.443c-0.021,0-0.041,0.021-0.062,0.031c-36.896,21.443-143.033,83.131-196.446,114.175
	c4.865,5.692,10.119,10.995,15.816,15.817c58.734-34.132,145.922-84.814,191.629-111.383c0.021,0,0.03-0.01,0.041-0.01
	c0.185-0.113,0.361-0.216,0.536-0.319c1.236-0.844,1.987-2.482,1.998-4.768C471.405,177.336,471.384,176.955,471.343,176.563z"/>
<path style="fill:#D8D8DA;" d="M261.811,278.871c58.073-33.753,197.685-114.902,198.668-115.469
	c-0.67-0.031-1.287,0.083-1.833,0.329c-0.248,0.144-0.505,0.288-0.751,0.443c-0.021,0-0.041,0.021-0.062,0.031
	c-36.896,21.443-143.033,83.131-196.446,114.175C261.526,278.545,261.67,278.707,261.811,278.871z"/>
<path style="fill:#C6C5CB;" d="M471.343,176.563l-8.547,4.963L273.907,291.309c1.081,0.981,2.18,1.945,3.295,2.888
	c58.734-34.132,145.922-84.814,191.629-111.383c0.021,0,0.03-0.01,0.041-0.01c0.185-0.113,0.361-0.216,0.536-0.319
	c1.236-0.844,1.987-2.482,1.998-4.768C471.405,177.336,471.384,176.955,471.343,176.563z"/>
<path style="fill:#D8D8DA;" d="M471.065,174.864c-0.7-2.965-2.379-5.994-4.541-8.197c-2.489,1.443-139.108,80.847-200.723,116.658
	c2.593,2.775,5.297,5.438,8.106,7.985l188.889-109.783l8.547-4.963C471.291,176.007,471.189,175.43,471.065,174.864z"/>
<path style="fill:#E0E0E2;" d="M265.8,283.325c61.615-35.811,198.234-115.215,200.723-116.658c-0.865-0.895-1.802-1.648-2.781-2.214
	c-1.164-0.68-2.265-1.02-3.264-1.05c-0.983,0.567-140.596,81.716-198.668,115.469C263.114,280.382,264.441,281.87,265.8,283.325z"/>
<g>
</g>
<g>
</g>
<g>
</g>
<g>
</g>
<g>
</g>
<g>
</g>
<g>
</g>
<g>
</g>
<g>
</g>
<g>
</g>
<g>
</g>
<g>
</g>
<g>
</g>
<g>
</g>
<g>
</g>
</svg>
