<?xml version="1.0" encoding="iso-8859-1"?>
<!-- Generator: Adobe Illustrator 19.0.0, SVG Export Plug-In . SVG Version: 6.00 Build 0)  -->
<svg version="1.1" id="Layer_1" xmlns="http://www.w3.org/2000/svg" xmlns:xlink="http://www.w3.org/1999/xlink" x="0px" y="0px"
	 viewBox="0 0 512 512" style="enable-background:new 0 0 512 512;" xml:space="preserve">
<path style="fill:#57565C;" d="M511.992,101.911c0.068-3.437-2.237-6.811-6.564-9.309l-14.834-8.564
	c-5.856-3.381-14.443-4.614-22.332-3.208l-5.708,1.025c-53.731,9.61-102.574,26.688-142.251,49.745l-0.804,0.467
	c-4.65,2.702-6.966,6.241-6.962,9.783c0-0.011-0.003-0.023-0.003-0.034v56.131c-0.01,3.577,2.35,7.159,7.075,9.886l69.55,40.155
	c9.391,5.422,24.57,5.422,33.9,0l0.645-0.467c39.676-23.058,69.008-51.4,85.415-82.559l1.751-3.31
	c0.649-1.229,1.124-2.487,1.128-3.737v-56.128C512,101.827,511.993,101.869,511.992,101.911z"/>
<g>
	<path style="fill:#1D1D1F;" d="M312.535,197.947v-56.131c-0.01,3.577,2.35,7.159,7.075,9.887v56.131
		C314.885,205.106,312.525,201.524,312.535,197.947z"/>
	<path style="fill:#1D1D1F;" d="M511.031,105.522l-1.751,3.31c-16.406,31.159-45.738,59.501-85.415,82.559l-0.804,0.467v56.131
		l0.645-0.467c39.676-23.058,69.008-51.4,85.415-82.559l1.751-3.31c0.649-1.229,1.124-2.487,1.128-3.737v-56.131
		C511.996,103.034,511.679,104.293,511.031,105.522z"/>
</g>
<polygon style="fill:#2E2E30;" points="389.16,191.859 389.16,247.988 319.61,207.834 319.61,151.704 "/>
<path style="fill:#3E3D43;" d="M423.061,191.858v56.131c-9.33,5.422-24.509,5.422-33.9,0v-56.131
	C398.551,197.28,413.73,197.28,423.061,191.858z"/>
<path style="fill:#57565C;" d="M505.428,92.601c5.847,3.376,8.013,8.351,5.603,12.919l-1.751,3.31
	c-16.406,31.159-45.738,59.501-85.415,82.559l-0.804,0.467c-9.33,5.422-24.509,5.422-33.9,0l-69.55-40.155
	c-9.391-5.422-9.44-14.214-0.111-19.636l0.804-0.467c39.677-23.058,88.52-40.135,142.251-49.745l5.708-1.025
	c7.889-1.406,16.475-0.172,22.332,3.208L505.428,92.601z"/>
<path style="fill:#2E2E30;" d="M447.242,119.845c-6.588-3.803-6.617-9.971-0.077-13.772c6.545-3.803,17.187-3.803,23.775,0
	c6.583,3.8,6.617,9.964,0.072,13.769C464.471,123.643,453.825,123.647,447.242,119.845z"/>
<path style="fill:#1D1D1F;" d="M454.823,115.438c-2.372-1.37-2.382-3.59-0.028-4.958c2.356-1.37,6.188-1.37,8.561,0
	c2.37,1.369,2.382,3.588,0.026,4.957C461.026,116.806,457.194,116.807,454.823,115.438z"/>
<path style="fill:#B3D8F5;" d="M396.64,147.293c-6.588-3.803-6.617-9.971-0.077-13.772c6.545-3.803,17.187-3.803,23.775,0
	c6.583,3.8,6.617,9.964,0.072,13.769C413.871,151.09,403.223,151.093,396.64,147.293z"/>
<path style="fill:#D2E7F8;" d="M412.742,140.773c-2.372-1.37-2.382-3.59-0.028-4.958c2.356-1.37,6.188-1.37,8.561,0
	c2.37,1.369,2.382,3.588,0.026,4.957C418.946,142.141,415.112,142.142,412.742,140.773z"/>
<path style="fill:#3E3D43;" d="M501.055,99.569c0.028-3.051-1.653-7.633-9.741-12.303c-13.76-7.944-27.032-5.152-27.583-5.026
	c-2.39,0.525-3.75,1.909-3.493,3.313c-0.021-0.114-0.053-0.228-0.052-0.341l-0.016,5.613c-0.001,0.379,0.115,0.764,0.361,1.139
	c0.287,0.437,0.722,0.816,1.259,1.125c1.491,0.861,3.767,1.187,5.859,0.727c0.07-0.01,7.258-1.406,15.884,3.574
	c3.406,1.967,5.088,3.811,5.882,5.324l-0.015,4.979c-0.002,0.854,0.594,1.675,1.635,2.276c0.536,0.309,1.178,0.558,1.941,0.726
	c2.852,0.625,6.02-0.208,7.097-1.853c0.087-0.135,0.962-1.543,0.969-3.714l0.016-5.613
	C501.057,99.535,501.055,99.551,501.055,99.569z"/>
<path style="fill:#2E2E30;" d="M460.169,90.826l0.016-5.613c-0.001,0.379,0.115,0.764,0.361,1.139
	c0.287,0.437,0.722,0.816,1.259,1.125c1.491,0.861,3.767,1.187,5.859,0.727l-0.016,5.613c-2.092,0.459-4.369,0.133-5.859-0.727
	c-0.537-0.31-0.972-0.689-1.259-1.125C460.284,91.59,460.168,91.204,460.169,90.826z"/>
<g>
	<path style="fill:#1D1D1F;" d="M490.076,99.517l-0.016,5.613c0.004-1.65-0.978-4.533-6.529-7.738
		c-8.626-4.98-15.813-3.584-15.884-3.574l0.016-5.613c0.07-0.01,7.258-1.406,15.884,3.574
		C489.098,94.984,490.081,97.867,490.076,99.517z"/>
	<path style="fill:#1D1D1F;" d="M501.057,99.518l-0.016,5.613c-0.006,2.17-0.882,3.579-0.969,3.714
		c-1.077,1.645-4.245,2.477-7.097,1.853c-0.764-0.167-1.404-0.416-1.941-0.726c-1.042-0.602-1.638-1.423-1.635-2.276l0.016-5.613
		c-0.002,0.854,0.594,1.675,1.635,2.276c0.536,0.309,1.178,0.558,1.941,0.726c2.852,0.625,6.02-0.208,7.097-1.853
		C500.175,103.097,501.051,101.688,501.057,99.518z"/>
</g>
<path style="fill:#3E3D43;" d="M491.313,87.266c13.76,7.944,8.984,15.64,8.775,15.965c-1.077,1.645-4.245,2.477-7.097,1.853
	c-0.764-0.167-1.404-0.416-1.941-0.726c-1.495-0.863-2.072-2.178-1.281-3.391c0.061-0.117,2.289-4.275-6.221-9.188
	c-8.626-4.98-15.813-3.584-15.884-3.574c-2.092,0.459-4.369,0.133-5.859-0.727c-0.537-0.31-0.972-0.689-1.259-1.125
	c-1.078-1.645,0.34-3.488,3.185-4.112C464.282,82.114,477.553,79.322,491.313,87.266z"/>
<path style="fill:#C6C5CB;" d="M349.195,178.825c-6.414-3.703-12.228-4.048-16.425-1.608l-89.58,52.181
	c0.014-0.008,0.03-0.013,0.044-0.021c-4.167,2.397-6.756,7.522-6.776,14.826c-0.042,14.655,10.265,32.494,23.007,39.85
	c6.822,3.939,12.941,4.05,17.181,1.088c-0.251,0.176-0.49,0.371-0.754,0.525l89.58-52.182c4.142-2.407,6.71-7.529,6.731-14.81
	C372.243,204.019,361.949,186.189,349.195,178.825z"/>
<path style="fill:#D8D8DA;" d="M243.19,229.398l89.58-52.182c4.198-2.44,10.011-2.095,16.425,1.608l-89.58,52.182
	C253.201,227.304,247.387,226.959,243.19,229.398z"/>
<path style="fill:#ACABB1;" d="M365.471,233.485l-89.58,52.182c4.143-2.407,6.71-7.529,6.731-14.81
	c0.042-14.656-10.253-32.486-23.007-39.851l89.58-52.182c12.754,7.363,23.049,25.195,23.007,39.851
	C372.182,225.956,369.614,231.077,365.471,233.485z"/>
<path style="fill:#C6C5CB;" d="M259.615,231.007c12.754,7.363,23.049,25.195,23.007,39.851
	c-0.042,14.656-10.403,20.561-23.157,13.197c-12.742-7.356-23.049-25.195-23.008-39.85
	C236.498,229.547,246.873,223.65,259.615,231.007z"/>
<path style="fill:#D8D8DA;" d="M254.897,222.983c0,21.226,14.868,47.083,33.341,57.748c9.959,5.75,18.911,5.903,25.061,1.504
	l21.868-12.705c6.011-3.488,9.74-10.903,9.768-21.45c0.056-21.237-14.871-47.082-33.344-57.757
	c-9.3-5.359-17.721-5.869-23.803-2.325l-23.037,13.383C264.749,201.383,254.897,206.188,254.897,222.983z"/>
<path style="fill:#ACABB1;" d="M288.455,203.859c18.473,10.665,33.401,36.508,33.34,57.748
	c-0.061,21.227-15.085,29.789-33.558,19.124c-18.473-10.665-33.401-36.521-33.34-57.748
	C254.957,201.743,269.982,193.194,288.455,203.859z"/>
<path style="fill:#E0E0E2;" d="M287.786,188l-23.037,13.383c6.068-3.488,14.461-2.977,23.718,2.381h0.015l23.108-13.44
	C302.29,184.965,293.869,184.455,287.786,188z"/>
<path style="fill:#C6C5CB;" d="M311.589,190.325l-23.108,13.44c18.473,10.661,33.401,36.506,33.344,57.743
	c-0.028,10.547-3.758,17.962-9.768,21.45l23.108-13.426c6.011-3.488,9.74-10.903,9.768-21.45
	C344.991,226.844,330.062,200.999,311.589,190.325z"/>
<path style="fill:#3E3D43;" d="M288.529,207.369c-8.474-4.892-16.152-5.349-21.695-2.127L8.891,355.368
	c0.018-0.01,0.037-0.019,0.055-0.029c-5.503,3.167-8.918,9.939-8.947,19.587c-0.054,19.348,13.551,42.913,30.388,52.634
	c8.514,4.915,16.22,5.344,21.77,2.071c-0.027,0.016-0.05,0.038-0.076,0.053l257.943-150.126c5.473-3.181,8.866-9.943,8.893-19.554
	C318.973,240.644,305.367,217.09,288.529,207.369z"/>
<path style="fill:#57565C;" d="M8.891,355.368l257.943-150.126c5.543-3.221,13.221-2.765,21.695,2.127L30.587,357.496
	C22.114,352.603,14.436,352.147,8.891,355.368z"/>
<path style="fill:#2E2E30;" d="M310.024,279.558L52.082,429.684c5.472-3.181,8.866-9.943,8.893-19.554
	c0.054-19.359-13.551-42.913-30.388-52.634l257.942-150.127c16.838,9.721,30.444,33.275,30.388,52.634
	C318.89,269.615,315.497,276.378,310.024,279.558z"/>
<path style="fill:#3E3D43;" d="M30.587,357.496c16.838,9.721,30.443,33.276,30.388,52.634c-0.054,19.348-13.75,27.152-30.587,17.43
	C13.552,417.839-0.054,394.273,0,374.926C0.056,355.567,13.75,347.775,30.587,357.496z"/>
<path style="fill:#1D1D1F;" d="M226.385,248.8c-9.345-5.395-9.386-14.143-0.11-19.534c9.284-5.395,24.378-5.395,33.722,0
	c9.337,5.391,9.386,14.133,0.102,19.529C250.824,254.186,235.722,254.191,226.385,248.8z"/>
<path style="fill:#898890;" d="M261.006,225.823c0.247-2.817-1.475-5.683-5.202-7.834c-6.966-4.022-18.22-4.022-25.142,0
	c-3.447,2.003-5.166,4.628-5.163,7.256c0-0.008-0.002-0.017-0.002-0.024l-0.17,12.534c-0.007,2.652,1.742,5.308,5.246,7.332
	c6.961,4.019,18.22,4.016,25.135-0.003c3.439-1.999,5.161-4.613,5.168-7.232l0.17-12.534
	C261.049,225.486,261.022,225.654,261.006,225.823z"/>
<path style="fill:#ACABB1;" d="M225.329,237.753l0.17-12.534c-0.007,2.652,1.742,5.308,5.246,7.332l-0.17,12.534
	C227.071,243.061,225.322,240.405,225.329,237.753z"/>
<path style="fill:#898890;" d="M261.05,225.317l-0.17,12.534c-0.007,2.619-1.728,5.233-5.168,7.232
	c-6.916,4.019-18.174,4.022-25.135,0.003l0.17-12.534c6.961,4.019,18.22,4.016,25.135-0.003
	C259.321,230.55,261.042,227.935,261.05,225.317z"/>
<path style="fill:#C6C5CB;" d="M230.747,232.552c-6.966-4.022-6.998-10.544-0.082-14.563c6.921-4.022,18.174-4.022,25.142,0
	c6.961,4.019,6.998,10.537,0.076,14.56C248.966,236.567,237.707,236.57,230.747,232.552z"/>
<path style="fill:#898890;" d="M479.959,107.735c0.042-3.069-1.915-6.151-5.901-8.534c-8.036-4.805-21.253-4.938-29.522-0.298
	c-4.441,2.492-6.528,5.854-6.284,9.177c-0.014-0.179-0.043-0.357-0.042-0.537l-0.019,6.608c-0.008,3.044,1.955,6.096,5.907,8.459
	c8.036,4.804,21.253,4.938,29.522,0.298c4.202-2.357,6.316-5.495,6.326-8.64l0.019-6.608
	C479.965,107.685,479.96,107.71,479.959,107.735z M444.941,115.539c-2.493-1.491-4.133-3.274-4.955-5.149
	c0.871-1.965,2.636-3.823,5.334-5.337l0,0c7.814-4.384,20.305-4.258,27.899,0.282c2.495,1.491,4.132,3.276,4.954,5.152
	c-0.871,1.964-2.636,3.82-5.334,5.334C465.027,120.206,452.536,120.081,444.941,115.539z"/>
<g>
	<path style="fill:#77767E;" d="M478.819,107.657l-0.016,5.673c0.008-2.877-1.847-5.761-5.582-7.994
		c-7.594-4.54-20.086-4.667-27.9-0.282l0.016-5.673c7.814-4.384,20.305-4.258,27.9,0.282
		C476.972,101.895,478.827,104.78,478.819,107.657z"/>
	<path style="fill:#77767E;" d="M439.343,113.219l0.016-5.673c0.008-2.973,2.007-5.937,5.978-8.166l-0.016,5.673
		C441.35,107.281,439.352,110.246,439.343,113.219z"/>
	<path style="fill:#77767E;" d="M438.193,114.151l0.019-6.608c-0.008,3.044,1.955,6.096,5.907,8.459
		c8.036,4.805,21.253,4.937,29.522,0.299c4.202-2.358,6.316-5.495,6.326-8.64l-0.019,6.608c-0.009,3.145-2.124,6.283-6.326,8.64
		c-8.268,4.639-21.485,4.506-29.522-0.298C440.148,120.247,438.185,117.194,438.193,114.151z"/>
</g>
<g>
	<path style="fill:#898890;" d="M444.538,98.902c8.268-4.639,21.485-4.506,29.522,0.299c8.036,4.804,7.849,12.46-0.419,17.099
		s-21.485,4.506-29.522-0.299C436.082,111.198,436.27,103.542,444.538,98.902z M445.337,99.38c-7.814,4.384-7.99,11.619-0.396,16.16
		c7.594,4.54,20.086,4.667,27.9,0.282c7.814-4.384,7.99-11.619,0.396-16.16C465.642,95.122,453.151,94.995,445.337,99.38"/>
	<path style="fill:#898890;" d="M429.368,135.122c0.042-3.069-1.915-6.151-5.901-8.534c-8.036-4.804-21.253-4.938-29.522-0.298
		c-4.441,2.492-6.528,5.854-6.284,9.177c-0.014-0.179-0.043-0.357-0.042-0.537l-0.019,6.608c-0.008,3.044,1.955,6.096,5.907,8.459
		c8.036,4.805,21.253,4.938,29.522,0.298c4.202-2.358,6.316-5.495,6.326-8.64l0.019-6.608
		C429.374,135.072,429.368,135.097,429.368,135.122z M394.349,142.927c-2.493-1.491-4.133-3.274-4.955-5.149
		c0.871-1.965,2.636-3.823,5.335-5.337l0,0c7.814-4.384,20.305-4.258,27.899,0.282c2.495,1.491,4.132,3.276,4.954,5.152
		c-0.871,1.964-2.636,3.82-5.334,5.334C414.436,147.594,401.944,147.468,394.349,142.927z"/>
</g>
<g>
	<path style="fill:#77767E;" d="M428.228,135.044l-0.016,5.673c0.008-2.877-1.847-5.761-5.582-7.994
		c-7.594-4.54-20.086-4.667-27.9-0.282l0.016-5.673c7.814-4.384,20.305-4.258,27.899,0.282
		C426.38,129.283,428.235,132.167,428.228,135.044z"/>
	<path style="fill:#77767E;" d="M388.751,140.607l0.016-5.673c0.008-2.973,2.007-5.937,5.978-8.166l-0.016,5.673
		C390.758,134.67,388.759,137.634,388.751,140.607z"/>
	<path style="fill:#77767E;" d="M387.601,141.539l0.019-6.608c-0.008,3.044,1.955,6.096,5.907,8.459
		c8.036,4.805,21.253,4.937,29.522,0.298c4.202-2.358,6.316-5.495,6.326-8.64l-0.019,6.608c-0.009,3.145-2.124,6.283-6.326,8.64
		c-8.268,4.639-21.485,4.506-29.522-0.299C389.556,147.635,387.593,144.583,387.601,141.539z"/>
</g>
<path style="fill:#898890;" d="M393.946,126.29c8.268-4.639,21.485-4.506,29.522,0.299c8.036,4.804,7.848,12.46-0.419,17.099
	c-8.268,4.639-21.485,4.506-29.522-0.298C385.491,138.585,385.678,130.93,393.946,126.29z M394.746,126.768
	c-7.814,4.384-7.99,11.619-0.396,16.16c7.594,4.54,20.086,4.667,27.9,0.282s7.99-11.619,0.396-16.16
	C415.05,122.51,402.559,122.383,394.746,126.768"/>
<g>
</g>
<g>
</g>
<g>
</g>
<g>
</g>
<g>
</g>
<g>
</g>
<g>
</g>
<g>
</g>
<g>
</g>
<g>
</g>
<g>
</g>
<g>
</g>
<g>
</g>
<g>
</g>
<g>
</g>
</svg>
