<?xml version="1.0" encoding="iso-8859-1"?>
<!-- Generator: Adobe Illustrator 19.0.0, SVG Export Plug-In . SVG Version: 6.00 Build 0)  -->
<svg version="1.1" id="Layer_1" xmlns="http://www.w3.org/2000/svg" xmlns:xlink="http://www.w3.org/1999/xlink" x="0px" y="0px"
	 viewBox="0 0 512 512" style="enable-background:new 0 0 512 512;" xml:space="preserve">
<path style="fill:#D8D8DA;" d="M302.538,16.771c0.178-4.325-2.587-8.687-8.305-11.988c-11.046-6.377-28.896-6.377-39.871,0
	c-5.469,3.179-8.196,7.34-8.191,11.506c0-0.014-0.001-0.027-0.001-0.04v479.272c-0.011,4.207,2.075,8.419,7.633,11.628
	c11.046,6.377,28.893,6.375,39.867-0.002c5.452-3.169,8.871-7.315,8.883-11.468V16.408C302.554,16.528,302.543,16.65,302.538,16.771
	z"/>
<path style="fill:#C6C5CB;" d="M302.554,16.408V495.68c-0.011,4.152-3.43,8.3-8.883,11.468c-10.973,6.377-28.821,6.379-39.867,0.002
	c-5.559-3.209-7.645-7.422-7.633-11.628V16.25c-0.012,4.206,2.764,8.419,8.323,11.628c11.046,6.377,28.893,6.375,39.867-0.002
	C299.813,24.707,302.542,20.561,302.554,16.408z"/>
<g>
	<polygon style="fill:#ACABB1;" points="246.171,446.517 302.554,479.069 302.554,138.682 246.171,106.13 	"/>
	<path style="fill:#ACABB1;" d="M294.36,27.876c5.452-3.168,8.183-7.315,8.194-11.468V495.68c-0.011,4.152-3.43,8.3-8.883,11.468
		L294.36,27.876z"/>
</g>
<path style="fill:#D8D8DA;" d="M294.233,4.783c11.046,6.377,11.1,16.715,0.126,23.092c-10.973,6.377-28.821,6.379-39.867,0.002
	c-11.046-6.377-11.104-16.717-0.13-23.094C265.337-1.594,283.188-1.594,294.233,4.783z"/>
<path style="fill:#E0E0E2;" d="M399.877,148.578L147.716,2.992c-6.058-3.497-11.546-3.822-15.508-1.519L96.755,22.075
	c0.013-0.007,0.026-0.014,0.04-0.021c-3.934,2.263-6.375,7.103-6.395,13.992v289.76c-0.04,13.824,8.864,30.669,20.901,37.618
	L363.463,509.01c7.069,4.081,13.642,3.837,17.875,0.144l33.085-19.227c3.911-2.273,7.158-7.105,7.177-13.972v-289.76
	C421.638,172.371,411.914,155.527,399.877,148.578z"/>
<path style="fill:#898890;" d="M414.422,489.928L378.97,510.53c3.911-2.273,7.158-7.105,7.177-13.972l35.452-20.602
	C421.58,482.822,418.333,487.654,414.422,489.928z"/>
<g>
	<path style="fill:#ACABB1;" d="M96.755,22.076l35.451-20.602c3.963-2.303,9.451-1.979,15.508,1.519l-35.451,20.601
		C106.206,20.097,100.717,19.773,96.755,22.076z"/>
	<polygon style="fill:#ACABB1;" points="386.147,206.797 421.599,186.195 421.599,475.956 386.147,496.558 	"/>
</g>
<polygon style="fill:#D8D8DA;" points="112.264,23.594 147.716,2.992 399.877,148.578 364.426,169.18 "/>
<path style="fill:#C6C5CB;" d="M364.426,169.18c12.037,6.95,21.761,23.793,21.721,37.617v289.76
	c-0.04,13.824-10.648,19.403-22.685,12.453L111.3,363.425c-12.036-6.95-20.94-23.794-20.901-37.617V36.047
	c0.039-13.824,9.828-19.403,21.864-12.453L364.426,169.18z"/>
<path style="fill:#E0E0E2;" d="M364.426,169.18l35.451-20.602c12.037,6.95,21.761,23.793,21.721,37.617l-35.452,20.602
	C386.187,192.973,376.462,176.129,364.426,169.18z"/>
<path style="fill:#004FAE;" d="M363.629,178.655c7.693,4.441,13.902,15.206,13.877,24.037V492.29
	c-0.025,8.83-7.097,12.401-14.789,7.96L110.696,354.746c-7.692-4.441-13.082-15.206-13.057-24.037V41.11
	c0.025-8.83,6.277-12.401,13.968-7.96L363.629,178.655z"/>
<polygon style="fill:#E0E0E2;" points="319.755,201.696 282.184,180.005 281.928,270.438 193.615,219.45 193.871,129.017 
	156.025,107.166 155.39,330.909 193.236,352.759 193.508,257.267 281.82,308.255 281.82,403.746 319.755,425.438 "/>
<g>
</g>
<g>
</g>
<g>
</g>
<g>
</g>
<g>
</g>
<g>
</g>
<g>
</g>
<g>
</g>
<g>
</g>
<g>
</g>
<g>
</g>
<g>
</g>
<g>
</g>
<g>
</g>
<g>
</g>
</svg>
