<?xml version="1.0" encoding="iso-8859-1"?>
<!-- Generator: Adobe Illustrator 19.0.0, SVG Export Plug-In . SVG Version: 6.00 Build 0)  -->
<svg version="1.1" id="Layer_1" xmlns="http://www.w3.org/2000/svg" xmlns:xlink="http://www.w3.org/1999/xlink" x="0px" y="0px"
	 viewBox="0 0 512 512" style="enable-background:new 0 0 512 512;" xml:space="preserve">
<path style="fill:#C6C5CB;" d="M479.949,96.038c-8.939-5.161-17.037-5.639-22.885-2.241l-5.54,3.219
	c0.019-0.01,0.038-0.019,0.056-0.03c-5.806,3.342-9.41,10.489-9.44,20.66c-0.057,20.407,14.292,45.269,32.059,55.527
	c9.194,5.308,17.492,5.649,23.372,1.923c-0.165,0.105-0.326,0.217-0.495,0.316l5.54-3.219c5.774-3.355,9.355-10.492,9.383-20.632
	C512.058,131.155,497.708,106.292,479.949,96.038z"/>
<path style="fill:#E0E0E2;" d="M451.524,97.017l5.54-3.219c5.847-3.398,13.945-2.919,22.885,2.241l-5.54,3.219
	C465.47,94.097,457.372,93.618,451.524,97.017z"/>
<path style="fill:#C6C5CB;" d="M502.616,172.192l-5.54,3.219c5.774-3.355,9.355-10.492,9.383-20.632
	c0.057-20.407-14.292-45.269-32.051-55.523l5.54-3.219c17.759,10.254,32.109,35.116,32.051,55.523
	C511.971,161.701,508.391,168.837,502.616,172.192z"/>
<path style="fill:#D8D8DA;" d="M474.409,99.259c17.759,10.254,32.109,35.116,32.051,55.523
	c-0.057,20.407-14.501,28.646-32.26,18.392c-17.766-10.258-32.116-35.12-32.059-55.527C442.199,97.24,456.643,89.001,474.409,99.259
	z"/>
<g>
	<polygon style="fill:#C6C5CB;" points="474.169,136.304 474.24,111.437 467.734,107.682 446.234,120.175 446.03,120.057 
		283.297,214.509 283.276,221.978 304.91,234.467 304.84,259.334 311.345,263.09 332.845,250.596 333.056,250.718 495.789,156.266 
		495.81,148.798 	"/>
	<polygon style="fill:#C6C5CB;" points="333.077,243.25 495.81,148.798 495.789,156.266 333.056,250.718 	"/>
</g>
<polygon style="fill:#E0E0E2;" points="311.437,230.756 474.17,136.304 495.81,148.798 333.077,243.25 "/>
<polygon style="fill:#C6C5CB;" points="311.507,205.889 474.24,111.437 474.17,136.304 311.437,230.756 "/>
<polygon style="fill:#E0E0E2;" points="305.002,202.133 467.734,107.682 474.24,111.437 311.507,205.889 "/>
<g>
	<polygon style="fill:#C6C5CB;" points="311.507,205.889 311.437,230.756 333.077,243.25 333.056,250.718 311.415,238.224 
		311.345,263.09 304.84,259.334 304.91,234.467 283.276,221.977 283.297,214.509 304.932,226.999 305.002,202.133 	"/>
	<path style="fill:#C6C5CB;" d="M439.593,170.958c-16.849-18.067-34.829-32.616-52.819-43.004
		c-17.991-10.387-35.994-16.611-52.89-18.028c-1.976-0.164-3.726,0.215-5.186,1.064l-7.041,4.092
		c0.028-0.017,0.06-0.026,0.088-0.042c-3.046,1.72-4.861,5.452-4.875,10.56l-0.131,46.121c-0.021,7.526,3.863,16.589,9.875,23.04
		c16.849,18.067,34.829,32.616,52.82,43.004c17.991,10.387,35.994,16.611,52.89,18.028c2.059,0.171,3.866-0.26,5.362-1.187
		c-0.061,0.038-0.114,0.087-0.177,0.123l7.041-4.092c2.996-1.741,4.773-5.458,4.787-10.517l0.131-46.121
		C449.49,186.472,445.607,177.41,439.593,170.958z"/>
</g>
<path style="fill:#ACABB1;" d="M444.551,250.636l-7.041,4.092c2.996-1.741,4.773-5.458,4.788-10.517l7.041-4.092
	C449.323,245.179,447.546,248.895,444.551,250.636z"/>
<path style="fill:#E0E0E2;" d="M321.658,115.083l7.041-4.092c1.461-0.848,3.21-1.228,5.186-1.064
	c16.897,1.416,34.9,7.64,52.89,18.028l-7.041,4.092c-17.991-10.387-35.994-16.611-52.89-18.028
	C324.867,113.855,323.118,114.234,321.658,115.083z"/>
<polygon style="fill:#C6C5CB;" points="442.428,198.09 449.468,193.998 449.338,240.119 442.297,244.211 "/>
<path style="fill:#E0E0E2;" d="M379.734,132.046l7.041-4.092c17.991,10.387,35.97,24.937,52.82,43.004
	c6.012,6.451,9.896,15.514,9.875,23.04l-7.041,4.092c0.021-7.526-3.863-16.589-9.875-23.04
	C415.704,156.983,397.725,142.433,379.734,132.046z"/>
<path style="fill:#D8D8DA;" d="M379.734,132.046c17.991,10.387,35.97,24.936,52.82,43.004c6.012,6.451,9.896,15.514,9.875,23.04
	l-0.131,46.121c-0.021,7.526-3.944,12.081-9.974,11.581c-16.897-1.416-34.9-7.64-52.89-18.028
	c-17.991-10.387-35.97-24.936-52.82-43.004c-6.012-6.451-9.896-15.514-9.875-23.04l0.131-46.121
	c0.021-7.526,3.944-12.081,9.974-11.581C343.74,115.435,361.743,121.659,379.734,132.046z"/>
<path style="fill:#C6C5CB;" d="M381.602,151.497c-9.036-5.217-17.222-5.703-23.133-2.268L111.8,292.492
	c0.019-0.01,0.039-0.02,0.057-0.03c-5.868,3.377-9.51,10.599-9.539,20.884c-0.059,20.635,14.444,45.779,32.402,56.147
	c9.31,5.375,17.716,5.713,23.667,1.928c-0.174,0.111-0.345,0.23-0.523,0.334l246.668-143.263c5.84-3.394,9.463-10.609,9.492-20.859
	C414.084,186.997,399.56,161.865,381.602,151.497z"/>
<path style="fill:#E0E0E2;" d="M111.801,292.492L358.47,149.229c5.91-3.435,14.096-2.95,23.133,2.268L134.934,294.759
	C125.898,289.542,117.712,289.057,111.801,292.492z"/>
<path style="fill:#C6C5CB;" d="M404.534,228.491L157.866,371.753c5.84-3.394,9.463-10.609,9.492-20.859
	c0.059-20.635-14.466-45.767-32.423-56.135l246.669-143.262c17.958,10.367,32.482,35.499,32.423,56.135
	C413.996,217.883,410.375,225.097,404.534,228.491z"/>
<path style="fill:#D8D8DA;" d="M134.934,294.759c17.958,10.367,32.482,35.5,32.423,56.135
	c-0.059,20.635-14.677,28.966-32.635,18.597s-32.461-35.512-32.402-56.147C102.378,292.71,116.977,284.392,134.934,294.759z"/>
<path style="fill:#C6C5CB;" d="M130.931,319.679c-3.635-2.098-6.928-2.294-9.305-0.912L89.68,337.651
	c0.007-0.004,0.017-0.007,0.024-0.012c-2.36,1.358-3.826,4.262-3.838,8.399c-0.024,8.3,5.81,18.413,13.033,22.583
	c3.867,2.233,7.337,2.291,9.743,0.608c-0.144,0.101-0.281,0.213-0.434,0.302l31.947-18.884c2.349-1.365,3.806-4.267,3.818-8.391
	C143.996,333.958,138.155,323.849,130.931,319.679z"/>
<path style="fill:#E0E0E2;" d="M89.68,337.652l31.947-18.885c2.377-1.381,5.67-1.186,9.305,0.912l-31.947,18.884
	C95.35,336.465,92.058,336.27,89.68,337.652z"/>
<path style="fill:#C6C5CB;" d="M140.155,350.648l-31.947,18.884c2.349-1.366,3.807-4.267,3.818-8.391
	c0.023-8.3-5.818-18.409-13.041-22.579l31.947-18.884c7.223,4.17,13.064,14.279,13.041,22.578
	C143.961,346.381,142.504,349.283,140.155,350.648z"/>
<path style="fill:#D8D8DA;" d="M98.985,338.564c7.223,4.17,13.064,14.279,13.041,22.579c-0.024,8.3-5.904,11.651-13.126,7.48
	c-7.222-4.17-13.056-14.284-13.033-22.583C85.89,337.74,91.761,334.394,98.985,338.564z"/>
<path style="fill:#ACABB1;" d="M99.512,349.548l-0.086,0.054c-0.882-0.483-1.68-0.528-2.261-0.19L5.492,406.921
	c0.003,0.001,0.006,0.002,0.009,0.003c-0.81,0.527-1.739,1.509-2.591,3.126c-1.396,2.65-4.237,9.187-2.196,10.268
	c0.223,0.118,0.537,0.033,0.904-0.186c-0.013,0.011-0.029,0.028-0.039,0.033l100.259-62.807c0.592-0.345,0.96-1.076,0.963-2.116
	C102.807,353.15,101.334,350.599,99.512,349.548z"/>
<path style="fill:#E0E0E2;" d="M5.492,406.921l91.673-57.509c0.6-0.348,1.43-0.299,2.347,0.23l-92.47,58.011
	C6.126,407.123,6.176,407.174,5.492,406.921z"/>
<path style="fill:#C6C5CB;" d="M101.838,357.359L1.579,420.167c0.592-0.345,7.284-11.556,5.463-12.607l92.47-58.011
	c1.822,1.052,3.296,3.602,3.289,5.695C102.798,356.283,102.431,357.015,101.838,357.359z"/>
<path style="fill:#ACABB1;" d="M7.347,406.514c2,1.155-0.183,6.816-2.193,9.762c-1.349,1.978-3.581,4.497-4.44,4.043
	c-2.041-1.081,0.8-7.618,2.196-10.268C4.59,406.864,6.567,406.139,7.347,406.514z"/>
<path style="fill:#C6C5CB;" d="M329.395,186.786c-7.953-4.591-15.157-5.019-20.36-1.996l-21.122,12.274
	c0.017-0.009,0.034-0.017,0.051-0.027c-5.165,2.973-8.371,9.329-8.396,18.381c-0.051,18.153,12.714,40.264,28.518,49.389
	c8.179,4.722,15.563,5.027,20.793,1.714c-0.146,0.093-0.289,0.193-0.44,0.28l21.122-12.274c5.135-2.984,8.318-9.33,8.345-18.347
	C357.958,218.016,345.194,195.906,329.395,186.786z"/>
<path style="fill:#898890;" d="M287.914,197.064l21.122-12.274c5.203-3.023,12.407-2.597,20.36,1.996l-21.122,12.274
	C300.32,194.468,293.115,194.041,287.914,197.064z"/>
<path style="fill:#57565C;" d="M349.563,254.525L328.441,266.8c5.135-2.984,8.318-9.329,8.345-18.347
	c0.051-18.16-12.714-40.271-28.512-49.392l21.122-12.274c15.799,9.121,28.563,31.232,28.512,49.392
	C357.882,245.196,354.698,251.541,349.563,254.525z"/>
<path style="fill:#77767E;" d="M308.273,199.06c15.799,9.121,28.563,31.232,28.512,49.392c-0.051,18.153-12.9,25.476-28.698,16.355
	c-15.805-9.125-28.57-31.235-28.518-49.389C279.62,197.257,292.468,189.935,308.273,199.06z"/>
<g>
	<path style="fill:#3E3D43;" d="M254.789,231.802l-4.873,2.835c13.984,10.23,25.026,29.45,26.717,46.563l4.903-2.852
		C279.052,261.237,268.374,242.666,254.789,231.802z"/>
	<path style="fill:#3E3D43;" d="M232.378,244.836l-4.873,2.834c13.982,10.236,25.02,29.459,26.704,46.57l4.903-2.852
		C256.636,274.278,245.961,255.705,232.378,244.836z"/>
	<path style="fill:#3E3D43;" d="M209.967,257.87l-4.872,2.834c13.98,10.242,25.014,29.467,26.692,46.577l4.904-2.852
		C234.219,287.32,223.548,268.744,209.967,257.87z"/>
	<path style="fill:#3E3D43;" d="M165.145,283.939l-4.871,2.833c13.977,10.255,25.002,29.485,26.668,46.592l4.905-2.853
		C189.386,313.404,178.723,294.824,165.145,283.939z"/>
	<path style="fill:#3E3D43;" d="M187.556,270.905l-4.871,2.834c13.978,10.248,25.009,29.477,26.68,46.585l4.905-2.853
		C211.802,300.362,201.136,281.785,187.556,270.905z"/>
	<path style="fill:#3E3D43;" d="M366.843,166.629l-4.877,2.836c13.993,10.199,25.057,29.407,26.78,46.527l4.9-2.849
		C391.135,196.027,380.437,177.467,366.843,166.629z"/>
	<path style="fill:#3E3D43;" d="M344.432,179.663l-4.875,2.836c13.991,10.204,25.05,29.415,26.767,46.535l4.9-2.849
		C368.718,209.069,358.024,190.507,344.432,179.663z"/>
	<path style="fill:#3E3D43;" d="M277.2,218.767l-4.874,2.835c13.986,10.223,25.033,29.442,26.73,46.555l4.902-2.85
		C301.469,248.194,290.786,229.626,277.2,218.767z"/>
	<path style="fill:#3E3D43;" d="M322.021,192.699l-4.875,2.836c13.989,10.211,25.044,29.424,26.755,46.542l4.901-2.85
		C346.301,222.11,335.611,203.547,322.021,192.699z"/>
	<path style="fill:#3E3D43;" d="M299.611,205.733l-4.874,2.835c13.987,10.218,25.038,29.433,26.742,46.549l4.901-2.85
		C323.885,235.153,313.199,216.587,299.611,205.733z"/>
</g>
<g>
</g>
<g>
</g>
<g>
</g>
<g>
</g>
<g>
</g>
<g>
</g>
<g>
</g>
<g>
</g>
<g>
</g>
<g>
</g>
<g>
</g>
<g>
</g>
<g>
</g>
<g>
</g>
<g>
</g>
</svg>
