<?xml version="1.0" encoding="iso-8859-1"?>
<!-- Generator: Adobe Illustrator 19.0.0, SVG Export Plug-In . SVG Version: 6.00 Build 0)  -->
<svg version="1.1" id="Layer_1" xmlns="http://www.w3.org/2000/svg" xmlns:xlink="http://www.w3.org/1999/xlink" x="0px" y="0px"
	 viewBox="0 0 511.998 511.998" style="enable-background:new 0 0 511.998 511.998;" xml:space="preserve">
<path style="fill:#ACABB1;" d="M511.961,125.343c0.41-10.011-5.991-20.11-19.227-27.75c-25.575-14.765-66.89-14.765-92.29-0.004
	l-237.759,138.17L93.73,341.853l-0.15,22.016l18.525,8.69l143.173-17.093l237.758-138.171c12.618-7.333,18.784-16.929,18.811-26.54
	l0.152-66.25C511.997,124.784,511.973,125.063,511.961,125.343z"/>
<path style="fill:#898890;" d="M511.998,124.505l-0.15,66.25c-0.027,9.611-6.193,19.207-18.811,26.54v-66.25
	C505.654,143.713,511.971,134.116,511.998,124.505z"/>
<polygon style="fill:#ACABB1;" points="493.035,151.046 493.035,217.295 255.276,355.465 255.276,289.216 "/>
<polygon style="fill:#C6C5CB;" points="255.276,289.216 255.276,355.465 112.103,372.559 112.255,350.544 "/>
<polygon style="fill:#D8D8DA;" points="112.255,350.544 112.103,372.559 93.578,363.868 93.73,341.852 "/>
<g>
	<path style="fill:#E0E0E2;" d="M492.734,97.592c25.567,14.76,25.701,38.692,0.301,53.453L255.276,289.216l-143.022,61.328
		l-18.525-8.69l68.956-106.095l237.76-138.171C425.845,82.826,467.159,82.826,492.734,97.592z"/>
	<path style="fill:#E0E0E2;" d="M22.461,383.45l71.9-41.901c2.298-1.335,5.479-1.146,8.991,0.882l-71.9,41.901
		C27.94,382.303,24.758,382.114,22.461,383.45z"/>
</g>
<path style="fill:#C6C5CB;" d="M112.266,372.358l-71.9,41.9c2.271-1.32,3.678-4.123,3.69-8.108
	c0.023-8.021-5.623-17.789-12.603-21.82l71.9-41.901c6.98,4.03,12.626,13.799,12.603,21.82
	C115.944,368.234,114.536,371.038,112.266,372.358z"/>
<path style="fill:#D8D8DA;" d="M31.453,384.332c6.98,4.03,12.626,13.799,12.603,21.82S38.35,417.41,31.37,413.38
	c-6.98-4.03-12.617-13.803-12.594-21.824C18.799,383.535,24.473,380.301,31.453,384.332z"/>
<path style="fill:#898890;" d="M54.057,402.144c0.1-8.789-6.036-19.574-13.706-24.089c-3.897-2.295-7.442-2.529-9.998-1.049
	L9.781,388.908c-0.608,0.369-1.41,0.881-1.978,1.308c-0.577,0.434-1.321,1.049-1.831,1.56c-0.642,0.643-1.452,1.549-2.01,2.264
	c-0.458,0.587-0.998,1.423-1.369,2.069c-0.418,0.726-0.904,1.738-1.213,2.516s-0.627,1.854-0.842,2.663
	c-0.139,0.525-0.276,1.238-0.339,1.777c-0.15,1.284-0.195,1.673-0.2,2.827c-0.003,0.704,0.059,1.644,0.142,2.344
	c0.126,1.062,0.351,2.039,0.4,2.224c0.075,0.283,0.163,0.664,0.252,0.943c0.36,1.128,0.36,1.128,0.616,1.773
	c0.099,0.251,0.237,0.584,0.355,0.828c0.485,1.003,0.513,1.063,0.798,1.56c0.26,0.456,0.642,1.042,0.931,1.48
	c0.149,0.226,0.366,0.516,0.532,0.73c0.172,0.224,0.406,0.518,0.589,0.735c0.183,0.216,0.438,0.495,0.626,0.707
	c0.192,0.217,0.471,0.485,0.675,0.692c0.007,0.007,0.721,0.728,1.805,1.555c0.556,0.424,1.344,0.926,1.935,1.299
	c0.44,0.253,1.039,0.572,1.494,0.795c0.346,0.17,0.821,0.366,1.176,0.517c0.582,0.248,1.386,0.513,1.996,0.678
	c0.742,0.201,1.746,0.426,2.508,0.53c0.856,0.116,2.009,0.194,2.873,0.198c1.941,0.007,3.864-0.375,4.609-0.578
	c0.693-0.188,1.616-0.449,2.282-0.719c0.869-0.352,1.992-0.91,2.821-1.348l20.572-11.903
	C52.459,409.5,54.008,406.466,54.057,402.144z"/>
<path style="fill:#77767E;" d="M54.057,402.144c0.061-5.323-2.168-11.376-5.637-16.327c1.787,3.762,2.834,7.774,2.792,11.441
	c-0.049,4.323-1.598,7.357-4.071,8.789L26.569,417.95c-0.83,0.437-1.952,0.996-2.821,1.348c-0.666,0.27-1.589,0.53-2.282,0.719
	c-0.745,0.203-2.668,0.585-4.609,0.578c-0.864-0.003-2.018-0.082-2.873-0.197c-0.762-0.102-1.766-0.329-2.508-0.53
	c-0.61-0.165-1.415-0.429-1.996-0.678c-0.354-0.151-0.83-0.347-1.176-0.517c-0.456-0.224-1.053-0.542-1.494-0.795
	c-0.591-0.373-1.379-0.875-1.935-1.299c-1.084-0.826-1.797-1.547-1.805-1.555c-0.204-0.207-0.483-0.474-0.675-0.692
	c-0.188-0.212-0.443-0.49-0.626-0.707c-0.109-0.129-0.234-0.284-0.356-0.437c0.099,0.25,0.235,0.578,0.351,0.818
	c0.485,1.003,0.513,1.063,0.798,1.56c0.26,0.456,0.642,1.042,0.931,1.48c0.149,0.226,0.366,0.516,0.532,0.73
	c0.172,0.224,0.406,0.518,0.589,0.735c0.183,0.216,0.438,0.495,0.626,0.707c0.192,0.217,0.471,0.485,0.675,0.692
	c0.007,0.007,0.721,0.728,1.805,1.555c0.556,0.424,1.344,0.926,1.935,1.299c0.44,0.253,1.039,0.572,1.494,0.795
	c0.346,0.17,0.821,0.366,1.176,0.517c0.582,0.248,1.386,0.513,1.996,0.678c0.742,0.201,1.746,0.426,2.508,0.53
	c0.856,0.116,2.009,0.194,2.873,0.197c1.941,0.007,3.864-0.375,4.609-0.578c0.693-0.188,1.616-0.449,2.282-0.719
	c0.869-0.352,1.992-0.91,2.821-1.348l20.572-11.903C52.459,409.5,54.008,406.466,54.057,402.144z"/>
<circle style="fill:#ACABB1;" cx="12.952" cy="402.702" r="10.184"/>
<polygon style="fill:#C6C5CB;" points="356.457,139.665 220.15,218.878 232.303,225.895 275.816,251.017 399.969,178.867 
	412.122,171.804 "/>
<polygon style="fill:#57565C;" points="399.969,178.866 356.457,153.745 232.303,225.895 275.816,251.017 "/>
<polygon style="fill:#ACABB1;" points="356.457,139.665 356.457,153.745 232.303,225.895 220.15,218.878 "/>
<polygon style="fill:#C6C5CB;" points="412.122,171.804 399.969,178.866 356.457,153.745 356.457,139.665 "/>
<path style="fill:#00479B;" d="M474.143,116.094c0.222-5.402-3.232-10.851-10.374-14.974c-13.797-7.966-36.096-7.965-49.803,0
	c-6.832,3.97-10.239,9.17-10.232,14.374c0-0.017-0.002-0.033-0.002-0.05v11.87c-0.015,5.254,2.591,10.516,9.535,14.525
	c13.797,7.966,36.092,7.963,49.799-0.003c6.811-3.958,11.081-9.138,11.096-14.325v-11.87
	C474.163,115.791,474.15,115.942,474.143,116.094z"/>
<path style="fill:#004FAE;" d="M474.163,115.64v11.87c-0.015,5.187-4.285,10.366-11.096,14.325
	c-13.708,7.966-36.002,7.968-49.799,0.003c-6.943-4.008-9.55-9.27-9.535-14.524v-11.87c-0.015,5.254,3.452,10.516,10.396,14.525
	c13.797,7.965,36.092,7.963,49.799-0.003C470.739,126.007,474.149,120.827,474.163,115.64z"/>
<path style="fill:#00479B;" d="M463.929,129.965c6.811-3.958,10.221-9.138,10.236-14.325v11.87
	c-0.015,5.187-4.285,10.366-11.096,14.325L463.929,129.965z"/>
<path style="fill:#005ECF;" d="M463.77,101.119c13.797,7.965,13.866,20.879,0.158,28.845s-36.002,7.968-49.799,0.003
	c-13.797-7.966-13.87-20.882-0.162-28.848C427.675,93.153,449.973,93.153,463.77,101.119z"/>
<g>
	<path style="fill:#3E3D43;" d="M305.481,217.798c-2.2-1.27-4.622-1.997-7.256-2.184c-2.651-0.187-5.116,0.192-7.427,1.14
		c0.727-0.606,1.239-1.251,1.509-1.929c0.279-0.683,0.325-1.367,0.155-2.059c-0.17-0.683-0.548-1.343-1.124-1.982
		c-0.568-0.635-1.327-1.217-2.261-1.756c-1.233-0.713-2.599-1.232-4.103-1.544c-1.505-0.312-3.043-0.423-4.628-0.323
		c-1.595,0.096-3.204,0.385-4.821,0.861c-1.618,0.476-3.142,1.131-4.59,1.973c-1.167,0.678-2.168,1.395-2.978,2.156
		c-0.818,0.765-1.445,1.544-1.889,2.333c-0.444,0.798-0.697,1.583-0.751,2.348c-0.053,0.774,0.1,1.496,0.478,2.174l5.092,0.053
		c-0.597-1.16-0.611-2.319-0.062-3.488c0.55-1.16,1.666-2.233,3.362-3.218c1.722-1.001,3.555-1.602,5.497-1.795
		c1.951-0.197,3.747,0.178,5.389,1.125c1.642,0.948,2.396,2.074,2.286,3.382c-0.117,1.304-1.289,2.603-3.499,3.887l-1.292,0.75
		l3.442,1.987l1.201-0.698c2.492-1.448,4.963-2.218,7.438-2.305c2.467-0.092,4.679,0.428,6.629,1.554
		c1.958,1.131,2.804,2.319,2.554,3.584c-0.259,1.26-1.448,2.501-3.576,3.739c-1.937,1.125-3.868,1.833-5.802,2.108
		c-1.926,0.279-3.878,0.255-5.857-0.063l0.018,3.166c2.593,0.356,5.227,0.274,7.873-0.24c2.655-0.519,5.15-1.458,7.493-2.819
		c1.664-0.968,2.946-1.973,3.854-3.022c0.9-1.044,1.417-2.088,1.552-3.142c0.135-1.044-0.127-2.059-0.782-3.041
		C307.941,219.525,306.905,218.621,305.481,217.798"/>
	<path style="fill:#3E3D43;" d="M329.813,202.104c-1.55-0.894-3.256-1.554-5.112-1.982c-1.863-0.433-3.725-0.635-5.61-0.621
		c-1.886,0.015-3.737,0.26-5.553,0.726c-1.824,0.462-3.483,1.136-4.989,2.011c-1.292,0.75-2.242,1.544-2.844,2.377
		c-0.594,0.828-0.88,1.65-0.834,2.453l-8.521-7.221l12.923-7.511l-3.767-2.174l-15.929,9.257c2.671,2.29,5.075,4.359,7.219,6.201
		c0.927,0.785,1.844,1.564,2.746,2.333c0.902,0.77,1.719,1.472,2.445,2.102c0.726,0.639,1.352,1.173,1.861,1.611
		c0.509,0.438,0.835,0.713,0.951,0.818l3.651-2.122c-0.347-1.053-0.236-2.084,0.323-3.094c0.567-1.016,1.517-1.905,2.834-2.671
		c0.985-0.573,2.088-1.01,3.282-1.319c1.203-0.303,2.431-0.457,3.677-0.467c1.262-0.009,2.5,0.13,3.74,0.414
		c1.231,0.288,2.372,0.726,3.389,1.313c1.084,0.626,1.884,1.308,2.42,2.04c0.528,0.736,0.781,1.477,0.751,2.228
		c-0.029,0.75-0.316,1.496-0.86,2.228c-0.561,0.731-1.354,1.405-2.405,2.016c-1.656,0.962-3.637,1.612-5.936,1.944
		c-2.299,0.332-4.6,0.336-6.886,0.015l-0.3,2.762c2.811,0.519,5.709,0.554,8.705,0.106c2.987-0.443,5.657-1.347,8.001-2.708
		c1.598-0.929,2.838-1.958,3.728-3.085c0.891-1.125,1.374-2.276,1.459-3.436c0.093-1.164-0.237-2.305-0.983-3.436
		C332.639,204.091,331.454,203.051,329.813,202.104"/>
	<polyline style="fill:#3E3D43;" points="341.835,199.799 336.628,196.792 333.216,198.774 338.425,201.782 341.835,199.799 	"/>
	<path style="fill:#3E3D43;" d="M364.436,181.983c-1.55-0.895-3.249-1.559-5.103-1.987c-1.863-0.433-3.725-0.635-5.61-0.621
		c-1.893,0.019-3.737,0.26-5.553,0.726c-1.824,0.462-3.491,1.14-4.998,2.016c-1.291,0.75-2.234,1.539-2.836,2.372
		s-0.88,1.65-0.842,2.459l-8.521-7.221l12.932-7.515l-3.767-2.174l-15.928,9.257c2.671,2.29,5.075,4.359,7.219,6.201
		c0.927,0.785,1.844,1.564,2.746,2.333c0.902,0.77,1.712,1.477,2.437,2.108c0.735,0.635,1.352,1.174,1.861,1.612
		c0.509,0.438,0.835,0.712,0.952,0.818l3.651-2.122c-0.347-1.053-0.228-2.088,0.331-3.098c0.559-1.01,1.509-1.901,2.834-2.67
		c0.985-0.573,2.079-1.005,3.282-1.319c1.203-0.303,2.431-0.458,3.677-0.467c1.254-0.005,2.5,0.13,3.732,0.418
		c1.239,0.284,2.371,0.726,3.388,1.313c1.084,0.626,1.893,1.304,2.42,2.04c0.536,0.731,0.781,1.477,0.76,2.223
		c-0.038,0.755-0.316,1.496-0.867,2.233c-0.561,0.731-1.354,1.404-2.398,2.011c-1.663,0.967-3.646,1.616-5.944,1.949
		c-2.29,0.327-4.591,0.332-6.878,0.009l-0.308,2.767c2.811,0.519,5.709,0.554,8.705,0.106c2.996-0.447,5.665-1.352,8-2.708
		c1.606-0.933,2.846-1.963,3.737-3.089c0.891-1.125,1.374-2.276,1.46-3.436c0.085-1.16-0.237-2.305-0.992-3.43
		C367.271,183.965,366.078,182.931,364.436,181.983"/>
</g>
<g>
</g>
<g>
</g>
<g>
</g>
<g>
</g>
<g>
</g>
<g>
</g>
<g>
</g>
<g>
</g>
<g>
</g>
<g>
</g>
<g>
</g>
<g>
</g>
<g>
</g>
<g>
</g>
<g>
</g>
</svg>
