<?xml version="1.0" encoding="iso-8859-1"?>
<!-- Generator: Adobe Illustrator 19.0.0, SVG Export Plug-In . SVG Version: 6.00 Build 0)  -->
<svg version="1.1" id="Layer_1" xmlns="http://www.w3.org/2000/svg" xmlns:xlink="http://www.w3.org/1999/xlink" x="0px" y="0px"
	 viewBox="0 0 512.001 512.001" style="enable-background:new 0 0 512.001 512.001;" xml:space="preserve">
<path style="fill:#2E2E30;" d="M279.231,415.875c9.04-5.219,13.555-12.07,13.535-18.911l-0.011-26.852
	c0,0.022-0.001,0.044-0.001,0.066c0.009-6.775-4.427-13.544-13.322-18.713c-17.847-10.371-46.878-10.371-64.842,0
	c-9.151,5.284-13.662,12.24-13.528,19.165c-0.002-0.085-0.005-0.17-0.006-0.255l0.012,26.852
	c0.019,6.753,4.457,13.496,13.323,18.648C232.237,426.247,261.267,426.247,279.231,415.875z"/>
<path style="fill:#E0E0E2;" d="M272.958,385.334c14.436-8.335,14.511-21.847,0.169-30.182s-37.671-8.336-52.107-0.001
	s-14.512,21.849-0.17,30.184C235.193,393.668,258.522,393.669,272.958,385.334"/>
<path style="fill:#2E2E30;" d="M245.966,372.157c0.657,0.116,1.364,0.116,2.023,0c0.525-0.093,1.02-0.259,1.436-0.499
	c0.232-0.134,0.424-0.282,0.577-0.439l13.655-0.025c0.465,0,0.887-0.109,1.193-0.285c0.306-0.177,0.496-0.421,0.497-0.691
	c0.003-0.539-0.748-0.976-1.679-0.976l-13.655,0.025c-0.15-0.158-0.342-0.305-0.572-0.439c-1.346-0.783-3.533-0.782-4.886,0
	c-1.355,0.783-1.363,2.049-0.017,2.831C244.95,371.898,245.442,372.064,245.966,372.157z"/>
<path style="fill:#C6C5CB;" d="M248.057,368.886c-0.589-0.343-1.549-0.343-2.141,0c-0.307,0.178-0.456,0.412-0.446,0.644
	c0-0.006-0.001-0.013-0.001-0.019l0.002,0.714c0.001,0.223,0.147,0.445,0.44,0.615c0.589,0.343,1.549,0.343,2.141,0
	c0.299-0.172,0.447-0.399,0.447-0.625l-0.002-0.714c0,0,0,0.001,0,0.002C248.498,369.28,248.351,369.056,248.057,368.886z"/>
<path style="fill:#ACABB1;" d="M248.05,370.126c0.593-0.343,0.597-0.898,0.007-1.24c-0.589-0.343-1.549-0.343-2.141,0
	c-0.593,0.343-0.597,0.898-0.007,1.24C246.498,370.468,247.457,370.469,248.05,370.126z"/>
<path style="fill:#2E2E30;" d="M279.231,415.875c9.04-5.219,13.555-12.07,13.535-18.911l-0.011-26.852
	c0,0.022-0.001,0.044-0.001,0.066c0.009-6.775-4.427-13.545-13.322-18.714c-17.847-10.372-46.878-10.372-64.842,0
	c-9.152,5.284-13.663,12.241-13.528,19.166c-0.002-0.086-0.005-0.171-0.006-0.256l0.012,26.852
	c0.019,6.753,4.457,13.496,13.323,18.648C232.237,426.247,261.267,426.247,279.231,415.875z M210.302,372.331
	c0.758-4.81,4.325-9.502,10.7-13.183c14.406-8.317,37.686-8.317,51.998,0c6.239,3.626,9.744,8.234,10.519,12.968
	c0.029-0.186,0.054-0.372,0.075-0.558c-0.559,5.004-4.151,9.92-10.774,13.744c-14.406,8.317-37.686,8.317-51.998,0
	C214.58,381.675,211.076,377.066,210.302,372.331z"/>
<g style="enable-background:new    ;">
	<path style="fill:#57565C;" d="M221.001,359.148c14.406-8.317,37.686-8.317,51.998,0c6.239,3.626,9.744,8.234,10.519,12.968
		c0.952-6.056-2.554-12.297-10.53-16.932c-14.312-8.317-37.592-8.317-51.998,0c-5.768,3.33-9.237,7.489-10.406,11.813
		c-0.293,1.181-0.445,2.299-0.447,3.306c-0.001,0.677,0.054,1.354,0.164,2.029C211.059,367.522,214.627,362.828,221.001,359.148z"/>
	<path style="fill:#57565C;" d="M279.231,415.875c9.04-5.219,13.555-12.07,13.535-18.911l-0.011-26.852
		c0.02,6.841-4.496,13.692-13.535,18.911c-17.963,10.37-46.994,10.372-64.841,0c-8.866-5.152-13.303-11.895-13.323-18.648
		l0.012,26.852c0.019,6.753,4.457,13.496,13.323,18.648C232.237,426.247,261.267,426.247,279.231,415.875z"/>
</g>
<g>
	<path style="fill:#898890;" d="M293.17,398.904c-2.543,1.186-4.153,4.09-4.153,8.359c0,7.985,5.585,17.659,12.478,21.611
		c3.432,1.969,6.543,2.144,8.799,0.837c-0.007,0.004-0.014,0.009-0.02,0.014l10.858-6.074c2.283-1.309,3.698-4.131,3.699-8.149
		c0-7.979-5.59-17.655-12.478-21.605c-3.425-1.964-6.527-2.146-8.781-0.854l-10.858,6.074
		C292.859,399.036,293.018,398.975,293.17,398.904z"/>
	<path style="fill:#898890;" d="M321.133,423.653l-10.858,6.074c2.283-1.309,3.699-4.131,3.699-8.149l10.858-6.074
		C324.831,419.521,323.417,422.343,321.133,423.653z"/>
</g>
<path style="fill:#C6C5CB;" d="M292.714,399.119l10.858-6.074c2.255-1.294,5.356-1.111,8.781,0.854
	c6.887,3.951,12.478,13.626,12.478,21.605l-10.858,6.074c0-7.979-5.59-17.655-12.478-21.605
	C298.07,398.008,294.969,397.826,292.714,399.119z"/>
<path style="fill:#ACABB1;" d="M313.973,421.577c0,7.985-5.59,11.248-12.478,7.297c-6.893-3.954-12.478-13.626-12.478-21.611
	c0-7.979,5.585-11.245,12.478-7.291C308.382,403.923,313.973,413.599,313.973,421.577z"/>
<path style="fill:#57565C;" d="M483.808,92.254c0.252-13.08-5.284-26.199-16.615-37.939l0.084-29.518
	C410.009-8.266,317.13-8.266,260.235,24.798c-28.36,16.481-42.507,38.112-42.477,59.758c0-0.07-0.004-0.139-0.004-0.209
	l-0.502,176.803c-0.062,21.855,14.331,43.743,43.148,60.382c51.161,29.538,134.143,29.538,184.971-0.001
	c25.255-14.676,37.896-33.925,37.951-53.202l0.502-176.803C483.825,91.769,483.814,92.011,483.808,92.254z"/>
<polygon style="fill:#2E2E30;" points="467.277,24.797 466.776,201.6 454.545,208.708 455.046,31.906 "/>
<path style="fill:#3E3D43;" d="M234.595,261.195l0.502-176.803c0.054-19.02,12.526-38.011,37.441-52.49
	C322.693,2.757,404.564,2.76,455.047,31.906l-0.502,176.803c-50.482-29.146-132.354-29.15-182.509-0.003
	C247.121,223.184,234.649,242.175,234.595,261.195z"/>
<path style="fill:#2E2E30;" d="M466.482,91.477l-0.502,176.803c0.048-16.934-11.105-33.895-33.434-46.787
	c-16.624-9.598-37.571-15.906-60.58-18.249l0.502-176.803c23.008,2.343,43.955,8.651,60.58,18.249
	C455.377,57.582,466.53,74.542,466.482,91.477z"/>
<path style="fill:#3E3D43;" d="M483.825,91.527l-0.502,176.803c-0.054,19.277-12.696,38.526-37.951,53.202
	c-50.828,29.538-133.811,29.539-184.971,0.001c-28.818-16.638-43.21-38.526-43.148-60.382l0.502-176.803
	c-0.062,21.855,14.331,43.743,43.148,60.382c51.161,29.538,134.143,29.538,184.971-0.001
	C471.129,130.051,483.771,110.804,483.825,91.527z"/>
<path style="fill:#2E2E30;" d="M282.766,311.581c0,7.882-5.518,11.103-12.316,7.203c-6.803-3.903-12.316-13.451-12.316-21.332
	c0-7.875,5.513-11.1,12.316-7.197C277.248,294.155,282.766,303.706,282.766,311.581z"/>
<path style="fill:#57565C;" d="M467.277,24.797l-12.23,7.107C404.564,2.76,322.693,2.755,272.538,31.902
	s-49.887,76.573,0.596,105.719c44.375,25.621,116.344,25.619,160.43-0.001c44.094-25.625,43.859-67.311-0.516-92.931
	c-16.624-9.598-37.571-15.906-60.58-18.249l2.954-9.898c26.537,2.698,50.691,9.973,69.858,21.039
	c51.161,29.538,51.431,77.605,0.597,107.146c-50.828,29.538-133.811,29.539-184.971,0.001
	c-57.268-33.063-57.571-86.863-0.668-119.931C317.13-8.266,410.009-8.266,467.277,24.797z"/>
<path style="fill:#C6C5CB;" d="M270.46,412.632c0.007,2.491,0.885,4.242,2.302,5.066l30.641,17.849
	c-0.091-0.052-0.172-0.119-0.258-0.18c1.45,1.014,3.543,0.975,5.876-0.372c4.358-2.516,7.884-8.618,7.87-13.631
	c-0.007-2.498-0.892-4.252-2.318-5.072c0.005,0.003,0.01,0.004,0.015,0.007l-30.641-17.849c-1.436-0.835-3.424-0.717-5.618,0.55
	C273.967,401.519,270.445,407.619,270.46,412.632z"/>
<path style="fill:#D8D8DA;" d="M314.59,416.3l-30.641-17.849c-1.436-0.835-3.424-0.717-5.618,0.55l30.641,17.849
	C311.164,415.584,313.154,415.465,314.59,416.3z"/>
<path style="fill:#C6C5CB;" d="M272.762,417.697l30.641,17.849c-1.417-0.823-2.296-2.576-2.302-5.066
	c-0.015-5.013,3.507-11.112,7.87-13.632L278.33,399c-4.362,2.519-7.884,8.618-7.87,13.632
	C270.467,415.123,271.345,416.874,272.762,417.697z"/>
<path style="fill:#ACABB1;" d="M308.971,416.85c-4.362,2.519-7.884,8.618-7.87,13.632c0.015,5.013,3.559,7.033,7.921,4.514
	c4.358-2.516,7.884-8.618,7.87-13.63C316.878,416.352,313.329,414.334,308.971,416.85z"/>
<path style="fill:#C6C5CB;" d="M279.878,413.677c-1.444-0.834-2.753-0.911-3.699-0.363l-24.451,14.336
	c0.003-0.002,0.006-0.003,0.01-0.005c-0.938,0.54-1.521,1.694-1.527,3.339c-0.009,3.301,2.312,7.318,5.182,8.974
	c1.537,0.887,2.914,0.912,3.869,0.245c-0.056,0.04-0.111,0.084-0.17,0.118l24.451-14.336c0.933-0.542,1.511-1.696,1.516-3.335
	C285.068,419.35,282.75,415.335,279.878,413.677z"/>
<path style="fill:#D8D8DA;" d="M251.726,427.651l24.451-14.336c0.946-0.55,2.255-0.471,3.699,0.363l-24.451,14.336
	C253.981,427.179,252.672,427.101,251.726,427.651z"/>
<path style="fill:#ACABB1;" d="M283.543,425.986l-24.451,14.336c0.933-0.542,1.511-1.696,1.516-3.335
	c0.009-3.301-2.309-7.316-5.182-8.974l24.451-14.336c2.872,1.658,5.191,5.674,5.182,8.976
	C285.054,424.292,284.476,425.444,283.543,425.986z"/>
<path style="fill:#C6C5CB;" d="M255.426,428.012c2.872,1.658,5.191,5.674,5.182,8.974c-0.009,3.301-2.343,4.631-5.215,2.972
	c-2.869-1.657-5.191-5.675-5.182-8.974C250.22,427.684,252.556,426.356,255.426,428.012z"/>
<g>
	<path style="fill:#2E2E30;" d="M278.855,307.582c-0.603-3.821-2.648-7.876-5.379-10.859c-0.536-0.586-1.089-1.105-1.659-1.592
		c0,0,0,0-0.017-0.017c-0.688-0.586-1.407-1.105-2.145-1.525c-0.754-0.436-1.474-0.754-2.179-0.972h-0.033
		c-0.017-0.017-0.033-0.033-0.05-0.033c-0.234-0.134-0.67-0.201-0.754-0.15c-1.407-0.285-2.681-0.084-3.704,0.519
		c-0.033,0.017-0.067,0.033-0.1,0.067c-62.058,36.048-124.114,72.113-186.172,108.178l-21.367,12.418
		c0.551-0.319,1.174-0.389,1.842-0.191c-0.669-0.196-1.294-0.124-1.841,0.194c-1.947,1.181-4.539,2.773-6.365,4.134
		c-2.098,1.563-4.748,3.841-6.691,5.593c-0.037,0.032-3.718,3.407-7.011,8.366c-3.099,4.665-4.498,8.562-5.281,11.086
		c-0.773,2.494-1.144,4.73-1.147,4.751c-0.505,3.329-0.509,3.463-0.618,6.89l-0.006,2.125c0.005,1.526,0.087,2.999,0.24,4.442
		c0.004,0.05,0.008,0.108,0.013,0.157c0.041,0.45,0.118,0.974,0.203,1.494c0.041,0.271,0.088,0.541,0.134,0.811
		c0.03,0.183,0.062,0.366,0.088,0.532c0.036,0.222,0.373,2.254,1.341,5.224c0.698,2.144,1.515,3.961,1.959,4.892
		c0.052,0.111,0.106,0.219,0.16,0.33c0.059,0.119,0.106,0.212,0.134,0.269c0.001,0.002,0.002,0.003,0.002,0.005
		c1.09,2.187,2.362,4.23,2.909,5.011c0.127,0.182,0.251,0.356,0.375,0.534c0.103,0.153,0.219,0.324,0.312,0.464
		c0.874,1.313,2.193,2.964,3.266,4.12c0.023,0.024,0.051,0.053,0.074,0.077c0.622,0.697,1.333,1.459,2.182,2.325
		c1.162,1.186,2.435,2.342,3.75,3.442c1.068,0.926,3.081,2.512,5.652,4.256c0.193,0.132,0.379,0.253,0.571,0.381
		c0.32,0.213,0.634,0.42,0.946,0.621c0.433,0.28,0.848,0.542,1.261,0.796c0.072,0.044,0.142,0.088,0.213,0.131
		c0.576,0.352,1.121,0.676,1.642,0.973c0.013,0.007,0.025,0.015,0.038,0.023c0.008,0.004,0.016,0.008,0.023,0.013
		c0.218,0.124,0.456,0.265,0.662,0.379c0.866,0.475,1.985,1.088,3.354,1.787c0.05,0.025,0.103,0.052,0.155,0.078
		c1.991,1.012,4.512,2.199,7.593,3.431c0.099,0.04,0.199,0.079,0.299,0.118c0.985,0.391,2.028,0.784,3.127,1.177
		c0.21,0.075,0.418,0.15,0.632,0.226c0.87,0.305,1.779,0.608,2.719,0.909c0.274,0.088,0.551,0.176,0.831,0.263
		c0.823,0.256,1.662,0.511,2.537,0.761c0.024,0.006,0.047,0.011,0.071,0.019c2.075,0.589,3.961,1.066,5.605,1.462
		c0.021,0.005,0.044,0.009,0.066,0.015c0.177,0.042,0.354,0.077,0.531,0.118c1.661,0.385,3.33,0.731,5.011,1.047
		c0.286,0.053,0.574,0.111,0.86,0.162c1.746,0.316,3.511,0.593,5.306,0.84c0.388,0.053,0.786,0.099,1.177,0.149
		c1.544,0.199,3.115,0.373,4.715,0.525c0.271,0.026,0.526,0.065,0.798,0.089c5.168,0.463,9.911,0.591,13.982,0.554
		c1.248-0.003,2.132-0.017,3.297-0.068c3.3-0.107,5.993-0.309,7.871-0.49c0.959-0.065,2.071-0.19,3.181-0.326
		c0.871-0.097,1.838-0.214,2.887-0.353c0.028-0.003,0.062-0.007,0.09-0.01c0.239-0.027,0.805-0.104,1.592-0.224
		c3.658-0.534,8.123-1.344,13.037-2.613c1.197-0.299,2.414-0.619,3.425-0.94c0.022-0.007,0.046-0.015,0.068-0.022
		c0.106-0.031,0.208-0.059,0.313-0.09c3.182-0.941,7.319-2.367,10.468-3.669c0.02-0.007,0.041-0.016,0.061-0.023
		c0.135-0.052,2.428-0.944,5.835-2.646c0.077-0.038,0.166-0.079,0.241-0.116c0.145-0.072,0.31-0.16,0.464-0.239
		c0.109-0.055,0.216-0.111,0.328-0.169c0.135-0.07,0.26-0.133,0.398-0.206c1.099-0.573,2.28-1.212,3.525-1.928
		c0.002-0.001,0.003-0.003,0.005-0.004c29.896-17.378,59.793-34.756,89.69-52.118c1.626-1.005,2.614-3.067,2.631-5.966v-0.168
		c0-0.67-0.067-1.341-0.167-2.028c-0.586-3.821-2.631-7.876-5.379-10.876c-1.157-1.274-2.447-2.364-3.804-3.15
		c-1.039-0.603-2.045-0.988-2.983-1.157c0,0,0,0-0.017,0c-1.24-0.251-2.379-0.134-3.335,0.319c-0.184,0.1-0.369,0.201-0.553,0.319
		c-8.781,5.095-17.58,10.206-26.361,15.317l-18.854,10.96c-1.424,0.821-3.586,1.592-4.759,2.765
		c-9.569,5.564-19.155,11.128-28.742,16.692l-9.619,5.597c0.398-0.235,0.842-0.326,1.314-0.284
		c-0.471-0.039-0.916,0.054-1.319,0.287c-8.764,5.032-18.937,8.298-31.102,9.984c-6.564,0.91-19.873,2.017-35.246-0.789
		c-9.098-1.66-14.668-3.86-18.354-5.316c-2.97-1.172-5.724-2.682-7.938-3.895c-1.467-0.805-3.305-2.079-4.686-3.023
		c-1.791-1.224-5.837-4.498-8.33-8.129c-0.405-0.59-1.638-2.387-2.307-4.189c-0.452-1.218-0.727-2.189-0.849-3.452
		c0.157-1.498,0.573-2.731,0.996-3.752c0.72-1.738,2.018-3.718,2.919-4.822c1.54-1.888,3.014-3.418,4.38-4.548
		c1.38-1.142,3.303-2.566,4.767-3.6c0.802-0.565,1.947-1.207,2.781-1.724c0.009-0.005,0.017-0.014,0.026-0.019
		c21.341-12.395,42.682-24.809,64.04-37.204c48.265-28.037,96.496-56.091,144.761-84.145c1.643-1.005,2.631-3.05,2.648-5.95v-0.184
		C279.006,308.94,278.955,308.27,278.855,307.582z"/>
	<path style="fill:#2E2E30;" d="M269.537,315.123L69.74,431.228c-0.002,0.334-0.018,0.653-0.041,0.965
		c0.022-0.311,0.038-0.629,0.039-0.962c-11.468,6.664-17.473,15.305-18.051,24.053c0.007,0.089,0.009,0.188,0.018,0.274
		c0.157-1.498,0.573-2.731,0.996-3.752c0.72-1.738,2.018-3.718,2.919-4.822c1.54-1.888,3.014-3.418,4.38-4.548
		c1.38-1.142,3.303-2.566,4.767-3.6c0.802-0.565,1.947-1.207,2.781-1.724c0.009-0.005,0.017-0.014,0.026-0.019
		c21.341-12.395,42.682-24.809,64.04-37.204c48.265-28.037,96.496-56.091,144.761-84.146c1.643-1.005,2.631-3.05,2.648-5.95v-0.184
		L269.537,315.123z"/>
</g>
<path style="fill:#3E3D43;" d="M69.738,431.231l0.002-0.003l199.797-116.104l9.485-5.514c-0.017-0.671-0.067-1.341-0.167-2.028
	c-0.603-3.821-2.648-7.876-5.379-10.859c-4.105,2.38-8.245,4.793-12.402,7.207c-16.642,9.669-33.551,19.49-50.661,29.445
	c-8.631,5.011-17.295,10.055-26.026,15.116c-21.786,12.669-43.841,25.473-66.013,38.361l-26.647,15.485
	c-8.899,5.178-17.814,10.34-26.713,15.519l-0.002,0.005c-0.819,0.475-1.61,0.961-2.379,1.456c-0.016,0.01-0.033,0.02-0.049,0.031
	c-0.056,0.034-0.107,0.073-0.162,0.109c-0.553,0.358-1.084,0.724-1.61,1.091c-0.365,0.25-0.719,0.506-1.069,0.765
	c-0.484,0.354-0.964,0.709-1.424,1.071c-0.75,0.584-1.477,1.179-2.154,1.792c-0.28,0.237-0.53,0.486-0.786,0.732
	c-0.15,0.14-0.302,0.279-0.449,0.419c-0.348,0.32-0.678,0.653-1.001,0.986c-0.045,0.046-0.088,0.093-0.133,0.139
	c-0.001-0.002-0.001-0.004-0.002-0.006c-0.003,0.003-0.006,0.006-0.009,0.009c-0.905,0.938-1.743,1.877-2.514,2.849
	c-0.252,0.319-0.503,0.636-0.738,0.972c-0.988,1.324-1.843,2.681-2.564,4.055c-0.167,0.302-0.319,0.603-0.452,0.905
	c-0.167,0.335-0.319,0.671-0.469,1.005c-0.319,0.721-0.586,1.459-0.838,2.195c-0.218,0.62-0.386,1.257-0.553,1.877
	c-0.167,0.704-0.302,1.391-0.419,2.095v0.017c-0.084,0.569-0.167,1.14-0.201,1.709c-0.018,0.142-0.018,0.277-0.026,0.416
	c-0.016,0.241-0.018,0.484-0.026,0.725c-0.016,0.469-0.021,0.938-0.008,1.407c0.005,0.205,0.018,0.41,0.029,0.614
	c0.024,0.445,0.057,0.891,0.107,1.336c0.025,0.223,0.055,0.444,0.086,0.666c0.06,0.428,0.13,0.857,0.213,1.284
	c0.046,0.233,0.096,0.466,0.148,0.699c0.094,0.416,0.199,0.832,0.316,1.247c0.067,0.238,0.138,0.478,0.212,0.716
	c0.127,0.409,0.269,0.817,0.418,1.225c0.088,0.239,0.179,0.479,0.275,0.717c0.163,0.405,0.34,0.81,0.525,1.213
	c0.108,0.235,0.216,0.47,0.332,0.705c0.2,0.405,0.414,0.808,0.636,1.21c0.126,0.229,0.251,0.458,0.385,0.684
	c0.239,0.408,0.495,0.812,0.756,1.215c0.141,0.217,0.279,0.435,0.427,0.651c0.283,0.414,0.584,0.823,0.892,1.232
	c0.152,0.201,0.298,0.403,0.455,0.603c0.333,0.423,0.686,0.843,1.047,1.261c0.156,0.181,0.305,0.363,0.465,0.542
	c0.392,0.439,0.807,0.872,1.229,1.304c0.149,0.154,0.293,0.308,0.446,0.461c0.467,0.463,0.958,0.921,1.46,1.375
	c0.129,0.116,0.249,0.234,0.379,0.35c0.573,0.507,1.171,1.007,1.788,1.503c0.073,0.059,0.14,0.119,0.214,0.177
	c2.119,1.683,4.492,3.293,7.119,4.81c5.428,3.136,11.538,5.632,18.042,7.51c25.927,7.478,58.238,4.986,79.727-7.494
	c0,0,0.001,0,0.001,0.001c10.021-5.831,20.061-11.664,29.947-17.412l10.926-6.352c14.497-8.429,28.573-16.608,41.729-24.233
	l1.073-0.636c2.011-1.173,4.005-2.329,5.966-3.469c-1.24-0.251-2.379-0.134-3.335,0.319c-0.184,0.1-0.369,0.201-0.553,0.319
	c-8.781,5.095-17.58,10.206-26.361,15.317l-18.854,10.96c-1.424,0.821-3.586,1.592-4.759,2.765
	c-9.569,5.564-19.155,11.128-28.742,16.692l-9.619,5.597c0.398-0.235,0.842-0.326,1.314-0.284c-0.471-0.039-0.916,0.054-1.319,0.287
	c-8.764,5.032-18.937,8.298-31.102,9.984c-6.564,0.91-19.873,2.017-35.246-0.789c-9.098-1.66-14.668-3.86-18.354-5.316
	c-2.97-1.172-5.724-2.682-7.938-3.895c-1.467-0.805-3.305-2.079-4.686-3.023c-1.791-1.224-5.837-4.498-8.33-8.129
	c-0.405-0.59-1.638-2.387-2.307-4.189c-0.452-1.218-0.727-2.189-0.849-3.452c-0.008-0.086-0.011-0.185-0.018-0.274
	C52.265,446.536,58.27,437.895,69.738,431.231z"/>
<path style="fill:#2E2E30;" d="M174.968,491.978c-0.017,2.905-0.838,4.981-2.077,5.795c1.24-0.822,2.061-2.898,2.069-5.792
	c-33.379,19.398-87.867,19.405-121.475,0.001c-16.904-9.759-25.346-22.599-25.309-35.418c0.005,1.526,0.087,2.999,0.24,4.442
	c0.059,0.555,0.133,1.104,0.215,1.652c0.041,0.271,0.088,0.541,0.134,0.811c0.559,3.262,1.528,6.43,2.98,9.76
	c0.129,0.296,0.267,0.592,0.408,0.889c0.052,0.111,0.106,0.219,0.16,0.33c0.045,0.092,0.091,0.183,0.137,0.274
	c1.09,2.187,2.362,4.23,2.909,5.011c0.127,0.182,0.251,0.356,0.375,0.534c1.052,1.496,2.041,2.855,3.653,4.661
	c0.622,0.697,1.333,1.459,2.182,2.325c1.162,1.186,2.435,2.342,3.75,3.442c1.859,1.555,3.802,2.996,5.652,4.256
	c0.193,0.132,0.379,0.253,0.571,0.381c0.32,0.213,0.634,0.42,0.946,0.621c0.433,0.28,0.848,0.542,1.261,0.796
	c0.072,0.044,0.142,0.088,0.213,0.131c0.576,0.352,1.121,0.676,1.642,0.973c0.02,0.011,0.041,0.024,0.062,0.034
	c0.218,0.124,0.456,0.265,0.662,0.379c0.866,0.475,1.985,1.088,3.354,1.787c0.05,0.025,0.103,0.052,0.155,0.078
	c1.99,1.012,4.512,2.199,7.593,3.431c0.099,0.04,0.199,0.079,0.299,0.118c0.985,0.391,2.028,0.784,3.127,1.177
	c0.21,0.075,0.418,0.15,0.632,0.226c0.87,0.305,1.779,0.608,2.719,0.909c0.274,0.088,0.551,0.176,0.831,0.263
	c0.823,0.256,1.662,0.511,2.537,0.761c0.024,0.006,0.047,0.011,0.071,0.019c1.896,0.54,3.781,1.03,5.671,1.475
	c0.177,0.042,0.354,0.077,0.531,0.118c1.661,0.385,3.33,0.731,5.011,1.047c0.286,0.053,0.574,0.111,0.86,0.162
	c1.746,0.316,3.511,0.594,5.306,0.84c0.388,0.053,0.786,0.099,1.177,0.149c1.544,0.199,3.115,0.373,4.715,0.525
	c0.271,0.026,0.526,0.065,0.798,0.089c5.168,0.463,9.911,0.591,13.982,0.554c1.157-0.01,2.257-0.034,3.297-0.068
	c3.3-0.107,5.993-0.309,7.871-0.49c0.007-0.001,0.016-0.001,0.022-0.002c0.831-0.08,1.902-0.184,3.158-0.324
	c0.871-0.097,1.838-0.214,2.887-0.353c0.54-0.072,1.099-0.149,1.682-0.234c3.658-0.534,8.123-1.344,13.037-2.613
	c1.142-0.295,2.308-0.615,3.493-0.962c0.106-0.031,0.208-0.059,0.313-0.09c3.182-0.941,7.319-2.367,10.468-3.669
	c0.137-0.056,0.283-0.115,0.417-0.171c1.661-0.701,3.813-1.682,5.477-2.498c0.077-0.038,0.166-0.079,0.241-0.116
	c0.145-0.072,0.31-0.16,0.464-0.239c0.109-0.055,0.216-0.111,0.328-0.169c0.135-0.07,0.26-0.133,0.398-0.206
	c1.186-0.631,2.477-1.363,3.525-1.928c0.002-0.001,0.003-0.003,0.005-0.004c29.896-17.378,59.793-34.756,89.69-52.118
	c1.626-1.005,2.614-3.067,2.631-5.966v-0.168l-9.469,5.497L174.968,491.978z"/>
<g>
	<path style="fill:#3E3D43;" d="M100.912,511.351c-1.6-0.151-3.17-0.326-4.715-0.525C97.755,511.026,99.327,511.202,100.912,511.351
		z"/>
	<path style="fill:#3E3D43;" d="M88.854,509.675c-1.681-0.316-3.35-0.662-5.011-1.047C85.468,509.01,87.145,509.356,88.854,509.675z
		"/>
	<path style="fill:#3E3D43;" d="M95.02,510.677c-1.794-0.247-3.56-0.525-5.306-0.84C91.453,510.15,93.222,510.431,95.02,510.677z"/>
	<path style="fill:#3E3D43;" d="M59.831,500.13c-0.051-0.026-0.104-0.052-0.155-0.078C59.729,500.078,59.78,500.104,59.831,500.13z"
		/>
	<path style="fill:#3E3D43;" d="M83.247,508.496c0.021,0.005,0.044,0.009,0.066,0.015c-1.889-0.445-3.774-0.935-5.671-1.475
		C79.717,507.624,81.604,508.1,83.247,508.496z"/>
	<path style="fill:#3E3D43;" d="M55.638,497.873c0.008,0.004,0.016,0.008,0.023,0.013c-0.02-0.011-0.041-0.023-0.062-0.034
		C55.613,497.859,55.625,497.866,55.638,497.873z"/>
	<path style="fill:#3E3D43;" d="M67.723,503.68c-0.1-0.04-0.2-0.079-0.299-0.118C67.525,503.602,67.623,503.641,67.723,503.68z"/>
	<path style="fill:#3E3D43;" d="M71.484,505.083c-0.214-0.075-0.422-0.15-0.632-0.226C71.063,504.933,71.274,505.009,71.484,505.083
		z"/>
	<path style="fill:#3E3D43;" d="M75.033,506.255c-0.28-0.088-0.557-0.176-0.831-0.263C74.483,506.082,74.759,506.17,75.033,506.255z
		"/>
	<path style="fill:#3E3D43;" d="M28.427,461.162c0.041,0.45,0.118,0.974,0.203,1.494c-0.081-0.548-0.156-1.097-0.215-1.652
		C28.419,461.055,28.423,461.113,28.427,461.162z"/>
	<path style="fill:#3E3D43;" d="M53.959,496.879c-0.071-0.044-0.142-0.087-0.213-0.131
		C53.817,496.792,53.887,496.835,53.959,496.879z"/>
	<path style="fill:#3E3D43;" d="M172.77,497.863c-1.048,0.565-2.341,1.297-3.525,1.928
		C170.343,499.218,171.524,498.579,172.77,497.863z"/>
	<path style="fill:#3E3D43;" d="M36.045,480.729c0.874,1.313,2.193,2.964,3.266,4.12c0.023,0.024,0.051,0.053,0.074,0.077
		c-1.612-1.808-2.601-3.165-3.653-4.661C35.836,480.417,35.952,480.589,36.045,480.729z"/>
	<path style="fill:#3E3D43;" d="M32.445,474.715c0.001,0.002,0.002,0.003,0.002,0.005c-0.046-0.091-0.092-0.182-0.137-0.274
		C32.37,474.565,32.417,474.658,32.445,474.715z"/>
	<path style="fill:#3E3D43;" d="M50.968,494.949c-1.848-1.26-3.793-2.701-5.652-4.256C46.385,491.619,48.398,493.206,50.968,494.949
		z"/>
	<path style="fill:#3E3D43;" d="M161.919,503.19c0.02-0.007,0.041-0.016,0.061-0.023c0.135-0.052,2.428-0.944,5.835-2.646
		c-1.665,0.815-3.817,1.797-5.477,2.498C162.203,503.076,162.056,503.133,161.919,503.19z"/>
	<path style="fill:#3E3D43;" d="M52.484,495.951c-0.311-0.202-0.626-0.408-0.946-0.621C51.85,495.537,52.16,495.742,52.484,495.951z
		"/>
	<path style="fill:#3E3D43;" d="M28.764,463.467c0.03,0.183,0.062,0.366,0.088,0.532c0.036,0.222,0.373,2.254,1.341,5.224
		c0.698,2.144,1.515,3.961,1.959,4.892c-0.141-0.296-0.279-0.593-0.408-0.889C30.29,469.898,29.323,466.73,28.764,463.467z"/>
	<path style="fill:#3E3D43;" d="M126.86,511.437c0.959-0.065,2.071-0.19,3.181-0.326c-1.256,0.14-2.327,0.245-3.158,0.324
		C126.875,511.435,126.867,511.436,126.86,511.437z"/>
	<path style="fill:#3E3D43;" d="M118.988,511.926c-1.041,0.033-2.141,0.057-3.297,0.068
		C116.939,511.991,117.823,511.978,118.988,511.926z"/>
	<path style="fill:#3E3D43;" d="M168.846,499.997c-0.112,0.059-0.219,0.114-0.328,0.169
		C168.626,500.111,168.737,500.053,168.846,499.997z"/>
	<path style="fill:#3E3D43;" d="M133.016,510.746c0.239-0.027,0.805-0.104,1.592-0.224c-0.583,0.085-1.142,0.163-1.682,0.234
		C132.954,510.755,132.988,510.749,133.016,510.746z"/>
	<path style="fill:#3E3D43;" d="M151.07,506.97c0.022-0.007,0.046-0.015,0.068-0.022c-1.185,0.347-2.351,0.667-3.493,0.962
		C148.842,507.612,150.059,507.291,151.07,506.97z"/>
	<path style="fill:#3E3D43;" d="M259.549,426.703c-4.038,2.346-8.178,4.759-12.402,7.207
		c-23.864,13.876-50.394,29.294-76.905,44.695c0.014,0.007,0.026,0.022,0.04,0.03c-0.015-0.008-0.032-0.017-0.047-0.025
		c-30.758,17.88-81.025,17.886-111.995,0c-1.214-0.701-2.365-1.425-3.484-2.159c-0.372-0.243-0.736-0.49-1.097-0.738
		c-0.641-0.438-1.262-0.882-1.87-1.33c-0.281-0.207-0.562-0.414-0.836-0.623c-0.691-0.529-1.354-1.065-2.001-1.606
		c-0.192-0.161-0.394-0.32-0.582-0.483c-0.197-0.17-0.393-0.341-0.586-0.512c-0.408-0.362-0.796-0.727-1.184-1.093
		c-0.272-0.257-0.549-0.511-0.811-0.77c-0.509-0.503-0.998-1.01-1.471-1.521c-0.346-0.374-0.671-0.752-0.998-1.132
		c-0.312-0.362-0.635-0.72-0.93-1.085c-0.046-0.057-0.09-0.115-0.136-0.172c-0.317-0.396-0.606-0.797-0.903-1.196
		c-0.851-1.148-1.617-2.312-2.299-3.49c-0.149-0.258-0.295-0.517-0.436-0.776c-0.253-0.464-0.492-0.93-0.719-1.398
		c-0.113-0.234-0.224-0.468-0.33-0.703c-0.168-0.369-0.335-0.739-0.487-1.11c-0.17-0.415-0.327-0.831-0.476-1.248
		c-0.117-0.318-0.224-0.636-0.328-0.956c-0.107-0.33-0.201-0.661-0.294-0.993c-0.047-0.173-0.102-0.345-0.145-0.519
		c-0.082-0.273-0.145-0.555-0.205-0.832c-0.101-0.44-0.201-0.879-0.28-1.32c-0.024-0.133-0.051-0.266-0.069-0.396
		c-0.129-0.708-0.208-1.417-0.274-2.125c-0.028-0.325-0.029-0.65-0.045-0.975c-0.02-0.432-0.049-0.863-0.049-1.289
		c0,0,0-0.01,0-0.017c0-0.555,0.025-1.11,0.06-1.664c0.023-0.346,0.055-0.692,0.089-1.037c0.039-0.38,0.08-0.761,0.135-1.14
		c0.034-0.237,0.065-0.471,0.109-0.716c0.1-0.586,0.214-1.171,0.353-1.756c0.06-0.231,0.126-0.466,0.188-0.701
		c0.083-0.311,0.172-0.621,0.265-0.931c0.122-0.415,0.255-0.83,0.403-1.245c0.086-0.243,0.179-0.487,0.271-0.729
		c0.116-0.302,0.227-0.605,0.356-0.907c0.148-0.371,0.323-0.742,0.494-1.112c0.078-0.17,0.152-0.34,0.234-0.509
		c0.188-0.389,0.39-0.776,0.596-1.163c0.032-0.061,0.067-0.12,0.099-0.181c0.446-0.824,0.934-1.643,1.464-2.454
		c0.084-0.129,0.163-0.258,0.25-0.387c0.174-0.26,0.347-0.52,0.53-0.779c0.161-0.228,0.336-0.452,0.504-0.678
		c0.313-0.424,0.623-0.848,0.959-1.267c0.342-0.425,0.706-0.845,1.071-1.265c0.35-0.402,0.712-0.801,1.083-1.2
		c0.347-0.371,0.694-0.742,1.06-1.109c0.459-0.46,0.945-0.912,1.434-1.365c0.209-0.193,0.408-0.389,0.622-0.58
		c1.035-0.927,2.146-1.833,3.309-2.723c0.208-0.159,0.42-0.318,0.632-0.475c0.884-0.658,1.801-1.306,2.756-1.941
		c0.048-0.032,0.095-0.065,0.143-0.097c0.463-0.306,0.934-0.61,1.414-0.911c0.413-0.259,0.834-0.515,1.259-0.769
		c0.279-0.167,0.542-0.34,0.827-0.506c0.002,0.001,0.005,0.002,0.007,0.003c5.128-2.983,10.24-5.95,15.368-8.933l24.669-14.345
		c48.868-28.389,97.317-56.544,143.806-83.558l18.971-11.028v-0.017l5.933-3.436c-1.407-0.285-2.681-0.084-3.704,0.519
		c-0.033,0.017-0.067,0.033-0.1,0.067c-62.058,36.048-124.114,72.113-186.172,108.178l-21.367,12.418
		c0.551-0.319,1.174-0.389,1.842-0.191c-0.669-0.196-1.294-0.124-1.841,0.194c-1.947,1.181-4.539,2.773-6.365,4.134
		c-2.098,1.563-4.748,3.841-6.691,5.593c-0.037,0.032-3.718,3.407-7.011,8.366c-3.099,4.665-4.498,8.562-5.281,11.086
		c-0.773,2.494-1.144,4.73-1.147,4.751c-0.505,3.329-0.509,3.463-0.618,6.89l-0.006,2.125c-0.037,12.82,8.405,25.658,25.309,35.418
		c33.609,19.404,88.096,19.397,121.475-0.001l0.008-0.014v0.01l80.66-46.875l9.469-5.497c0-0.67-0.067-1.341-0.167-2.028
		C264.342,433.758,262.297,429.703,259.549,426.703z"/>
</g>
<path style="fill:#57565C;" d="M246.779,425.882c-0.352,0.201-0.704,0.402-1.073,0.62c-13.155,7.626-27.233,15.804-41.729,24.233
	l-10.926,6.352c-9.888,5.748-19.926,11.58-29.947,17.412c-21.49,12.486-53.801,14.979-79.729,7.493
	c-6.504-1.879-12.614-4.374-18.042-7.51c-2.627-1.517-5-3.126-7.119-4.81c-0.073-0.059-0.141-0.118-0.214-0.177
	c-0.616-0.495-1.215-0.996-1.788-1.503c-0.131-0.116-0.251-0.234-0.379-0.35c-0.502-0.454-0.993-0.912-1.46-1.375
	c-0.154-0.153-0.296-0.307-0.446-0.461c-0.422-0.433-0.837-0.865-1.229-1.304c-0.16-0.18-0.309-0.362-0.465-0.542
	c-0.359-0.418-0.714-0.838-1.047-1.261c-0.157-0.2-0.303-0.401-0.455-0.603c-0.307-0.409-0.609-0.819-0.892-1.232
	c-0.148-0.216-0.286-0.434-0.427-0.651c-0.262-0.403-0.518-0.808-0.756-1.215c-0.134-0.228-0.258-0.457-0.385-0.684
	c-0.222-0.402-0.437-0.805-0.636-1.21c-0.116-0.234-0.224-0.47-0.332-0.705c-0.185-0.403-0.362-0.808-0.525-1.213
	c-0.096-0.238-0.186-0.478-0.275-0.717c-0.15-0.408-0.29-0.815-0.418-1.225c-0.074-0.238-0.145-0.476-0.212-0.716
	c-0.116-0.415-0.222-0.831-0.316-1.247c-0.052-0.233-0.103-0.466-0.148-0.699c-0.084-0.427-0.154-0.856-0.213-1.284
	c-0.031-0.222-0.062-0.443-0.086-0.666c-0.049-0.445-0.083-0.89-0.107-1.336c-0.01-0.205-0.023-0.41-0.029-0.614
	c-0.013-0.469-0.007-0.938,0.008-1.407c0.004-0.118-0.004-0.236,0.002-0.354c0-0.118,0.016-0.247,0.024-0.371
	c0.008-0.139,0.009-0.275,0.026-0.416c0.033-0.569,0.117-1.14,0.201-1.709v-0.017c0.117-0.704,0.252-1.391,0.419-2.095
	c0.167-0.62,0.335-1.257,0.553-1.877c0.252-0.738,0.519-1.474,0.838-2.195c0.15-0.335,0.302-0.67,0.469-1.005
	c0.134-0.302,0.285-0.603,0.452-0.905c0.721-1.374,1.576-2.732,2.564-4.055c0.235-0.335,0.486-0.654,0.738-0.972
	c0.771-0.972,1.609-1.911,2.514-2.849c0.003-0.003,0.006-0.006,0.009-0.009c0.043-0.045,0.091-0.088,0.135-0.133
	c0.323-0.333,0.653-0.667,1.001-0.986c0.004-0.004,0.007-0.008,0.011-0.011c0.138-0.138,0.295-0.271,0.438-0.408
	c0.257-0.247,0.506-0.495,0.786-0.732c0.676-0.613,1.403-1.208,2.154-1.792c0.05-0.039,0.093-0.08,0.142-0.119
	c0.252-0.201,0.503-0.402,0.771-0.586c0.163-0.128,0.344-0.241,0.511-0.366c0.35-0.259,0.704-0.515,1.069-0.765
	c0.124-0.085,0.238-0.176,0.365-0.26c0.4-0.281,0.819-0.56,1.246-0.83c0.055-0.036,0.107-0.073,0.162-0.109
	c0.016-0.01,0.033-0.02,0.049-0.031c0.354-0.239,0.722-0.465,1.091-0.69c0.419-0.268,0.855-0.519,1.29-0.771
	c8.899-5.178,17.814-10.34,26.713-15.519l26.647-15.485c22.171-12.888,44.226-25.691,66.013-38.361
	c8.731-5.061,17.395-10.105,26.026-15.116c17.111-9.955,34.02-19.775,50.661-29.445c4.157-2.413,8.295-4.826,12.402-7.207
	c-0.536-0.586-1.089-1.105-1.659-1.592c0,0,0,0-0.017-0.017c-0.688-0.586-1.407-1.105-2.145-1.524
	c-0.754-0.436-1.474-0.754-2.179-0.972h-0.033c-0.017-0.017-0.033-0.033-0.05-0.033c-0.234-0.134-0.67-0.201-0.754-0.15
	c-1.978,1.14-3.955,2.296-5.933,3.452l-18.971,11.028c-46.489,27.015-94.938,55.17-143.806,83.558l-24.669,14.345
	c-5.128,2.983-10.24,5.95-15.368,8.933c-0.285,0.162-0.556,0.334-0.834,0.502c-0.425,0.255-0.846,0.511-1.259,0.769
	c-0.482,0.3-0.952,0.599-1.414,0.911c-0.048,0.032-0.095,0.065-0.143,0.097c-0.701,0.464-1.375,0.928-2.031,1.407
	c-0.246,0.17-0.485,0.354-0.726,0.534c-0.212,0.158-0.424,0.316-0.632,0.475c-0.367,0.279-0.74,0.558-1.089,0.852
	c-0.775,0.615-1.511,1.239-2.221,1.871c-0.214,0.191-0.414,0.388-0.622,0.58c-0.489,0.45-0.973,0.903-1.434,1.365
	c-0.366,0.367-0.713,0.738-1.06,1.109c-0.046,0.052-0.098,0.101-0.143,0.153c-0.335,0.349-0.638,0.698-0.939,1.047
	c-0.365,0.42-0.729,0.84-1.071,1.265c-0.028,0.034-0.056,0.068-0.085,0.101c-0.05,0.067-0.117,0.134-0.15,0.201
	c-0.254,0.318-0.489,0.644-0.724,0.965c-0.167,0.227-0.344,0.451-0.504,0.678c-0.18,0.26-0.357,0.519-0.53,0.779
	c-0.086,0.129-0.165,0.258-0.25,0.387c-0.528,0.81-1.019,1.631-1.464,2.454c-0.032,0.061-0.067,0.12-0.099,0.181
	c-0.211,0.385-0.409,0.777-0.596,1.163c-0.082,0.169-0.156,0.34-0.234,0.509c-0.171,0.371-0.346,0.742-0.494,1.112
	c-0.13,0.302-0.24,0.605-0.356,0.907c-0.092,0.243-0.185,0.486-0.271,0.729c-0.148,0.415-0.281,0.831-0.403,1.245
	c-0.093,0.309-0.183,0.62-0.265,0.931c-0.063,0.235-0.129,0.47-0.188,0.701c-0.139,0.584-0.253,1.17-0.353,1.756
	c-0.044,0.243-0.074,0.479-0.109,0.716c-0.054,0.379-0.096,0.76-0.135,1.14c-0.034,0.346-0.067,0.692-0.089,1.037
	c-0.034,0.555-0.06,1.11-0.06,1.664c0,0.006,0,0.017,0,0.017c0,0.426,0.029,0.859,0.049,1.289c0.016,0.325,0.018,0.65,0.045,0.975
	c0.066,0.708,0.145,1.417,0.274,2.125c0.017,0.13,0.045,0.262,0.069,0.396c0.079,0.441,0.179,0.881,0.28,1.32
	c0.06,0.277,0.122,0.559,0.205,0.832c0.042,0.174,0.097,0.346,0.145,0.519c0.094,0.331,0.188,0.662,0.294,0.993
	c0.104,0.319,0.211,0.637,0.328,0.956c0.149,0.417,0.306,0.833,0.476,1.248c0.039,0.097,0.075,0.192,0.114,0.29
	c0.033,0.084,0.067,0.167,0.1,0.234c0.08,0.192,0.183,0.391,0.273,0.585c0.107,0.235,0.217,0.469,0.33,0.703
	c0.215,0.479,0.462,0.94,0.719,1.398c0.141,0.259,0.286,0.518,0.436,0.776c0.173,0.303,0.341,0.605,0.539,0.912
	c0.54,0.88,1.135,1.728,1.76,2.578c0.296,0.4,0.586,0.801,0.903,1.196c0.045,0.057,0.089,0.115,0.136,0.172
	c0.295,0.365,0.618,0.723,0.93,1.085c0.239,0.275,0.465,0.553,0.714,0.818c0.095,0.11,0.19,0.21,0.284,0.313
	c0.473,0.511,0.962,1.019,1.471,1.521c0.263,0.255,0.54,0.512,0.811,0.77c0.388,0.366,0.777,0.732,1.184,1.093
	c0.192,0.17,0.386,0.342,0.586,0.512c0.188,0.162,0.39,0.321,0.582,0.483c0.645,0.541,1.31,1.077,2.001,1.606
	c0.274,0.21,0.556,0.416,0.836,0.623c0.607,0.449,1.231,0.893,1.87,1.33c0.362,0.248,0.725,0.493,1.097,0.738
	c0.467,0.303,0.932,0.609,1.411,0.897c0.671,0.436,1.374,0.855,2.078,1.257c30.97,17.899,81.229,17.881,111.998,0
	c26.512-15.402,53.041-30.819,76.905-44.695c4.223-2.447,8.362-4.86,12.402-7.207c-1.157-1.274-2.447-2.364-3.804-3.15
	c-1.039-0.603-2.045-0.988-2.983-1.157c0,0,0,0-0.017,0c-1.961,1.14-3.955,2.297-5.966,3.469v0.016H246.779z"/>
<ellipse transform="matrix(0.866 0.5 -0.5 0.866 273.5668 -118.3974)" style="fill:#3E3D43;" cx="357.71" cy="451.271" rx="69.347" ry="44.292"/>
<circle style="fill:#57565C;" cx="317.551" cy="427.953" r="16.596"/>
<g>
</g>
<g>
</g>
<g>
</g>
<g>
</g>
<g>
</g>
<g>
</g>
<g>
</g>
<g>
</g>
<g>
</g>
<g>
</g>
<g>
</g>
<g>
</g>
<g>
</g>
<g>
</g>
<g>
</g>
</svg>
