<?xml version="1.0" encoding="iso-8859-1"?>
<!-- Generator: Adobe Illustrator 19.0.0, SVG Export Plug-In . SVG Version: 6.00 Build 0)  -->
<svg version="1.1" id="Capa_1" xmlns="http://www.w3.org/2000/svg" xmlns:xlink="http://www.w3.org/1999/xlink" x="0px" y="0px"
	 viewBox="0 0 512 512" style="enable-background:new 0 0 512 512;" xml:space="preserve">
<polygon style="fill:#FEDA44;" points="506.049,178.4 199.313,0 5.946,112.372 5.951,333.6 312.687,512 506.054,399.628 "/>
<polygon style="fill:#DDB201;" points="506.049,178.4 506.054,399.628 312.687,512 312.683,290.772 "/>
<path style="fill:#57565C;" d="M410.799,396.648l0.003,43.203l1.839-1.062l-0.003-43.203L410.799,396.648 M414.938,394.258
	l0.003,43.203l4.599-2.655l-0.003-43.203L414.938,394.258 M422.985,389.612l0.003,43.203l2.758-1.592l-0.003-43.203L422.985,389.612
	 M427.352,387.092l0.003,43.203l1.841-1.064l-0.003-43.203L427.352,387.092 M431.489,384.702l0.003,43.203l4.599-2.655
	l-0.003-43.203L431.489,384.702 M439.536,380.057l0.003,43.203l2.758-1.591l-0.003-43.203L439.536,380.057 M443.905,377.534
	l0.003,43.203l1.839-1.062l-0.003-43.203L443.905,377.534 M448.042,375.147l0.003,43.203l4.599-2.655l-0.003-43.203L448.042,375.147
	 M456.088,370.5l0.003,43.203l2.76-1.593l-0.003-43.203L456.088,370.5 M460.457,367.978l0.003,43.203l1.839-1.062l-0.003-43.203
	L460.457,367.978 M464.593,365.59l0.003,43.203l4.599-2.655l-0.003-43.203L464.593,365.59 M472.64,360.944l0.003,43.203l2.76-1.593
	l-0.003-43.203L472.64,360.944 M477.009,358.422l0.003,43.203l1.839-1.062l-0.003-43.203L477.009,358.422 M481.147,356.032
	l0.003,43.203l4.597-2.654l-0.003-43.203L481.147,356.032 M489.192,351.389l0.003,43.203l2.76-1.594l-0.003-43.203L489.192,351.389
	 M406.433,399.168l0.003,43.203l2.758-1.591l-0.003-43.203L406.433,399.168"/>
<polygon style="fill:#FECE00;" points="312.683,290.772 312.687,512 5.951,333.6 5.946,112.372 "/>
<g>
	<polygon style="fill:#FEDA44;" points="506.049,178.4 312.683,290.772 5.946,112.372 199.313,0 	"/>
	<polygon style="fill:#FEDA44;" points="432.94,221.302 432.941,293.442 385.796,320.839 385.795,248.699 	"/>
</g>
<polygon style="fill:#FFEB9A;" points="432.94,221.302 127.616,41.666 80.46,69.034 385.641,248.431 "/>
<g>
</g>
<g>
</g>
<g>
</g>
<g>
</g>
<g>
</g>
<g>
</g>
<g>
</g>
<g>
</g>
<g>
</g>
<g>
</g>
<g>
</g>
<g>
</g>
<g>
</g>
<g>
</g>
<g>
</g>
</svg>
