<?xml version="1.0" encoding="iso-8859-1"?>
<!-- Generator: Adobe Illustrator 19.0.0, SVG Export Plug-In . SVG Version: 6.00 Build 0)  -->
<svg version="1.1" id="Capa_1" xmlns="http://www.w3.org/2000/svg" xmlns:xlink="http://www.w3.org/1999/xlink" x="0px" y="0px"
	 viewBox="0 0 512 512" style="enable-background:new 0 0 512 512;" xml:space="preserve">
<g style="enable-background:new    ;">
	<g>
		<polygon style="fill:#C60024;" points="226.925,85.77 246.278,74.523 246.204,100.464 226.851,111.711 		"/>
		<path style="fill:#C60024;" d="M246.278,74.523l-35.52-20.507L185.448,9.957c-2.196-3.803-5.082-6.738-7.972-8.406
			c-2.89-1.669-5.784-2.071-7.994-0.811l-19.354,11.247c-4.421,2.526-4.444,10.739-0.052,18.346l31.899,55.47l44.876,25.91
			l0.073-25.941l0,0L246.278,74.523z"/>
	</g>
	<path style="fill:#FE0B37;" d="M210.759,54.016L185.448,9.957c-2.196-3.803-5.082-6.738-7.972-8.406
		c-2.89-1.669-5.784-2.071-7.994-0.811l-19.354,11.247c2.21-1.26,5.104-0.857,7.994,0.812c2.89,1.669,5.776,4.603,7.973,8.406
		l25.311,44.059l35.52,20.507l19.353-11.247L210.759,54.016z"/>
	<path style="fill:#C60024;" d="M158.122,12.797c2.89,1.669,5.776,4.603,7.973,8.406l25.311,44.059l35.52,20.507l-0.073,25.941
		l-44.876-25.91l-31.899-55.47c-4.392-7.607-4.369-15.82,0.052-18.346C152.339,10.726,155.232,11.129,158.122,12.797z"/>
	<g>
		<path style="fill:#E0E0E2;" d="M158.543,16.989c-2.093-1.208-3.989-1.321-5.358-0.525l-97.57,56.7
			c1.369-0.795,3.265-0.683,5.358,0.525c4.157,2.4,7.517,8.222,7.504,12.999c-0.006,2.374-0.845,4.045-2.197,4.831l97.569-56.701
			c1.352-0.786,2.191-2.457,2.197-4.831C166.059,25.21,162.7,19.389,158.543,16.989z"/>
		<path style="fill:#E0E0E2;" d="M60.974,73.689c4.157,2.4,7.517,8.222,7.504,12.999c-0.014,4.777-3.395,6.707-7.553,4.307
			c-4.16-2.402-7.519-8.225-7.506-13.001C53.433,73.218,56.814,71.288,60.974,73.689z"/>
	</g>
	<g>
		<polygon style="fill:#C60024;" points="111.03,153.808 130.383,142.561 130.31,168.502 110.956,179.749 		"/>
		<path style="fill:#C60024;" d="M130.383,142.561l-35.52-20.507l-25.311-44.06c-2.196-3.803-5.082-6.738-7.973-8.406
			c-2.89-1.669-5.784-2.071-7.994-0.812L34.234,80.023l0,0c-4.421,2.526-4.444,10.739-0.052,18.346l31.899,55.47l44.876,25.91
			l0.073-25.941L75.51,133.3l35.52,20.507L130.383,142.561z"/>
	</g>
	<path style="fill:#FE0B37;" d="M94.863,122.054l-25.311-44.06c-2.196-3.803-5.082-6.738-7.973-8.406
		c-2.89-1.669-5.784-2.071-7.994-0.812L34.233,80.023c2.21-1.26,5.103-0.857,7.994,0.812c2.89,1.669,5.776,4.603,7.972,8.406
		L75.509,133.3l35.52,20.507l19.354-11.247L94.863,122.054z"/>
	<path style="fill:#C60024;" d="M42.227,80.835c2.89,1.669,5.776,4.603,7.972,8.406L75.509,133.3l35.52,20.507l-0.073,25.941
		L66.08,153.84L34.181,98.37c-4.392-7.607-4.369-15.82,0.052-18.346C36.443,78.764,39.338,79.167,42.227,80.835z"/>
	<g>
		<path style="fill:#57565C;" d="M407.558,374.358c-7.375-4.258-14.058-4.653-18.884-1.848l-15.513,9.016
			c0.016-0.008,0.031-0.016,0.047-0.025c-4.792,2.758-7.767,8.656-7.791,17.054c-0.048,16.848,11.797,37.365,26.455,45.827
			c7.595,4.384,14.45,4.667,19.305,1.585c-0.139,0.088-0.274,0.183-0.416,0.265l15.513-9.016c4.765-2.769,7.72-8.658,7.743-17.028
			C434.065,403.34,422.219,382.822,407.558,374.358z"/>
		<path style="fill:#57565C;" d="M407.558,374.358c-7.375-4.258-14.058-4.653-18.884-1.848l-15.513,9.016
			c4.826-2.805,11.509-2.41,18.884,1.848c14.662,8.465,26.507,28.982,26.459,45.83c-0.024,8.37-2.978,14.259-7.743,17.028
			l15.513-9.016c4.765-2.769,7.72-8.658,7.743-17.028C434.065,403.34,422.219,382.822,407.558,374.358z"/>
	</g>
	<path style="fill:#3E3D43;" d="M392.045,383.373c14.662,8.465,26.507,28.982,26.459,45.83
		c-0.048,16.848-11.971,23.642-26.633,15.177c-14.657-8.463-26.502-28.98-26.455-45.827
		C365.464,381.705,377.387,374.91,392.045,383.373z"/>
	<path style="fill:#57565C;" d="M392,399.392c6.962,4.02,12.588,13.764,12.565,21.763c-0.023,8.001-5.684,11.228-12.648,7.208
		c-6.96-4.019-12.586-13.762-12.563-21.762C379.377,398.6,385.04,395.373,392,399.392z"/>
</g>
<g>
	<path style="fill:#D8D8DA;" d="M405.811,409.369l-170.349-99.009v-56.368l-17.75-10.34l-15.486,8.935l0.024,76.46l156.048,90.795
		l-57.683,33.379l-170.269-99.068l0.001-0.001v-56.368l-17.75-10.34l-15.486,8.935l0,0V372.9l202.84,117.919l0,0l105.803-61.299
		L405.811,409.369z"/>
	<polygon style="fill:#D8D8DA;" points="375.694,409.778 375.637,429.931 202.25,329.049 202.226,252.589 220.136,262.928 
		220.136,319.371 	"/>
</g>
<polygon style="fill:#C6C5CB;" points="405.811,409.369 405.754,429.523 299.951,490.821 300.008,470.668 "/>
<path style="fill:#E0E0E2;" d="M235.462,310.361l170.349,99.009l-105.803,61.299L97.111,352.749l15.443-8.947l188.061,109.42
	l75.079-43.443l-155.558-90.407L235.462,310.361z"/>
<polygon style="fill:#ACABB1;" points="115.021,306.72 130.348,297.785 130.348,354.153 115.021,363.163 "/>
<polygon style="fill:#57565C;" points="97.111,296.381 112.598,287.445 130.348,297.785 115.021,306.72 "/>
<polygon style="fill:#ACABB1;" points="220.136,262.928 235.462,253.993 235.462,310.361 220.136,319.371 "/>
<polygon style="fill:#57565C;" points="202.226,252.589 217.713,243.654 235.462,253.993 220.136,262.928 "/>
<polygon style="fill:#D8D8DA;" points="115.021,363.157 115.021,306.72 97.111,296.381 97.111,372.901 299.951,490.821 
	300.008,470.668 "/>
<g style="enable-background:new    ;">
	<polygon style="fill:#D8D8DA;" points="219.025,75.842 97.111,146.691 97.111,301.794 308.966,424.361 430.88,353.513 
		460.769,215.413 	"/>
	<g>
		<polygon style="fill:#C6C5CB;" points="97.111,146.691 219.025,75.842 460.769,215.413 338.855,286.261 		"/>
		<polygon style="fill:#C6C5CB;" points="460.769,215.413 430.88,353.513 219.025,230.944 219.025,75.842 		"/>
	</g>
	<g>
		<polygon style="fill:#ACABB1;" points="97.111,301.794 219.025,230.944 219.025,75.842 97.111,146.691 		"/>
		<polygon style="fill:#ACABB1;" points="338.855,286.261 460.769,215.413 430.88,353.513 308.966,424.361 		"/>
	</g>
	<polygon style="fill:#D8D8DA;" points="338.855,286.261 308.966,424.361 97.111,301.794 97.111,146.691 	"/>
</g>
<g>
	<path style="fill:#A50020;" d="M219.962,59.247L83.79,138.141v25.938l261.062,151.766l136.172-78.893l0.073-25.938L219.962,59.247z
		 M345.706,267.454L144.904,150.521l74.203-42.881L419.91,224.572L345.706,267.454z"/>
	<polygon style="fill:#A50020;" points="219.181,81.702 219.108,107.639 122.479,163.553 122.552,137.616 	"/>
</g>
<g>
	<polygon style="fill:#C60024;" points="442.335,211.54 442.261,237.478 219.108,107.639 219.181,81.702 	"/>
	<polygon style="fill:#C60024;" points="344.926,289.908 344.852,315.846 83.79,164.078 83.79,138.141 	"/>
</g>
<polygon style="fill:#A50020;" points="481.097,211.015 481.023,236.952 344.852,315.846 344.926,289.908 "/>
<path style="fill:#FE0B37;" d="M219.962,59.248l261.135,151.766l-136.172,78.893L83.79,138.141L219.962,59.248z M345.706,267.454
	l96.628-55.913L219.181,81.702l-96.628,55.913L345.706,267.454"/>
<g style="enable-background:new    ;">
	<g>
		<path style="fill:#57565C;" d="M106.522,327.84c-7.375-4.258-14.058-4.654-18.884-1.848l-15.513,9.016
			c0.015-0.008,0.031-0.016,0.046-0.024c-4.792,2.759-7.766,8.656-7.79,17.053c-0.048,16.848,11.798,37.365,26.455,45.827
			c7.59,4.382,14.441,4.667,19.294,1.592c-0.136,0.086-0.267,0.178-0.405,0.258l15.513-9.016c4.765-2.769,7.72-8.658,7.743-17.028
			C133.03,356.822,121.185,336.305,106.522,327.84z"/>
		<path style="fill:#57565C;" d="M106.522,327.84c-7.375-4.258-14.058-4.654-18.884-1.848l-15.513,9.016
			c4.826-2.805,11.509-2.41,18.884,1.848c14.662,8.465,26.507,28.982,26.459,45.83c-0.024,8.37-2.978,14.258-7.743,17.028
			l15.513-9.016c4.765-2.769,7.72-8.658,7.743-17.028C133.03,356.822,121.185,336.305,106.522,327.84z"/>
	</g>
	<path style="fill:#3E3D43;" d="M91.01,336.856c14.662,8.465,26.507,28.982,26.459,45.83s-11.971,23.642-26.633,15.177
		c-14.657-8.463-26.503-28.98-26.455-45.827C64.43,335.187,76.353,328.393,91.01,336.856z"/>
	<path style="fill:#57565C;" d="M90.966,352.874c6.962,4.02,12.588,13.764,12.565,21.763c-0.023,8.001-5.684,11.228-12.648,7.208
		c-6.96-4.019-12.586-13.762-12.563-21.762C78.343,352.082,84.006,348.855,90.966,352.874z"/>
</g>
<g style="enable-background:new    ;">
	<g>
		<path style="fill:#57565C;" d="M296.801,438.335c-7.375-4.258-14.058-4.653-18.884-1.848l-15.513,9.015
			c0.016-0.008,0.031-0.016,0.047-0.025c-4.792,2.759-7.767,8.656-7.791,17.053c-0.048,16.847,11.798,37.365,26.455,45.827
			c7.589,4.381,14.439,4.666,19.293,1.592c-0.135,0.086-0.266,0.178-0.404,0.258l15.513-9.016c4.765-2.769,7.72-8.658,7.743-17.028
			C323.308,467.318,311.462,446.801,296.801,438.335z"/>
		<path style="fill:#57565C;" d="M296.801,438.335c-7.375-4.258-14.058-4.653-18.884-1.848l-15.513,9.015
			c4.826-2.805,11.509-2.41,18.884,1.848c14.662,8.465,26.507,28.983,26.459,45.83c-0.024,8.37-2.978,14.258-7.743,17.028
			l15.513-9.016c4.765-2.769,7.72-8.658,7.743-17.028C323.308,467.318,311.462,446.801,296.801,438.335z"/>
	</g>
	<path style="fill:#3E3D43;" d="M281.287,447.351c14.662,8.465,26.507,28.982,26.459,45.83
		c-0.048,16.848-11.971,23.642-26.633,15.177c-14.657-8.463-26.502-28.98-26.455-45.827
		C254.708,445.683,266.63,438.888,281.287,447.351z"/>
	<path style="fill:#57565C;" d="M281.243,463.37c6.962,4.02,12.588,13.763,12.565,21.763c-0.023,8.001-5.684,11.228-12.648,7.208
		c-6.96-4.019-12.586-13.762-12.563-21.762C268.621,462.577,274.283,459.351,281.243,463.37z"/>
</g>
<g>
</g>
<g>
</g>
<g>
</g>
<g>
</g>
<g>
</g>
<g>
</g>
<g>
</g>
<g>
</g>
<g>
</g>
<g>
</g>
<g>
</g>
<g>
</g>
<g>
</g>
<g>
</g>
<g>
</g>
</svg>
