<?xml version="1.0" encoding="iso-8859-1"?>
<!-- Generator: Adobe Illustrator 19.0.0, SVG Export Plug-In . SVG Version: 6.00 Build 0)  -->
<svg version="1.1" id="Capa_1" xmlns="http://www.w3.org/2000/svg" xmlns:xlink="http://www.w3.org/1999/xlink" x="0px" y="0px"
	 viewBox="0 0 512 512" style="enable-background:new 0 0 512 512;" xml:space="preserve">
<path style="fill:#FED322;" d="M511.928,258.081c0.418-4.853-2.553-9.79-8.971-13.496L227.761,85.699
	c-11.997-6.926-31.393-6.931-43.312-0.004L9.053,187.624c-5.94,3.452-8.901,7.976-8.894,12.502c0-0.015-0.003-0.029-0.003-0.044
	L0,254.784c-0.013,4.57,3.002,9.148,9.038,12.634l275.198,158.885c11.997,6.927,31.402,6.926,43.32,0l175.396-101.929
	c5.918-3.44,8.881-7.942,8.893-12.451L512,257.222C512,257.508,511.952,257.793,511.928,258.081z"/>
<g style="enable-background:new    ;">
	<path style="fill:#FED322;" d="M503.107,269.672L327.711,371.601c-11.918,6.927-31.323,6.927-43.32,0L9.194,212.717
		c-6.036-3.486-9.052-8.064-9.038-12.634L0,254.784c-0.013,4.57,3.002,9.148,9.038,12.634l275.198,158.885
		c11.997,6.927,31.402,6.926,43.32,0l175.396-101.929c5.918-3.44,8.881-7.942,8.893-12.451L512,257.222
		C511.987,261.73,509.026,266.232,503.107,269.672z"/>
	<path style="fill:#FFDE56;" d="M502.957,244.584c11.997,6.926,12.068,18.162,0.149,25.087L327.711,371.601
		c-11.918,6.927-31.323,6.927-43.32,0L9.194,212.717c-11.997-6.926-12.059-18.166-0.141-25.093L184.449,85.695
		c11.918-6.927,31.315-6.922,43.312,0.005L502.957,244.584z"/>
</g>
<polyline style="fill:#57565C;" points="483.054,281.331 164.396,97.353 119.957,123.178 438.615,307.156 483.054,281.331 "/>
<g style="enable-background:new    ;">
	<polygon style="fill:#FEF5CC;" points="141.189,180.662 105.637,160.137 87.665,170.58 123.218,191.106 	"/>
	<polygon style="fill:#FEF5CC;" points="225.926,229.586 152.928,187.44 134.957,197.884 207.955,240.029 	"/>
</g>
<g style="enable-background:new    ;">
	<path style="fill:#C60024;" d="M331.869,310.204c-5.181-2.991-11.676-4.748-18.396-5.271c1.319,5.541-1.678,11.355-9.005,15.613
		c-7.328,4.258-17.354,6.013-26.925,5.267c0.925,3.891,3.979,7.648,9.16,10.638c12.556,7.25,32.849,7.255,45.324,0.005
		C344.5,329.208,344.425,317.454,331.869,310.204z"/>
	<path style="fill:#65C27C;" d="M304.31,294.293c-12.556-7.25-32.841-7.25-45.315,0c-12.474,7.25-12.408,18.999,0.147,26.248
		c5.181,2.991,11.677,4.748,18.399,5.273c9.57,0.746,19.597-1.009,26.925-5.267s10.324-10.072,9.005-15.613
		C312.546,301.041,309.491,297.285,304.31,294.293z"/>
</g>
<g>
</g>
<g>
</g>
<g>
</g>
<g>
</g>
<g>
</g>
<g>
</g>
<g>
</g>
<g>
</g>
<g>
</g>
<g>
</g>
<g>
</g>
<g>
</g>
<g>
</g>
<g>
</g>
<g>
</g>
</svg>
