<svg xmlns="http://www.w3.org/2000/svg" height="512pt" version="1.1" viewBox="-132 0 512 512.00048" width="512pt">
<g id="surface1">
<path d="M 228.863281 388.234375 L 18.292969 509.804688 C 8.191406 515.636719 0 509.445312 0 495.976562 L 0 158.722656 C 0 145.25 8.191406 129.601562 18.292969 123.765625 L 228.863281 2.195312 C 238.964844 -3.636719 247.15625 2.554688 247.15625 16.023438 L 247.15625 353.277344 C 247.15625 366.75 238.964844 382.398438 228.863281 388.234375 Z M 228.863281 388.234375 " style=" stroke:none;fill-rule:nonzero;fill:rgb(89.019608%,89.019608%,89.019608%);fill-opacity:1;" />
<path d="M 173.167969 82.699219 L 29.078125 166.566406 C 27.457031 167.503906 26.140625 166.507812 26.140625 164.34375 C 26.140625 162.179688 27.457031 159.664062 29.078125 158.726562 L 173.167969 74.859375 C 174.792969 73.925781 176.109375 74.917969 176.109375 77.082031 C 176.109375 79.25 174.792969 81.761719 173.167969 82.699219 Z M 173.167969 82.699219 " style=" stroke:none;fill-rule:nonzero;fill:rgb(50.196078%,50.196078%,50.196078%);fill-opacity:1;" />
<path d="M 33.757812 237.9375 C 30.757812 237.9375 27.730469 235.5625 27.730469 230.25 L 27.730469 204.042969 C 27.730469 198.742188 30.914062 192.746094 34.980469 190.394531 L 54.636719 179.050781 C 55.839844 178.355469 57.046875 178.003906 58.230469 178.003906 C 61.230469 178.003906 64.257812 180.382812 64.257812 185.6875 L 64.257812 211.894531 C 64.257812 217.199219 61.070312 223.195312 57.007812 225.542969 L 37.351562 236.890625 C 36.148438 237.585938 34.9375 237.9375 33.757812 237.9375 Z M 58.230469 182.742188 C 57.898438 182.742188 57.464844 182.886719 57.003906 183.152344 L 37.351562 194.5 C 34.746094 196.003906 32.464844 200.460938 32.464844 204.042969 L 32.464844 230.25 C 32.464844 231.671875 32.867188 233.199219 33.753906 233.199219 C 34.085938 233.199219 34.523438 233.054688 34.980469 232.789062 L 54.636719 221.441406 C 57.238281 219.9375 59.523438 215.476562 59.523438 211.894531 L 59.523438 185.6875 C 59.523438 184.269531 59.117188 182.742188 58.230469 182.742188 Z M 58.230469 182.742188 " style=" stroke:none;fill-rule:nonzero;fill:rgb(50.196078%,50.196078%,50.196078%);fill-opacity:1;" />
<path d="M 33.757812 312.265625 C 30.757812 312.265625 27.726562 309.890625 27.726562 304.582031 L 27.726562 278.375 C 27.726562 273.070312 30.914062 267.074219 34.980469 264.726562 L 54.636719 253.378906 C 55.835938 252.6875 57.046875 252.335938 58.230469 252.335938 C 61.230469 252.335938 64.257812 254.710938 64.257812 260.019531 L 64.257812 286.226562 C 64.257812 291.53125 61.070312 297.527344 57.003906 299.875 L 37.351562 311.222656 C 36.148438 311.914062 34.941406 312.265625 33.757812 312.265625 Z M 58.230469 257.070312 C 57.898438 257.070312 57.464844 257.21875 57.003906 257.480469 L 37.351562 268.828125 C 34.746094 270.332031 32.464844 274.792969 32.464844 278.375 L 32.464844 304.582031 C 32.464844 306.003906 32.867188 307.53125 33.757812 307.53125 C 34.085938 307.53125 34.523438 307.382812 34.980469 307.121094 L 54.636719 295.769531 C 57.238281 294.269531 59.519531 289.808594 59.519531 286.226562 L 59.519531 260.019531 C 59.523438 258.597656 59.117188 257.070312 58.230469 257.070312 Z M 58.230469 257.070312 " style=" stroke:none;fill-rule:nonzero;fill:rgb(50.196078%,50.196078%,50.196078%);fill-opacity:1;" />
<path d="M 205.445312 140.292969 L 74.617188 216.117188 C 73.480469 216.769531 72.5625 216.078125 72.5625 214.566406 C 72.5625 213.054688 73.480469 211.300781 74.617188 210.648438 L 205.445312 134.824219 C 206.582031 134.171875 207.5 134.863281 207.5 136.375 C 207.5 137.886719 206.582031 139.640625 205.445312 140.292969 Z M 205.445312 140.292969 " style=" stroke:none;fill-rule:nonzero;fill:rgb(50.196078%,50.196078%,50.196078%);fill-opacity:1;" />
<path d="M 205.445312 215.046875 L 74.617188 290.871094 C 73.480469 291.523438 72.5625 290.832031 72.5625 289.320312 C 72.5625 287.808594 73.480469 286.054688 74.617188 285.402344 L 205.445312 209.578125 C 206.582031 208.925781 207.5 209.617188 207.5 211.128906 C 207.5 212.640625 206.582031 214.394531 205.445312 215.046875 Z M 205.445312 215.046875 " style=" stroke:none;fill-rule:nonzero;fill:rgb(50.196078%,50.196078%,50.196078%);fill-opacity:1;" />
<path d="M 205.445312 289.804688 L 74.617188 365.625 C 73.480469 366.28125 72.5625 365.585938 72.5625 364.074219 C 72.5625 362.566406 73.480469 360.808594 74.617188 360.15625 L 205.445312 284.332031 C 206.582031 283.679688 207.5 284.375 207.5 285.882812 C 207.5 287.394531 206.582031 289.148438 205.445312 289.804688 Z M 205.445312 289.804688 " style=" stroke:none;fill-rule:nonzero;fill:rgb(50.196078%,50.196078%,50.196078%);fill-opacity:1;" />
<path d="M 205.445312 364.558594 L 74.617188 440.378906 C 73.480469 441.035156 72.5625 440.339844 72.5625 438.828125 C 72.5625 437.320312 73.480469 435.5625 74.617188 434.910156 L 205.445312 359.085938 C 206.582031 358.433594 207.5 359.128906 207.5 360.636719 C 207.5 362.148438 206.582031 363.902344 205.445312 364.558594 Z M 205.445312 364.558594 " style=" stroke:none;fill-rule:nonzero;fill:rgb(50.196078%,50.196078%,50.196078%);fill-opacity:1;" />
<path d="M 33.757812 387.445312 C 30.757812 387.445312 27.726562 385.070312 27.726562 379.761719 L 27.726562 353.554688 C 27.726562 348.25 30.914062 342.253906 34.980469 339.90625 L 54.636719 328.558594 C 55.835938 327.863281 57.046875 327.511719 58.230469 327.511719 C 61.230469 327.511719 64.257812 329.890625 64.257812 335.199219 L 64.257812 361.402344 C 64.257812 366.707031 61.070312 372.703125 57.003906 375.050781 L 37.351562 386.398438 C 36.148438 387.09375 34.941406 387.445312 33.757812 387.445312 Z M 58.230469 332.25 C 57.898438 332.25 57.464844 332.394531 57.003906 332.660156 L 37.351562 344.007812 C 34.746094 345.511719 32.464844 349.972656 32.464844 353.554688 L 32.464844 379.761719 C 32.464844 381.179688 32.867188 382.710938 33.757812 382.710938 C 34.085938 382.710938 34.523438 382.5625 34.980469 382.296875 L 54.636719 370.949219 C 57.238281 369.445312 59.519531 364.984375 59.519531 361.402344 L 59.519531 335.199219 C 59.523438 333.777344 59.117188 332.25 58.230469 332.25 Z M 58.230469 332.25 " style=" stroke:none;fill-rule:nonzero;fill:rgb(50.196078%,50.196078%,50.196078%);fill-opacity:1;" />
<path d="M 33.757812 461.777344 C 30.757812 461.777344 27.730469 459.398438 27.730469 454.089844 L 27.730469 427.882812 C 27.730469 422.582031 30.914062 416.585938 34.980469 414.234375 L 54.636719 402.890625 C 55.839844 402.195312 57.046875 401.84375 58.230469 401.84375 C 61.230469 401.84375 64.257812 404.21875 64.257812 409.527344 L 64.257812 435.734375 C 64.257812 441.039062 61.070312 447.03125 57.007812 449.382812 L 37.351562 460.726562 C 36.148438 461.425781 34.9375 461.777344 33.757812 461.777344 Z M 58.230469 406.582031 C 57.898438 406.582031 57.464844 406.726562 57.007812 406.992188 L 37.351562 418.335938 C 34.746094 419.839844 32.464844 424.300781 32.464844 427.882812 L 32.464844 454.089844 C 32.464844 455.511719 32.867188 457.039062 33.753906 457.039062 C 34.085938 457.039062 34.523438 456.894531 34.980469 456.628906 L 54.636719 445.28125 C 57.238281 443.777344 59.523438 439.316406 59.523438 435.734375 L 59.523438 409.527344 C 59.523438 408.109375 59.117188 406.582031 58.230469 406.582031 Z M 58.230469 406.582031 " style=" stroke:none;fill-rule:nonzero;fill:rgb(50.196078%,50.196078%,50.196078%);fill-opacity:1;" />
<path d="M 44.5 220.023438 C 44.089844 220.023438 43.675781 219.953125 43.273438 219.808594 L 19.699219 211.417969 C 17.796875 210.738281 16.804688 208.648438 17.480469 206.746094 C 18.160156 204.839844 20.253906 203.847656 22.15625 204.523438 L 42.980469 211.9375 L 75.824219 160.304688 C 76.910156 158.597656 79.171875 158.09375 80.875 159.179688 C 82.582031 160.261719 83.085938 162.523438 82 164.230469 L 47.589844 218.328125 C 46.902344 219.40625 45.722656 220.023438 44.5 220.023438 Z M 44.5 220.023438 " style=" stroke:none;fill-rule:nonzero;fill:rgb(90.980392%,29.803922%,23.921569%);fill-opacity:1;" />
<path d="M 44.5 294.777344 C 44.089844 294.777344 43.675781 294.707031 43.273438 294.5625 L 19.699219 286.171875 C 17.796875 285.496094 16.804688 283.402344 17.480469 281.5 C 18.160156 279.59375 20.253906 278.601562 22.15625 279.277344 L 42.980469 286.691406 L 75.824219 235.054688 C 76.910156 233.351562 79.171875 232.847656 80.875 233.933594 C 82.582031 235.015625 83.085938 237.277344 82 238.984375 L 47.589844 293.082031 C 46.902344 294.160156 45.722656 294.777344 44.5 294.777344 Z M 44.5 294.777344 " style=" stroke:none;fill-rule:nonzero;fill:rgb(90.980392%,29.803922%,23.921569%);fill-opacity:1;" />
<path d="M 44.5 370.023438 C 44.089844 370.023438 43.675781 369.953125 43.273438 369.8125 L 19.699219 361.417969 C 17.796875 360.742188 16.804688 358.648438 17.480469 356.746094 C 18.160156 354.839844 20.253906 353.847656 22.15625 354.523438 L 42.980469 361.9375 L 75.824219 310.304688 C 76.910156 308.597656 79.171875 308.09375 80.875 309.179688 C 82.582031 310.261719 83.085938 312.523438 82 314.230469 L 47.589844 368.328125 C 46.902344 369.40625 45.722656 370.023438 44.5 370.023438 Z M 44.5 370.023438 " style=" stroke:none;fill-rule:nonzero;fill:rgb(90.980392%,29.803922%,23.921569%);fill-opacity:1;" />
</g>
</svg>