<?xml version="1.0" encoding="iso-8859-1"?>
<!-- Generator: Adobe Illustrator 19.0.0, SVG Export Plug-In . SVG Version: 6.00 Build 0)  -->
<svg version="1.1" id="Capa_1" xmlns="http://www.w3.org/2000/svg" xmlns:xlink="http://www.w3.org/1999/xlink" x="0px" y="0px"
	 viewBox="0 0 512 512" style="enable-background:new 0 0 512 512;" xml:space="preserve">
<path style="fill:#D8D8DA;" d="M511.999,212.043l-26.336-5.379l-9.373-15.238l-26.336-5.379l-9.367-15.234l-26.336-5.379
	l-9.367-15.234l-26.336-5.379l-9.367-15.234l-26.324-5.372l-9.373-15.237l-26.331-5.376l-9.367-15.234l-4.241,2.465L0.11,261.36l0,0
	L0,299.958l26.336,5.379l9.373,15.237l26.336,5.379l9.367,15.234l26.336,5.379l9.367,15.234l26.33,5.376l9.367,15.234l26.331,5.376
	l9.367,15.234l26.336,5.379l9.367,15.234l4.241-2.465l289.197-168.063l4.241-2.465L511.999,212.043L511.999,212.043z"/>
<polygon style="fill:#C6C5CB;" points="507.759,214.507 218.562,382.571 214.321,385.035 214.211,423.632 218.452,421.168 
	507.649,253.105 511.89,250.64 511.999,212.043 "/>
<polygon style="fill:#E0E0E2;" points="512,212.043 507.759,214.507 218.562,382.571 214.321,385.035 204.954,369.801 
	178.618,364.423 169.252,349.188 142.921,343.813 133.554,328.579 107.225,323.203 97.857,307.969 71.521,302.59 62.154,287.356 
	35.818,281.977 26.446,266.739 0.11,261.36 4.35,258.896 293.548,90.832 297.788,88.368 307.155,103.601 333.485,108.977 
	342.857,124.215 369.182,129.587 378.548,144.821 404.885,150.2 414.252,165.434 440.588,170.813 449.954,186.047 476.29,191.426 
	485.663,206.664 "/>
<polygon style="fill:#D8D8DA;" points="204.954,369.801 178.618,364.421 169.252,349.188 142.921,343.813 133.554,328.579 
	107.225,323.203 97.858,307.969 71.521,302.59 62.154,287.356 35.818,281.977 26.446,266.739 0.11,261.36 0,299.958 26.336,305.337 
	35.709,320.574 62.045,325.953 71.411,341.187 97.748,346.566 107.115,361.801 133.445,367.176 142.811,382.41 169.142,387.786 
	178.508,403.019 204.844,408.399 214.211,423.632 214.321,385.035 "/>
<g>
	<polyline style="fill:#57565C;" points="445.733,229.455 267.037,126.285 251.69,135.204 430.385,238.374 445.733,229.455 	"/>
	<polyline style="fill:#57565C;" points="340.01,231.749 212.368,158.055 206.745,161.322 334.387,235.017 340.01,231.749 	"/>
	<polyline style="fill:#57565C;" points="391.064,261.225 371.806,250.107 366.184,253.375 385.441,264.492 391.064,261.225 	"/>
	<polyline style="fill:#57565C;" points="313.309,247.266 185.667,173.572 180.051,176.836 307.693,250.529 313.309,247.266 	"/>
	<polyline style="fill:#57565C;" points="364.364,276.742 345.106,265.624 339.489,268.887 358.747,280.006 364.364,276.742 	"/>
	<polyline style="fill:#57565C;" points="286.614,262.779 158.973,189.085 153.35,192.353 280.991,266.046 286.614,262.779 	"/>
	<polyline style="fill:#57565C;" points="337.668,292.256 318.411,281.137 312.789,284.404 332.045,295.522 337.668,292.256 	"/>
	<polyline style="fill:#57565C;" points="259.919,278.293 132.277,204.598 126.656,207.866 254.297,281.56 259.919,278.293 	"/>
	<polyline style="fill:#57565C;" points="310.974,307.769 291.716,296.651 286.093,299.918 305.351,311.036 310.974,307.769 	"/>
</g>
<g style="enable-background:new    ;">
	<path style="fill:#4DBA69;" d="M265.227,314.395l0.057-0.033l0.034-12.118l-5.451-3.147l-7.92,4.603
		c-2.792-1.305-5.707-2.34-8.756-3.096c-3.044-0.761-6.132-1.164-9.249-1.209c-3.128-0.045-6.218,0.274-9.283,0.955
		c-3.065,0.689-5.956,1.818-8.673,3.397c-2.092,1.216-3.623,2.456-4.585,3.716c-0.962,1.26-1.428,2.596-1.391,4.01
		c-0.001-0.059-0.002-0.117-0.002-0.174l-0.034,12.118c0,0.059,0,0.116,0.002,0.174c0.026,1.415,0.537,2.932,1.516,4.562
		c0.009,0.016,0.022,0.032,0.031,0.048l-3.577,2.078c-1.633-1.25-3.042-2.562-4.232-3.946c-1.19-1.383-2.167-2.672-2.936-3.873
		c-0.764-1.199-1.307-2.243-1.626-3.123c-0.236-0.652-0.372-1.138-0.406-1.456l0.001-0.274l-16.904,3.233l-0.034,12.118
		c0.968,2.737,2.645,5.466,5.048,8.185c0.074,0.084,0.158,0.163,0.233,0.247l-0.8,0.465l-0.035,12.118l5.451,3.147l9.099-5.288
		c2.633,1.397,5.437,2.558,8.404,3.487c2.968,0.928,5.998,1.51,9.092,1.753c3.105,0.243,6.22,0.062,9.369-0.544
		c3.142-0.609,6.205-1.777,9.186-3.51c2.564-1.49,4.347-3,5.36-4.538c0.834-1.255,1.253-2.534,1.257-3.839l0.034-12.118
		c0,0.032-0.007,0.064-0.008,0.096c0.006-0.323-0.006-0.647-0.051-0.972c-0.199-1.442-0.85-2.942-1.907-4.496l3.494-2.03
		c1.271,0.973,2.376,2.021,3.329,3.144c0.947,1.126,1.745,2.188,2.377,3.195c0.632,1,1.098,1.856,1.392,2.572
		c0.227,0.552,0.341,0.945,0.363,1.197v0.193l16.35-2.918l0.034-12.118C268.016,318.569,266.779,316.566,265.227,314.395z"/>
	<polygon style="fill:#40A559;" points="265.319,302.245 265.284,314.363 257.364,318.966 257.397,306.848 	"/>
	<path style="fill:#4DBA69;" d="M229.586,324.657l0.034-12.118c0.002-0.839,0.585-1.599,1.745-2.274
		c2.717-1.579,6.076-1.394,10.078,0.548l-0.034,12.118c-4.002-1.941-7.361-2.126-10.078-0.549
		C230.172,323.058,229.589,323.818,229.586,324.657z"/>
	<path style="fill:#65C27C;" d="M198.701,329.852l0.034-12.118c0-0.047,0.003-0.089,0.01-0.124l-0.034,12.118
		C198.704,329.763,198.701,329.805,198.701,329.852z"/>
	<polygon style="fill:#40A559;" points="245.069,313.002 245.035,325.12 234.367,331.319 234.402,319.201 	"/>
	<g>
		<path style="fill:#4DBA69;" d="M209.974,323.418l0.034-12.118c0,0.059,0.001,0.117,0.002,0.174
			c0.026,1.415,0.537,2.932,1.516,4.562c0.979,1.624,2.367,3.407,4.163,5.353l-0.035,12.118c-1.796-1.946-3.184-3.729-4.163-5.353
			c-0.979-1.63-1.49-3.147-1.515-4.562C209.974,323.534,209.974,323.476,209.974,323.418z"/>
		<path style="fill:#4DBA69;" d="M252.539,323.201l-0.034,12.118c0.001-0.242-0.12-0.671-0.372-1.287
			c-0.294-0.716-0.76-1.572-1.392-2.572c-0.632-1.007-1.43-2.069-2.377-3.195c-0.952-1.123-2.058-2.171-3.329-3.144l0.035-12.118
			c1.271,0.973,2.376,2.021,3.329,3.144c0.947,1.126,1.745,2.188,2.377,3.195c0.632,1,1.098,1.856,1.392,2.572
			C252.419,322.53,252.54,322.957,252.539,323.201z"/>
	</g>
	<polygon style="fill:#40A559;" points="268.88,320.386 268.845,332.504 252.495,335.422 252.53,323.304 	"/>
	<g>
		<polygon style="fill:#4DBA69;" points="218.383,324.215 218.349,336.333 215.655,333.508 215.688,321.39 		"/>
		<path style="fill:#4DBA69;" d="M223.361,331.447l-0.034,12.118c0.001-0.208-0.034-0.422-0.104-0.643
			c-0.349-1.083-1.131-2.332-2.345-3.764l0.034-12.118c1.214,1.432,1.996,2.681,2.345,3.764
			C223.327,331.025,223.361,331.239,223.361,331.447z"/>
	</g>
	<polygon style="fill:#40A559;" points="220.912,327.041 220.877,339.159 211.466,344.628 211.5,332.51 	"/>
	<g>
		<path style="fill:#4DBA69;" d="M243.507,332.523l-0.034,12.118c-0.004,1.305-0.422,2.585-1.257,3.839l0.035-12.118
			C243.084,335.109,243.503,333.829,243.507,332.523z"/>
		<path style="fill:#4DBA69;" d="M195.47,336.52l-0.034,12.118c-3.318-2.278-6.176-4.774-8.58-7.493
			c-2.404-2.719-4.081-5.449-5.048-8.185l0.034-12.118c0.968,2.737,2.645,5.466,5.048,8.185
			C189.294,331.746,192.152,334.243,195.47,336.52z"/>
		<polygon style="fill:#4DBA69;" points="191.74,345.004 191.706,357.122 186.254,353.974 186.288,341.857 		"/>
	</g>
	<polygon style="fill:#40A559;" points="200.839,339.717 200.805,351.833 191.706,357.122 191.74,345.004 	"/>
	<path style="fill:#65C27C;" d="M242.25,336.362c-1.015,1.538-2.797,3.048-5.361,4.538c-2.982,1.734-6.044,2.901-9.186,3.511
		c-3.148,0.606-6.263,0.788-9.369,0.544c-3.094-0.243-6.124-0.826-9.092-1.753c-2.968-0.928-5.771-2.089-8.403-3.486l-9.099,5.288
		l-5.451-3.147l9.182-5.336c-3.318-2.278-6.175-4.774-8.58-7.493c-2.404-2.719-4.08-5.449-5.048-8.185l16.904-3.233
		c-0.051,0.271,0.088,0.849,0.405,1.729c0.319,0.88,0.862,1.925,1.626,3.123c0.769,1.202,1.746,2.49,2.937,3.874
		c1.19,1.383,2.599,2.695,4.232,3.946l10.438-6.066l-2.695-2.825c-1.796-1.946-3.184-3.729-4.163-5.353
		c-0.979-1.63-1.49-3.147-1.516-4.562c-0.038-1.415,0.428-2.75,1.391-4.01c0.962-1.26,2.493-2.5,4.585-3.716
		c2.717-1.579,5.608-2.709,8.673-3.397c3.065-0.681,6.156-1,9.283-0.956c3.116,0.045,6.205,0.448,9.249,1.209
		c3.049,0.757,5.964,1.791,8.756,3.096l7.92-4.603l5.451,3.147l-7.92,4.603c3.098,2.158,5.559,4.452,7.358,6.884
		c1.788,2.431,3.171,4.651,4.123,6.654l-16.35,2.918c0.046-0.212-0.069-0.675-0.363-1.391s-0.76-1.572-1.392-2.572
		c-0.632-1.007-1.43-2.069-2.377-3.195c-0.952-1.123-2.057-2.171-3.329-3.144l-10.667,6.198l1.902,1.822
		c1.951,1.98,3.576,3.839,4.874,5.586c1.293,1.75,2.047,3.428,2.27,5.038C243.669,333.257,243.27,334.829,242.25,336.362z
		 M211.5,332.51c4.211,2.254,7.618,2.616,10.235,1.096c1.362-0.791,1.865-1.723,1.521-2.801c-0.349-1.083-1.131-2.332-2.345-3.764
		L211.5,332.51 M231.797,316.42l9.648-5.607c-4.002-1.941-7.361-2.126-10.078-0.548c-1.308,0.761-1.883,1.63-1.718,2.6
		C229.807,313.838,230.523,315.023,231.797,316.42"/>
	<path style="fill:#4DBA69;" d="M242.25,336.362l-0.035,12.118c-1.015,1.538-2.797,3.048-5.36,4.538
		c-2.982,1.732-6.044,2.901-9.186,3.511c-3.148,0.606-6.263,0.788-9.369,0.544c-3.094-0.243-6.124-0.825-9.092-1.753
		s-5.771-2.089-8.404-3.487l0.034-12.118c2.633,1.397,5.437,2.558,8.403,3.486c2.968,0.928,5.998,1.51,9.092,1.753
		c3.105,0.243,6.22,0.062,9.369-0.544c3.142-0.609,6.205-1.777,9.186-3.511C239.453,339.412,241.235,337.901,242.25,336.362z"/>
</g>
<g>
</g>
<g>
</g>
<g>
</g>
<g>
</g>
<g>
</g>
<g>
</g>
<g>
</g>
<g>
</g>
<g>
</g>
<g>
</g>
<g>
</g>
<g>
</g>
<g>
</g>
<g>
</g>
<g>
</g>
</svg>
