<?xml version="1.0" encoding="iso-8859-1"?>
<!-- Generator: Adobe Illustrator 19.0.0, SVG Export Plug-In . SVG Version: 6.00 Build 0)  -->
<svg version="1.1" id="Capa_1" xmlns="http://www.w3.org/2000/svg" xmlns:xlink="http://www.w3.org/1999/xlink" x="0px" y="0px"
	 viewBox="0 0 512 512" style="enable-background:new 0 0 512 512;" xml:space="preserve">
<path style="fill:#BDFDFF;" d="M271.727,249.998c49.523,28.592,129.556,28.592,178.756-0.001
	c49.201-28.593,48.94-74.951-0.583-103.542s-129.552-28.589-178.753,0.003C221.947,175.051,222.205,221.407,271.727,249.998"/>
<path style="fill:#5AAAE7;" d="M467.936,303.45c29.039-16.875,43.574-38.959,43.637-61.075L512,176.221
	c-0.001,0.281-0.014,0.562-0.02,0.842c0.442-22.681-14.331-45.466-44.306-62.771c-58.834-33.968-153.908-33.968-212.36,0.001
	c-29.129,16.927-43.66,39.098-43.629,61.284c0-0.071-0.004-0.142-0.004-0.213l-0.427,66.154
	c-0.064,22.403,14.723,44.84,44.33,61.933C314.414,337.417,409.489,337.416,467.936,303.45z M447.705,225.369
	c-47.112,27.378-123.747,27.379-171.168,0.001c-18.474-10.666-29.787-23.914-33.932-37.73c4.151-13.577,15.245-26.573,33.305-37.068
	c47.117-27.382,123.747-27.384,171.172-0.003c18.475,10.666,29.784,23.916,33.927,37.734
	C476.856,201.88,465.764,214.874,447.705,225.369z"/>
<g style="enable-background:new    ;">
	<g>
		<path style="fill:#6E76E5;" d="M447.151,126.22c-47.425-27.381-124.056-27.377-171.172,0.003
			c-23.406,13.601-35.122,31.401-35.173,49.228l-0.069,24.349c0.05-17.827,11.768-35.627,35.173-49.228
			c47.117-27.382,123.747-27.385,171.172-0.003c23.862,13.777,35.779,31.861,35.729,49.918l0.069-24.349
			C482.93,158.081,471.012,139.997,447.151,126.22z"/>
		<path style="fill:#6E76E5;" d="M468.363,237.297c-58.447,33.965-153.522,33.966-212.351,0.001
			c-29.606-17.093-44.392-39.531-44.33-61.933l-0.427,66.154c-0.064,22.403,14.723,44.84,44.33,61.933
			c58.83,33.965,153.904,33.964,212.351-0.001c29.039-16.875,43.574-38.959,43.637-61.075L512,176.221
			C511.938,198.338,497.402,220.42,468.363,237.297z"/>
	</g>
	<path style="fill:#57A4FF;" d="M255.315,114.293c58.452-33.969,153.526-33.969,212.36-0.001
		c58.83,33.965,59.14,89.036,0.689,123.004c-58.447,33.965-153.522,33.966-212.351,0.001
		C197.178,203.329,196.868,148.259,255.315,114.293z M447.151,126.22c-47.425-27.381-124.056-27.377-171.172,0.003
		c-47.112,27.378-46.867,71.766,0.558,99.146c47.421,27.378,124.056,27.377,171.168-0.001
		C494.821,197.988,494.572,153.598,447.151,126.22"/>
</g>
<path style="fill:#57A4FF;" d="M237.905,243.664l-105.416,60.932c2.564-1.49,6.096-1.321,10.015,0.863
	c7.969,4.441,14.522,15.529,14.635,24.766c0.057,4.695-1.559,8.007-4.209,9.547l105.416-60.932c2.65-1.54,4.267-4.854,4.21-9.547
	c-0.113-9.237-6.665-20.325-14.635-24.767C244.002,242.343,240.47,242.174,237.905,243.664z"/>
<path style="fill:#1D81CD;" d="M128.281,314.144c0.113,9.237,6.665,20.325,14.635,24.766c7.969,4.441,14.338,0.553,14.225-8.684
	c-0.113-9.237-6.665-20.325-14.635-24.766S128.168,304.907,128.281,314.144z"/>
<path style="fill:#78BAEC;" d="M208.167,255.768c-6.819-3.8-12.964-4.095-17.426-1.502L7.327,360.284
	c0.107-0.062,0.217-0.114,0.326-0.172c-4.801,2.596-7.752,8.428-7.65,16.784c0.197,16.072,11.597,35.365,25.463,43.092
	c6.874,3.831,13.062,4.096,17.532,1.435c-0.036,0.022-0.07,0.047-0.107,0.068l183.414-106.017c4.611-2.679,7.424-8.444,7.325-16.612
	C233.434,282.788,222.034,263.496,208.167,255.768z"/>
<path style="fill:#71B8FF;" d="M190.741,254.267L7.327,360.284c4.462-2.592,10.607-2.298,17.426,1.503
	c13.867,7.727,25.267,27.02,25.463,43.092c0.1,8.168-2.713,13.933-7.324,16.612l183.414-106.017
	c4.611-2.679,7.424-8.444,7.325-16.612c-0.196-16.072-11.597-35.365-25.463-43.093C201.349,251.969,195.203,251.673,190.741,254.267
	z"/>
<path style="fill:#57A4FF;" d="M0.003,376.896C0.2,392.968,11.6,412.261,25.466,419.988s24.947,0.962,24.75-15.109
	c-0.196-16.073-11.597-35.366-25.463-43.092C10.887,354.059-0.194,360.823,0.003,376.896z"/>
<g>
</g>
<g>
</g>
<g>
</g>
<g>
</g>
<g>
</g>
<g>
</g>
<g>
</g>
<g>
</g>
<g>
</g>
<g>
</g>
<g>
</g>
<g>
</g>
<g>
</g>
<g>
</g>
<g>
</g>
</svg>
