<?xml version="1.0" encoding="iso-8859-1"?>
<!-- Generator: Adobe Illustrator 19.0.0, SVG Export Plug-In . SVG Version: 6.00 Build 0)  -->
<svg version="1.1" id="Capa_1" xmlns="http://www.w3.org/2000/svg" xmlns:xlink="http://www.w3.org/1999/xlink" x="0px" y="0px"
	 viewBox="0 0 512 512" style="enable-background:new 0 0 512 512;" xml:space="preserve">
<path style="fill:#FECE00;" d="M511.999,204.824c-0.001,0.526-0.025,1.051-0.037,1.577c0.844-38.773-24.312-77.743-75.446-107.265
	c-100.17-57.833-262.632-57.833-362.161,0.007C22.273,129.41-2.389,169.611,0.275,209.349L0,307.31
	c-0.109,38.171,25.085,76.401,75.527,105.523c100.241,57.874,262.24,57.873,361.831-0.002
	c49.479-28.754,74.245-66.38,74.352-104.062l0.223-75.211c0.072-1.899,0.067-3.798,0.013-5.698L511.999,204.824z"/>
<path style="fill:#FEDA44;" d="M436.468,125.02c100.241,57.874,100.78,151.704,1.18,209.586
	c-99.59,57.876-261.589,57.877-361.831,0.002s-100.77-151.711-1.18-209.586C174.237,67.14,336.227,67.145,436.468,125.02z"/>
<path style="fill:#FECE00;" d="M511.999,204.824l-0.288,103.946c-0.107,37.682-24.873,75.308-74.352,104.062
	c-99.59,57.876-261.589,57.877-361.831,0.002C25.086,383.71-0.107,345.481,0,307.31l0.288-103.946
	c-0.109,38.171,25.085,76.401,75.528,105.523c100.241,57.874,262.24,57.873,361.831-0.002
	C487.126,280.131,511.893,242.506,511.999,204.824z"/>
<g style="enable-background:new    ;">
	<g>
		<path style="fill:#EEBF00;" d="M374.458,181.653l0.169-0.098l0.102-35.991l-16.191-9.348l-23.525,13.671
			c-8.293-3.876-16.951-6.948-26.007-9.195c-9.04-2.258-18.213-3.459-27.468-3.59c-9.29-0.133-18.47,0.814-27.572,2.838
			c-9.102,2.045-17.688,5.401-25.758,10.091c-6.214,3.611-10.758,7.293-13.617,11.036c-2.859,3.743-4.241,7.71-4.131,11.911
			c-0.004-0.173-0.006-0.347-0.006-0.519l-0.102,35.991c-0.001,0.172,0.001,0.346,0.006,0.519c0.076,4.201,1.595,8.707,4.501,13.548
			c0.027,0.046,0.064,0.096,0.092,0.142l-10.623,6.173c-4.85-3.713-9.034-7.608-12.569-11.718c-3.535-4.11-6.437-7.934-8.722-11.504
			c-2.267-3.56-3.883-6.662-4.829-9.277c-0.701-1.938-1.106-3.378-1.208-4.324l0.002-0.813l-50.206,9.603l-0.102,35.991
			c2.874,8.127,7.854,16.235,14.993,24.311c0.22,0.249,0.469,0.484,0.692,0.732l-2.377,1.381l-0.102,35.991l16.191,9.348
			l27.026-15.705c7.82,4.15,16.146,7.599,24.96,10.355c8.814,2.756,17.815,4.486,27.003,5.208
			c9.223,0.722,18.475,0.183,27.825-1.618c9.332-1.811,18.427-5.28,27.284-10.426c7.614-4.425,12.91-8.911,15.922-13.478
			c2.478-3.726,3.722-7.528,3.732-11.403l0.102-35.991c0,0.095-0.022,0.189-0.023,0.284c0.018-0.958-0.02-1.919-0.154-2.887
			c-0.59-4.283-2.522-8.738-5.664-13.355l10.378-6.031c3.774,2.889,7.058,6.001,9.887,9.337c2.811,3.347,5.182,6.499,7.06,9.491
			c1.878,2.97,3.262,5.513,4.135,7.639c0.673,1.639,1.014,2.807,1.078,3.555l-0.002,0.575l48.56-8.667l0.102-35.991
			C382.742,194.048,379.069,188.097,374.458,181.653z"/>
		<polygon style="fill:#EEBF00;" points="374.728,145.564 374.627,181.555 351.102,195.226 351.203,159.235 		"/>
	</g>
	<path style="fill:#FECE00;" d="M268.601,212.13l0.102-35.991c0.007-2.492,1.739-4.75,5.184-6.752
		c8.069-4.69,18.047-4.14,29.934,1.627l-0.102,35.991c-11.886-5.768-21.864-6.316-29.934-1.627
		C270.341,207.379,268.608,209.638,268.601,212.13z"/>
	<path style="fill:#D2EDDA;" d="M176.869,227.557l0.102-35.991c0-0.14,0.01-0.263,0.031-0.37l-0.102,35.991
		C176.881,227.294,176.87,227.418,176.869,227.557z"/>
	<polygon style="fill:#EEBF00;" points="314.586,177.515 314.484,213.505 282.802,231.916 282.905,195.926 	"/>
	<g>
		<path style="fill:#FECE00;" d="M210.351,208.449l0.102-35.991c-0.001,0.172,0.001,0.346,0.006,0.519
			c0.076,4.201,1.595,8.707,4.501,13.549c2.907,4.821,7.029,10.121,12.364,15.898l-0.102,35.991
			c-5.336-5.777-9.457-11.077-12.364-15.898c-2.907-4.842-4.425-9.348-4.501-13.549
			C210.353,208.795,210.351,208.622,210.351,208.449z"/>
		<path style="fill:#FECE00;" d="M336.774,207.804l-0.102,35.991c0.002-0.721-0.355-1.994-1.107-3.822
			c-0.872-2.126-2.257-4.669-4.135-7.639c-1.879-2.991-4.25-6.144-7.06-9.491c-2.829-3.336-6.113-6.449-9.887-9.337l0.102-35.991
			c3.774,2.889,7.058,6.001,9.887,9.337c2.811,3.347,5.182,6.5,7.06,9.491c1.878,2.97,3.262,5.513,4.135,7.639
			C336.419,205.811,336.776,207.083,336.774,207.804z"/>
	</g>
	<polygon style="fill:#EEBF00;" points="385.305,199.445 385.203,235.435 336.643,244.102 336.745,208.112 	"/>
	<g>
		<polygon style="fill:#FECE00;" points="235.328,210.818 235.226,246.808 227.224,238.416 227.326,202.426 		"/>
		<path style="fill:#FECE00;" d="M250.112,232.296l-0.102,35.991c0.002-0.618-0.101-1.254-0.309-1.908
			c-1.037-3.214-3.358-6.927-6.964-11.179l0.102-35.991c3.606,4.252,5.928,7.964,6.964,11.18
			C250.011,231.043,250.114,231.679,250.112,232.296z"/>
	</g>
	<polygon style="fill:#EEBF00;" points="242.839,219.21 242.736,255.2 214.783,271.445 214.885,235.454 	"/>
	<g>
		<path style="fill:#FECE00;" d="M309.947,235.495l-0.102,35.991c-0.01,3.876-1.255,7.677-3.732,11.403l0.102-35.991
			C308.692,243.171,309.936,239.37,309.947,235.495z"/>
		<path style="fill:#FECE00;" d="M167.274,247.366l-0.102,35.991c-9.855-6.765-18.343-14.179-25.483-22.257
			c-7.14-8.076-12.12-16.184-14.993-24.311l0.102-35.991c2.874,8.127,7.854,16.235,14.993,24.311
			C148.931,233.187,157.419,240.601,167.274,247.366z"/>
		<polygon style="fill:#FECE00;" points="156.195,272.562 156.092,308.553 139.901,299.205 140.004,263.214 		"/>
	</g>
	<polygon style="fill:#EEBF00;" points="183.22,256.857 183.118,292.847 156.092,308.553 156.195,272.562 	"/>
	<path style="fill:#FFE577;" d="M306.215,246.898c-3.012,4.567-8.308,9.053-15.922,13.478c-8.857,5.147-17.952,8.615-27.284,10.426
		c-9.35,1.8-18.601,2.34-27.825,1.618c-9.189-0.722-18.19-2.451-27.003-5.208c-8.814-2.756-17.14-6.205-24.96-10.355l-27.026,15.706
		l-16.191-9.348l27.271-15.848c-9.855-6.765-18.343-14.179-25.483-22.256c-7.14-8.076-12.12-16.184-14.993-24.311l50.206-9.603
		c-0.154,0.804,0.26,2.522,1.206,5.137c0.946,2.614,2.561,5.717,4.829,9.277c2.285,3.57,5.187,7.395,8.722,11.504
		s7.719,8.005,12.569,11.718l30.999-18.014l-8.002-8.392c-5.336-5.777-9.457-11.077-12.364-15.898
		c-2.907-4.842-4.425-9.348-4.501-13.549c-0.112-4.201,1.271-8.168,4.129-11.911c2.859-3.743,7.404-7.425,13.618-11.036
		c8.069-4.69,16.655-8.046,25.758-10.091c9.103-2.024,18.282-2.971,27.572-2.838c9.255,0.132,18.429,1.332,27.468,3.59
		c9.056,2.248,17.713,5.32,26.007,9.195l23.525-13.672l16.191,9.348l-23.525,13.672c9.203,6.408,16.512,13.223,21.855,20.446
		c5.309,7.222,9.42,13.814,12.245,19.764l-48.56,8.666c0.137-0.631-0.205-2.004-1.077-4.129c-0.872-2.126-2.257-4.669-4.135-7.639
		c-1.878-2.991-4.249-6.144-7.06-9.491c-2.829-3.336-6.113-6.449-9.887-9.337l-31.682,18.411l5.65,5.412
		c5.793,5.88,10.618,11.402,14.476,16.59c3.84,5.198,6.08,10.183,6.74,14.963C310.43,237.671,309.244,242.34,306.215,246.898z
		 M214.885,235.454c12.505,6.693,22.628,7.771,30.399,3.255c4.044-2.35,5.538-5.117,4.519-8.321
		c-1.037-3.214-3.358-6.927-6.964-11.18L214.885,235.454 M275.166,187.666l28.654-16.652c-11.886-5.768-21.864-6.316-29.934-1.627
		c-3.886,2.258-5.592,4.842-5.102,7.721C269.258,179.997,271.386,183.516,275.166,187.666"/>
	<path style="fill:#FECE00;" d="M306.215,246.898l-0.102,35.991c-3.012,4.567-8.308,9.053-15.922,13.478
		c-8.857,5.147-17.952,8.615-27.284,10.426c-9.35,1.8-18.602,2.34-27.825,1.618c-9.189-0.722-18.19-2.451-27.003-5.208
		c-8.814-2.756-17.14-6.205-24.96-10.355l0.102-35.991c7.82,4.15,16.146,7.599,24.96,10.355c8.814,2.756,17.815,4.486,27.003,5.208
		c9.223,0.722,18.475,0.183,27.825-1.618c9.332-1.811,18.427-5.279,27.284-10.426C297.906,255.951,303.202,251.465,306.215,246.898z
		"/>
</g>
<path style="fill:#FECE00;" d="M448.927,204.579l-0.073,25.719c0.081-28.811-18.892-57.668-56.881-79.6
	c-75.482-43.58-197.927-43.579-272.929,0.007c-37.254,21.649-55.903,50.048-55.983,78.488l0.073-25.719
	c0.08-28.441,18.729-56.839,55.984-78.488c75.001-43.587,197.444-43.587,272.927-0.007
	C430.035,146.912,449.009,175.768,448.927,204.579z"/>
<path style="fill:#FFE577;" d="M436.517,99.135c100.18,57.839,100.71,151.943,1.181,209.783
	c-99.518,57.834-261.98,57.835-362.16-0.004c-100.17-57.833-100.7-151.937-1.182-209.771
	C173.885,41.302,336.347,41.302,436.517,99.135z M120.008,283.07c75.493,43.585,197.935,43.585,272.928,0.004
	c75.002-43.586,74.602-114.511-0.89-158.096c-75.482-43.579-197.926-43.579-272.928,0.007
	C44.126,168.566,44.526,239.49,120.008,283.07"/>
<g>
</g>
<g>
</g>
<g>
</g>
<g>
</g>
<g>
</g>
<g>
</g>
<g>
</g>
<g>
</g>
<g>
</g>
<g>
</g>
<g>
</g>
<g>
</g>
<g>
</g>
<g>
</g>
<g>
</g>
</svg>
