<svg height="512pt" viewBox="-59 0 512 512.0001" width="512pt" xmlns="http://www.w3.org/2000/svg"><path d="m361.6875 34.175781-54.261719-31.445312-.003906.011719c-6.761719-4.050782-15.632813-3.761719-25.359375 1.851562l-5.71875 3.304688c-21.183594 12.226562-38.355469 45.039062-38.355469 73.28125v227.945312c0 16.121094 5.601563 27.257812 14.34375 31.582031l-.003906.007813 53.609375 31.070312c6.8125 4.324219 15.859375 4.132813 25.792969-1.601562l5.71875-3.300782c21.183593-12.230468 38.355469-45.039062 38.355469-73.285156v-227.941406c-.003907-15.984375-5.503907-27.074219-14.117188-31.480469zm0 0" fill="#abb7b7"/><path d="m337.449219 366.882812-5.71875 3.300782c-21.183594 12.230468-38.355469-.753906-38.355469-28.996094v-227.945312c0-28.242188 17.171875-61.050782 38.355469-73.28125l5.71875-3.300782c21.183593-12.230468 38.355469.75 38.355469 28.992188v227.945312c-.003907 28.246094-17.171876 61.054688-38.355469 73.285156zm0 0" fill="#e9e9e9"/><path d="m381.074219 84.402344-22.652344-13.140625v.003906c-6.609375-3.941406-15.273437-3.640625-24.769531 1.839844-20.710938 11.960937-37.503906 44.042969-37.503906 71.660156 0 15.410156 5.230468 26.167969 13.449218 30.597656l22.628906 13.132813.003907-.003906c6.59375 3.890624 15.234375 3.574218 24.691406-1.886719 20.710937-11.957031 37.503906-44.042969 37.503906-71.660157 0-15.347656-5.191406-26.082031-13.351562-30.542968zm0 0" fill="#239d58"/><path d="m394.425781 114.945312c0 27.621094-16.792969 59.703126-37.507812 71.660157-20.710938 11.960937-37.503907-.734375-37.503907-28.351563 0-27.621094 16.792969-59.703125 37.503907-71.660156 20.714843-11.957031 37.507812.734375 37.507812 28.351562zm0 0" fill="#a4c639"/><path d="m242.757812 102.785156-54.261718-31.449218-.003906.011718c-6.761719-4.050781-15.632813-3.761718-25.359376 1.855469l-5.71875 3.300781c-21.183593 12.230469-38.355468 45.039063-38.355468 73.28125v227.949219c0 16.117187 5.601562 27.253906 14.34375 31.582031l-.003906.007813 53.609374 31.070312c6.8125 4.324219 15.859376 4.132813 25.792969-1.601562l5.71875-3.300781c21.179688-12.230469 38.355469-45.039063 38.355469-73.285157v-227.945312c0-15.984375-5.503906-27.074219-14.117188-31.476563zm0 0" fill="#abb7b7"/><path d="m218.519531 435.488281-5.71875 3.304688c-21.183593 12.230469-38.355469-.753907-38.355469-28.996094v-227.949219c0-28.242187 17.171876-61.050781 38.355469-73.28125l5.71875-3.300781c21.179688-12.230469 38.355469.75 38.355469 28.992187v227.949219c0 28.242188-17.175781 61.050781-38.355469 73.28125zm0 0" fill="#e9e9e9"/><path d="m262.144531 279.152344v-.003906l-22.652343-13.136719c-6.609376-3.9375-15.273438-3.636719-24.769532 1.84375-20.710937 11.957031-37.503906 44.042969-37.503906 71.65625 0 15.410156 5.230469 26.171875 13.449219 30.597656l22.632812 13.132813c6.597657 3.890624 15.234375 3.574218 24.691407-1.886719 20.710937-11.960938 37.503906-44.042969 37.503906-71.660157-.003906-15.347656-5.1875-26.082031-13.351563-30.542968zm0 0" fill="#dca700"/><path d="m275.492188 309.695312c0 27.621094-16.789063 59.703126-37.503907 71.660157-20.710937 11.960937-37.503906-.734375-37.503906-28.351563 0-27.617187 16.792969-59.703125 37.503906-71.660156 20.714844-11.960938 37.503907.734375 37.503907 28.351562zm0 0" fill="#ffd800"/><path d="m123.699219 171.390625-54.261719-31.449219-.003906.011719c-6.761719-4.046875-15.632813-3.761719-25.359375 1.851563l-5.71875 3.304687c-21.183594 12.230469-38.355469 45.039063-38.355469 73.28125v227.945313c0 16.121093 5.597656 27.257812 14.339844 31.585937v.003906l53.609375 31.074219c6.808593 4.324219 15.859375 4.128906 25.789062-1.601562l5.722657-3.304688c21.179687-12.226562 38.351562-45.039062 38.351562-73.28125v-227.945312c0-15.984376-5.5-27.074219-14.113281-31.476563zm0 0" fill="#abb7b7"/><path d="m99.460938 504.09375-5.722657 3.304688c-21.179687 12.226562-38.351562-.753907-38.351562-28.996094v-227.945313c0-28.246093 17.171875-61.054687 38.351562-73.285156l5.722657-3.300781c21.179687-12.230469 38.351562.75 38.351562 28.996094v227.945312c0 28.242188-17.171875 61.050781-38.351562 73.28125zm0 0" fill="#e9e9e9"/><path d="m143.085938 235.296875v-.003906l-22.652344-13.136719-.003906.003906c-6.605469-3.941406-15.273438-3.640625-24.765626 1.839844-20.714843 11.957031-37.503906 44.042969-37.503906 71.660156 0 15.410156 5.226563 26.167969 13.449219 30.597656l22.628906 13.132813v-.003906c6.597657 3.894531 15.234375 3.574219 24.691407-1.886719 20.714843-11.957031 37.507812-44.042969 37.507812-71.660156-.003906-15.347656-5.191406-26.082032-13.351562-30.542969zm0 0" fill="#b5292a"/><path d="m156.433594 265.839844c0 27.617187-16.789063 59.699218-37.503906 71.660156-20.714844 11.957031-37.503907-.734375-37.503907-28.351562 0-27.621094 16.789063-59.703126 37.503907-71.660157 20.714843-11.960937 37.503906.734375 37.503906 28.351563zm0 0" fill="#e84c3d"/></svg>