<?xml version="1.0" encoding="iso-8859-1"?>
<!-- Generator: Adobe Illustrator 19.0.0, SVG Export Plug-In . SVG Version: 6.00 Build 0)  -->
<svg version="1.1" id="Capa_1" xmlns="http://www.w3.org/2000/svg" xmlns:xlink="http://www.w3.org/1999/xlink" x="0px" y="0px"
	 viewBox="0 0 512 512" style="enable-background:new 0 0 512 512;" xml:space="preserve">
<polygon style="fill:#C60024;" points="488.911,132.3 260.486,0 23.253,137.865 23.089,195.789 27.833,198.512 27.833,384.758 
	251.679,512 484.73,374.135 484.73,192.582 488.747,190.224 "/>
<polygon style="fill:#820018;" points="251.678,317.194 484.73,179.329 484.73,374.135 251.678,512 "/>
<g>
	<polygon style="fill:#A50020;" points="27.833,189.952 270.173,52.088 484.73,179.329 251.678,317.194 	"/>
	<polygon style="fill:#A50020;" points="251.678,317.194 251.678,512 27.833,384.758 27.833,189.952 	"/>
	<polygon style="fill:#A50020;" points="251.678,270.164 488.911,132.3 488.747,190.224 251.678,328.089 	"/>
</g>
<polygon style="fill:#FE0B37;" points="23.253,137.865 260.486,0 488.911,132.3 251.678,270.164 "/>
<polygon style="fill:#C60024;" points="251.678,270.164 251.678,328.089 23.089,195.789 23.253,137.865 "/>
<polygon style="fill:#FED322;" points="390.846,189.281 296.61,134.458 399.304,74.778 358.801,51.394 256.107,111.073 
	159.883,55.518 120.844,78.205 217.067,133.76 116.983,191.923 116.76,191.793 116.76,436.016 157.419,459.521 157.419,215.298 
	157.473,215.315 257.571,157.145 351.806,211.968 351.814,211.972 351.8,211.981 351.8,453.909 390.846,430.708 390.846,189.292 
	390.838,189.296 "/>
<g style="enable-background:new    ;">
	<polygon style="fill:#EEBF00;" points="157.419,215.298 116.76,191.793 116.76,436.016 157.419,459.521 	"/>
</g>
<g style="enable-background:new    ;">
	<g>
		<polygon style="fill:#FECE00;" points="351.8,211.981 390.846,189.292 390.846,430.708 351.8,453.909 		"/>
		<path style="fill:#FECE00;" d="M257.571,157.145l-40.504-23.384l-100.098,58.171l40.504,23.384L257.571,157.145 M399.304,74.778
			L358.8,51.394l-102.694,59.68l40.504,23.384L399.304,74.778"/>
	</g>
	<polygon style="fill:#FED322;" points="390.846,189.281 296.61,134.458 256.107,111.073 159.883,55.518 120.843,78.205 
		217.067,133.76 257.571,157.145 351.806,211.968 	"/>
</g>
<path style="fill:#FECE00;" d="M318.235,86.579c-13.698-7.909-26.13-8.631-35.112-3.41l-7.914,4.599
	c-8.76-20.7-24.009-39.892-41.372-49.916c-7.844-4.529-14.963-4.943-20.107-1.954l-35.612,20.695
	c0.017-0.009,0.033-0.017,0.05-0.026c-5.106,2.939-8.28,9.216-8.306,18.142c-0.051,17.912,12.589,39.806,28.177,48.805
	l35.032,20.226l49.368,28.502c7.883,4.55,15.029,4.941,20.178,1.904c-0.025,0.015-0.046,0.036-0.071,0.049l35.612-20.695
	c5.077-2.951,8.231-9.218,8.256-18.116C346.462,117.472,333.822,95.579,318.235,86.579z"/>
<g>
	<path style="fill:#FED322;" d="M188.269,74.06l35.612-20.695c-2.503,1.454-4.055,4.542-4.068,8.926
		c-0.025,8.826,6.203,19.615,13.884,24.049l-35.612,20.695c-7.681-4.434-13.909-15.223-13.884-24.049
		C184.214,78.602,185.768,75.515,188.269,74.06z"/>
	<polygon style="fill:#FED322;" points="198.086,107.037 233.697,86.341 267.991,106.14 232.379,126.835 	"/>
</g>
<path style="fill:#FFDE56;" d="M178.117,56.592l35.612-20.695c5.144-2.989,12.262-2.576,20.107,1.954
	c17.856,10.309,33.497,30.308,42.122,51.677l-35.612,20.695c-8.626-21.369-24.266-41.367-42.122-51.677
	C190.38,54.017,183.261,53.604,178.117,56.592z"/>
<g>
	<path style="fill:#FED322;" d="M257.66,121.329l35.612-20.695c-4.681,2.72-8.041,7.715-9.468,14.637l-35.612,20.695
		C249.618,129.044,252.979,124.05,257.66,121.329z"/>
	<polygon style="fill:#FED322;" points="248.192,135.965 283.804,115.27 318.097,135.069 282.485,155.764 	"/>
	<path style="fill:#FED322;" d="M328.004,136.032l-35.612,20.695c-2.535,1.473-6.043,1.268-9.908-0.962l35.612-20.695
		C321.962,137.301,325.47,137.505,328.004,136.032z"/>
</g>
<path style="fill:#FFDE56;" d="M247.51,103.862l35.612-20.695c8.983-5.22,21.414-4.498,35.113,3.41l-35.612,20.695
	C268.924,99.365,256.493,98.643,247.51,103.862z"/>
<path style="fill:#FEDA44;" d="M282.623,107.274c15.588,9,28.229,30.893,28.177,48.805c-0.051,17.912-12.774,25.162-28.361,16.162
	l-49.368-28.502l-35.032-20.226c-15.589-9-28.229-30.893-28.177-48.805s12.774-25.162,28.361-16.162
	c17.856,10.309,33.497,30.308,42.122,51.677C249.064,98.867,264.767,96.964,282.623,107.274z M282.485,155.764
	c7.681,4.434,13.95,0.862,13.975-7.964s-6.203-19.615-13.884-24.049c-16.859-9.733-31.015-4.131-34.383,12.215L282.485,155.764
	 M198.086,107.037l34.293,19.798c-3.264-20.171-17.343-42.078-34.202-51.812c-7.681-4.434-13.95-0.862-13.975,7.964
	C184.176,91.814,190.405,102.601,198.086,107.037"/>
<path style="fill:#FFDE56;" d="M338.157,153.5l-35.612,20.695c5.077-2.951,8.231-9.218,8.256-18.116
	c0.051-17.912-12.59-39.806-28.177-48.805l35.612-20.695c15.588,9,28.229,30.893,28.177,48.805
	C346.387,144.283,343.234,150.55,338.157,153.5z"/>
<g>
</g>
<g>
</g>
<g>
</g>
<g>
</g>
<g>
</g>
<g>
</g>
<g>
</g>
<g>
</g>
<g>
</g>
<g>
</g>
<g>
</g>
<g>
</g>
<g>
</g>
<g>
</g>
<g>
</g>
</svg>
