<svg height="512pt" viewBox="-51 0 512 512.00104" width="512pt" xmlns="http://www.w3.org/2000/svg"><path d="m400.160156 142.707031.003906-.003906-30.027343-17.351563c.707031-2.707031 1.777343-5.519531 3.257812-8.347656 10.140625-19.371094 10.140625-41.289062 0-48.957031l-23.007812-17.394531c-.667969-.5-85.359375-49.386719-85.359375-49.386719v.007813c-10.089844-4.828126-24.734375 4.398437-34.160156 22.035156l-33.679688-19.453125v.003906c-4.628906-3.023437-10.808594-2.9375-17.601562.984375l-32.539063 18.789062c-14.339844 8.277344-25.964844 30.488282-25.964844 49.605469 0 17.414063-15.789062 35.253907-25.027343 28.273438-10.136719-7.667969-26.578126 1.824219-36.714844 21.195312l-23.007813 43.964844c-10.140625 19.371094-10.140625 41.289063 0 48.953125 9.234375 6.984375 2.695313 31.816406-10.367187 39.355469h-.003906c-14.335938 8.28125-25.960938 30.488281-25.960938 49.609375v43.386718c0 10.445313 3.476562 17.796876 8.964844 20.976563l-.003906.003906 30.625 17.691407c-.710938 2.703124-1.777344 5.515624-3.253907 8.335937v.003906c-10.140625 19.371094-10.140625 41.289063 0 48.953125l107.761719 66.472656.003906-.003906c10.097656 5.5 25.136719-3.734375 34.753906-21.71875l34.5625 19.972656v-.011718c4.515626 2.472656 10.351563 2.171875 16.722657-1.507813l32.539062-18.785156c14.339844-8.277344 25.964844-30.488281 25.964844-49.605469 0-17.417968 15.789063-35.253906 25.027344-28.273437 10.136719 7.667969 26.574219-1.824219 36.714843-21.199219l23.007813-43.960938c10.140625-19.371093 10.140625-41.289062 0-48.957031-9.234375-6.980469-2.695313-31.8125 10.367187-39.351562 14.339844-8.28125 25.964844-30.488281 25.964844-49.609375v-43.386719c0-10.824219-3.726562-18.332031-9.5625-21.308594zm0 0" fill="#abb7b7"/><path d="m383.761719 144.390625c-13.0625 7.539063-19.605469-9.738281-10.371094-27.386719h.003906c10.136719-19.371094 10.136719-41.289062 0-48.953125l-23.011719-17.394531c-10.136718-7.667969-26.574218 1.824219-36.714843 21.195312v.003907c-9.238281 17.644531-25.027344 18.042969-25.027344.625 0-19.117188-11.625-27.90625-25.960937-19.628907l-32.542969 18.789063c-14.335938 8.277344-25.960938 30.488281-25.960938 49.605469 0 17.417968-15.789062 35.253906-25.027343 28.273437-10.140626-7.664062-26.578126 1.824219-36.71875 21.199219l-23.007813 43.960938c-10.136719 19.371093-10.136719 41.289062 0 48.957031 9.238281 6.980469 2.695313 31.8125-10.367187 39.351562-14.339844 8.28125-25.960938 30.488281-25.960938 49.609375v43.386719c0 19.117187 11.621094 27.90625 25.960938 19.625 13.0625-7.539063 19.601562 9.738281 10.367187 27.386719-10.136719 19.371094-10.136719 41.289062 0 48.953125l23.007813 17.394531c10.140624 7.667969 26.578124-1.824219 36.71875-21.195312v-.003907c9.238281-17.644531 25.027343-18.039062 25.027343-.625 0 19.117188 11.625 27.90625 25.960938 19.628907l32.542969-18.789063c14.335937-8.277344 25.960937-30.488281 25.960937-49.605469 0-17.414062 15.792969-35.253906 25.027344-28.273437 10.140625 7.667969 26.578125-1.824219 36.714843-21.195313l23.011719-43.964844c10.136719-19.371093 10.136719-41.289062 0-48.953124-9.238281-6.984376-2.695312-31.816407 10.367188-39.355469 14.339843-8.277344 25.960937-30.488281 25.960937-49.605469v-43.386719c0-19.121093-11.625-27.910156-25.960937-19.628906zm0 0" fill="#e9e9e9"/><path d="m339.289062 226.375c0 68.394531-41.585937 147.847656-92.878906 177.464844-51.296875 29.617187-92.882812-1.820313-92.882812-70.214844 0-68.398438 41.585937-147.851562 92.882812-177.464844 51.292969-29.617187 92.878906 1.820313 92.878906 70.214844zm0 0" fill="#abb7b7"/><path d="m305.210938 246.050781c0 43.300781-26.328126 93.601563-58.800782 112.351563-32.476562 18.746094-58.800781-1.152344-58.800781-44.453125s26.324219-93.601563 58.800781-112.351563c32.472656-18.75 58.800782 1.152344 58.800782 44.453125zm0 0" fill="#e9e9e9"/></svg>